  0
SECTION
  2
HEADER
  9
$ANGBASE
  50
0.0
  9
$ANGDIR
  70
  1
  9
$MEASUREMENT
  70
0
  0
ENDSEC
  0
SECTION
  2
TABLES
  0
TABLE
  2
LTYPE
  70
1
  0
LTYPE
  2
CONTINUOUS
  70
0
  3
Solid line
  72
65
  73
0
  40
0.0
  0
ENDTAB
  0
TABLE
  2
STYLE
  70
4
  0
STYLE
  2
KICAD
  70
0
  40
0
  41
1
  42
1
  50
0
  71
0
  3
isocp.shx
  0
STYLE
  2
KICADB
  70
0
  40
0
  41
1
  42
1
  50
0
  71
0
  3
isocp.shx
  0
STYLE
  2
KICADI
  70
0
  40
0
  41
1
  42
1
  50
15
  71
0
  3
isocp.shx
  0
STYLE
  2
KICADBI
  70
0
  40
0
  41
1
  42
1
  50
15
  71
0
  3
isocp.shx
  0
ENDTAB
  0
TABLE
  2
LAYER
  70
30
  0
LAYER
  2
BLACK
  70
0
  62
7
  6
CONTINUOUS
  0
LAYER
  2
GRAY1
  70
0
  62
251
  6
CONTINUOUS
  0
LAYER
  2
GRAY2
  70
0
  62
8
  6
CONTINUOUS
  0
LAYER
  2
GRAY3
  70
0
  62
9
  6
CONTINUOUS
  0
LAYER
  2
WHITE
  70
0
  62
7
  6
CONTINUOUS
  0
LAYER
  2
LYELLOW
  70
0
  62
51
  6
CONTINUOUS
  0
LAYER
  2
BLUE1
  70
0
  62
178
  6
CONTINUOUS
  0
LAYER
  2
GREEN1
  70
0
  62
98
  6
CONTINUOUS
  0
LAYER
  2
CYAN1
  70
0
  62
138
  6
CONTINUOUS
  0
LAYER
  2
RED1
  70
0
  62
18
  6
CONTINUOUS
  0
LAYER
  2
MAGENTA1
  70
0
  62
228
  6
CONTINUOUS
  0
LAYER
  2
BROWN1
  70
0
  62
58
  6
CONTINUOUS
  0
LAYER
  2
BLUE2
  70
0
  62
5
  6
CONTINUOUS
  0
LAYER
  2
GREEN2
  70
0
  62
3
  6
CONTINUOUS
  0
LAYER
  2
CYAN2
  70
0
  62
4
  6
CONTINUOUS
  0
LAYER
  2
RED2
  70
0
  62
1
  6
CONTINUOUS
  0
LAYER
  2
MAGENTA2
  70
0
  62
6
  6
CONTINUOUS
  0
LAYER
  2
BROWN2
  70
0
  62
54
  6
CONTINUOUS
  0
LAYER
  2
BLUE3
  70
0
  62
171
  6
CONTINUOUS
  0
LAYER
  2
GREEN3
  70
0
  62
91
  6
CONTINUOUS
  0
LAYER
  2
CYAN3
  70
0
  62
131
  6
CONTINUOUS
  0
LAYER
  2
RED3
  70
0
  62
11
  6
CONTINUOUS
  0
LAYER
  2
MAGENTA3
  70
0
  62
221
  6
CONTINUOUS
  0
LAYER
  2
YELLOW3
  70
0
  62
2
  6
CONTINUOUS
  0
LAYER
  2
BLUE4
  70
0
  62
5
  6
CONTINUOUS
  0
LAYER
  2
GREEN4
  70
0
  62
3
  6
CONTINUOUS
  0
LAYER
  2
CYAN4
  70
0
  62
4
  6
CONTINUOUS
  0
LAYER
  2
RED4
  70
0
  62
1
  6
CONTINUOUS
  0
LAYER
  2
MAGENTA4
  70
0
  62
6
  6
CONTINUOUS
  0
LAYER
  2
YELLOW4
  70
0
  62
2
  6
CONTINUOUS
  0
ENDTAB
  0
ENDSEC
  0
SECTION
  2
ENTITIES
0
LINE
8
Black
10
178.404
20
-43.2987
11
178.409
21
-43.2987
0
LINE
8
Black
10
178.409
20
-43.2987
11
180.119
21
-43.6002
0
LINE
8
Black
10
180.119
20
-43.6002
11
180.119
21
-43.6002
0
LINE
8
Black
10
180.119
20
-43.6002
11
180.128
21
-43.6036
0
LINE
8
Black
10
180.128
20
-43.6036
11
180.135
21
-43.6062
0
LINE
8
Black
10
180.135
20
-43.6062
11
180.135
21
-43.6062
0
LINE
8
Black
10
180.135
20
-43.6062
11
181.639
21
-44.4744
0
LINE
8
Black
10
181.639
20
-44.4744
11
181.639
21
-44.4744
0
LINE
8
Black
10
181.639
20
-44.4744
11
181.646
21
-44.4805
0
LINE
8
Black
10
181.646
20
-44.4805
11
181.652
21
-44.4856
0
LINE
8
Black
10
181.652
20
-44.4856
11
181.652
21
-44.4856
0
LINE
8
Black
10
181.652
20
-44.4856
11
182.768
21
-45.8158
0
LINE
8
Black
10
182.768
20
-45.8158
11
182.768
21
-45.8158
0
LINE
8
Black
10
182.768
20
-45.8158
11
182.777
21
-45.8308
0
LINE
8
Black
10
182.777
20
-45.8308
11
183.371
21
-47.4626
0
LINE
8
Black
10
183.371
20
-47.4626
11
183.372
21
-47.469
0
LINE
8
Black
10
183.372
20
-47.469
11
183.374
21
-47.4753
0
LINE
8
Black
10
183.374
20
-47.4753
11
183.445
21
-48.29
0
LINE
8
Black
10
183.445
20
-48.29
11
183.446
21
-48.2923
0
LINE
8
Black
10
183.446
20
-48.2923
11
183.451
21
-48.318
0
LINE
8
Black
10
183.451
20
-48.318
11
183.451
21
-52.418
0
LINE
8
Black
10
183.451
20
-52.418
11
183.45
21
-52.4237
0
LINE
8
Black
10
183.45
20
-52.4237
11
183.45
21
-137.412
0
LINE
8
Black
10
183.45
20
-137.412
11
183.449
21
-137.416
0
LINE
8
Black
10
183.449
20
-137.416
11
183.449
21
-137.421
0
LINE
8
Black
10
183.449
20
-137.421
11
183.148
21
-139.131
0
LINE
8
Black
10
183.148
20
-139.131
11
183.148
21
-139.131
0
LINE
8
Black
10
183.148
20
-139.131
11
183.145
21
-139.139
0
LINE
8
Black
10
183.145
20
-139.139
11
183.142
21
-139.147
0
LINE
8
Black
10
183.142
20
-139.147
11
183.142
21
-139.147
0
LINE
8
Black
10
183.142
20
-139.147
11
182.274
21
-140.651
0
LINE
8
Black
10
182.274
20
-140.651
11
182.274
21
-140.651
0
LINE
8
Black
10
182.274
20
-140.651
11
182.262
21
-140.664
0
LINE
8
Black
10
182.262
20
-140.664
11
180.932
21
-141.78
0
LINE
8
Black
10
180.932
20
-141.78
11
180.932
21
-141.78
0
LINE
8
Black
10
180.932
20
-141.78
11
180.917
21
-141.789
0
LINE
8
Black
10
180.917
20
-141.789
11
179.285
21
-142.383
0
LINE
8
Black
10
179.285
20
-142.383
11
179.279
21
-142.384
0
LINE
8
Black
10
179.279
20
-142.384
11
179.273
21
-142.386
0
LINE
8
Black
10
179.273
20
-142.386
11
178.404
21
-142.462
0
LINE
8
Black
10
178.404
20
-142.462
11
178.402
21
-142.462
0
LINE
8
Black
10
178.402
20
-142.462
11
178.4
21
-142.462
0
LINE
8
Black
10
178.4
20
-142.462
11
139.4
21
-142.462
0
LINE
8
Black
10
139.4
20
-142.462
11
139.396
21
-142.461
0
LINE
8
Black
10
139.396
20
-142.461
11
139.391
21
-142.461
0
LINE
8
Black
10
139.391
20
-142.461
11
137.681
21
-142.16
0
LINE
8
Black
10
137.681
20
-142.16
11
137.681
21
-142.16
0
LINE
8
Black
10
137.681
20
-142.16
11
137.673
21
-142.157
0
LINE
8
Black
10
137.673
20
-142.157
11
137.665
21
-142.154
0
LINE
8
Black
10
137.665
20
-142.154
11
137.665
21
-142.154
0
LINE
8
Black
10
137.665
20
-142.154
11
136.161
21
-141.285
0
LINE
8
Black
10
136.161
20
-141.285
11
136.161
21
-141.285
0
LINE
8
Black
10
136.161
20
-141.285
11
136.148
21
-141.274
0
LINE
8
Black
10
136.148
20
-141.274
11
135.032
21
-139.944
0
LINE
8
Black
10
135.032
20
-139.944
11
135.032
21
-139.944
0
LINE
8
Black
10
135.032
20
-139.944
11
135.023
21
-139.929
0
LINE
8
Black
10
135.023
20
-139.929
11
134.429
21
-138.297
0
LINE
8
Black
10
134.429
20
-138.297
11
134.428
21
-138.291
0
LINE
8
Black
10
134.428
20
-138.291
11
134.426
21
-138.285
0
LINE
8
Black
10
134.426
20
-138.285
11
134.35
21
-137.416
0
LINE
8
Black
10
134.35
20
-137.416
11
134.35
21
-137.414
0
LINE
8
Black
10
134.35
20
-137.414
11
134.35
21
-137.412
0
LINE
8
Black
10
134.35
20
-137.412
11
134.35
21
-52.4119
0
LINE
8
Black
10
134.35
20
-52.4119
11
134.35
21
-52.4107
0
LINE
8
Black
10
134.35
20
-52.4107
11
134.342
21
-52.3957
0
LINE
8
Black
10
134.342
20
-52.3957
11
134.337
21
-52.37
0
LINE
8
Black
10
134.337
20
-52.37
11
134.337
21
-48.306
0
LINE
8
Black
10
134.337
20
-48.306
11
134.342
21
-48.2803
0
LINE
8
Black
10
134.342
20
-48.2803
11
134.355
21
-48.2578
0
LINE
8
Black
10
134.355
20
-48.2578
11
134.367
21
-48.2474
0
LINE
8
Black
10
134.367
20
-48.2474
11
134.652
21
-46.6291
0
LINE
8
Black
10
134.652
20
-46.6291
11
134.652
21
-46.6291
0
LINE
8
Black
10
134.652
20
-46.6291
11
134.656
21
-46.6197
0
LINE
8
Black
10
134.656
20
-46.6197
11
134.658
21
-46.6128
0
LINE
8
Black
10
134.658
20
-46.6128
11
134.658
21
-46.6128
0
LINE
8
Black
10
134.658
20
-46.6128
11
135.526
21
-45.109
0
LINE
8
Black
10
135.526
20
-45.109
11
135.526
21
-45.109
0
LINE
8
Black
10
135.526
20
-45.109
11
135.533
21
-45.1017
0
LINE
8
Black
10
135.533
20
-45.1017
11
135.538
21
-45.0957
0
LINE
8
Black
10
135.538
20
-45.0957
11
135.538
21
-45.0957
0
LINE
8
Black
10
135.538
20
-45.0957
11
136.868
21
-43.9795
0
LINE
8
Black
10
136.868
20
-43.9795
11
136.868
21
-43.9795
0
LINE
8
Black
10
136.868
20
-43.9795
11
136.883
21
-43.9708
0
LINE
8
Black
10
136.883
20
-43.9708
11
138.515
21
-43.3769
0
LINE
8
Black
10
138.515
20
-43.3769
11
138.521
21
-43.3758
0
LINE
8
Black
10
138.521
20
-43.3758
11
138.527
21
-43.3741
0
LINE
8
Black
10
138.527
20
-43.3741
11
139.396
21
-43.2981
0
LINE
8
Black
10
139.396
20
-43.2981
11
139.398
21
-43.2983
0
LINE
8
Black
10
139.398
20
-43.2983
11
139.4
21
-43.2979
0
LINE
8
Black
10
139.4
20
-43.2979
11
178.4
21
-43.2979
0
LINE
8
Black
10
178.4
20
-43.2979
11
178.404
21
-43.2987
0
LINE
8
Black
10
139.402
20
-43.3979
11
138.543
21
-43.4731
0
LINE
8
Black
10
138.543
20
-43.4731
11
136.925
21
-44.0618
0
LINE
8
Black
10
136.925
20
-44.0618
11
135.609
21
-45.1666
0
LINE
8
Black
10
135.609
20
-45.1666
11
134.749
21
-46.6552
0
LINE
8
Black
10
134.749
20
-46.6552
11
134.467
21
-48.2558
0
LINE
8
Black
10
134.467
20
-48.2558
11
134.469
21
-48.2578
0
LINE
8
Black
10
134.469
20
-48.2578
11
134.482
21
-48.2803
0
LINE
8
Black
10
134.482
20
-48.2803
11
134.487
21
-48.306
0
LINE
8
Black
10
134.487
20
-48.306
11
134.487
21
-52.37
0
LINE
8
Black
10
134.487
20
-52.37
11
134.482
21
-52.3957
0
LINE
8
Black
10
134.482
20
-52.3957
11
134.469
21
-52.4182
0
LINE
8
Black
10
134.469
20
-52.4182
11
134.45
21
-52.4345
0
LINE
8
Black
10
134.45
20
-52.4345
11
134.45
21
-137.41
0
LINE
8
Black
10
134.45
20
-137.41
11
134.525
21
-138.269
0
LINE
8
Black
10
134.525
20
-138.269
11
135.114
21
-139.887
0
LINE
8
Black
10
135.114
20
-139.887
11
136.219
21
-141.203
0
LINE
8
Black
10
136.219
20
-141.203
11
137.707
21
-142.063
0
LINE
8
Black
10
137.707
20
-142.063
11
139.404
21
-142.362
0
LINE
8
Black
10
139.404
20
-142.362
11
178.398
21
-142.362
0
LINE
8
Black
10
178.398
20
-142.362
11
179.257
21
-142.287
0
LINE
8
Black
10
179.257
20
-142.287
11
180.875
21
-141.698
0
LINE
8
Black
10
180.875
20
-141.698
11
182.191
21
-140.593
0
LINE
8
Black
10
182.191
20
-140.593
11
183.051
21
-139.105
0
LINE
8
Black
10
183.051
20
-139.105
11
183.35
21
-137.408
0
LINE
8
Black
10
183.35
20
-137.408
11
183.35
21
-52.4871
0
LINE
8
Black
10
183.35
20
-52.4871
11
183.338
21
-52.483
0
LINE
8
Black
10
183.338
20
-52.483
11
183.319
21
-52.4662
0
LINE
8
Black
10
183.319
20
-52.4662
11
183.306
21
-52.4437
0
LINE
8
Black
10
183.306
20
-52.4437
11
183.301
21
-52.418
0
LINE
8
Black
10
183.301
20
-52.418
11
183.301
21
-48.318
0
LINE
8
Black
10
183.301
20
-48.318
11
183.306
21
-48.2923
0
LINE
8
Black
10
183.306
20
-48.2923
11
183.319
21
-48.2698
0
LINE
8
Black
10
183.319
20
-48.2698
11
183.338
21
-48.253
0
LINE
8
Black
10
183.338
20
-48.253
11
183.341
21
-48.252
0
LINE
8
Black
10
183.341
20
-48.252
11
183.275
21
-47.4906
0
LINE
8
Black
10
183.275
20
-47.4906
11
182.686
21
-45.8733
0
LINE
8
Black
10
182.686
20
-45.8733
11
181.581
21
-44.5566
0
LINE
8
Black
10
181.581
20
-44.5566
11
180.093
21
-43.6972
0
LINE
8
Black
10
180.093
20
-43.6972
11
178.396
21
-43.3979
0
LINE
8
Black
10
178.396
20
-43.3979
11
139.402
21
-43.3979
0
LINE
8
Black
10
180.664
20
-139.473
11
180.225
21
-139.841
0
LINE
8
Black
10
180.225
20
-139.841
11
179.687
21
-140.037
0
LINE
8
Black
10
179.687
20
-140.037
11
179.113
21
-140.037
0
LINE
8
Black
10
179.113
20
-140.037
11
178.575
21
-139.841
0
LINE
8
Black
10
178.575
20
-139.841
11
178.136
21
-139.473
0
LINE
8
Black
10
178.136
20
-139.473
11
177.85
21
-138.976
0
LINE
8
Black
10
177.85
20
-138.976
11
177.75
21
-138.412
0
LINE
8
Black
10
177.75
20
-138.412
11
177.85
21
-137.848
0
LINE
8
Black
10
177.85
20
-137.848
11
178.136
21
-137.351
0
LINE
8
Black
10
178.136
20
-137.351
11
178.575
21
-136.983
0
LINE
8
Black
10
178.575
20
-136.983
11
179.113
21
-136.787
0
LINE
8
Black
10
179.113
20
-136.787
11
179.687
21
-136.787
0
LINE
8
Black
10
179.687
20
-136.787
11
180.225
21
-136.983
0
LINE
8
Black
10
180.225
20
-136.983
11
180.664
21
-137.351
0
LINE
8
Black
10
180.664
20
-137.351
11
180.95
21
-137.848
0
LINE
8
Black
10
180.95
20
-137.848
11
181.05
21
-138.412
0
LINE
8
Black
10
181.05
20
-138.412
11
180.95
21
-138.976
0
LINE
8
Black
10
180.95
20
-138.976
11
180.664
21
-139.473
0
LINE
8
Black
10
180.587
20
-137.416
11
180.175
21
-137.07
0
LINE
8
Black
10
180.175
20
-137.07
11
179.669
21
-136.885
0
LINE
8
Black
10
179.669
20
-136.885
11
179.131
21
-136.885
0
LINE
8
Black
10
179.131
20
-136.885
11
178.625
21
-137.07
0
LINE
8
Black
10
178.625
20
-137.07
11
178.213
21
-137.416
0
LINE
8
Black
10
178.213
20
-137.416
11
177.943
21
-137.882
0
LINE
8
Black
10
177.943
20
-137.882
11
177.85
21
-138.412
0
LINE
8
Black
10
177.85
20
-138.412
11
177.943
21
-138.942
0
LINE
8
Black
10
177.943
20
-138.942
11
178.213
21
-139.408
0
LINE
8
Black
10
178.213
20
-139.408
11
178.625
21
-139.754
0
LINE
8
Black
10
178.625
20
-139.754
11
179.131
21
-139.938
0
LINE
8
Black
10
179.131
20
-139.938
11
179.669
21
-139.938
0
LINE
8
Black
10
179.669
20
-139.938
11
180.175
21
-139.754
0
LINE
8
Black
10
180.175
20
-139.754
11
180.587
21
-139.408
0
LINE
8
Black
10
180.587
20
-139.408
11
180.857
21
-138.942
0
LINE
8
Black
10
180.857
20
-138.942
11
180.95
21
-138.412
0
LINE
8
Black
10
180.95
20
-138.412
11
180.857
21
-137.882
0
LINE
8
Black
10
180.857
20
-137.882
11
180.587
21
-137.416
0
LINE
8
Black
10
139.664
20
-139.473
11
139.225
21
-139.841
0
LINE
8
Black
10
139.225
20
-139.841
11
138.687
21
-140.037
0
LINE
8
Black
10
138.687
20
-140.037
11
138.113
21
-140.037
0
LINE
8
Black
10
138.113
20
-140.037
11
137.575
21
-139.841
0
LINE
8
Black
10
137.575
20
-139.841
11
137.136
21
-139.473
0
LINE
8
Black
10
137.136
20
-139.473
11
136.85
21
-138.976
0
LINE
8
Black
10
136.85
20
-138.976
11
136.75
21
-138.412
0
LINE
8
Black
10
136.75
20
-138.412
11
136.85
21
-137.848
0
LINE
8
Black
10
136.85
20
-137.848
11
137.136
21
-137.351
0
LINE
8
Black
10
137.136
20
-137.351
11
137.575
21
-136.983
0
LINE
8
Black
10
137.575
20
-136.983
11
138.113
21
-136.787
0
LINE
8
Black
10
138.113
20
-136.787
11
138.687
21
-136.787
0
LINE
8
Black
10
138.687
20
-136.787
11
139.225
21
-136.983
0
LINE
8
Black
10
139.225
20
-136.983
11
139.664
21
-137.351
0
LINE
8
Black
10
139.664
20
-137.351
11
139.95
21
-137.848
0
LINE
8
Black
10
139.95
20
-137.848
11
140.05
21
-138.412
0
LINE
8
Black
10
140.05
20
-138.412
11
139.95
21
-138.976
0
LINE
8
Black
10
139.95
20
-138.976
11
139.664
21
-139.473
0
LINE
8
Black
10
139.587
20
-137.416
11
139.175
21
-137.07
0
LINE
8
Black
10
139.175
20
-137.07
11
138.669
21
-136.885
0
LINE
8
Black
10
138.669
20
-136.885
11
138.131
21
-136.885
0
LINE
8
Black
10
138.131
20
-136.885
11
137.625
21
-137.07
0
LINE
8
Black
10
137.625
20
-137.07
11
137.213
21
-137.416
0
LINE
8
Black
10
137.213
20
-137.416
11
136.943
21
-137.882
0
LINE
8
Black
10
136.943
20
-137.882
11
136.85
21
-138.412
0
LINE
8
Black
10
136.85
20
-138.412
11
136.943
21
-138.942
0
LINE
8
Black
10
136.943
20
-138.942
11
137.213
21
-139.408
0
LINE
8
Black
10
137.213
20
-139.408
11
137.625
21
-139.754
0
LINE
8
Black
10
137.625
20
-139.754
11
138.131
21
-139.938
0
LINE
8
Black
10
138.131
20
-139.938
11
138.669
21
-139.938
0
LINE
8
Black
10
138.669
20
-139.938
11
139.175
21
-139.754
0
LINE
8
Black
10
139.175
20
-139.754
11
139.587
21
-139.408
0
LINE
8
Black
10
139.587
20
-139.408
11
139.857
21
-138.942
0
LINE
8
Black
10
139.857
20
-138.942
11
139.95
21
-138.412
0
LINE
8
Black
10
139.95
20
-138.412
11
139.857
21
-137.882
0
LINE
8
Black
10
139.857
20
-137.882
11
139.587
21
-137.416
0
LINE
8
Black
10
180.664
20
-88.9805
11
180.225
21
-89.3489
0
LINE
8
Black
10
180.225
20
-89.3489
11
179.687
21
-89.5449
0
LINE
8
Black
10
179.687
20
-89.5449
11
179.113
21
-89.5449
0
LINE
8
Black
10
179.113
20
-89.5449
11
178.575
21
-89.3489
0
LINE
8
Black
10
178.575
20
-89.3489
11
178.136
21
-88.9805
0
LINE
8
Black
10
178.136
20
-88.9805
11
177.85
21
-88.4843
0
LINE
8
Black
10
177.85
20
-88.4843
11
177.75
21
-87.9199
0
LINE
8
Black
10
177.75
20
-87.9199
11
177.85
21
-87.3556
0
LINE
8
Black
10
177.85
20
-87.3556
11
178.136
21
-86.8593
0
LINE
8
Black
10
178.136
20
-86.8593
11
178.575
21
-86.491
0
LINE
8
Black
10
178.575
20
-86.491
11
179.113
21
-86.295
0
LINE
8
Black
10
179.113
20
-86.295
11
179.687
21
-86.295
0
LINE
8
Black
10
179.687
20
-86.295
11
180.225
21
-86.491
0
LINE
8
Black
10
180.225
20
-86.491
11
180.664
21
-86.8593
0
LINE
8
Black
10
180.664
20
-86.8593
11
180.95
21
-87.3556
0
LINE
8
Black
10
180.95
20
-87.3556
11
181.05
21
-87.9199
0
LINE
8
Black
10
181.05
20
-87.9199
11
180.95
21
-88.4843
0
LINE
8
Black
10
180.95
20
-88.4843
11
180.664
21
-88.9805
0
LINE
8
Black
10
180.587
20
-86.9236
11
180.175
21
-86.5776
0
LINE
8
Black
10
180.175
20
-86.5776
11
179.669
21
-86.3935
0
LINE
8
Black
10
179.669
20
-86.3935
11
179.131
21
-86.3935
0
LINE
8
Black
10
179.131
20
-86.3935
11
178.625
21
-86.5776
0
LINE
8
Black
10
178.625
20
-86.5776
11
178.213
21
-86.9236
0
LINE
8
Black
10
178.213
20
-86.9236
11
177.943
21
-87.3898
0
LINE
8
Black
10
177.943
20
-87.3898
11
177.85
21
-87.9199
0
LINE
8
Black
10
177.85
20
-87.9199
11
177.943
21
-88.45
0
LINE
8
Black
10
177.943
20
-88.45
11
178.213
21
-88.9162
0
LINE
8
Black
10
178.213
20
-88.9162
11
178.625
21
-89.2623
0
LINE
8
Black
10
178.625
20
-89.2623
11
179.131
21
-89.4464
0
LINE
8
Black
10
179.131
20
-89.4464
11
179.669
21
-89.4464
0
LINE
8
Black
10
179.669
20
-89.4464
11
180.175
21
-89.2623
0
LINE
8
Black
10
180.175
20
-89.2623
11
180.587
21
-88.9162
0
LINE
8
Black
10
180.587
20
-88.9162
11
180.857
21
-88.45
0
LINE
8
Black
10
180.857
20
-88.45
11
180.95
21
-87.9199
0
LINE
8
Black
10
180.95
20
-87.9199
11
180.857
21
-87.3898
0
LINE
8
Black
10
180.857
20
-87.3898
11
180.587
21
-86.9236
0
LINE
8
Black
10
139.664
20
-88.9805
11
139.225
21
-89.3489
0
LINE
8
Black
10
139.225
20
-89.3489
11
138.687
21
-89.5449
0
LINE
8
Black
10
138.687
20
-89.5449
11
138.113
21
-89.5449
0
LINE
8
Black
10
138.113
20
-89.5449
11
137.575
21
-89.3489
0
LINE
8
Black
10
137.575
20
-89.3489
11
137.136
21
-88.9805
0
LINE
8
Black
10
137.136
20
-88.9805
11
136.85
21
-88.4843
0
LINE
8
Black
10
136.85
20
-88.4843
11
136.75
21
-87.9199
0
LINE
8
Black
10
136.75
20
-87.9199
11
136.85
21
-87.3556
0
LINE
8
Black
10
136.85
20
-87.3556
11
137.136
21
-86.8593
0
LINE
8
Black
10
137.136
20
-86.8593
11
137.575
21
-86.491
0
LINE
8
Black
10
137.575
20
-86.491
11
138.113
21
-86.295
0
LINE
8
Black
10
138.113
20
-86.295
11
138.687
21
-86.295
0
LINE
8
Black
10
138.687
20
-86.295
11
139.225
21
-86.491
0
LINE
8
Black
10
139.225
20
-86.491
11
139.664
21
-86.8593
0
LINE
8
Black
10
139.664
20
-86.8593
11
139.95
21
-87.3556
0
LINE
8
Black
10
139.95
20
-87.3556
11
140.05
21
-87.9199
0
LINE
8
Black
10
140.05
20
-87.9199
11
139.95
21
-88.4843
0
LINE
8
Black
10
139.95
20
-88.4843
11
139.664
21
-88.9805
0
LINE
8
Black
10
139.587
20
-86.9236
11
139.175
21
-86.5776
0
LINE
8
Black
10
139.175
20
-86.5776
11
138.669
21
-86.3935
0
LINE
8
Black
10
138.669
20
-86.3935
11
138.131
21
-86.3935
0
LINE
8
Black
10
138.131
20
-86.3935
11
137.625
21
-86.5776
0
LINE
8
Black
10
137.625
20
-86.5776
11
137.213
21
-86.9236
0
LINE
8
Black
10
137.213
20
-86.9236
11
136.943
21
-87.3898
0
LINE
8
Black
10
136.943
20
-87.3898
11
136.85
21
-87.9199
0
LINE
8
Black
10
136.85
20
-87.9199
11
136.943
21
-88.45
0
LINE
8
Black
10
136.943
20
-88.45
11
137.213
21
-88.9162
0
LINE
8
Black
10
137.213
20
-88.9162
11
137.625
21
-89.2623
0
LINE
8
Black
10
137.625
20
-89.2623
11
138.131
21
-89.4464
0
LINE
8
Black
10
138.131
20
-89.4464
11
138.669
21
-89.4464
0
LINE
8
Black
10
138.669
20
-89.4464
11
139.175
21
-89.2623
0
LINE
8
Black
10
139.175
20
-89.2623
11
139.587
21
-88.9162
0
LINE
8
Black
10
139.587
20
-88.9162
11
139.857
21
-88.45
0
LINE
8
Black
10
139.857
20
-88.45
11
139.95
21
-87.9199
0
LINE
8
Black
10
139.95
20
-87.9199
11
139.857
21
-87.3898
0
LINE
8
Black
10
139.857
20
-87.3898
11
139.587
21
-86.9236
  0
ENDSEC
  0
EOF
