G04 #@! TF.FileFunction,Legend,Top*
%FSLAX46Y46*%
G04 Gerber Fmt 4.6, Leading zero omitted, Abs format (unit mm)*
G04 Created by KiCad (PCBNEW 4.0.7) date 10/16/17 21:23:38*
%MOMM*%
%LPD*%
G01*
G04 APERTURE LIST*
%ADD10C,0.100000*%
%ADD11C,0.120000*%
%ADD12C,0.150000*%
%ADD13C,0.200000*%
G04 APERTURE END LIST*
D10*
D11*
X142226000Y-93280000D02*
G75*
G02X142226000Y-95280000I0J-1000000D01*
G01*
X142226000Y-95280000D02*
X142226000Y-96930000D01*
X142226000Y-96930000D02*
X152506000Y-96930000D01*
X152506000Y-96930000D02*
X152506000Y-91630000D01*
X152506000Y-91630000D02*
X142226000Y-91630000D01*
X142226000Y-91630000D02*
X142226000Y-93280000D01*
X164190000Y-106310000D02*
X164190000Y-101190000D01*
X166810000Y-106310000D02*
X166810000Y-101190000D01*
X164190000Y-106310000D02*
X166810000Y-106310000D01*
X164190000Y-101190000D02*
X166810000Y-101190000D01*
X177310000Y-101690000D02*
X177310000Y-106810000D01*
X174690000Y-101690000D02*
X174690000Y-106810000D01*
X177310000Y-101690000D02*
X174690000Y-101690000D01*
X177310000Y-106810000D02*
X174690000Y-106810000D01*
X135690000Y-117060000D02*
X135690000Y-111940000D01*
X138310000Y-117060000D02*
X138310000Y-111940000D01*
X135690000Y-117060000D02*
X136004000Y-117060000D01*
X137996000Y-117060000D02*
X138310000Y-117060000D01*
X135690000Y-111940000D02*
X136004000Y-111940000D01*
X137996000Y-111940000D02*
X138310000Y-111940000D01*
X156690000Y-120690000D02*
X161810000Y-120690000D01*
X156690000Y-123310000D02*
X161810000Y-123310000D01*
X156690000Y-120690000D02*
X156690000Y-123310000D01*
X161810000Y-120690000D02*
X161810000Y-123310000D01*
X162810000Y-100940000D02*
X162810000Y-106060000D01*
X160190000Y-100940000D02*
X160190000Y-106060000D01*
X162810000Y-100940000D02*
X162496000Y-100940000D01*
X160504000Y-100940000D02*
X160190000Y-100940000D01*
X162810000Y-106060000D02*
X162496000Y-106060000D01*
X160504000Y-106060000D02*
X160190000Y-106060000D01*
X147810000Y-100940000D02*
X147810000Y-106060000D01*
X145190000Y-100940000D02*
X145190000Y-106060000D01*
X147810000Y-100940000D02*
X147496000Y-100940000D01*
X145504000Y-100940000D02*
X145190000Y-100940000D01*
X147810000Y-106060000D02*
X147496000Y-106060000D01*
X145504000Y-106060000D02*
X145190000Y-106060000D01*
X180170000Y-135950000D02*
X182830000Y-135950000D01*
X180170000Y-128270000D02*
X180170000Y-135950000D01*
X182830000Y-128270000D02*
X182830000Y-135950000D01*
X180170000Y-128270000D02*
X182830000Y-128270000D01*
X180170000Y-127000000D02*
X180170000Y-125670000D01*
X180170000Y-125670000D02*
X181500000Y-125670000D01*
X182830000Y-110510000D02*
X180170000Y-110510000D01*
X182830000Y-120730000D02*
X182830000Y-110510000D01*
X180170000Y-120730000D02*
X180170000Y-110510000D01*
X182830000Y-120730000D02*
X180170000Y-120730000D01*
X182830000Y-122000000D02*
X182830000Y-123330000D01*
X182830000Y-123330000D02*
X181500000Y-123330000D01*
X135170000Y-135950000D02*
X137830000Y-135950000D01*
X135170000Y-128270000D02*
X135170000Y-135950000D01*
X137830000Y-128270000D02*
X137830000Y-135950000D01*
X135170000Y-128270000D02*
X137830000Y-128270000D01*
X135170000Y-127000000D02*
X135170000Y-125670000D01*
X135170000Y-125670000D02*
X136500000Y-125670000D01*
X156316000Y-141965000D02*
X156316000Y-136765000D01*
X151176000Y-141965000D02*
X156316000Y-141965000D01*
X148576000Y-136765000D02*
X156316000Y-136765000D01*
X151176000Y-141965000D02*
X151176000Y-139365000D01*
X151176000Y-139365000D02*
X148576000Y-139365000D01*
X148576000Y-139365000D02*
X148576000Y-136765000D01*
X149906000Y-141965000D02*
X148576000Y-141965000D01*
X148576000Y-141965000D02*
X148576000Y-140635000D01*
X172950000Y-140330000D02*
X172950000Y-137670000D01*
X165270000Y-140330000D02*
X172950000Y-140330000D01*
X165270000Y-137670000D02*
X172950000Y-137670000D01*
X165270000Y-140330000D02*
X165270000Y-137670000D01*
X164000000Y-140330000D02*
X162670000Y-140330000D01*
X162670000Y-140330000D02*
X162670000Y-139000000D01*
X180170000Y-108490000D02*
X182830000Y-108490000D01*
X180170000Y-98270000D02*
X180170000Y-108490000D01*
X182830000Y-98270000D02*
X182830000Y-108490000D01*
X180170000Y-98270000D02*
X182830000Y-98270000D01*
X180170000Y-97000000D02*
X180170000Y-95670000D01*
X180170000Y-95670000D02*
X181500000Y-95670000D01*
X135170000Y-108490000D02*
X137830000Y-108490000D01*
X135170000Y-98270000D02*
X135170000Y-108490000D01*
X137830000Y-98270000D02*
X137830000Y-108490000D01*
X135170000Y-98270000D02*
X137830000Y-98270000D01*
X135170000Y-97000000D02*
X135170000Y-95670000D01*
X135170000Y-95670000D02*
X136500000Y-95670000D01*
X165870000Y-120690000D02*
X165870000Y-123310000D01*
X165870000Y-123310000D02*
X172290000Y-123310000D01*
X172290000Y-123310000D02*
X172290000Y-120690000D01*
X172290000Y-120690000D02*
X165870000Y-120690000D01*
X164980000Y-122000000D02*
X165870000Y-122000000D01*
X173180000Y-122000000D02*
X172290000Y-122000000D01*
X142870000Y-120690000D02*
X142870000Y-123310000D01*
X142870000Y-123310000D02*
X149290000Y-123310000D01*
X149290000Y-123310000D02*
X149290000Y-120690000D01*
X149290000Y-120690000D02*
X142870000Y-120690000D01*
X141980000Y-122000000D02*
X142870000Y-122000000D01*
X150180000Y-122000000D02*
X149290000Y-122000000D01*
X149560000Y-85430000D02*
X149560000Y-82810000D01*
X149560000Y-82810000D02*
X143140000Y-82810000D01*
X143140000Y-82810000D02*
X143140000Y-85430000D01*
X143140000Y-85430000D02*
X149560000Y-85430000D01*
X150450000Y-84120000D02*
X149560000Y-84120000D01*
X142250000Y-84120000D02*
X143140000Y-84120000D01*
X142870000Y-124690000D02*
X142870000Y-127310000D01*
X142870000Y-127310000D02*
X149290000Y-127310000D01*
X149290000Y-127310000D02*
X149290000Y-124690000D01*
X149290000Y-124690000D02*
X142870000Y-124690000D01*
X141980000Y-126000000D02*
X142870000Y-126000000D01*
X150180000Y-126000000D02*
X149290000Y-126000000D01*
X151084000Y-88732000D02*
X151084000Y-86112000D01*
X151084000Y-86112000D02*
X144664000Y-86112000D01*
X144664000Y-86112000D02*
X144664000Y-88732000D01*
X144664000Y-88732000D02*
X151084000Y-88732000D01*
X151974000Y-87422000D02*
X151084000Y-87422000D01*
X143774000Y-87422000D02*
X144664000Y-87422000D01*
X177176000Y-114108000D02*
G75*
G02X177176000Y-112108000I0J1000000D01*
G01*
X177176000Y-112108000D02*
X177176000Y-110858000D01*
X177176000Y-110858000D02*
X141496000Y-110858000D01*
X141496000Y-110858000D02*
X141496000Y-115358000D01*
X141496000Y-115358000D02*
X177176000Y-115358000D01*
X177176000Y-115358000D02*
X177176000Y-114108000D01*
X154670000Y-93190000D02*
G75*
G02X154670000Y-95190000I0J-1000000D01*
G01*
X154670000Y-95190000D02*
X154670000Y-96440000D01*
X154670000Y-96440000D02*
X175110000Y-96440000D01*
X175110000Y-96440000D02*
X175110000Y-91940000D01*
X175110000Y-91940000D02*
X154670000Y-91940000D01*
X154670000Y-91940000D02*
X154670000Y-93190000D01*
D12*
X158400000Y-102200000D02*
X149600000Y-102200000D01*
X158400000Y-106600000D02*
X149700000Y-106600000D01*
X149700000Y-106600000D02*
X149600000Y-106600000D01*
X149600000Y-102200000D02*
G75*
G03X149600000Y-106600000I2200000J-2200000D01*
G01*
X158400000Y-106600000D02*
G75*
G03X158400000Y-102200000I-2200000J2200000D01*
G01*
D11*
X150386000Y-130320000D02*
X150386000Y-132980000D01*
X160606000Y-130320000D02*
X150386000Y-130320000D01*
X160606000Y-132980000D02*
X150386000Y-132980000D01*
X160606000Y-130320000D02*
X160606000Y-132980000D01*
X161876000Y-130320000D02*
X163206000Y-130320000D01*
X163206000Y-130320000D02*
X163206000Y-131650000D01*
X174350000Y-81640000D02*
X174350000Y-78980000D01*
X146350000Y-81640000D02*
X174350000Y-81640000D01*
X146350000Y-78980000D02*
X174350000Y-78980000D01*
X146350000Y-81640000D02*
X146350000Y-78980000D01*
X145080000Y-81640000D02*
X143750000Y-81640000D01*
X143750000Y-81640000D02*
X143750000Y-80310000D01*
X143750000Y-72884000D02*
X143750000Y-75544000D01*
X171750000Y-72884000D02*
X143750000Y-72884000D01*
X171750000Y-75544000D02*
X143750000Y-75544000D01*
X171750000Y-72884000D02*
X171750000Y-75544000D01*
X173020000Y-72884000D02*
X174350000Y-72884000D01*
X174350000Y-72884000D02*
X174350000Y-74214000D01*
D12*
X140678381Y-95041905D02*
X141487905Y-95041905D01*
X141583143Y-94994286D01*
X141630762Y-94946667D01*
X141678381Y-94851429D01*
X141678381Y-94660952D01*
X141630762Y-94565714D01*
X141583143Y-94518095D01*
X141487905Y-94470476D01*
X140678381Y-94470476D01*
X140773619Y-94041905D02*
X140726000Y-93994286D01*
X140678381Y-93899048D01*
X140678381Y-93660952D01*
X140726000Y-93565714D01*
X140773619Y-93518095D01*
X140868857Y-93470476D01*
X140964095Y-93470476D01*
X141106952Y-93518095D01*
X141678381Y-94089524D01*
X141678381Y-93470476D01*
X168043143Y-103844666D02*
X168090762Y-103892285D01*
X168138381Y-104035142D01*
X168138381Y-104130380D01*
X168090762Y-104273238D01*
X167995524Y-104368476D01*
X167900286Y-104416095D01*
X167709810Y-104463714D01*
X167566952Y-104463714D01*
X167376476Y-104416095D01*
X167281238Y-104368476D01*
X167186000Y-104273238D01*
X167138381Y-104130380D01*
X167138381Y-104035142D01*
X167186000Y-103892285D01*
X167233619Y-103844666D01*
X168138381Y-102892285D02*
X168138381Y-103463714D01*
X168138381Y-103178000D02*
X167138381Y-103178000D01*
X167281238Y-103273238D01*
X167376476Y-103368476D01*
X167424095Y-103463714D01*
X178917143Y-104416666D02*
X178964762Y-104464285D01*
X179012381Y-104607142D01*
X179012381Y-104702380D01*
X178964762Y-104845238D01*
X178869524Y-104940476D01*
X178774286Y-104988095D01*
X178583810Y-105035714D01*
X178440952Y-105035714D01*
X178250476Y-104988095D01*
X178155238Y-104940476D01*
X178060000Y-104845238D01*
X178012381Y-104702380D01*
X178012381Y-104607142D01*
X178060000Y-104464285D01*
X178107619Y-104416666D01*
X178107619Y-104035714D02*
X178060000Y-103988095D01*
X178012381Y-103892857D01*
X178012381Y-103654761D01*
X178060000Y-103559523D01*
X178107619Y-103511904D01*
X178202857Y-103464285D01*
X178298095Y-103464285D01*
X178440952Y-103511904D01*
X179012381Y-104083333D01*
X179012381Y-103464285D01*
X139595143Y-114258666D02*
X139642762Y-114306285D01*
X139690381Y-114449142D01*
X139690381Y-114544380D01*
X139642762Y-114687238D01*
X139547524Y-114782476D01*
X139452286Y-114830095D01*
X139261810Y-114877714D01*
X139118952Y-114877714D01*
X138928476Y-114830095D01*
X138833238Y-114782476D01*
X138738000Y-114687238D01*
X138690381Y-114544380D01*
X138690381Y-114449142D01*
X138738000Y-114306285D01*
X138785619Y-114258666D01*
X138690381Y-113925333D02*
X138690381Y-113306285D01*
X139071333Y-113639619D01*
X139071333Y-113496761D01*
X139118952Y-113401523D01*
X139166571Y-113353904D01*
X139261810Y-113306285D01*
X139499905Y-113306285D01*
X139595143Y-113353904D01*
X139642762Y-113401523D01*
X139690381Y-113496761D01*
X139690381Y-113782476D01*
X139642762Y-113877714D01*
X139595143Y-113925333D01*
X159083334Y-119797143D02*
X159035715Y-119844762D01*
X158892858Y-119892381D01*
X158797620Y-119892381D01*
X158654762Y-119844762D01*
X158559524Y-119749524D01*
X158511905Y-119654286D01*
X158464286Y-119463810D01*
X158464286Y-119320952D01*
X158511905Y-119130476D01*
X158559524Y-119035238D01*
X158654762Y-118940000D01*
X158797620Y-118892381D01*
X158892858Y-118892381D01*
X159035715Y-118940000D01*
X159083334Y-118987619D01*
X159940477Y-119225714D02*
X159940477Y-119892381D01*
X159702381Y-118844762D02*
X159464286Y-119559048D01*
X160083334Y-119559048D01*
X159661143Y-101558666D02*
X159708762Y-101606285D01*
X159756381Y-101749142D01*
X159756381Y-101844380D01*
X159708762Y-101987238D01*
X159613524Y-102082476D01*
X159518286Y-102130095D01*
X159327810Y-102177714D01*
X159184952Y-102177714D01*
X158994476Y-102130095D01*
X158899238Y-102082476D01*
X158804000Y-101987238D01*
X158756381Y-101844380D01*
X158756381Y-101749142D01*
X158804000Y-101606285D01*
X158851619Y-101558666D01*
X158756381Y-100653904D02*
X158756381Y-101130095D01*
X159232571Y-101177714D01*
X159184952Y-101130095D01*
X159137333Y-101034857D01*
X159137333Y-100796761D01*
X159184952Y-100701523D01*
X159232571Y-100653904D01*
X159327810Y-100606285D01*
X159565905Y-100606285D01*
X159661143Y-100653904D01*
X159708762Y-100701523D01*
X159756381Y-100796761D01*
X159756381Y-101034857D01*
X159708762Y-101130095D01*
X159661143Y-101177714D01*
X144675143Y-103590666D02*
X144722762Y-103638285D01*
X144770381Y-103781142D01*
X144770381Y-103876380D01*
X144722762Y-104019238D01*
X144627524Y-104114476D01*
X144532286Y-104162095D01*
X144341810Y-104209714D01*
X144198952Y-104209714D01*
X144008476Y-104162095D01*
X143913238Y-104114476D01*
X143818000Y-104019238D01*
X143770381Y-103876380D01*
X143770381Y-103781142D01*
X143818000Y-103638285D01*
X143865619Y-103590666D01*
X143770381Y-102733523D02*
X143770381Y-102924000D01*
X143818000Y-103019238D01*
X143865619Y-103066857D01*
X144008476Y-103162095D01*
X144198952Y-103209714D01*
X144579905Y-103209714D01*
X144675143Y-103162095D01*
X144722762Y-103114476D01*
X144770381Y-103019238D01*
X144770381Y-102828761D01*
X144722762Y-102733523D01*
X144675143Y-102685904D01*
X144579905Y-102638285D01*
X144341810Y-102638285D01*
X144246571Y-102685904D01*
X144198952Y-102733523D01*
X144151333Y-102828761D01*
X144151333Y-103019238D01*
X144198952Y-103114476D01*
X144246571Y-103162095D01*
X144341810Y-103209714D01*
X178782667Y-126752381D02*
X178782667Y-127466667D01*
X178735047Y-127609524D01*
X178639809Y-127704762D01*
X178496952Y-127752381D01*
X178401714Y-127752381D01*
X179782667Y-127752381D02*
X179211238Y-127752381D01*
X179496952Y-127752381D02*
X179496952Y-126752381D01*
X179401714Y-126895238D01*
X179306476Y-126990476D01*
X179211238Y-127038095D01*
X178274667Y-121672381D02*
X178274667Y-122386667D01*
X178227047Y-122529524D01*
X178131809Y-122624762D01*
X177988952Y-122672381D01*
X177893714Y-122672381D01*
X178703238Y-121767619D02*
X178750857Y-121720000D01*
X178846095Y-121672381D01*
X179084191Y-121672381D01*
X179179429Y-121720000D01*
X179227048Y-121767619D01*
X179274667Y-121862857D01*
X179274667Y-121958095D01*
X179227048Y-122100952D01*
X178655619Y-122672381D01*
X179274667Y-122672381D01*
X136166667Y-124122381D02*
X136166667Y-124836667D01*
X136119047Y-124979524D01*
X136023809Y-125074762D01*
X135880952Y-125122381D01*
X135785714Y-125122381D01*
X136547619Y-124122381D02*
X137166667Y-124122381D01*
X136833333Y-124503333D01*
X136976191Y-124503333D01*
X137071429Y-124550952D01*
X137119048Y-124598571D01*
X137166667Y-124693810D01*
X137166667Y-124931905D01*
X137119048Y-125027143D01*
X137071429Y-125074762D01*
X136976191Y-125122381D01*
X136690476Y-125122381D01*
X136595238Y-125074762D01*
X136547619Y-125027143D01*
X147028381Y-139698333D02*
X147742667Y-139698333D01*
X147885524Y-139745953D01*
X147980762Y-139841191D01*
X148028381Y-139984048D01*
X148028381Y-140079286D01*
X147361714Y-138793571D02*
X148028381Y-138793571D01*
X146980762Y-139031667D02*
X147695048Y-139269762D01*
X147695048Y-138650714D01*
X161122381Y-139333333D02*
X161836667Y-139333333D01*
X161979524Y-139380953D01*
X162074762Y-139476191D01*
X162122381Y-139619048D01*
X162122381Y-139714286D01*
X161122381Y-138380952D02*
X161122381Y-138857143D01*
X161598571Y-138904762D01*
X161550952Y-138857143D01*
X161503333Y-138761905D01*
X161503333Y-138523809D01*
X161550952Y-138428571D01*
X161598571Y-138380952D01*
X161693810Y-138333333D01*
X161931905Y-138333333D01*
X162027143Y-138380952D01*
X162074762Y-138428571D01*
X162122381Y-138523809D01*
X162122381Y-138761905D01*
X162074762Y-138857143D01*
X162027143Y-138904762D01*
X181166667Y-94122381D02*
X181166667Y-94836667D01*
X181119047Y-94979524D01*
X181023809Y-95074762D01*
X180880952Y-95122381D01*
X180785714Y-95122381D01*
X182071429Y-94122381D02*
X181880952Y-94122381D01*
X181785714Y-94170000D01*
X181738095Y-94217619D01*
X181642857Y-94360476D01*
X181595238Y-94550952D01*
X181595238Y-94931905D01*
X181642857Y-95027143D01*
X181690476Y-95074762D01*
X181785714Y-95122381D01*
X181976191Y-95122381D01*
X182071429Y-95074762D01*
X182119048Y-95027143D01*
X182166667Y-94931905D01*
X182166667Y-94693810D01*
X182119048Y-94598571D01*
X182071429Y-94550952D01*
X181976191Y-94503333D01*
X181785714Y-94503333D01*
X181690476Y-94550952D01*
X181642857Y-94598571D01*
X181595238Y-94693810D01*
X136166667Y-94122381D02*
X136166667Y-94836667D01*
X136119047Y-94979524D01*
X136023809Y-95074762D01*
X135880952Y-95122381D01*
X135785714Y-95122381D01*
X136547619Y-94122381D02*
X137214286Y-94122381D01*
X136785714Y-95122381D01*
X168913334Y-120142381D02*
X168580000Y-119666190D01*
X168341905Y-120142381D02*
X168341905Y-119142381D01*
X168722858Y-119142381D01*
X168818096Y-119190000D01*
X168865715Y-119237619D01*
X168913334Y-119332857D01*
X168913334Y-119475714D01*
X168865715Y-119570952D01*
X168818096Y-119618571D01*
X168722858Y-119666190D01*
X168341905Y-119666190D01*
X169865715Y-120142381D02*
X169294286Y-120142381D01*
X169580000Y-120142381D02*
X169580000Y-119142381D01*
X169484762Y-119285238D01*
X169389524Y-119380476D01*
X169294286Y-119428095D01*
X145913334Y-120142381D02*
X145580000Y-119666190D01*
X145341905Y-120142381D02*
X145341905Y-119142381D01*
X145722858Y-119142381D01*
X145818096Y-119190000D01*
X145865715Y-119237619D01*
X145913334Y-119332857D01*
X145913334Y-119475714D01*
X145865715Y-119570952D01*
X145818096Y-119618571D01*
X145722858Y-119666190D01*
X145341905Y-119666190D01*
X146294286Y-119237619D02*
X146341905Y-119190000D01*
X146437143Y-119142381D01*
X146675239Y-119142381D01*
X146770477Y-119190000D01*
X146818096Y-119237619D01*
X146865715Y-119332857D01*
X146865715Y-119428095D01*
X146818096Y-119570952D01*
X146246667Y-120142381D01*
X146865715Y-120142381D01*
X146183334Y-86882381D02*
X145850000Y-86406190D01*
X145611905Y-86882381D02*
X145611905Y-85882381D01*
X145992858Y-85882381D01*
X146088096Y-85930000D01*
X146135715Y-85977619D01*
X146183334Y-86072857D01*
X146183334Y-86215714D01*
X146135715Y-86310952D01*
X146088096Y-86358571D01*
X145992858Y-86406190D01*
X145611905Y-86406190D01*
X146516667Y-85882381D02*
X147135715Y-85882381D01*
X146802381Y-86263333D01*
X146945239Y-86263333D01*
X147040477Y-86310952D01*
X147088096Y-86358571D01*
X147135715Y-86453810D01*
X147135715Y-86691905D01*
X147088096Y-86787143D01*
X147040477Y-86834762D01*
X146945239Y-86882381D01*
X146659524Y-86882381D01*
X146564286Y-86834762D01*
X146516667Y-86787143D01*
X145675334Y-129022381D02*
X145342000Y-128546190D01*
X145103905Y-129022381D02*
X145103905Y-128022381D01*
X145484858Y-128022381D01*
X145580096Y-128070000D01*
X145627715Y-128117619D01*
X145675334Y-128212857D01*
X145675334Y-128355714D01*
X145627715Y-128450952D01*
X145580096Y-128498571D01*
X145484858Y-128546190D01*
X145103905Y-128546190D01*
X146532477Y-128355714D02*
X146532477Y-129022381D01*
X146294381Y-127974762D02*
X146056286Y-128689048D01*
X146675334Y-128689048D01*
X147707334Y-90184381D02*
X147374000Y-89708190D01*
X147135905Y-90184381D02*
X147135905Y-89184381D01*
X147516858Y-89184381D01*
X147612096Y-89232000D01*
X147659715Y-89279619D01*
X147707334Y-89374857D01*
X147707334Y-89517714D01*
X147659715Y-89612952D01*
X147612096Y-89660571D01*
X147516858Y-89708190D01*
X147135905Y-89708190D01*
X148612096Y-89184381D02*
X148135905Y-89184381D01*
X148088286Y-89660571D01*
X148135905Y-89612952D01*
X148231143Y-89565333D01*
X148469239Y-89565333D01*
X148564477Y-89612952D01*
X148612096Y-89660571D01*
X148659715Y-89755810D01*
X148659715Y-89993905D01*
X148612096Y-90089143D01*
X148564477Y-90136762D01*
X148469239Y-90184381D01*
X148231143Y-90184381D01*
X148135905Y-90136762D01*
X148088286Y-90089143D01*
X177628381Y-113869905D02*
X178437905Y-113869905D01*
X178533143Y-113822286D01*
X178580762Y-113774667D01*
X178628381Y-113679429D01*
X178628381Y-113488952D01*
X178580762Y-113393714D01*
X178533143Y-113346095D01*
X178437905Y-113298476D01*
X177628381Y-113298476D01*
X178628381Y-112298476D02*
X178628381Y-112869905D01*
X178628381Y-112584191D02*
X177628381Y-112584191D01*
X177771238Y-112679429D01*
X177866476Y-112774667D01*
X177914095Y-112869905D01*
X153122381Y-94951905D02*
X153931905Y-94951905D01*
X154027143Y-94904286D01*
X154074762Y-94856667D01*
X154122381Y-94761429D01*
X154122381Y-94570952D01*
X154074762Y-94475714D01*
X154027143Y-94428095D01*
X153931905Y-94380476D01*
X153122381Y-94380476D01*
X153122381Y-93999524D02*
X153122381Y-93380476D01*
X153503333Y-93713810D01*
X153503333Y-93570952D01*
X153550952Y-93475714D01*
X153598571Y-93428095D01*
X153693810Y-93380476D01*
X153931905Y-93380476D01*
X154027143Y-93428095D01*
X154074762Y-93475714D01*
X154122381Y-93570952D01*
X154122381Y-93856667D01*
X154074762Y-93951905D01*
X154027143Y-93999524D01*
X146438095Y-62378381D02*
X146438095Y-63187905D01*
X146485714Y-63283143D01*
X146533333Y-63330762D01*
X146628571Y-63378381D01*
X146819048Y-63378381D01*
X146914286Y-63330762D01*
X146961905Y-63283143D01*
X147009524Y-63187905D01*
X147009524Y-62378381D01*
X147914286Y-62711714D02*
X147914286Y-63378381D01*
X147676190Y-62330762D02*
X147438095Y-63045048D01*
X148057143Y-63045048D01*
D13*
X154071429Y-69983143D02*
X152928571Y-69983143D01*
X153500000Y-69983143D02*
X153500000Y-66983143D01*
X153309524Y-67411714D01*
X153119048Y-67697429D01*
X152928571Y-67840286D01*
D12*
X170438095Y-62378381D02*
X170438095Y-63187905D01*
X170485714Y-63283143D01*
X170533333Y-63330762D01*
X170628571Y-63378381D01*
X170819048Y-63378381D01*
X170914286Y-63330762D01*
X170961905Y-63283143D01*
X171009524Y-63187905D01*
X171009524Y-62378381D01*
X171961905Y-62378381D02*
X171485714Y-62378381D01*
X171438095Y-62854571D01*
X171485714Y-62806952D01*
X171580952Y-62759333D01*
X171819048Y-62759333D01*
X171914286Y-62806952D01*
X171961905Y-62854571D01*
X172009524Y-62949810D01*
X172009524Y-63187905D01*
X171961905Y-63283143D01*
X171914286Y-63330762D01*
X171819048Y-63378381D01*
X171580952Y-63378381D01*
X171485714Y-63330762D01*
X171438095Y-63283143D01*
D13*
X178071429Y-69983143D02*
X176928571Y-69983143D01*
X177500000Y-69983143D02*
X177500000Y-66983143D01*
X177309524Y-67411714D01*
X177119048Y-67697429D01*
X176928571Y-67840286D01*
D12*
X149937809Y-101368190D02*
X149937809Y-101844381D01*
X149604476Y-100844381D02*
X149937809Y-101368190D01*
X150271143Y-100844381D01*
X151128286Y-101844381D02*
X150556857Y-101844381D01*
X150842571Y-101844381D02*
X150842571Y-100844381D01*
X150747333Y-100987238D01*
X150652095Y-101082476D01*
X150556857Y-101130095D01*
X163658381Y-131983333D02*
X164372667Y-131983333D01*
X164515524Y-132030953D01*
X164610762Y-132126191D01*
X164658381Y-132269048D01*
X164658381Y-132364286D01*
X164086952Y-131364286D02*
X164039333Y-131459524D01*
X163991714Y-131507143D01*
X163896476Y-131554762D01*
X163848857Y-131554762D01*
X163753619Y-131507143D01*
X163706000Y-131459524D01*
X163658381Y-131364286D01*
X163658381Y-131173809D01*
X163706000Y-131078571D01*
X163753619Y-131030952D01*
X163848857Y-130983333D01*
X163896476Y-130983333D01*
X163991714Y-131030952D01*
X164039333Y-131078571D01*
X164086952Y-131173809D01*
X164086952Y-131364286D01*
X164134571Y-131459524D01*
X164182190Y-131507143D01*
X164277429Y-131554762D01*
X164467905Y-131554762D01*
X164563143Y-131507143D01*
X164610762Y-131459524D01*
X164658381Y-131364286D01*
X164658381Y-131173809D01*
X164610762Y-131078571D01*
X164563143Y-131030952D01*
X164467905Y-130983333D01*
X164277429Y-130983333D01*
X164182190Y-131030952D01*
X164134571Y-131078571D01*
X164086952Y-131173809D01*
X142202381Y-80643333D02*
X142916667Y-80643333D01*
X143059524Y-80690953D01*
X143154762Y-80786191D01*
X143202381Y-80929048D01*
X143202381Y-81024286D01*
X143202381Y-80119524D02*
X143202381Y-79929048D01*
X143154762Y-79833809D01*
X143107143Y-79786190D01*
X142964286Y-79690952D01*
X142773810Y-79643333D01*
X142392857Y-79643333D01*
X142297619Y-79690952D01*
X142250000Y-79738571D01*
X142202381Y-79833809D01*
X142202381Y-80024286D01*
X142250000Y-80119524D01*
X142297619Y-80167143D01*
X142392857Y-80214762D01*
X142630952Y-80214762D01*
X142726190Y-80167143D01*
X142773810Y-80119524D01*
X142821429Y-80024286D01*
X142821429Y-79833809D01*
X142773810Y-79738571D01*
X142726190Y-79690952D01*
X142630952Y-79643333D01*
X174802381Y-75023523D02*
X175516667Y-75023523D01*
X175659524Y-75071143D01*
X175754762Y-75166381D01*
X175802381Y-75309238D01*
X175802381Y-75404476D01*
X175802381Y-74023523D02*
X175802381Y-74594952D01*
X175802381Y-74309238D02*
X174802381Y-74309238D01*
X174945238Y-74404476D01*
X175040476Y-74499714D01*
X175088095Y-74594952D01*
X174802381Y-73404476D02*
X174802381Y-73309237D01*
X174850000Y-73213999D01*
X174897619Y-73166380D01*
X174992857Y-73118761D01*
X175183333Y-73071142D01*
X175421429Y-73071142D01*
X175611905Y-73118761D01*
X175707143Y-73166380D01*
X175754762Y-73213999D01*
X175802381Y-73309237D01*
X175802381Y-73404476D01*
X175754762Y-73499714D01*
X175707143Y-73547333D01*
X175611905Y-73594952D01*
X175421429Y-73642571D01*
X175183333Y-73642571D01*
X174992857Y-73594952D01*
X174897619Y-73547333D01*
X174850000Y-73499714D01*
X174802381Y-73404476D01*
X144454667Y-81214381D02*
X144121333Y-80738190D01*
X143883238Y-81214381D02*
X143883238Y-80214381D01*
X144264191Y-80214381D01*
X144359429Y-80262000D01*
X144407048Y-80309619D01*
X144454667Y-80404857D01*
X144454667Y-80547714D01*
X144407048Y-80642952D01*
X144359429Y-80690571D01*
X144264191Y-80738190D01*
X143883238Y-80738190D01*
X144883238Y-80690571D02*
X145216572Y-80690571D01*
X145359429Y-81214381D02*
X144883238Y-81214381D01*
X144883238Y-80214381D01*
X145359429Y-80214381D01*
X146121334Y-80690571D02*
X145788000Y-80690571D01*
X145788000Y-81214381D02*
X145788000Y-80214381D01*
X146264191Y-80214381D01*
X146788000Y-80214381D02*
X146788000Y-80452476D01*
X146549905Y-80357238D02*
X146788000Y-80452476D01*
X147026096Y-80357238D01*
X146645143Y-80642952D02*
X146788000Y-80452476D01*
X146930858Y-80642952D01*
X147549905Y-80214381D02*
X147549905Y-80452476D01*
X147311810Y-80357238D02*
X147549905Y-80452476D01*
X147788001Y-80357238D01*
X147407048Y-80642952D02*
X147549905Y-80452476D01*
X147692763Y-80642952D01*
X170870667Y-81214381D02*
X170537333Y-80738190D01*
X170299238Y-81214381D02*
X170299238Y-80214381D01*
X170680191Y-80214381D01*
X170775429Y-80262000D01*
X170823048Y-80309619D01*
X170870667Y-80404857D01*
X170870667Y-80547714D01*
X170823048Y-80642952D01*
X170775429Y-80690571D01*
X170680191Y-80738190D01*
X170299238Y-80738190D01*
X171299238Y-80690571D02*
X171632572Y-80690571D01*
X171775429Y-81214381D02*
X171299238Y-81214381D01*
X171299238Y-80214381D01*
X171775429Y-80214381D01*
X172537334Y-80690571D02*
X172204000Y-80690571D01*
X172204000Y-81214381D02*
X172204000Y-80214381D01*
X172680191Y-80214381D01*
X173204000Y-80214381D02*
X173204000Y-80452476D01*
X172965905Y-80357238D02*
X173204000Y-80452476D01*
X173442096Y-80357238D01*
X173061143Y-80642952D02*
X173204000Y-80452476D01*
X173346858Y-80642952D01*
X173965905Y-80214381D02*
X173965905Y-80452476D01*
X173727810Y-80357238D02*
X173965905Y-80452476D01*
X174204001Y-80357238D01*
X173823048Y-80642952D02*
X173965905Y-80452476D01*
X174108763Y-80642952D01*
X157462667Y-83414381D02*
X157129333Y-82938190D01*
X156891238Y-83414381D02*
X156891238Y-82414381D01*
X157272191Y-82414381D01*
X157367429Y-82462000D01*
X157415048Y-82509619D01*
X157462667Y-82604857D01*
X157462667Y-82747714D01*
X157415048Y-82842952D01*
X157367429Y-82890571D01*
X157272191Y-82938190D01*
X156891238Y-82938190D01*
X157891238Y-82890571D02*
X158224572Y-82890571D01*
X158367429Y-83414381D02*
X157891238Y-83414381D01*
X157891238Y-82414381D01*
X158367429Y-82414381D01*
X159129334Y-82890571D02*
X158796000Y-82890571D01*
X158796000Y-83414381D02*
X158796000Y-82414381D01*
X159272191Y-82414381D01*
X159796000Y-82414381D02*
X159796000Y-82652476D01*
X159557905Y-82557238D02*
X159796000Y-82652476D01*
X160034096Y-82557238D01*
X159653143Y-82842952D02*
X159796000Y-82652476D01*
X159938858Y-82842952D01*
X160557905Y-82414381D02*
X160557905Y-82652476D01*
X160319810Y-82557238D02*
X160557905Y-82652476D01*
X160796001Y-82557238D01*
X160415048Y-82842952D02*
X160557905Y-82652476D01*
X160700763Y-82842952D01*
M02*
