G04 #@! TF.FileFunction,Soldermask,Top*
%FSLAX46Y46*%
G04 Gerber Fmt 4.6, Leading zero omitted, Abs format (unit mm)*
G04 Created by KiCad (PCBNEW 4.0.7) date 10/16/17 21:23:38*
%MOMM*%
%LPD*%
G01*
G04 APERTURE LIST*
%ADD10C,0.100000*%
%ADD11R,2.000000X2.000000*%
%ADD12O,2.000000X2.000000*%
%ADD13C,2.000000*%
%ADD14R,2.100000X2.100000*%
%ADD15O,2.100000X2.100000*%
%ADD16R,2.000000X2.800000*%
%ADD17O,2.000000X2.800000*%
%ADD18C,3.000000*%
%ADD19C,5.400000*%
%ADD20O,20.400000X2.400000*%
%ADD21O,4.400000X2.400000*%
G04 APERTURE END LIST*
D10*
D11*
X143556000Y-98090000D03*
D12*
X151176000Y-90470000D03*
X146096000Y-98090000D03*
X148636000Y-90470000D03*
X148636000Y-98090000D03*
X146096000Y-90470000D03*
X151176000Y-98090000D03*
X143556000Y-90470000D03*
D13*
X165500000Y-105000000D03*
X165500000Y-102500000D03*
X176000000Y-103000000D03*
X176000000Y-105500000D03*
X137000000Y-117000000D03*
X137000000Y-112000000D03*
X158000000Y-122000000D03*
X160500000Y-122000000D03*
X161500000Y-101000000D03*
X161500000Y-106000000D03*
X146500000Y-101000000D03*
X146500000Y-106000000D03*
D14*
X181500000Y-127000000D03*
D15*
X181500000Y-129540000D03*
X181500000Y-132080000D03*
X181500000Y-134620000D03*
D14*
X181500000Y-122000000D03*
D15*
X181500000Y-119460000D03*
X181500000Y-116920000D03*
X181500000Y-114380000D03*
X181500000Y-111840000D03*
D14*
X136500000Y-127000000D03*
D15*
X136500000Y-129540000D03*
X136500000Y-132080000D03*
X136500000Y-134620000D03*
D14*
X149906000Y-140635000D03*
D15*
X149906000Y-138095000D03*
X152446000Y-140635000D03*
X152446000Y-138095000D03*
X154986000Y-140635000D03*
X154986000Y-138095000D03*
D14*
X164000000Y-139000000D03*
D15*
X166540000Y-139000000D03*
X169080000Y-139000000D03*
X171620000Y-139000000D03*
D14*
X181500000Y-97000000D03*
D15*
X181500000Y-99540000D03*
X181500000Y-102080000D03*
X181500000Y-104620000D03*
X181500000Y-107160000D03*
D14*
X136500000Y-97000000D03*
D15*
X136500000Y-99540000D03*
X136500000Y-102080000D03*
X136500000Y-104620000D03*
X136500000Y-107160000D03*
D13*
X164000000Y-122000000D03*
D12*
X174160000Y-122000000D03*
D13*
X141000000Y-122000000D03*
D12*
X151160000Y-122000000D03*
D13*
X151430000Y-84120000D03*
D12*
X141270000Y-84120000D03*
D13*
X141000000Y-126000000D03*
D12*
X151160000Y-126000000D03*
D13*
X152954000Y-87422000D03*
D12*
X142794000Y-87422000D03*
D16*
X175846000Y-109298000D03*
D17*
X142826000Y-116918000D03*
X173306000Y-109298000D03*
X145366000Y-116918000D03*
X170766000Y-109298000D03*
X147906000Y-116918000D03*
X168226000Y-109298000D03*
X150446000Y-116918000D03*
X165686000Y-109298000D03*
X152986000Y-116918000D03*
X163146000Y-109298000D03*
X155526000Y-116918000D03*
X160606000Y-109298000D03*
X158066000Y-116918000D03*
X158066000Y-109298000D03*
X160606000Y-116918000D03*
X155526000Y-109298000D03*
X163146000Y-116918000D03*
X152986000Y-109298000D03*
X165686000Y-116918000D03*
X150446000Y-109298000D03*
X168226000Y-116918000D03*
X147906000Y-109298000D03*
X170766000Y-116918000D03*
X145366000Y-109298000D03*
X173306000Y-116918000D03*
X142826000Y-109298000D03*
X175846000Y-116918000D03*
D16*
X156000000Y-98000000D03*
D17*
X173780000Y-90380000D03*
X158540000Y-98000000D03*
X171240000Y-90380000D03*
X161080000Y-98000000D03*
X168700000Y-90380000D03*
X163620000Y-98000000D03*
X166160000Y-90380000D03*
X166160000Y-98000000D03*
X163620000Y-90380000D03*
X168700000Y-98000000D03*
X161080000Y-90380000D03*
X171240000Y-98000000D03*
X158540000Y-90380000D03*
X173780000Y-98000000D03*
X156000000Y-90380000D03*
D18*
X147000000Y-67126000D03*
X143000000Y-66126000D03*
X141250000Y-62626000D03*
X141250000Y-58126000D03*
X141250000Y-53626000D03*
X143000000Y-50126000D03*
X147000000Y-49126000D03*
X151000000Y-50126000D03*
X152750000Y-53626000D03*
X152750000Y-58126000D03*
X152750000Y-62626000D03*
D19*
X147000000Y-58126000D03*
D18*
X151000000Y-66126000D03*
X171000000Y-67126000D03*
X167000000Y-66126000D03*
X165250000Y-62626000D03*
X165250000Y-58126000D03*
X165250000Y-53626000D03*
X167000000Y-50126000D03*
X171000000Y-49126000D03*
X175000000Y-50126000D03*
X176750000Y-53626000D03*
X176750000Y-58126000D03*
X176750000Y-62626000D03*
D19*
X171000000Y-58126000D03*
D18*
X175000000Y-66126000D03*
D13*
X151600000Y-104400000D03*
X156400000Y-104400000D03*
D14*
X161876000Y-131650000D03*
D15*
X159336000Y-131650000D03*
X156796000Y-131650000D03*
X154256000Y-131650000D03*
X151716000Y-131650000D03*
D14*
X145080000Y-80310000D03*
D15*
X147620000Y-80310000D03*
X150160000Y-80310000D03*
X152700000Y-80310000D03*
X155240000Y-80310000D03*
X157780000Y-80310000D03*
X160320000Y-80310000D03*
X162860000Y-80310000D03*
X165400000Y-80310000D03*
X167940000Y-80310000D03*
X170480000Y-80310000D03*
X173020000Y-80310000D03*
D14*
X173020000Y-74214000D03*
D15*
X170480000Y-74214000D03*
X167940000Y-74214000D03*
X165400000Y-74214000D03*
X162860000Y-74214000D03*
X160320000Y-74214000D03*
X157780000Y-74214000D03*
X155240000Y-74214000D03*
X152700000Y-74214000D03*
X150160000Y-74214000D03*
X147620000Y-74214000D03*
X145080000Y-74214000D03*
D20*
X145588000Y-77262000D03*
X172004000Y-77262000D03*
D21*
X158796000Y-77262000D03*
M02*
