  0
SECTION
  2
HEADER
  9
$ANGBASE
  50
0.0
  9
$ANGDIR
  70
  1
  9
$MEASUREMENT
  70
0
  0
ENDSEC
  0
SECTION
  2
TABLES
  0
TABLE
  2
LTYPE
  70
1
  0
LTYPE
  2
CONTINUOUS
  70
0
  3
Solid line
  72
65
  73
0
  40
0.0
  0
ENDTAB
  0
TABLE
  2
STYLE
  70
4
  0
STYLE
  2
KICAD
  70
0
  40
0
  41
1
  42
1
  50
0
  71
0
  3
isocp.shx
  0
STYLE
  2
KICADB
  70
0
  40
0
  41
1
  42
1
  50
0
  71
0
  3
isocp.shx
  0
STYLE
  2
KICADI
  70
0
  40
0
  41
1
  42
1
  50
15
  71
0
  3
isocp.shx
  0
STYLE
  2
KICADBI
  70
0
  40
0
  41
1
  42
1
  50
15
  71
0
  3
isocp.shx
  0
ENDTAB
  0
TABLE
  2
LAYER
  70
30
  0
LAYER
  2
BLACK
  70
0
  62
7
  6
CONTINUOUS
  0
LAYER
  2
GRAY1
  70
0
  62
251
  6
CONTINUOUS
  0
LAYER
  2
GRAY2
  70
0
  62
8
  6
CONTINUOUS
  0
LAYER
  2
GRAY3
  70
0
  62
9
  6
CONTINUOUS
  0
LAYER
  2
WHITE
  70
0
  62
7
  6
CONTINUOUS
  0
LAYER
  2
LYELLOW
  70
0
  62
51
  6
CONTINUOUS
  0
LAYER
  2
BLUE1
  70
0
  62
178
  6
CONTINUOUS
  0
LAYER
  2
GREEN1
  70
0
  62
98
  6
CONTINUOUS
  0
LAYER
  2
CYAN1
  70
0
  62
138
  6
CONTINUOUS
  0
LAYER
  2
RED1
  70
0
  62
18
  6
CONTINUOUS
  0
LAYER
  2
MAGENTA1
  70
0
  62
228
  6
CONTINUOUS
  0
LAYER
  2
BROWN1
  70
0
  62
58
  6
CONTINUOUS
  0
LAYER
  2
BLUE2
  70
0
  62
5
  6
CONTINUOUS
  0
LAYER
  2
GREEN2
  70
0
  62
3
  6
CONTINUOUS
  0
LAYER
  2
CYAN2
  70
0
  62
4
  6
CONTINUOUS
  0
LAYER
  2
RED2
  70
0
  62
1
  6
CONTINUOUS
  0
LAYER
  2
MAGENTA2
  70
0
  62
6
  6
CONTINUOUS
  0
LAYER
  2
BROWN2
  70
0
  62
54
  6
CONTINUOUS
  0
LAYER
  2
BLUE3
  70
0
  62
171
  6
CONTINUOUS
  0
LAYER
  2
GREEN3
  70
0
  62
91
  6
CONTINUOUS
  0
LAYER
  2
CYAN3
  70
0
  62
131
  6
CONTINUOUS
  0
LAYER
  2
RED3
  70
0
  62
11
  6
CONTINUOUS
  0
LAYER
  2
MAGENTA3
  70
0
  62
221
  6
CONTINUOUS
  0
LAYER
  2
YELLOW3
  70
0
  62
2
  6
CONTINUOUS
  0
LAYER
  2
BLUE4
  70
0
  62
5
  6
CONTINUOUS
  0
LAYER
  2
GREEN4
  70
0
  62
3
  6
CONTINUOUS
  0
LAYER
  2
CYAN4
  70
0
  62
4
  6
CONTINUOUS
  0
LAYER
  2
RED4
  70
0
  62
1
  6
CONTINUOUS
  0
LAYER
  2
MAGENTA4
  70
0
  62
6
  6
CONTINUOUS
  0
LAYER
  2
YELLOW4
  70
0
  62
2
  6
CONTINUOUS
  0
ENDTAB
  0
ENDSEC
  0
SECTION
  2
ENTITIES
0
LINE
8
Black
10
150.956
20
-141.685
11
148.856
21
-141.685
0
LINE
8
Black
10
148.856
20
-141.685
11
148.856
21
-139.585
0
LINE
8
Black
10
148.856
20
-139.585
11
150.956
21
-139.585
0
LINE
8
Black
10
150.956
20
-139.585
11
150.956
21
-141.685
0
LINE
8
Black
10
155.511
20
-139.722
11
155.79
21
-139.956
0
LINE
8
Black
10
155.79
20
-139.956
11
155.973
21
-140.272
0
LINE
8
Black
10
155.973
20
-140.272
11
156.036
21
-140.631
0
LINE
8
Black
10
156.036
20
-140.631
11
156.036
21
-140.639
0
LINE
8
Black
10
156.036
20
-140.639
11
155.973
21
-140.998
0
LINE
8
Black
10
155.973
20
-140.998
11
155.79
21
-141.314
0
LINE
8
Black
10
155.79
20
-141.314
11
155.511
21
-141.548
0
LINE
8
Black
10
155.511
20
-141.548
11
155.168
21
-141.673
0
LINE
8
Black
10
155.168
20
-141.673
11
154.804
21
-141.673
0
LINE
8
Black
10
154.804
20
-141.673
11
154.461
21
-141.548
0
LINE
8
Black
10
154.461
20
-141.548
11
154.182
21
-141.314
0
LINE
8
Black
10
154.182
20
-141.314
11
153.999
21
-140.998
0
LINE
8
Black
10
153.999
20
-140.998
11
153.936
21
-140.639
0
LINE
8
Black
10
153.936
20
-140.639
11
153.936
21
-140.631
0
LINE
8
Black
10
153.936
20
-140.631
11
153.999
21
-140.272
0
LINE
8
Black
10
153.999
20
-140.272
11
154.182
21
-139.956
0
LINE
8
Black
10
154.182
20
-139.956
11
154.461
21
-139.722
0
LINE
8
Black
10
154.461
20
-139.722
11
154.804
21
-139.597
0
LINE
8
Black
10
154.804
20
-139.597
11
155.168
21
-139.597
0
LINE
8
Black
10
155.168
20
-139.597
11
155.511
21
-139.722
0
LINE
8
Black
10
152.971
20
-139.722
11
153.25
21
-139.956
0
LINE
8
Black
10
153.25
20
-139.956
11
153.433
21
-140.272
0
LINE
8
Black
10
153.433
20
-140.272
11
153.496
21
-140.631
0
LINE
8
Black
10
153.496
20
-140.631
11
153.496
21
-140.639
0
LINE
8
Black
10
153.496
20
-140.639
11
153.433
21
-140.998
0
LINE
8
Black
10
153.433
20
-140.998
11
153.25
21
-141.314
0
LINE
8
Black
10
153.25
20
-141.314
11
152.971
21
-141.548
0
LINE
8
Black
10
152.971
20
-141.548
11
152.628
21
-141.673
0
LINE
8
Black
10
152.628
20
-141.673
11
152.264
21
-141.673
0
LINE
8
Black
10
152.264
20
-141.673
11
151.921
21
-141.548
0
LINE
8
Black
10
151.921
20
-141.548
11
151.642
21
-141.314
0
LINE
8
Black
10
151.642
20
-141.314
11
151.459
21
-140.998
0
LINE
8
Black
10
151.459
20
-140.998
11
151.396
21
-140.639
0
LINE
8
Black
10
151.396
20
-140.639
11
151.396
21
-140.631
0
LINE
8
Black
10
151.396
20
-140.631
11
151.459
21
-140.272
0
LINE
8
Black
10
151.459
20
-140.272
11
151.642
21
-139.956
0
LINE
8
Black
10
151.642
20
-139.956
11
151.921
21
-139.722
0
LINE
8
Black
10
151.921
20
-139.722
11
152.264
21
-139.597
0
LINE
8
Black
10
152.264
20
-139.597
11
152.628
21
-139.597
0
LINE
8
Black
10
152.628
20
-139.597
11
152.971
21
-139.722
0
LINE
8
Black
10
165.05
20
-140.05
11
162.95
21
-140.05
0
LINE
8
Black
10
162.95
20
-140.05
11
162.95
21
-137.95
0
LINE
8
Black
10
162.95
20
-137.95
11
165.05
21
-137.95
0
LINE
8
Black
10
165.05
20
-137.95
11
165.05
21
-140.05
0
LINE
8
Black
10
172.145
20
-138.087
11
172.424
21
-138.321
0
LINE
8
Black
10
172.424
20
-138.321
11
172.607
21
-138.637
0
LINE
8
Black
10
172.607
20
-138.637
11
172.67
21
-138.996
0
LINE
8
Black
10
172.67
20
-138.996
11
172.67
21
-139.004
0
LINE
8
Black
10
172.67
20
-139.004
11
172.607
21
-139.363
0
LINE
8
Black
10
172.607
20
-139.363
11
172.424
21
-139.679
0
LINE
8
Black
10
172.424
20
-139.679
11
172.145
21
-139.913
0
LINE
8
Black
10
172.145
20
-139.913
11
171.802
21
-140.038
0
LINE
8
Black
10
171.802
20
-140.038
11
171.438
21
-140.038
0
LINE
8
Black
10
171.438
20
-140.038
11
171.095
21
-139.913
0
LINE
8
Black
10
171.095
20
-139.913
11
170.816
21
-139.679
0
LINE
8
Black
10
170.816
20
-139.679
11
170.633
21
-139.363
0
LINE
8
Black
10
170.633
20
-139.363
11
170.57
21
-139.004
0
LINE
8
Black
10
170.57
20
-139.004
11
170.57
21
-138.996
0
LINE
8
Black
10
170.57
20
-138.996
11
170.633
21
-138.637
0
LINE
8
Black
10
170.633
20
-138.637
11
170.816
21
-138.321
0
LINE
8
Black
10
170.816
20
-138.321
11
171.095
21
-138.087
0
LINE
8
Black
10
171.095
20
-138.087
11
171.438
21
-137.962
0
LINE
8
Black
10
171.438
20
-137.962
11
171.802
21
-137.962
0
LINE
8
Black
10
171.802
20
-137.962
11
172.145
21
-138.087
0
LINE
8
Black
10
169.605
20
-138.087
11
169.884
21
-138.321
0
LINE
8
Black
10
169.884
20
-138.321
11
170.067
21
-138.637
0
LINE
8
Black
10
170.067
20
-138.637
11
170.13
21
-138.996
0
LINE
8
Black
10
170.13
20
-138.996
11
170.13
21
-139.004
0
LINE
8
Black
10
170.13
20
-139.004
11
170.067
21
-139.363
0
LINE
8
Black
10
170.067
20
-139.363
11
169.884
21
-139.679
0
LINE
8
Black
10
169.884
20
-139.679
11
169.605
21
-139.913
0
LINE
8
Black
10
169.605
20
-139.913
11
169.262
21
-140.038
0
LINE
8
Black
10
169.262
20
-140.038
11
168.898
21
-140.038
0
LINE
8
Black
10
168.898
20
-140.038
11
168.555
21
-139.913
0
LINE
8
Black
10
168.555
20
-139.913
11
168.276
21
-139.679
0
LINE
8
Black
10
168.276
20
-139.679
11
168.093
21
-139.363
0
LINE
8
Black
10
168.093
20
-139.363
11
168.03
21
-139.004
0
LINE
8
Black
10
168.03
20
-139.004
11
168.03
21
-138.996
0
LINE
8
Black
10
168.03
20
-138.996
11
168.093
21
-138.637
0
LINE
8
Black
10
168.093
20
-138.637
11
168.276
21
-138.321
0
LINE
8
Black
10
168.276
20
-138.321
11
168.555
21
-138.087
0
LINE
8
Black
10
168.555
20
-138.087
11
168.898
21
-137.962
0
LINE
8
Black
10
168.898
20
-137.962
11
169.262
21
-137.962
0
LINE
8
Black
10
169.262
20
-137.962
11
169.605
21
-138.087
0
LINE
8
Black
10
167.065
20
-138.087
11
167.344
21
-138.321
0
LINE
8
Black
10
167.344
20
-138.321
11
167.527
21
-138.637
0
LINE
8
Black
10
167.527
20
-138.637
11
167.59
21
-138.996
0
LINE
8
Black
10
167.59
20
-138.996
11
167.59
21
-139.004
0
LINE
8
Black
10
167.59
20
-139.004
11
167.527
21
-139.363
0
LINE
8
Black
10
167.527
20
-139.363
11
167.344
21
-139.679
0
LINE
8
Black
10
167.344
20
-139.679
11
167.065
21
-139.913
0
LINE
8
Black
10
167.065
20
-139.913
11
166.722
21
-140.038
0
LINE
8
Black
10
166.722
20
-140.038
11
166.358
21
-140.038
0
LINE
8
Black
10
166.358
20
-140.038
11
166.015
21
-139.913
0
LINE
8
Black
10
166.015
20
-139.913
11
165.736
21
-139.679
0
LINE
8
Black
10
165.736
20
-139.679
11
165.553
21
-139.363
0
LINE
8
Black
10
165.553
20
-139.363
11
165.49
21
-139.004
0
LINE
8
Black
10
165.49
20
-139.004
11
165.49
21
-138.996
0
LINE
8
Black
10
165.49
20
-138.996
11
165.553
21
-138.637
0
LINE
8
Black
10
165.553
20
-138.637
11
165.736
21
-138.321
0
LINE
8
Black
10
165.736
20
-138.321
11
166.015
21
-138.087
0
LINE
8
Black
10
166.015
20
-138.087
11
166.358
21
-137.962
0
LINE
8
Black
10
166.358
20
-137.962
11
166.722
21
-137.962
0
LINE
8
Black
10
166.722
20
-137.962
11
167.065
21
-138.087
0
LINE
8
Black
10
150.431
20
-137.182
11
150.71
21
-137.416
0
LINE
8
Black
10
150.71
20
-137.416
11
150.893
21
-137.732
0
LINE
8
Black
10
150.893
20
-137.732
11
150.956
21
-138.091
0
LINE
8
Black
10
150.956
20
-138.091
11
150.956
21
-138.099
0
LINE
8
Black
10
150.956
20
-138.099
11
150.893
21
-138.458
0
LINE
8
Black
10
150.893
20
-138.458
11
150.71
21
-138.774
0
LINE
8
Black
10
150.71
20
-138.774
11
150.431
21
-139.008
0
LINE
8
Black
10
150.431
20
-139.008
11
150.088
21
-139.133
0
LINE
8
Black
10
150.088
20
-139.133
11
149.724
21
-139.133
0
LINE
8
Black
10
149.724
20
-139.133
11
149.381
21
-139.008
0
LINE
8
Black
10
149.381
20
-139.008
11
149.102
21
-138.774
0
LINE
8
Black
10
149.102
20
-138.774
11
148.919
21
-138.458
0
LINE
8
Black
10
148.919
20
-138.458
11
148.856
21
-138.099
0
LINE
8
Black
10
148.856
20
-138.099
11
148.856
21
-138.091
0
LINE
8
Black
10
148.856
20
-138.091
11
148.919
21
-137.732
0
LINE
8
Black
10
148.919
20
-137.732
11
149.102
21
-137.416
0
LINE
8
Black
10
149.102
20
-137.416
11
149.381
21
-137.182
0
LINE
8
Black
10
149.381
20
-137.182
11
149.724
21
-137.057
0
LINE
8
Black
10
149.724
20
-137.057
11
150.088
21
-137.057
0
LINE
8
Black
10
150.088
20
-137.057
11
150.431
21
-137.182
0
LINE
8
Black
10
152.971
20
-137.182
11
153.25
21
-137.416
0
LINE
8
Black
10
153.25
20
-137.416
11
153.433
21
-137.732
0
LINE
8
Black
10
153.433
20
-137.732
11
153.496
21
-138.091
0
LINE
8
Black
10
153.496
20
-138.091
11
153.496
21
-138.099
0
LINE
8
Black
10
153.496
20
-138.099
11
153.433
21
-138.458
0
LINE
8
Black
10
153.433
20
-138.458
11
153.25
21
-138.774
0
LINE
8
Black
10
153.25
20
-138.774
11
152.971
21
-139.008
0
LINE
8
Black
10
152.971
20
-139.008
11
152.628
21
-139.133
0
LINE
8
Black
10
152.628
20
-139.133
11
152.264
21
-139.133
0
LINE
8
Black
10
152.264
20
-139.133
11
151.921
21
-139.008
0
LINE
8
Black
10
151.921
20
-139.008
11
151.642
21
-138.774
0
LINE
8
Black
10
151.642
20
-138.774
11
151.459
21
-138.458
0
LINE
8
Black
10
151.459
20
-138.458
11
151.396
21
-138.099
0
LINE
8
Black
10
151.396
20
-138.099
11
151.396
21
-138.091
0
LINE
8
Black
10
151.396
20
-138.091
11
151.459
21
-137.732
0
LINE
8
Black
10
151.459
20
-137.732
11
151.642
21
-137.416
0
LINE
8
Black
10
151.642
20
-137.416
11
151.921
21
-137.182
0
LINE
8
Black
10
151.921
20
-137.182
11
152.264
21
-137.057
0
LINE
8
Black
10
152.264
20
-137.057
11
152.628
21
-137.057
0
LINE
8
Black
10
152.628
20
-137.057
11
152.971
21
-137.182
0
LINE
8
Black
10
155.511
20
-137.182
11
155.79
21
-137.416
0
LINE
8
Black
10
155.79
20
-137.416
11
155.973
21
-137.732
0
LINE
8
Black
10
155.973
20
-137.732
11
156.036
21
-138.091
0
LINE
8
Black
10
156.036
20
-138.091
11
156.036
21
-138.099
0
LINE
8
Black
10
156.036
20
-138.099
11
155.973
21
-138.458
0
LINE
8
Black
10
155.973
20
-138.458
11
155.79
21
-138.774
0
LINE
8
Black
10
155.79
20
-138.774
11
155.511
21
-139.008
0
LINE
8
Black
10
155.511
20
-139.008
11
155.168
21
-139.133
0
LINE
8
Black
10
155.168
20
-139.133
11
154.804
21
-139.133
0
LINE
8
Black
10
154.804
20
-139.133
11
154.461
21
-139.008
0
LINE
8
Black
10
154.461
20
-139.008
11
154.182
21
-138.774
0
LINE
8
Black
10
154.182
20
-138.774
11
153.999
21
-138.458
0
LINE
8
Black
10
153.999
20
-138.458
11
153.936
21
-138.099
0
LINE
8
Black
10
153.936
20
-138.099
11
153.936
21
-138.091
0
LINE
8
Black
10
153.936
20
-138.091
11
153.999
21
-137.732
0
LINE
8
Black
10
153.999
20
-137.732
11
154.182
21
-137.416
0
LINE
8
Black
10
154.182
20
-137.416
11
154.461
21
-137.182
0
LINE
8
Black
10
154.461
20
-137.182
11
154.804
21
-137.057
0
LINE
8
Black
10
154.804
20
-137.057
11
155.168
21
-137.057
0
LINE
8
Black
10
155.168
20
-137.057
11
155.511
21
-137.182
0
LINE
8
Black
10
136.863
20
-133.633
11
137.179
21
-133.816
0
LINE
8
Black
10
137.179
20
-133.816
11
137.413
21
-134.095
0
LINE
8
Black
10
137.413
20
-134.095
11
137.538
21
-134.438
0
LINE
8
Black
10
137.538
20
-134.438
11
137.538
21
-134.802
0
LINE
8
Black
10
137.538
20
-134.802
11
137.413
21
-135.145
0
LINE
8
Black
10
137.413
20
-135.145
11
137.179
21
-135.424
0
LINE
8
Black
10
137.179
20
-135.424
11
136.863
21
-135.607
0
LINE
8
Black
10
136.863
20
-135.607
11
136.504
21
-135.67
0
LINE
8
Black
10
136.504
20
-135.67
11
136.496
21
-135.67
0
LINE
8
Black
10
136.496
20
-135.67
11
136.137
21
-135.607
0
LINE
8
Black
10
136.137
20
-135.607
11
135.821
21
-135.424
0
LINE
8
Black
10
135.821
20
-135.424
11
135.587
21
-135.145
0
LINE
8
Black
10
135.587
20
-135.145
11
135.462
21
-134.802
0
LINE
8
Black
10
135.462
20
-134.802
11
135.462
21
-134.438
0
LINE
8
Black
10
135.462
20
-134.438
11
135.587
21
-134.095
0
LINE
8
Black
10
135.587
20
-134.095
11
135.821
21
-133.816
0
LINE
8
Black
10
135.821
20
-133.816
11
136.137
21
-133.633
0
LINE
8
Black
10
136.137
20
-133.633
11
136.496
21
-133.57
0
LINE
8
Black
10
136.496
20
-133.57
11
136.504
21
-133.57
0
LINE
8
Black
10
136.504
20
-133.57
11
136.863
21
-133.633
0
LINE
8
Black
10
181.863
20
-133.633
11
182.179
21
-133.816
0
LINE
8
Black
10
182.179
20
-133.816
11
182.413
21
-134.095
0
LINE
8
Black
10
182.413
20
-134.095
11
182.538
21
-134.438
0
LINE
8
Black
10
182.538
20
-134.438
11
182.538
21
-134.802
0
LINE
8
Black
10
182.538
20
-134.802
11
182.413
21
-135.145
0
LINE
8
Black
10
182.413
20
-135.145
11
182.179
21
-135.424
0
LINE
8
Black
10
182.179
20
-135.424
11
181.863
21
-135.607
0
LINE
8
Black
10
181.863
20
-135.607
11
181.504
21
-135.67
0
LINE
8
Black
10
181.504
20
-135.67
11
181.496
21
-135.67
0
LINE
8
Black
10
181.496
20
-135.67
11
181.137
21
-135.607
0
LINE
8
Black
10
181.137
20
-135.607
11
180.821
21
-135.424
0
LINE
8
Black
10
180.821
20
-135.424
11
180.587
21
-135.145
0
LINE
8
Black
10
180.587
20
-135.145
11
180.462
21
-134.802
0
LINE
8
Black
10
180.462
20
-134.802
11
180.462
21
-134.438
0
LINE
8
Black
10
180.462
20
-134.438
11
180.587
21
-134.095
0
LINE
8
Black
10
180.587
20
-134.095
11
180.821
21
-133.816
0
LINE
8
Black
10
180.821
20
-133.816
11
181.137
21
-133.633
0
LINE
8
Black
10
181.137
20
-133.633
11
181.496
21
-133.57
0
LINE
8
Black
10
181.496
20
-133.57
11
181.504
21
-133.57
0
LINE
8
Black
10
181.504
20
-133.57
11
181.863
21
-133.633
0
LINE
8
Black
10
136.863
20
-131.093
11
137.179
21
-131.276
0
LINE
8
Black
10
137.179
20
-131.276
11
137.413
21
-131.555
0
LINE
8
Black
10
137.413
20
-131.555
11
137.538
21
-131.898
0
LINE
8
Black
10
137.538
20
-131.898
11
137.538
21
-132.262
0
LINE
8
Black
10
137.538
20
-132.262
11
137.413
21
-132.605
0
LINE
8
Black
10
137.413
20
-132.605
11
137.179
21
-132.884
0
LINE
8
Black
10
137.179
20
-132.884
11
136.863
21
-133.067
0
LINE
8
Black
10
136.863
20
-133.067
11
136.504
21
-133.13
0
LINE
8
Black
10
136.504
20
-133.13
11
136.496
21
-133.13
0
LINE
8
Black
10
136.496
20
-133.13
11
136.137
21
-133.067
0
LINE
8
Black
10
136.137
20
-133.067
11
135.821
21
-132.884
0
LINE
8
Black
10
135.821
20
-132.884
11
135.587
21
-132.605
0
LINE
8
Black
10
135.587
20
-132.605
11
135.462
21
-132.262
0
LINE
8
Black
10
135.462
20
-132.262
11
135.462
21
-131.898
0
LINE
8
Black
10
135.462
20
-131.898
11
135.587
21
-131.555
0
LINE
8
Black
10
135.587
20
-131.555
11
135.821
21
-131.276
0
LINE
8
Black
10
135.821
20
-131.276
11
136.137
21
-131.093
0
LINE
8
Black
10
136.137
20
-131.093
11
136.496
21
-131.03
0
LINE
8
Black
10
136.496
20
-131.03
11
136.504
21
-131.03
0
LINE
8
Black
10
136.504
20
-131.03
11
136.863
21
-131.093
0
LINE
8
Black
10
181.863
20
-131.093
11
182.179
21
-131.276
0
LINE
8
Black
10
182.179
20
-131.276
11
182.413
21
-131.555
0
LINE
8
Black
10
182.413
20
-131.555
11
182.538
21
-131.898
0
LINE
8
Black
10
182.538
20
-131.898
11
182.538
21
-132.262
0
LINE
8
Black
10
182.538
20
-132.262
11
182.413
21
-132.605
0
LINE
8
Black
10
182.413
20
-132.605
11
182.179
21
-132.884
0
LINE
8
Black
10
182.179
20
-132.884
11
181.863
21
-133.067
0
LINE
8
Black
10
181.863
20
-133.067
11
181.504
21
-133.13
0
LINE
8
Black
10
181.504
20
-133.13
11
181.496
21
-133.13
0
LINE
8
Black
10
181.496
20
-133.13
11
181.137
21
-133.067
0
LINE
8
Black
10
181.137
20
-133.067
11
180.821
21
-132.884
0
LINE
8
Black
10
180.821
20
-132.884
11
180.587
21
-132.605
0
LINE
8
Black
10
180.587
20
-132.605
11
180.462
21
-132.262
0
LINE
8
Black
10
180.462
20
-132.262
11
180.462
21
-131.898
0
LINE
8
Black
10
180.462
20
-131.898
11
180.587
21
-131.555
0
LINE
8
Black
10
180.587
20
-131.555
11
180.821
21
-131.276
0
LINE
8
Black
10
180.821
20
-131.276
11
181.137
21
-131.093
0
LINE
8
Black
10
181.137
20
-131.093
11
181.496
21
-131.03
0
LINE
8
Black
10
181.496
20
-131.03
11
181.504
21
-131.03
0
LINE
8
Black
10
181.504
20
-131.03
11
181.863
21
-131.093
0
LINE
8
Black
10
162.926
20
-132.7
11
160.826
21
-132.7
0
LINE
8
Black
10
160.826
20
-132.7
11
160.826
21
-130.6
0
LINE
8
Black
10
160.826
20
-130.6
11
162.926
21
-130.6
0
LINE
8
Black
10
162.926
20
-130.6
11
162.926
21
-132.7
0
LINE
8
Black
10
159.861
20
-130.737
11
160.14
21
-130.971
0
LINE
8
Black
10
160.14
20
-130.971
11
160.323
21
-131.287
0
LINE
8
Black
10
160.323
20
-131.287
11
160.386
21
-131.646
0
LINE
8
Black
10
160.386
20
-131.646
11
160.386
21
-131.654
0
LINE
8
Black
10
160.386
20
-131.654
11
160.323
21
-132.013
0
LINE
8
Black
10
160.323
20
-132.013
11
160.14
21
-132.329
0
LINE
8
Black
10
160.14
20
-132.329
11
159.861
21
-132.563
0
LINE
8
Black
10
159.861
20
-132.563
11
159.518
21
-132.688
0
LINE
8
Black
10
159.518
20
-132.688
11
159.154
21
-132.688
0
LINE
8
Black
10
159.154
20
-132.688
11
158.811
21
-132.563
0
LINE
8
Black
10
158.811
20
-132.563
11
158.532
21
-132.329
0
LINE
8
Black
10
158.532
20
-132.329
11
158.349
21
-132.013
0
LINE
8
Black
10
158.349
20
-132.013
11
158.286
21
-131.654
0
LINE
8
Black
10
158.286
20
-131.654
11
158.286
21
-131.646
0
LINE
8
Black
10
158.286
20
-131.646
11
158.349
21
-131.287
0
LINE
8
Black
10
158.349
20
-131.287
11
158.532
21
-130.971
0
LINE
8
Black
10
158.532
20
-130.971
11
158.811
21
-130.737
0
LINE
8
Black
10
158.811
20
-130.737
11
159.154
21
-130.612
0
LINE
8
Black
10
159.154
20
-130.612
11
159.518
21
-130.612
0
LINE
8
Black
10
159.518
20
-130.612
11
159.861
21
-130.737
0
LINE
8
Black
10
157.321
20
-130.737
11
157.6
21
-130.971
0
LINE
8
Black
10
157.6
20
-130.971
11
157.783
21
-131.287
0
LINE
8
Black
10
157.783
20
-131.287
11
157.846
21
-131.646
0
LINE
8
Black
10
157.846
20
-131.646
11
157.846
21
-131.654
0
LINE
8
Black
10
157.846
20
-131.654
11
157.783
21
-132.013
0
LINE
8
Black
10
157.783
20
-132.013
11
157.6
21
-132.329
0
LINE
8
Black
10
157.6
20
-132.329
11
157.321
21
-132.563
0
LINE
8
Black
10
157.321
20
-132.563
11
156.978
21
-132.688
0
LINE
8
Black
10
156.978
20
-132.688
11
156.614
21
-132.688
0
LINE
8
Black
10
156.614
20
-132.688
11
156.271
21
-132.563
0
LINE
8
Black
10
156.271
20
-132.563
11
155.992
21
-132.329
0
LINE
8
Black
10
155.992
20
-132.329
11
155.809
21
-132.013
0
LINE
8
Black
10
155.809
20
-132.013
11
155.746
21
-131.654
0
LINE
8
Black
10
155.746
20
-131.654
11
155.746
21
-131.646
0
LINE
8
Black
10
155.746
20
-131.646
11
155.809
21
-131.287
0
LINE
8
Black
10
155.809
20
-131.287
11
155.992
21
-130.971
0
LINE
8
Black
10
155.992
20
-130.971
11
156.271
21
-130.737
0
LINE
8
Black
10
156.271
20
-130.737
11
156.614
21
-130.612
0
LINE
8
Black
10
156.614
20
-130.612
11
156.978
21
-130.612
0
LINE
8
Black
10
156.978
20
-130.612
11
157.321
21
-130.737
0
LINE
8
Black
10
154.781
20
-130.737
11
155.06
21
-130.971
0
LINE
8
Black
10
155.06
20
-130.971
11
155.243
21
-131.287
0
LINE
8
Black
10
155.243
20
-131.287
11
155.306
21
-131.646
0
LINE
8
Black
10
155.306
20
-131.646
11
155.306
21
-131.654
0
LINE
8
Black
10
155.306
20
-131.654
11
155.243
21
-132.013
0
LINE
8
Black
10
155.243
20
-132.013
11
155.06
21
-132.329
0
LINE
8
Black
10
155.06
20
-132.329
11
154.781
21
-132.563
0
LINE
8
Black
10
154.781
20
-132.563
11
154.438
21
-132.688
0
LINE
8
Black
10
154.438
20
-132.688
11
154.074
21
-132.688
0
LINE
8
Black
10
154.074
20
-132.688
11
153.731
21
-132.563
0
LINE
8
Black
10
153.731
20
-132.563
11
153.452
21
-132.329
0
LINE
8
Black
10
153.452
20
-132.329
11
153.269
21
-132.013
0
LINE
8
Black
10
153.269
20
-132.013
11
153.206
21
-131.654
0
LINE
8
Black
10
153.206
20
-131.654
11
153.206
21
-131.646
0
LINE
8
Black
10
153.206
20
-131.646
11
153.269
21
-131.287
0
LINE
8
Black
10
153.269
20
-131.287
11
153.452
21
-130.971
0
LINE
8
Black
10
153.452
20
-130.971
11
153.731
21
-130.737
0
LINE
8
Black
10
153.731
20
-130.737
11
154.074
21
-130.612
0
LINE
8
Black
10
154.074
20
-130.612
11
154.438
21
-130.612
0
LINE
8
Black
10
154.438
20
-130.612
11
154.781
21
-130.737
0
LINE
8
Black
10
152.241
20
-130.737
11
152.52
21
-130.971
0
LINE
8
Black
10
152.52
20
-130.971
11
152.703
21
-131.287
0
LINE
8
Black
10
152.703
20
-131.287
11
152.766
21
-131.646
0
LINE
8
Black
10
152.766
20
-131.646
11
152.766
21
-131.654
0
LINE
8
Black
10
152.766
20
-131.654
11
152.703
21
-132.013
0
LINE
8
Black
10
152.703
20
-132.013
11
152.52
21
-132.329
0
LINE
8
Black
10
152.52
20
-132.329
11
152.241
21
-132.563
0
LINE
8
Black
10
152.241
20
-132.563
11
151.898
21
-132.688
0
LINE
8
Black
10
151.898
20
-132.688
11
151.534
21
-132.688
0
LINE
8
Black
10
151.534
20
-132.688
11
151.191
21
-132.563
0
LINE
8
Black
10
151.191
20
-132.563
11
150.912
21
-132.329
0
LINE
8
Black
10
150.912
20
-132.329
11
150.729
21
-132.013
0
LINE
8
Black
10
150.729
20
-132.013
11
150.666
21
-131.654
0
LINE
8
Black
10
150.666
20
-131.654
11
150.666
21
-131.646
0
LINE
8
Black
10
150.666
20
-131.646
11
150.729
21
-131.287
0
LINE
8
Black
10
150.729
20
-131.287
11
150.912
21
-130.971
0
LINE
8
Black
10
150.912
20
-130.971
11
151.191
21
-130.737
0
LINE
8
Black
10
151.191
20
-130.737
11
151.534
21
-130.612
0
LINE
8
Black
10
151.534
20
-130.612
11
151.898
21
-130.612
0
LINE
8
Black
10
151.898
20
-130.612
11
152.241
21
-130.737
0
LINE
8
Black
10
136.863
20
-128.553
11
137.179
21
-128.736
0
LINE
8
Black
10
137.179
20
-128.736
11
137.413
21
-129.015
0
LINE
8
Black
10
137.413
20
-129.015
11
137.538
21
-129.358
0
LINE
8
Black
10
137.538
20
-129.358
11
137.538
21
-129.722
0
LINE
8
Black
10
137.538
20
-129.722
11
137.413
21
-130.065
0
LINE
8
Black
10
137.413
20
-130.065
11
137.179
21
-130.344
0
LINE
8
Black
10
137.179
20
-130.344
11
136.863
21
-130.527
0
LINE
8
Black
10
136.863
20
-130.527
11
136.504
21
-130.59
0
LINE
8
Black
10
136.504
20
-130.59
11
136.496
21
-130.59
0
LINE
8
Black
10
136.496
20
-130.59
11
136.137
21
-130.527
0
LINE
8
Black
10
136.137
20
-130.527
11
135.821
21
-130.344
0
LINE
8
Black
10
135.821
20
-130.344
11
135.587
21
-130.065
0
LINE
8
Black
10
135.587
20
-130.065
11
135.462
21
-129.722
0
LINE
8
Black
10
135.462
20
-129.722
11
135.462
21
-129.358
0
LINE
8
Black
10
135.462
20
-129.358
11
135.587
21
-129.015
0
LINE
8
Black
10
135.587
20
-129.015
11
135.821
21
-128.736
0
LINE
8
Black
10
135.821
20
-128.736
11
136.137
21
-128.553
0
LINE
8
Black
10
136.137
20
-128.553
11
136.496
21
-128.49
0
LINE
8
Black
10
136.496
20
-128.49
11
136.504
21
-128.49
0
LINE
8
Black
10
136.504
20
-128.49
11
136.863
21
-128.553
0
LINE
8
Black
10
181.863
20
-128.553
11
182.179
21
-128.736
0
LINE
8
Black
10
182.179
20
-128.736
11
182.413
21
-129.015
0
LINE
8
Black
10
182.413
20
-129.015
11
182.538
21
-129.358
0
LINE
8
Black
10
182.538
20
-129.358
11
182.538
21
-129.722
0
LINE
8
Black
10
182.538
20
-129.722
11
182.413
21
-130.065
0
LINE
8
Black
10
182.413
20
-130.065
11
182.179
21
-130.344
0
LINE
8
Black
10
182.179
20
-130.344
11
181.863
21
-130.527
0
LINE
8
Black
10
181.863
20
-130.527
11
181.504
21
-130.59
0
LINE
8
Black
10
181.504
20
-130.59
11
181.496
21
-130.59
0
LINE
8
Black
10
181.496
20
-130.59
11
181.137
21
-130.527
0
LINE
8
Black
10
181.137
20
-130.527
11
180.821
21
-130.344
0
LINE
8
Black
10
180.821
20
-130.344
11
180.587
21
-130.065
0
LINE
8
Black
10
180.587
20
-130.065
11
180.462
21
-129.722
0
LINE
8
Black
10
180.462
20
-129.722
11
180.462
21
-129.358
0
LINE
8
Black
10
180.462
20
-129.358
11
180.587
21
-129.015
0
LINE
8
Black
10
180.587
20
-129.015
11
180.821
21
-128.736
0
LINE
8
Black
10
180.821
20
-128.736
11
181.137
21
-128.553
0
LINE
8
Black
10
181.137
20
-128.553
11
181.496
21
-128.49
0
LINE
8
Black
10
181.496
20
-128.49
11
181.504
21
-128.49
0
LINE
8
Black
10
181.504
20
-128.49
11
181.863
21
-128.553
0
LINE
8
Black
10
182.55
20
-128.05
11
180.45
21
-128.05
0
LINE
8
Black
10
180.45
20
-128.05
11
180.45
21
-125.95
0
LINE
8
Black
10
180.45
20
-125.95
11
182.55
21
-125.95
0
LINE
8
Black
10
182.55
20
-125.95
11
182.55
21
-128.05
0
LINE
8
Black
10
137.55
20
-128.05
11
135.45
21
-128.05
0
LINE
8
Black
10
135.45
20
-128.05
11
135.45
21
-125.95
0
LINE
8
Black
10
135.45
20
-125.95
11
137.55
21
-125.95
0
LINE
8
Black
10
137.55
20
-125.95
11
137.55
21
-128.05
0
LINE
8
Black
10
141.343
20
-125.057
11
141.645
21
-125.231
0
LINE
8
Black
10
141.645
20
-125.231
11
141.869
21
-125.498
0
LINE
8
Black
10
141.869
20
-125.498
11
141.989
21
-125.826
0
LINE
8
Black
10
141.989
20
-125.826
11
141.989
21
-126.174
0
LINE
8
Black
10
141.989
20
-126.174
11
141.869
21
-126.502
0
LINE
8
Black
10
141.869
20
-126.502
11
141.645
21
-126.769
0
LINE
8
Black
10
141.645
20
-126.769
11
141.343
21
-126.943
0
LINE
8
Black
10
141.343
20
-126.943
11
141
21
-127.004
0
LINE
8
Black
10
141
20
-127.004
11
140.657
21
-126.943
0
LINE
8
Black
10
140.657
20
-126.943
11
140.355
21
-126.769
0
LINE
8
Black
10
140.355
20
-126.769
11
140.131
21
-126.502
0
LINE
8
Black
10
140.131
20
-126.502
11
140.011
21
-126.174
0
LINE
8
Black
10
140.011
20
-126.174
11
140.011
21
-125.826
0
LINE
8
Black
10
140.011
20
-125.826
11
140.131
21
-125.498
0
LINE
8
Black
10
140.131
20
-125.498
11
140.355
21
-125.231
0
LINE
8
Black
10
140.355
20
-125.231
11
140.657
21
-125.057
0
LINE
8
Black
10
140.657
20
-125.057
11
141
21
-124.996
0
LINE
8
Black
10
141
20
-124.996
11
141.343
21
-125.057
0
LINE
8
Black
10
151.506
20
-125.06
11
151.807
21
-125.234
0
LINE
8
Black
10
151.807
20
-125.234
11
152.03
21
-125.5
0
LINE
8
Black
10
152.03
20
-125.5
11
152.149
21
-125.826
0
LINE
8
Black
10
152.149
20
-125.826
11
152.149
21
-126.174
0
LINE
8
Black
10
152.149
20
-126.174
11
152.03
21
-126.5
0
LINE
8
Black
10
152.03
20
-126.5
11
151.807
21
-126.766
0
LINE
8
Black
10
151.807
20
-126.766
11
151.506
21
-126.94
0
LINE
8
Black
10
151.506
20
-126.94
11
151.164
21
-127
0
LINE
8
Black
10
151.164
20
-127
11
151.156
21
-127
0
LINE
8
Black
10
151.156
20
-127
11
150.814
21
-126.94
0
LINE
8
Black
10
150.814
20
-126.94
11
150.513
21
-126.766
0
LINE
8
Black
10
150.513
20
-126.766
11
150.29
21
-126.5
0
LINE
8
Black
10
150.29
20
-126.5
11
150.171
21
-126.174
0
LINE
8
Black
10
150.171
20
-126.174
11
150.171
21
-125.826
0
LINE
8
Black
10
150.171
20
-125.826
11
150.29
21
-125.5
0
LINE
8
Black
10
150.29
20
-125.5
11
150.513
21
-125.234
0
LINE
8
Black
10
150.513
20
-125.234
11
150.814
21
-125.06
0
LINE
8
Black
10
150.814
20
-125.06
11
151.156
21
-125
0
LINE
8
Black
10
151.156
20
-125
11
151.164
21
-125
0
LINE
8
Black
10
151.164
20
-125
11
151.506
21
-125.06
0
LINE
8
Black
10
182.55
20
-123.05
11
180.45
21
-123.05
0
LINE
8
Black
10
180.45
20
-123.05
11
180.45
21
-120.95
0
LINE
8
Black
10
180.45
20
-120.95
11
182.55
21
-120.95
0
LINE
8
Black
10
182.55
20
-120.95
11
182.55
21
-123.05
0
LINE
8
Black
10
158.343
20
-121.057
11
158.645
21
-121.231
0
LINE
8
Black
10
158.645
20
-121.231
11
158.869
21
-121.498
0
LINE
8
Black
10
158.869
20
-121.498
11
158.989
21
-121.826
0
LINE
8
Black
10
158.989
20
-121.826
11
158.989
21
-122.174
0
LINE
8
Black
10
158.989
20
-122.174
11
158.869
21
-122.502
0
LINE
8
Black
10
158.869
20
-122.502
11
158.645
21
-122.769
0
LINE
8
Black
10
158.645
20
-122.769
11
158.343
21
-122.943
0
LINE
8
Black
10
158.343
20
-122.943
11
158
21
-123.004
0
LINE
8
Black
10
158
20
-123.004
11
157.657
21
-122.943
0
LINE
8
Black
10
157.657
20
-122.943
11
157.355
21
-122.769
0
LINE
8
Black
10
157.355
20
-122.769
11
157.131
21
-122.502
0
LINE
8
Black
10
157.131
20
-122.502
11
157.011
21
-122.174
0
LINE
8
Black
10
157.011
20
-122.174
11
157.011
21
-121.826
0
LINE
8
Black
10
157.011
20
-121.826
11
157.131
21
-121.498
0
LINE
8
Black
10
157.131
20
-121.498
11
157.355
21
-121.231
0
LINE
8
Black
10
157.355
20
-121.231
11
157.657
21
-121.057
0
LINE
8
Black
10
157.657
20
-121.057
11
158
21
-120.996
0
LINE
8
Black
10
158
20
-120.996
11
158.343
21
-121.057
0
LINE
8
Black
10
141.343
20
-121.057
11
141.645
21
-121.231
0
LINE
8
Black
10
141.645
20
-121.231
11
141.869
21
-121.498
0
LINE
8
Black
10
141.869
20
-121.498
11
141.989
21
-121.826
0
LINE
8
Black
10
141.989
20
-121.826
11
141.989
21
-122.174
0
LINE
8
Black
10
141.989
20
-122.174
11
141.869
21
-122.502
0
LINE
8
Black
10
141.869
20
-122.502
11
141.645
21
-122.769
0
LINE
8
Black
10
141.645
20
-122.769
11
141.343
21
-122.943
0
LINE
8
Black
10
141.343
20
-122.943
11
141
21
-123.004
0
LINE
8
Black
10
141
20
-123.004
11
140.657
21
-122.943
0
LINE
8
Black
10
140.657
20
-122.943
11
140.355
21
-122.769
0
LINE
8
Black
10
140.355
20
-122.769
11
140.131
21
-122.502
0
LINE
8
Black
10
140.131
20
-122.502
11
140.011
21
-122.174
0
LINE
8
Black
10
140.011
20
-122.174
11
140.011
21
-121.826
0
LINE
8
Black
10
140.011
20
-121.826
11
140.131
21
-121.498
0
LINE
8
Black
10
140.131
20
-121.498
11
140.355
21
-121.231
0
LINE
8
Black
10
140.355
20
-121.231
11
140.657
21
-121.057
0
LINE
8
Black
10
140.657
20
-121.057
11
141
21
-120.996
0
LINE
8
Black
10
141
20
-120.996
11
141.343
21
-121.057
0
LINE
8
Black
10
164.343
20
-121.057
11
164.645
21
-121.231
0
LINE
8
Black
10
164.645
20
-121.231
11
164.869
21
-121.498
0
LINE
8
Black
10
164.869
20
-121.498
11
164.989
21
-121.826
0
LINE
8
Black
10
164.989
20
-121.826
11
164.989
21
-122.174
0
LINE
8
Black
10
164.989
20
-122.174
11
164.869
21
-122.502
0
LINE
8
Black
10
164.869
20
-122.502
11
164.645
21
-122.769
0
LINE
8
Black
10
164.645
20
-122.769
11
164.343
21
-122.943
0
LINE
8
Black
10
164.343
20
-122.943
11
164
21
-123.004
0
LINE
8
Black
10
164
20
-123.004
11
163.657
21
-122.943
0
LINE
8
Black
10
163.657
20
-122.943
11
163.355
21
-122.769
0
LINE
8
Black
10
163.355
20
-122.769
11
163.131
21
-122.502
0
LINE
8
Black
10
163.131
20
-122.502
11
163.011
21
-122.174
0
LINE
8
Black
10
163.011
20
-122.174
11
163.011
21
-121.826
0
LINE
8
Black
10
163.011
20
-121.826
11
163.131
21
-121.498
0
LINE
8
Black
10
163.131
20
-121.498
11
163.355
21
-121.231
0
LINE
8
Black
10
163.355
20
-121.231
11
163.657
21
-121.057
0
LINE
8
Black
10
163.657
20
-121.057
11
164
21
-120.996
0
LINE
8
Black
10
164
20
-120.996
11
164.343
21
-121.057
0
LINE
8
Black
10
160.843
20
-121.057
11
161.145
21
-121.231
0
LINE
8
Black
10
161.145
20
-121.231
11
161.369
21
-121.498
0
LINE
8
Black
10
161.369
20
-121.498
11
161.489
21
-121.826
0
LINE
8
Black
10
161.489
20
-121.826
11
161.489
21
-122.174
0
LINE
8
Black
10
161.489
20
-122.174
11
161.369
21
-122.502
0
LINE
8
Black
10
161.369
20
-122.502
11
161.145
21
-122.769
0
LINE
8
Black
10
161.145
20
-122.769
11
160.843
21
-122.943
0
LINE
8
Black
10
160.843
20
-122.943
11
160.5
21
-123.004
0
LINE
8
Black
10
160.5
20
-123.004
11
160.157
21
-122.943
0
LINE
8
Black
10
160.157
20
-122.943
11
159.855
21
-122.769
0
LINE
8
Black
10
159.855
20
-122.769
11
159.631
21
-122.502
0
LINE
8
Black
10
159.631
20
-122.502
11
159.511
21
-122.174
0
LINE
8
Black
10
159.511
20
-122.174
11
159.511
21
-121.826
0
LINE
8
Black
10
159.511
20
-121.826
11
159.631
21
-121.498
0
LINE
8
Black
10
159.631
20
-121.498
11
159.855
21
-121.231
0
LINE
8
Black
10
159.855
20
-121.231
11
160.157
21
-121.057
0
LINE
8
Black
10
160.157
20
-121.057
11
160.5
21
-120.996
0
LINE
8
Black
10
160.5
20
-120.996
11
160.843
21
-121.057
0
LINE
8
Black
10
174.506
20
-121.06
11
174.807
21
-121.234
0
LINE
8
Black
10
174.807
20
-121.234
11
175.03
21
-121.5
0
LINE
8
Black
10
175.03
20
-121.5
11
175.149
21
-121.826
0
LINE
8
Black
10
175.149
20
-121.826
11
175.149
21
-122.174
0
LINE
8
Black
10
175.149
20
-122.174
11
175.03
21
-122.5
0
LINE
8
Black
10
175.03
20
-122.5
11
174.807
21
-122.766
0
LINE
8
Black
10
174.807
20
-122.766
11
174.506
21
-122.94
0
LINE
8
Black
10
174.506
20
-122.94
11
174.164
21
-123
0
LINE
8
Black
10
174.164
20
-123
11
174.156
21
-123
0
LINE
8
Black
10
174.156
20
-123
11
173.814
21
-122.94
0
LINE
8
Black
10
173.814
20
-122.94
11
173.513
21
-122.766
0
LINE
8
Black
10
173.513
20
-122.766
11
173.29
21
-122.5
0
LINE
8
Black
10
173.29
20
-122.5
11
173.171
21
-122.174
0
LINE
8
Black
10
173.171
20
-122.174
11
173.171
21
-121.826
0
LINE
8
Black
10
173.171
20
-121.826
11
173.29
21
-121.5
0
LINE
8
Black
10
173.29
20
-121.5
11
173.513
21
-121.234
0
LINE
8
Black
10
173.513
20
-121.234
11
173.814
21
-121.06
0
LINE
8
Black
10
173.814
20
-121.06
11
174.156
21
-121
0
LINE
8
Black
10
174.156
20
-121
11
174.164
21
-121
0
LINE
8
Black
10
174.164
20
-121
11
174.506
21
-121.06
0
LINE
8
Black
10
151.506
20
-121.06
11
151.807
21
-121.234
0
LINE
8
Black
10
151.807
20
-121.234
11
152.03
21
-121.5
0
LINE
8
Black
10
152.03
20
-121.5
11
152.149
21
-121.826
0
LINE
8
Black
10
152.149
20
-121.826
11
152.149
21
-122.174
0
LINE
8
Black
10
152.149
20
-122.174
11
152.03
21
-122.5
0
LINE
8
Black
10
152.03
20
-122.5
11
151.807
21
-122.766
0
LINE
8
Black
10
151.807
20
-122.766
11
151.506
21
-122.94
0
LINE
8
Black
10
151.506
20
-122.94
11
151.164
21
-123
0
LINE
8
Black
10
151.164
20
-123
11
151.156
21
-123
0
LINE
8
Black
10
151.156
20
-123
11
150.814
21
-122.94
0
LINE
8
Black
10
150.814
20
-122.94
11
150.513
21
-122.766
0
LINE
8
Black
10
150.513
20
-122.766
11
150.29
21
-122.5
0
LINE
8
Black
10
150.29
20
-122.5
11
150.171
21
-122.174
0
LINE
8
Black
10
150.171
20
-122.174
11
150.171
21
-121.826
0
LINE
8
Black
10
150.171
20
-121.826
11
150.29
21
-121.5
0
LINE
8
Black
10
150.29
20
-121.5
11
150.513
21
-121.234
0
LINE
8
Black
10
150.513
20
-121.234
11
150.814
21
-121.06
0
LINE
8
Black
10
150.814
20
-121.06
11
151.156
21
-121
0
LINE
8
Black
10
151.156
20
-121
11
151.164
21
-121
0
LINE
8
Black
10
151.164
20
-121
11
151.506
21
-121.06
0
LINE
8
Black
10
181.863
20
-118.473
11
182.179
21
-118.656
0
LINE
8
Black
10
182.179
20
-118.656
11
182.413
21
-118.935
0
LINE
8
Black
10
182.413
20
-118.935
11
182.538
21
-119.278
0
LINE
8
Black
10
182.538
20
-119.278
11
182.538
21
-119.642
0
LINE
8
Black
10
182.538
20
-119.642
11
182.413
21
-119.985
0
LINE
8
Black
10
182.413
20
-119.985
11
182.179
21
-120.264
0
LINE
8
Black
10
182.179
20
-120.264
11
181.863
21
-120.447
0
LINE
8
Black
10
181.863
20
-120.447
11
181.504
21
-120.51
0
LINE
8
Black
10
181.504
20
-120.51
11
181.496
21
-120.51
0
LINE
8
Black
10
181.496
20
-120.51
11
181.137
21
-120.447
0
LINE
8
Black
10
181.137
20
-120.447
11
180.821
21
-120.264
0
LINE
8
Black
10
180.821
20
-120.264
11
180.587
21
-119.985
0
LINE
8
Black
10
180.587
20
-119.985
11
180.462
21
-119.642
0
LINE
8
Black
10
180.462
20
-119.642
11
180.462
21
-119.278
0
LINE
8
Black
10
180.462
20
-119.278
11
180.587
21
-118.935
0
LINE
8
Black
10
180.587
20
-118.935
11
180.821
21
-118.656
0
LINE
8
Black
10
180.821
20
-118.656
11
181.137
21
-118.473
0
LINE
8
Black
10
181.137
20
-118.473
11
181.496
21
-118.41
0
LINE
8
Black
10
181.496
20
-118.41
11
181.504
21
-118.41
0
LINE
8
Black
10
181.504
20
-118.41
11
181.863
21
-118.473
0
LINE
8
Black
10
150.946
20
-115.647
11
151.212
21
-115.87
0
LINE
8
Black
10
151.212
20
-115.87
11
151.386
21
-116.171
0
LINE
8
Black
10
151.386
20
-116.171
11
151.446
21
-116.513
0
LINE
8
Black
10
151.446
20
-116.513
11
151.446
21
-117.323
0
LINE
8
Black
10
151.446
20
-117.323
11
151.386
21
-117.665
0
LINE
8
Black
10
151.386
20
-117.665
11
151.212
21
-117.966
0
LINE
8
Black
10
151.212
20
-117.966
11
150.946
21
-118.189
0
LINE
8
Black
10
150.946
20
-118.189
11
150.62
21
-118.308
0
LINE
8
Black
10
150.62
20
-118.308
11
150.272
21
-118.308
0
LINE
8
Black
10
150.272
20
-118.308
11
149.946
21
-118.189
0
LINE
8
Black
10
149.946
20
-118.189
11
149.68
21
-117.966
0
LINE
8
Black
10
149.68
20
-117.966
11
149.506
21
-117.665
0
LINE
8
Black
10
149.506
20
-117.665
11
149.446
21
-117.323
0
LINE
8
Black
10
149.446
20
-117.323
11
149.446
21
-116.513
0
LINE
8
Black
10
149.446
20
-116.513
11
149.506
21
-116.171
0
LINE
8
Black
10
149.506
20
-116.171
11
149.68
21
-115.87
0
LINE
8
Black
10
149.68
20
-115.87
11
149.946
21
-115.647
0
LINE
8
Black
10
149.946
20
-115.647
11
150.272
21
-115.528
0
LINE
8
Black
10
150.272
20
-115.528
11
150.62
21
-115.528
0
LINE
8
Black
10
150.62
20
-115.528
11
150.946
21
-115.647
0
LINE
8
Black
10
143.326
20
-115.647
11
143.592
21
-115.87
0
LINE
8
Black
10
143.592
20
-115.87
11
143.766
21
-116.171
0
LINE
8
Black
10
143.766
20
-116.171
11
143.826
21
-116.513
0
LINE
8
Black
10
143.826
20
-116.513
11
143.826
21
-117.323
0
LINE
8
Black
10
143.826
20
-117.323
11
143.766
21
-117.665
0
LINE
8
Black
10
143.766
20
-117.665
11
143.592
21
-117.966
0
LINE
8
Black
10
143.592
20
-117.966
11
143.326
21
-118.189
0
LINE
8
Black
10
143.326
20
-118.189
11
143
21
-118.308
0
LINE
8
Black
10
143
20
-118.308
11
142.652
21
-118.308
0
LINE
8
Black
10
142.652
20
-118.308
11
142.326
21
-118.189
0
LINE
8
Black
10
142.326
20
-118.189
11
142.06
21
-117.966
0
LINE
8
Black
10
142.06
20
-117.966
11
141.886
21
-117.665
0
LINE
8
Black
10
141.886
20
-117.665
11
141.826
21
-117.323
0
LINE
8
Black
10
141.826
20
-117.323
11
141.826
21
-116.513
0
LINE
8
Black
10
141.826
20
-116.513
11
141.886
21
-116.171
0
LINE
8
Black
10
141.886
20
-116.171
11
142.06
21
-115.87
0
LINE
8
Black
10
142.06
20
-115.87
11
142.326
21
-115.647
0
LINE
8
Black
10
142.326
20
-115.647
11
142.652
21
-115.528
0
LINE
8
Black
10
142.652
20
-115.528
11
143
21
-115.528
0
LINE
8
Black
10
143
20
-115.528
11
143.326
21
-115.647
0
LINE
8
Black
10
148.406
20
-115.647
11
148.672
21
-115.87
0
LINE
8
Black
10
148.672
20
-115.87
11
148.846
21
-116.171
0
LINE
8
Black
10
148.846
20
-116.171
11
148.906
21
-116.513
0
LINE
8
Black
10
148.906
20
-116.513
11
148.906
21
-117.323
0
LINE
8
Black
10
148.906
20
-117.323
11
148.846
21
-117.665
0
LINE
8
Black
10
148.846
20
-117.665
11
148.672
21
-117.966
0
LINE
8
Black
10
148.672
20
-117.966
11
148.406
21
-118.189
0
LINE
8
Black
10
148.406
20
-118.189
11
148.08
21
-118.308
0
LINE
8
Black
10
148.08
20
-118.308
11
147.732
21
-118.308
0
LINE
8
Black
10
147.732
20
-118.308
11
147.406
21
-118.189
0
LINE
8
Black
10
147.406
20
-118.189
11
147.14
21
-117.966
0
LINE
8
Black
10
147.14
20
-117.966
11
146.966
21
-117.665
0
LINE
8
Black
10
146.966
20
-117.665
11
146.906
21
-117.323
0
LINE
8
Black
10
146.906
20
-117.323
11
146.906
21
-116.513
0
LINE
8
Black
10
146.906
20
-116.513
11
146.966
21
-116.171
0
LINE
8
Black
10
146.966
20
-116.171
11
147.14
21
-115.87
0
LINE
8
Black
10
147.14
20
-115.87
11
147.406
21
-115.647
0
LINE
8
Black
10
147.406
20
-115.647
11
147.732
21
-115.528
0
LINE
8
Black
10
147.732
20
-115.528
11
148.08
21
-115.528
0
LINE
8
Black
10
148.08
20
-115.528
11
148.406
21
-115.647
0
LINE
8
Black
10
171.266
20
-115.647
11
171.532
21
-115.87
0
LINE
8
Black
10
171.532
20
-115.87
11
171.706
21
-116.171
0
LINE
8
Black
10
171.706
20
-116.171
11
171.766
21
-116.513
0
LINE
8
Black
10
171.766
20
-116.513
11
171.766
21
-117.323
0
LINE
8
Black
10
171.766
20
-117.323
11
171.706
21
-117.665
0
LINE
8
Black
10
171.706
20
-117.665
11
171.532
21
-117.966
0
LINE
8
Black
10
171.532
20
-117.966
11
171.266
21
-118.189
0
LINE
8
Black
10
171.266
20
-118.189
11
170.94
21
-118.308
0
LINE
8
Black
10
170.94
20
-118.308
11
170.592
21
-118.308
0
LINE
8
Black
10
170.592
20
-118.308
11
170.266
21
-118.189
0
LINE
8
Black
10
170.266
20
-118.189
11
170
21
-117.966
0
LINE
8
Black
10
170
20
-117.966
11
169.826
21
-117.665
0
LINE
8
Black
10
169.826
20
-117.665
11
169.766
21
-117.323
0
LINE
8
Black
10
169.766
20
-117.323
11
169.766
21
-116.513
0
LINE
8
Black
10
169.766
20
-116.513
11
169.826
21
-116.171
0
LINE
8
Black
10
169.826
20
-116.171
11
170
21
-115.87
0
LINE
8
Black
10
170
20
-115.87
11
170.266
21
-115.647
0
LINE
8
Black
10
170.266
20
-115.647
11
170.592
21
-115.528
0
LINE
8
Black
10
170.592
20
-115.528
11
170.94
21
-115.528
0
LINE
8
Black
10
170.94
20
-115.528
11
171.266
21
-115.647
0
LINE
8
Black
10
153.486
20
-115.647
11
153.752
21
-115.87
0
LINE
8
Black
10
153.752
20
-115.87
11
153.926
21
-116.171
0
LINE
8
Black
10
153.926
20
-116.171
11
153.986
21
-116.513
0
LINE
8
Black
10
153.986
20
-116.513
11
153.986
21
-117.323
0
LINE
8
Black
10
153.986
20
-117.323
11
153.926
21
-117.665
0
LINE
8
Black
10
153.926
20
-117.665
11
153.752
21
-117.966
0
LINE
8
Black
10
153.752
20
-117.966
11
153.486
21
-118.189
0
LINE
8
Black
10
153.486
20
-118.189
11
153.16
21
-118.308
0
LINE
8
Black
10
153.16
20
-118.308
11
152.812
21
-118.308
0
LINE
8
Black
10
152.812
20
-118.308
11
152.486
21
-118.189
0
LINE
8
Black
10
152.486
20
-118.189
11
152.22
21
-117.966
0
LINE
8
Black
10
152.22
20
-117.966
11
152.046
21
-117.665
0
LINE
8
Black
10
152.046
20
-117.665
11
151.986
21
-117.323
0
LINE
8
Black
10
151.986
20
-117.323
11
151.986
21
-116.513
0
LINE
8
Black
10
151.986
20
-116.513
11
152.046
21
-116.171
0
LINE
8
Black
10
152.046
20
-116.171
11
152.22
21
-115.87
0
LINE
8
Black
10
152.22
20
-115.87
11
152.486
21
-115.647
0
LINE
8
Black
10
152.486
20
-115.647
11
152.812
21
-115.528
0
LINE
8
Black
10
152.812
20
-115.528
11
153.16
21
-115.528
0
LINE
8
Black
10
153.16
20
-115.528
11
153.486
21
-115.647
0
LINE
8
Black
10
156.026
20
-115.647
11
156.292
21
-115.87
0
LINE
8
Black
10
156.292
20
-115.87
11
156.466
21
-116.171
0
LINE
8
Black
10
156.466
20
-116.171
11
156.526
21
-116.513
0
LINE
8
Black
10
156.526
20
-116.513
11
156.526
21
-117.323
0
LINE
8
Black
10
156.526
20
-117.323
11
156.466
21
-117.665
0
LINE
8
Black
10
156.466
20
-117.665
11
156.292
21
-117.966
0
LINE
8
Black
10
156.292
20
-117.966
11
156.026
21
-118.189
0
LINE
8
Black
10
156.026
20
-118.189
11
155.7
21
-118.308
0
LINE
8
Black
10
155.7
20
-118.308
11
155.352
21
-118.308
0
LINE
8
Black
10
155.352
20
-118.308
11
155.026
21
-118.189
0
LINE
8
Black
10
155.026
20
-118.189
11
154.76
21
-117.966
0
LINE
8
Black
10
154.76
20
-117.966
11
154.586
21
-117.665
0
LINE
8
Black
10
154.586
20
-117.665
11
154.526
21
-117.323
0
LINE
8
Black
10
154.526
20
-117.323
11
154.526
21
-116.513
0
LINE
8
Black
10
154.526
20
-116.513
11
154.586
21
-116.171
0
LINE
8
Black
10
154.586
20
-116.171
11
154.76
21
-115.87
0
LINE
8
Black
10
154.76
20
-115.87
11
155.026
21
-115.647
0
LINE
8
Black
10
155.026
20
-115.647
11
155.352
21
-115.528
0
LINE
8
Black
10
155.352
20
-115.528
11
155.7
21
-115.528
0
LINE
8
Black
10
155.7
20
-115.528
11
156.026
21
-115.647
0
LINE
8
Black
10
145.866
20
-115.647
11
146.132
21
-115.87
0
LINE
8
Black
10
146.132
20
-115.87
11
146.306
21
-116.171
0
LINE
8
Black
10
146.306
20
-116.171
11
146.366
21
-116.513
0
LINE
8
Black
10
146.366
20
-116.513
11
146.366
21
-117.323
0
LINE
8
Black
10
146.366
20
-117.323
11
146.306
21
-117.665
0
LINE
8
Black
10
146.306
20
-117.665
11
146.132
21
-117.966
0
LINE
8
Black
10
146.132
20
-117.966
11
145.866
21
-118.189
0
LINE
8
Black
10
145.866
20
-118.189
11
145.54
21
-118.308
0
LINE
8
Black
10
145.54
20
-118.308
11
145.192
21
-118.308
0
LINE
8
Black
10
145.192
20
-118.308
11
144.866
21
-118.189
0
LINE
8
Black
10
144.866
20
-118.189
11
144.6
21
-117.966
0
LINE
8
Black
10
144.6
20
-117.966
11
144.426
21
-117.665
0
LINE
8
Black
10
144.426
20
-117.665
11
144.366
21
-117.323
0
LINE
8
Black
10
144.366
20
-117.323
11
144.366
21
-116.513
0
LINE
8
Black
10
144.366
20
-116.513
11
144.426
21
-116.171
0
LINE
8
Black
10
144.426
20
-116.171
11
144.6
21
-115.87
0
LINE
8
Black
10
144.6
20
-115.87
11
144.866
21
-115.647
0
LINE
8
Black
10
144.866
20
-115.647
11
145.192
21
-115.528
0
LINE
8
Black
10
145.192
20
-115.528
11
145.54
21
-115.528
0
LINE
8
Black
10
145.54
20
-115.528
11
145.866
21
-115.647
0
LINE
8
Black
10
161.106
20
-115.647
11
161.372
21
-115.87
0
LINE
8
Black
10
161.372
20
-115.87
11
161.546
21
-116.171
0
LINE
8
Black
10
161.546
20
-116.171
11
161.606
21
-116.513
0
LINE
8
Black
10
161.606
20
-116.513
11
161.606
21
-117.323
0
LINE
8
Black
10
161.606
20
-117.323
11
161.546
21
-117.665
0
LINE
8
Black
10
161.546
20
-117.665
11
161.372
21
-117.966
0
LINE
8
Black
10
161.372
20
-117.966
11
161.106
21
-118.189
0
LINE
8
Black
10
161.106
20
-118.189
11
160.78
21
-118.308
0
LINE
8
Black
10
160.78
20
-118.308
11
160.432
21
-118.308
0
LINE
8
Black
10
160.432
20
-118.308
11
160.106
21
-118.189
0
LINE
8
Black
10
160.106
20
-118.189
11
159.84
21
-117.966
0
LINE
8
Black
10
159.84
20
-117.966
11
159.666
21
-117.665
0
LINE
8
Black
10
159.666
20
-117.665
11
159.606
21
-117.323
0
LINE
8
Black
10
159.606
20
-117.323
11
159.606
21
-116.513
0
LINE
8
Black
10
159.606
20
-116.513
11
159.666
21
-116.171
0
LINE
8
Black
10
159.666
20
-116.171
11
159.84
21
-115.87
0
LINE
8
Black
10
159.84
20
-115.87
11
160.106
21
-115.647
0
LINE
8
Black
10
160.106
20
-115.647
11
160.432
21
-115.528
0
LINE
8
Black
10
160.432
20
-115.528
11
160.78
21
-115.528
0
LINE
8
Black
10
160.78
20
-115.528
11
161.106
21
-115.647
0
LINE
8
Black
10
166.186
20
-115.647
11
166.452
21
-115.87
0
LINE
8
Black
10
166.452
20
-115.87
11
166.626
21
-116.171
0
LINE
8
Black
10
166.626
20
-116.171
11
166.686
21
-116.513
0
LINE
8
Black
10
166.686
20
-116.513
11
166.686
21
-117.323
0
LINE
8
Black
10
166.686
20
-117.323
11
166.626
21
-117.665
0
LINE
8
Black
10
166.626
20
-117.665
11
166.452
21
-117.966
0
LINE
8
Black
10
166.452
20
-117.966
11
166.186
21
-118.189
0
LINE
8
Black
10
166.186
20
-118.189
11
165.86
21
-118.308
0
LINE
8
Black
10
165.86
20
-118.308
11
165.512
21
-118.308
0
LINE
8
Black
10
165.512
20
-118.308
11
165.186
21
-118.189
0
LINE
8
Black
10
165.186
20
-118.189
11
164.92
21
-117.966
0
LINE
8
Black
10
164.92
20
-117.966
11
164.746
21
-117.665
0
LINE
8
Black
10
164.746
20
-117.665
11
164.686
21
-117.323
0
LINE
8
Black
10
164.686
20
-117.323
11
164.686
21
-116.513
0
LINE
8
Black
10
164.686
20
-116.513
11
164.746
21
-116.171
0
LINE
8
Black
10
164.746
20
-116.171
11
164.92
21
-115.87
0
LINE
8
Black
10
164.92
20
-115.87
11
165.186
21
-115.647
0
LINE
8
Black
10
165.186
20
-115.647
11
165.512
21
-115.528
0
LINE
8
Black
10
165.512
20
-115.528
11
165.86
21
-115.528
0
LINE
8
Black
10
165.86
20
-115.528
11
166.186
21
-115.647
0
LINE
8
Black
10
163.646
20
-115.647
11
163.912
21
-115.87
0
LINE
8
Black
10
163.912
20
-115.87
11
164.086
21
-116.171
0
LINE
8
Black
10
164.086
20
-116.171
11
164.146
21
-116.513
0
LINE
8
Black
10
164.146
20
-116.513
11
164.146
21
-117.323
0
LINE
8
Black
10
164.146
20
-117.323
11
164.086
21
-117.665
0
LINE
8
Black
10
164.086
20
-117.665
11
163.912
21
-117.966
0
LINE
8
Black
10
163.912
20
-117.966
11
163.646
21
-118.189
0
LINE
8
Black
10
163.646
20
-118.189
11
163.32
21
-118.308
0
LINE
8
Black
10
163.32
20
-118.308
11
162.972
21
-118.308
0
LINE
8
Black
10
162.972
20
-118.308
11
162.646
21
-118.189
0
LINE
8
Black
10
162.646
20
-118.189
11
162.38
21
-117.966
0
LINE
8
Black
10
162.38
20
-117.966
11
162.206
21
-117.665
0
LINE
8
Black
10
162.206
20
-117.665
11
162.146
21
-117.323
0
LINE
8
Black
10
162.146
20
-117.323
11
162.146
21
-116.513
0
LINE
8
Black
10
162.146
20
-116.513
11
162.206
21
-116.171
0
LINE
8
Black
10
162.206
20
-116.171
11
162.38
21
-115.87
0
LINE
8
Black
10
162.38
20
-115.87
11
162.646
21
-115.647
0
LINE
8
Black
10
162.646
20
-115.647
11
162.972
21
-115.528
0
LINE
8
Black
10
162.972
20
-115.528
11
163.32
21
-115.528
0
LINE
8
Black
10
163.32
20
-115.528
11
163.646
21
-115.647
0
LINE
8
Black
10
173.806
20
-115.647
11
174.072
21
-115.87
0
LINE
8
Black
10
174.072
20
-115.87
11
174.246
21
-116.171
0
LINE
8
Black
10
174.246
20
-116.171
11
174.306
21
-116.513
0
LINE
8
Black
10
174.306
20
-116.513
11
174.306
21
-117.323
0
LINE
8
Black
10
174.306
20
-117.323
11
174.246
21
-117.665
0
LINE
8
Black
10
174.246
20
-117.665
11
174.072
21
-117.966
0
LINE
8
Black
10
174.072
20
-117.966
11
173.806
21
-118.189
0
LINE
8
Black
10
173.806
20
-118.189
11
173.48
21
-118.308
0
LINE
8
Black
10
173.48
20
-118.308
11
173.132
21
-118.308
0
LINE
8
Black
10
173.132
20
-118.308
11
172.806
21
-118.189
0
LINE
8
Black
10
172.806
20
-118.189
11
172.54
21
-117.966
0
LINE
8
Black
10
172.54
20
-117.966
11
172.366
21
-117.665
0
LINE
8
Black
10
172.366
20
-117.665
11
172.306
21
-117.323
0
LINE
8
Black
10
172.306
20
-117.323
11
172.306
21
-116.513
0
LINE
8
Black
10
172.306
20
-116.513
11
172.366
21
-116.171
0
LINE
8
Black
10
172.366
20
-116.171
11
172.54
21
-115.87
0
LINE
8
Black
10
172.54
20
-115.87
11
172.806
21
-115.647
0
LINE
8
Black
10
172.806
20
-115.647
11
173.132
21
-115.528
0
LINE
8
Black
10
173.132
20
-115.528
11
173.48
21
-115.528
0
LINE
8
Black
10
173.48
20
-115.528
11
173.806
21
-115.647
0
LINE
8
Black
10
168.726
20
-115.647
11
168.992
21
-115.87
0
LINE
8
Black
10
168.992
20
-115.87
11
169.166
21
-116.171
0
LINE
8
Black
10
169.166
20
-116.171
11
169.226
21
-116.513
0
LINE
8
Black
10
169.226
20
-116.513
11
169.226
21
-117.323
0
LINE
8
Black
10
169.226
20
-117.323
11
169.166
21
-117.665
0
LINE
8
Black
10
169.166
20
-117.665
11
168.992
21
-117.966
0
LINE
8
Black
10
168.992
20
-117.966
11
168.726
21
-118.189
0
LINE
8
Black
10
168.726
20
-118.189
11
168.4
21
-118.308
0
LINE
8
Black
10
168.4
20
-118.308
11
168.052
21
-118.308
0
LINE
8
Black
10
168.052
20
-118.308
11
167.726
21
-118.189
0
LINE
8
Black
10
167.726
20
-118.189
11
167.46
21
-117.966
0
LINE
8
Black
10
167.46
20
-117.966
11
167.286
21
-117.665
0
LINE
8
Black
10
167.286
20
-117.665
11
167.226
21
-117.323
0
LINE
8
Black
10
167.226
20
-117.323
11
167.226
21
-116.513
0
LINE
8
Black
10
167.226
20
-116.513
11
167.286
21
-116.171
0
LINE
8
Black
10
167.286
20
-116.171
11
167.46
21
-115.87
0
LINE
8
Black
10
167.46
20
-115.87
11
167.726
21
-115.647
0
LINE
8
Black
10
167.726
20
-115.647
11
168.052
21
-115.528
0
LINE
8
Black
10
168.052
20
-115.528
11
168.4
21
-115.528
0
LINE
8
Black
10
168.4
20
-115.528
11
168.726
21
-115.647
0
LINE
8
Black
10
176.346
20
-115.647
11
176.612
21
-115.87
0
LINE
8
Black
10
176.612
20
-115.87
11
176.786
21
-116.171
0
LINE
8
Black
10
176.786
20
-116.171
11
176.846
21
-116.513
0
LINE
8
Black
10
176.846
20
-116.513
11
176.846
21
-117.323
0
LINE
8
Black
10
176.846
20
-117.323
11
176.786
21
-117.665
0
LINE
8
Black
10
176.786
20
-117.665
11
176.612
21
-117.966
0
LINE
8
Black
10
176.612
20
-117.966
11
176.346
21
-118.189
0
LINE
8
Black
10
176.346
20
-118.189
11
176.02
21
-118.308
0
LINE
8
Black
10
176.02
20
-118.308
11
175.672
21
-118.308
0
LINE
8
Black
10
175.672
20
-118.308
11
175.346
21
-118.189
0
LINE
8
Black
10
175.346
20
-118.189
11
175.08
21
-117.966
0
LINE
8
Black
10
175.08
20
-117.966
11
174.906
21
-117.665
0
LINE
8
Black
10
174.906
20
-117.665
11
174.846
21
-117.323
0
LINE
8
Black
10
174.846
20
-117.323
11
174.846
21
-116.513
0
LINE
8
Black
10
174.846
20
-116.513
11
174.906
21
-116.171
0
LINE
8
Black
10
174.906
20
-116.171
11
175.08
21
-115.87
0
LINE
8
Black
10
175.08
20
-115.87
11
175.346
21
-115.647
0
LINE
8
Black
10
175.346
20
-115.647
11
175.672
21
-115.528
0
LINE
8
Black
10
175.672
20
-115.528
11
176.02
21
-115.528
0
LINE
8
Black
10
176.02
20
-115.528
11
176.346
21
-115.647
0
LINE
8
Black
10
158.566
20
-115.647
11
158.832
21
-115.87
0
LINE
8
Black
10
158.832
20
-115.87
11
159.006
21
-116.171
0
LINE
8
Black
10
159.006
20
-116.171
11
159.066
21
-116.513
0
LINE
8
Black
10
159.066
20
-116.513
11
159.066
21
-117.323
0
LINE
8
Black
10
159.066
20
-117.323
11
159.006
21
-117.665
0
LINE
8
Black
10
159.006
20
-117.665
11
158.832
21
-117.966
0
LINE
8
Black
10
158.832
20
-117.966
11
158.566
21
-118.189
0
LINE
8
Black
10
158.566
20
-118.189
11
158.24
21
-118.308
0
LINE
8
Black
10
158.24
20
-118.308
11
157.892
21
-118.308
0
LINE
8
Black
10
157.892
20
-118.308
11
157.566
21
-118.189
0
LINE
8
Black
10
157.566
20
-118.189
11
157.3
21
-117.966
0
LINE
8
Black
10
157.3
20
-117.966
11
157.126
21
-117.665
0
LINE
8
Black
10
157.126
20
-117.665
11
157.066
21
-117.323
0
LINE
8
Black
10
157.066
20
-117.323
11
157.066
21
-116.513
0
LINE
8
Black
10
157.066
20
-116.513
11
157.126
21
-116.171
0
LINE
8
Black
10
157.126
20
-116.171
11
157.3
21
-115.87
0
LINE
8
Black
10
157.3
20
-115.87
11
157.566
21
-115.647
0
LINE
8
Black
10
157.566
20
-115.647
11
157.892
21
-115.528
0
LINE
8
Black
10
157.892
20
-115.528
11
158.24
21
-115.528
0
LINE
8
Black
10
158.24
20
-115.528
11
158.566
21
-115.647
0
LINE
8
Black
10
137.343
20
-116.057
11
137.645
21
-116.231
0
LINE
8
Black
10
137.645
20
-116.231
11
137.869
21
-116.498
0
LINE
8
Black
10
137.869
20
-116.498
11
137.989
21
-116.826
0
LINE
8
Black
10
137.989
20
-116.826
11
137.989
21
-117.174
0
LINE
8
Black
10
137.989
20
-117.174
11
137.869
21
-117.502
0
LINE
8
Black
10
137.869
20
-117.502
11
137.645
21
-117.769
0
LINE
8
Black
10
137.645
20
-117.769
11
137.343
21
-117.943
0
LINE
8
Black
10
137.343
20
-117.943
11
137
21
-118.004
0
LINE
8
Black
10
137
20
-118.004
11
136.657
21
-117.943
0
LINE
8
Black
10
136.657
20
-117.943
11
136.355
21
-117.769
0
LINE
8
Black
10
136.355
20
-117.769
11
136.131
21
-117.502
0
LINE
8
Black
10
136.131
20
-117.502
11
136.011
21
-117.174
0
LINE
8
Black
10
136.011
20
-117.174
11
136.011
21
-116.826
0
LINE
8
Black
10
136.011
20
-116.826
11
136.131
21
-116.498
0
LINE
8
Black
10
136.131
20
-116.498
11
136.355
21
-116.231
0
LINE
8
Black
10
136.355
20
-116.231
11
136.657
21
-116.057
0
LINE
8
Black
10
136.657
20
-116.057
11
137
21
-115.996
0
LINE
8
Black
10
137
20
-115.996
11
137.343
21
-116.057
0
LINE
8
Black
10
181.863
20
-115.933
11
182.179
21
-116.116
0
LINE
8
Black
10
182.179
20
-116.116
11
182.413
21
-116.395
0
LINE
8
Black
10
182.413
20
-116.395
11
182.538
21
-116.738
0
LINE
8
Black
10
182.538
20
-116.738
11
182.538
21
-117.102
0
LINE
8
Black
10
182.538
20
-117.102
11
182.413
21
-117.445
0
LINE
8
Black
10
182.413
20
-117.445
11
182.179
21
-117.724
0
LINE
8
Black
10
182.179
20
-117.724
11
181.863
21
-117.907
0
LINE
8
Black
10
181.863
20
-117.907
11
181.504
21
-117.97
0
LINE
8
Black
10
181.504
20
-117.97
11
181.496
21
-117.97
0
LINE
8
Black
10
181.496
20
-117.97
11
181.137
21
-117.907
0
LINE
8
Black
10
181.137
20
-117.907
11
180.821
21
-117.724
0
LINE
8
Black
10
180.821
20
-117.724
11
180.587
21
-117.445
0
LINE
8
Black
10
180.587
20
-117.445
11
180.462
21
-117.102
0
LINE
8
Black
10
180.462
20
-117.102
11
180.462
21
-116.738
0
LINE
8
Black
10
180.462
20
-116.738
11
180.587
21
-116.395
0
LINE
8
Black
10
180.587
20
-116.395
11
180.821
21
-116.116
0
LINE
8
Black
10
180.821
20
-116.116
11
181.137
21
-115.933
0
LINE
8
Black
10
181.137
20
-115.933
11
181.496
21
-115.87
0
LINE
8
Black
10
181.496
20
-115.87
11
181.504
21
-115.87
0
LINE
8
Black
10
181.504
20
-115.87
11
181.863
21
-115.933
0
LINE
8
Black
10
181.863
20
-113.393
11
182.179
21
-113.576
0
LINE
8
Black
10
182.179
20
-113.576
11
182.413
21
-113.855
0
LINE
8
Black
10
182.413
20
-113.855
11
182.538
21
-114.198
0
LINE
8
Black
10
182.538
20
-114.198
11
182.538
21
-114.562
0
LINE
8
Black
10
182.538
20
-114.562
11
182.413
21
-114.905
0
LINE
8
Black
10
182.413
20
-114.905
11
182.179
21
-115.184
0
LINE
8
Black
10
182.179
20
-115.184
11
181.863
21
-115.367
0
LINE
8
Black
10
181.863
20
-115.367
11
181.504
21
-115.43
0
LINE
8
Black
10
181.504
20
-115.43
11
181.496
21
-115.43
0
LINE
8
Black
10
181.496
20
-115.43
11
181.137
21
-115.367
0
LINE
8
Black
10
181.137
20
-115.367
11
180.821
21
-115.184
0
LINE
8
Black
10
180.821
20
-115.184
11
180.587
21
-114.905
0
LINE
8
Black
10
180.587
20
-114.905
11
180.462
21
-114.562
0
LINE
8
Black
10
180.462
20
-114.562
11
180.462
21
-114.198
0
LINE
8
Black
10
180.462
20
-114.198
11
180.587
21
-113.855
0
LINE
8
Black
10
180.587
20
-113.855
11
180.821
21
-113.576
0
LINE
8
Black
10
180.821
20
-113.576
11
181.137
21
-113.393
0
LINE
8
Black
10
181.137
20
-113.393
11
181.496
21
-113.33
0
LINE
8
Black
10
181.496
20
-113.33
11
181.504
21
-113.33
0
LINE
8
Black
10
181.504
20
-113.33
11
181.863
21
-113.393
0
LINE
8
Black
10
137.343
20
-111.057
11
137.645
21
-111.231
0
LINE
8
Black
10
137.645
20
-111.231
11
137.869
21
-111.498
0
LINE
8
Black
10
137.869
20
-111.498
11
137.989
21
-111.826
0
LINE
8
Black
10
137.989
20
-111.826
11
137.989
21
-112.174
0
LINE
8
Black
10
137.989
20
-112.174
11
137.869
21
-112.502
0
LINE
8
Black
10
137.869
20
-112.502
11
137.645
21
-112.769
0
LINE
8
Black
10
137.645
20
-112.769
11
137.343
21
-112.943
0
LINE
8
Black
10
137.343
20
-112.943
11
137
21
-113.004
0
LINE
8
Black
10
137
20
-113.004
11
136.657
21
-112.943
0
LINE
8
Black
10
136.657
20
-112.943
11
136.355
21
-112.769
0
LINE
8
Black
10
136.355
20
-112.769
11
136.131
21
-112.502
0
LINE
8
Black
10
136.131
20
-112.502
11
136.011
21
-112.174
0
LINE
8
Black
10
136.011
20
-112.174
11
136.011
21
-111.826
0
LINE
8
Black
10
136.011
20
-111.826
11
136.131
21
-111.498
0
LINE
8
Black
10
136.131
20
-111.498
11
136.355
21
-111.231
0
LINE
8
Black
10
136.355
20
-111.231
11
136.657
21
-111.057
0
LINE
8
Black
10
136.657
20
-111.057
11
137
21
-110.996
0
LINE
8
Black
10
137
20
-110.996
11
137.343
21
-111.057
0
LINE
8
Black
10
181.863
20
-110.853
11
182.179
21
-111.036
0
LINE
8
Black
10
182.179
20
-111.036
11
182.413
21
-111.315
0
LINE
8
Black
10
182.413
20
-111.315
11
182.538
21
-111.658
0
LINE
8
Black
10
182.538
20
-111.658
11
182.538
21
-112.022
0
LINE
8
Black
10
182.538
20
-112.022
11
182.413
21
-112.365
0
LINE
8
Black
10
182.413
20
-112.365
11
182.179
21
-112.644
0
LINE
8
Black
10
182.179
20
-112.644
11
181.863
21
-112.827
0
LINE
8
Black
10
181.863
20
-112.827
11
181.504
21
-112.89
0
LINE
8
Black
10
181.504
20
-112.89
11
181.496
21
-112.89
0
LINE
8
Black
10
181.496
20
-112.89
11
181.137
21
-112.827
0
LINE
8
Black
10
181.137
20
-112.827
11
180.821
21
-112.644
0
LINE
8
Black
10
180.821
20
-112.644
11
180.587
21
-112.365
0
LINE
8
Black
10
180.587
20
-112.365
11
180.462
21
-112.022
0
LINE
8
Black
10
180.462
20
-112.022
11
180.462
21
-111.658
0
LINE
8
Black
10
180.462
20
-111.658
11
180.587
21
-111.315
0
LINE
8
Black
10
180.587
20
-111.315
11
180.821
21
-111.036
0
LINE
8
Black
10
180.821
20
-111.036
11
181.137
21
-110.853
0
LINE
8
Black
10
181.137
20
-110.853
11
181.496
21
-110.79
0
LINE
8
Black
10
181.496
20
-110.79
11
181.504
21
-110.79
0
LINE
8
Black
10
181.504
20
-110.79
11
181.863
21
-110.853
0
LINE
8
Black
10
176.846
20
-110.698
11
174.846
21
-110.698
0
LINE
8
Black
10
174.846
20
-110.698
11
174.846
21
-107.898
0
LINE
8
Black
10
174.846
20
-107.898
11
176.846
21
-107.898
0
LINE
8
Black
10
176.846
20
-107.898
11
176.846
21
-110.698
0
LINE
8
Black
10
173.806
20
-108.027
11
174.072
21
-108.25
0
LINE
8
Black
10
174.072
20
-108.25
11
174.246
21
-108.551
0
LINE
8
Black
10
174.246
20
-108.551
11
174.306
21
-108.893
0
LINE
8
Black
10
174.306
20
-108.893
11
174.306
21
-109.703
0
LINE
8
Black
10
174.306
20
-109.703
11
174.246
21
-110.045
0
LINE
8
Black
10
174.246
20
-110.045
11
174.072
21
-110.346
0
LINE
8
Black
10
174.072
20
-110.346
11
173.806
21
-110.569
0
LINE
8
Black
10
173.806
20
-110.569
11
173.48
21
-110.688
0
LINE
8
Black
10
173.48
20
-110.688
11
173.132
21
-110.688
0
LINE
8
Black
10
173.132
20
-110.688
11
172.806
21
-110.569
0
LINE
8
Black
10
172.806
20
-110.569
11
172.54
21
-110.346
0
LINE
8
Black
10
172.54
20
-110.346
11
172.366
21
-110.045
0
LINE
8
Black
10
172.366
20
-110.045
11
172.306
21
-109.703
0
LINE
8
Black
10
172.306
20
-109.703
11
172.306
21
-108.893
0
LINE
8
Black
10
172.306
20
-108.893
11
172.366
21
-108.551
0
LINE
8
Black
10
172.366
20
-108.551
11
172.54
21
-108.25
0
LINE
8
Black
10
172.54
20
-108.25
11
172.806
21
-108.027
0
LINE
8
Black
10
172.806
20
-108.027
11
173.132
21
-107.908
0
LINE
8
Black
10
173.132
20
-107.908
11
173.48
21
-107.908
0
LINE
8
Black
10
173.48
20
-107.908
11
173.806
21
-108.027
0
LINE
8
Black
10
148.406
20
-108.027
11
148.672
21
-108.25
0
LINE
8
Black
10
148.672
20
-108.25
11
148.846
21
-108.551
0
LINE
8
Black
10
148.846
20
-108.551
11
148.906
21
-108.893
0
LINE
8
Black
10
148.906
20
-108.893
11
148.906
21
-109.703
0
LINE
8
Black
10
148.906
20
-109.703
11
148.846
21
-110.045
0
LINE
8
Black
10
148.846
20
-110.045
11
148.672
21
-110.346
0
LINE
8
Black
10
148.672
20
-110.346
11
148.406
21
-110.569
0
LINE
8
Black
10
148.406
20
-110.569
11
148.08
21
-110.688
0
LINE
8
Black
10
148.08
20
-110.688
11
147.732
21
-110.688
0
LINE
8
Black
10
147.732
20
-110.688
11
147.406
21
-110.569
0
LINE
8
Black
10
147.406
20
-110.569
11
147.14
21
-110.346
0
LINE
8
Black
10
147.14
20
-110.346
11
146.966
21
-110.045
0
LINE
8
Black
10
146.966
20
-110.045
11
146.906
21
-109.703
0
LINE
8
Black
10
146.906
20
-109.703
11
146.906
21
-108.893
0
LINE
8
Black
10
146.906
20
-108.893
11
146.966
21
-108.551
0
LINE
8
Black
10
146.966
20
-108.551
11
147.14
21
-108.25
0
LINE
8
Black
10
147.14
20
-108.25
11
147.406
21
-108.027
0
LINE
8
Black
10
147.406
20
-108.027
11
147.732
21
-107.908
0
LINE
8
Black
10
147.732
20
-107.908
11
148.08
21
-107.908
0
LINE
8
Black
10
148.08
20
-107.908
11
148.406
21
-108.027
0
LINE
8
Black
10
145.866
20
-108.027
11
146.132
21
-108.25
0
LINE
8
Black
10
146.132
20
-108.25
11
146.306
21
-108.551
0
LINE
8
Black
10
146.306
20
-108.551
11
146.366
21
-108.893
0
LINE
8
Black
10
146.366
20
-108.893
11
146.366
21
-109.703
0
LINE
8
Black
10
146.366
20
-109.703
11
146.306
21
-110.045
0
LINE
8
Black
10
146.306
20
-110.045
11
146.132
21
-110.346
0
LINE
8
Black
10
146.132
20
-110.346
11
145.866
21
-110.569
0
LINE
8
Black
10
145.866
20
-110.569
11
145.54
21
-110.688
0
LINE
8
Black
10
145.54
20
-110.688
11
145.192
21
-110.688
0
LINE
8
Black
10
145.192
20
-110.688
11
144.866
21
-110.569
0
LINE
8
Black
10
144.866
20
-110.569
11
144.6
21
-110.346
0
LINE
8
Black
10
144.6
20
-110.346
11
144.426
21
-110.045
0
LINE
8
Black
10
144.426
20
-110.045
11
144.366
21
-109.703
0
LINE
8
Black
10
144.366
20
-109.703
11
144.366
21
-108.893
0
LINE
8
Black
10
144.366
20
-108.893
11
144.426
21
-108.551
0
LINE
8
Black
10
144.426
20
-108.551
11
144.6
21
-108.25
0
LINE
8
Black
10
144.6
20
-108.25
11
144.866
21
-108.027
0
LINE
8
Black
10
144.866
20
-108.027
11
145.192
21
-107.908
0
LINE
8
Black
10
145.192
20
-107.908
11
145.54
21
-107.908
0
LINE
8
Black
10
145.54
20
-107.908
11
145.866
21
-108.027
0
LINE
8
Black
10
150.946
20
-108.027
11
151.212
21
-108.25
0
LINE
8
Black
10
151.212
20
-108.25
11
151.386
21
-108.551
0
LINE
8
Black
10
151.386
20
-108.551
11
151.446
21
-108.893
0
LINE
8
Black
10
151.446
20
-108.893
11
151.446
21
-109.703
0
LINE
8
Black
10
151.446
20
-109.703
11
151.386
21
-110.045
0
LINE
8
Black
10
151.386
20
-110.045
11
151.212
21
-110.346
0
LINE
8
Black
10
151.212
20
-110.346
11
150.946
21
-110.569
0
LINE
8
Black
10
150.946
20
-110.569
11
150.62
21
-110.688
0
LINE
8
Black
10
150.62
20
-110.688
11
150.272
21
-110.688
0
LINE
8
Black
10
150.272
20
-110.688
11
149.946
21
-110.569
0
LINE
8
Black
10
149.946
20
-110.569
11
149.68
21
-110.346
0
LINE
8
Black
10
149.68
20
-110.346
11
149.506
21
-110.045
0
LINE
8
Black
10
149.506
20
-110.045
11
149.446
21
-109.703
0
LINE
8
Black
10
149.446
20
-109.703
11
149.446
21
-108.893
0
LINE
8
Black
10
149.446
20
-108.893
11
149.506
21
-108.551
0
LINE
8
Black
10
149.506
20
-108.551
11
149.68
21
-108.25
0
LINE
8
Black
10
149.68
20
-108.25
11
149.946
21
-108.027
0
LINE
8
Black
10
149.946
20
-108.027
11
150.272
21
-107.908
0
LINE
8
Black
10
150.272
20
-107.908
11
150.62
21
-107.908
0
LINE
8
Black
10
150.62
20
-107.908
11
150.946
21
-108.027
0
LINE
8
Black
10
153.486
20
-108.027
11
153.752
21
-108.25
0
LINE
8
Black
10
153.752
20
-108.25
11
153.926
21
-108.551
0
LINE
8
Black
10
153.926
20
-108.551
11
153.986
21
-108.893
0
LINE
8
Black
10
153.986
20
-108.893
11
153.986
21
-109.703
0
LINE
8
Black
10
153.986
20
-109.703
11
153.926
21
-110.045
0
LINE
8
Black
10
153.926
20
-110.045
11
153.752
21
-110.346
0
LINE
8
Black
10
153.752
20
-110.346
11
153.486
21
-110.569
0
LINE
8
Black
10
153.486
20
-110.569
11
153.16
21
-110.688
0
LINE
8
Black
10
153.16
20
-110.688
11
152.812
21
-110.688
0
LINE
8
Black
10
152.812
20
-110.688
11
152.486
21
-110.569
0
LINE
8
Black
10
152.486
20
-110.569
11
152.22
21
-110.346
0
LINE
8
Black
10
152.22
20
-110.346
11
152.046
21
-110.045
0
LINE
8
Black
10
152.046
20
-110.045
11
151.986
21
-109.703
0
LINE
8
Black
10
151.986
20
-109.703
11
151.986
21
-108.893
0
LINE
8
Black
10
151.986
20
-108.893
11
152.046
21
-108.551
0
LINE
8
Black
10
152.046
20
-108.551
11
152.22
21
-108.25
0
LINE
8
Black
10
152.22
20
-108.25
11
152.486
21
-108.027
0
LINE
8
Black
10
152.486
20
-108.027
11
152.812
21
-107.908
0
LINE
8
Black
10
152.812
20
-107.908
11
153.16
21
-107.908
0
LINE
8
Black
10
153.16
20
-107.908
11
153.486
21
-108.027
0
LINE
8
Black
10
171.266
20
-108.027
11
171.532
21
-108.25
0
LINE
8
Black
10
171.532
20
-108.25
11
171.706
21
-108.551
0
LINE
8
Black
10
171.706
20
-108.551
11
171.766
21
-108.893
0
LINE
8
Black
10
171.766
20
-108.893
11
171.766
21
-109.703
0
LINE
8
Black
10
171.766
20
-109.703
11
171.706
21
-110.045
0
LINE
8
Black
10
171.706
20
-110.045
11
171.532
21
-110.346
0
LINE
8
Black
10
171.532
20
-110.346
11
171.266
21
-110.569
0
LINE
8
Black
10
171.266
20
-110.569
11
170.94
21
-110.688
0
LINE
8
Black
10
170.94
20
-110.688
11
170.592
21
-110.688
0
LINE
8
Black
10
170.592
20
-110.688
11
170.266
21
-110.569
0
LINE
8
Black
10
170.266
20
-110.569
11
170
21
-110.346
0
LINE
8
Black
10
170
20
-110.346
11
169.826
21
-110.045
0
LINE
8
Black
10
169.826
20
-110.045
11
169.766
21
-109.703
0
LINE
8
Black
10
169.766
20
-109.703
11
169.766
21
-108.893
0
LINE
8
Black
10
169.766
20
-108.893
11
169.826
21
-108.551
0
LINE
8
Black
10
169.826
20
-108.551
11
170
21
-108.25
0
LINE
8
Black
10
170
20
-108.25
11
170.266
21
-108.027
0
LINE
8
Black
10
170.266
20
-108.027
11
170.592
21
-107.908
0
LINE
8
Black
10
170.592
20
-107.908
11
170.94
21
-107.908
0
LINE
8
Black
10
170.94
20
-107.908
11
171.266
21
-108.027
0
LINE
8
Black
10
168.726
20
-108.027
11
168.992
21
-108.25
0
LINE
8
Black
10
168.992
20
-108.25
11
169.166
21
-108.551
0
LINE
8
Black
10
169.166
20
-108.551
11
169.226
21
-108.893
0
LINE
8
Black
10
169.226
20
-108.893
11
169.226
21
-109.703
0
LINE
8
Black
10
169.226
20
-109.703
11
169.166
21
-110.045
0
LINE
8
Black
10
169.166
20
-110.045
11
168.992
21
-110.346
0
LINE
8
Black
10
168.992
20
-110.346
11
168.726
21
-110.569
0
LINE
8
Black
10
168.726
20
-110.569
11
168.4
21
-110.688
0
LINE
8
Black
10
168.4
20
-110.688
11
168.052
21
-110.688
0
LINE
8
Black
10
168.052
20
-110.688
11
167.726
21
-110.569
0
LINE
8
Black
10
167.726
20
-110.569
11
167.46
21
-110.346
0
LINE
8
Black
10
167.46
20
-110.346
11
167.286
21
-110.045
0
LINE
8
Black
10
167.286
20
-110.045
11
167.226
21
-109.703
0
LINE
8
Black
10
167.226
20
-109.703
11
167.226
21
-108.893
0
LINE
8
Black
10
167.226
20
-108.893
11
167.286
21
-108.551
0
LINE
8
Black
10
167.286
20
-108.551
11
167.46
21
-108.25
0
LINE
8
Black
10
167.46
20
-108.25
11
167.726
21
-108.027
0
LINE
8
Black
10
167.726
20
-108.027
11
168.052
21
-107.908
0
LINE
8
Black
10
168.052
20
-107.908
11
168.4
21
-107.908
0
LINE
8
Black
10
168.4
20
-107.908
11
168.726
21
-108.027
0
LINE
8
Black
10
156.026
20
-108.027
11
156.292
21
-108.25
0
LINE
8
Black
10
156.292
20
-108.25
11
156.466
21
-108.551
0
LINE
8
Black
10
156.466
20
-108.551
11
156.526
21
-108.893
0
LINE
8
Black
10
156.526
20
-108.893
11
156.526
21
-109.703
0
LINE
8
Black
10
156.526
20
-109.703
11
156.466
21
-110.045
0
LINE
8
Black
10
156.466
20
-110.045
11
156.292
21
-110.346
0
LINE
8
Black
10
156.292
20
-110.346
11
156.026
21
-110.569
0
LINE
8
Black
10
156.026
20
-110.569
11
155.7
21
-110.688
0
LINE
8
Black
10
155.7
20
-110.688
11
155.352
21
-110.688
0
LINE
8
Black
10
155.352
20
-110.688
11
155.026
21
-110.569
0
LINE
8
Black
10
155.026
20
-110.569
11
154.76
21
-110.346
0
LINE
8
Black
10
154.76
20
-110.346
11
154.586
21
-110.045
0
LINE
8
Black
10
154.586
20
-110.045
11
154.526
21
-109.703
0
LINE
8
Black
10
154.526
20
-109.703
11
154.526
21
-108.893
0
LINE
8
Black
10
154.526
20
-108.893
11
154.586
21
-108.551
0
LINE
8
Black
10
154.586
20
-108.551
11
154.76
21
-108.25
0
LINE
8
Black
10
154.76
20
-108.25
11
155.026
21
-108.027
0
LINE
8
Black
10
155.026
20
-108.027
11
155.352
21
-107.908
0
LINE
8
Black
10
155.352
20
-107.908
11
155.7
21
-107.908
0
LINE
8
Black
10
155.7
20
-107.908
11
156.026
21
-108.027
0
LINE
8
Black
10
166.186
20
-108.027
11
166.452
21
-108.25
0
LINE
8
Black
10
166.452
20
-108.25
11
166.626
21
-108.551
0
LINE
8
Black
10
166.626
20
-108.551
11
166.686
21
-108.893
0
LINE
8
Black
10
166.686
20
-108.893
11
166.686
21
-109.703
0
LINE
8
Black
10
166.686
20
-109.703
11
166.626
21
-110.045
0
LINE
8
Black
10
166.626
20
-110.045
11
166.452
21
-110.346
0
LINE
8
Black
10
166.452
20
-110.346
11
166.186
21
-110.569
0
LINE
8
Black
10
166.186
20
-110.569
11
165.86
21
-110.688
0
LINE
8
Black
10
165.86
20
-110.688
11
165.512
21
-110.688
0
LINE
8
Black
10
165.512
20
-110.688
11
165.186
21
-110.569
0
LINE
8
Black
10
165.186
20
-110.569
11
164.92
21
-110.346
0
LINE
8
Black
10
164.92
20
-110.346
11
164.746
21
-110.045
0
LINE
8
Black
10
164.746
20
-110.045
11
164.686
21
-109.703
0
LINE
8
Black
10
164.686
20
-109.703
11
164.686
21
-108.893
0
LINE
8
Black
10
164.686
20
-108.893
11
164.746
21
-108.551
0
LINE
8
Black
10
164.746
20
-108.551
11
164.92
21
-108.25
0
LINE
8
Black
10
164.92
20
-108.25
11
165.186
21
-108.027
0
LINE
8
Black
10
165.186
20
-108.027
11
165.512
21
-107.908
0
LINE
8
Black
10
165.512
20
-107.908
11
165.86
21
-107.908
0
LINE
8
Black
10
165.86
20
-107.908
11
166.186
21
-108.027
0
LINE
8
Black
10
158.566
20
-108.027
11
158.832
21
-108.25
0
LINE
8
Black
10
158.832
20
-108.25
11
159.006
21
-108.551
0
LINE
8
Black
10
159.006
20
-108.551
11
159.066
21
-108.893
0
LINE
8
Black
10
159.066
20
-108.893
11
159.066
21
-109.703
0
LINE
8
Black
10
159.066
20
-109.703
11
159.006
21
-110.045
0
LINE
8
Black
10
159.006
20
-110.045
11
158.832
21
-110.346
0
LINE
8
Black
10
158.832
20
-110.346
11
158.566
21
-110.569
0
LINE
8
Black
10
158.566
20
-110.569
11
158.24
21
-110.688
0
LINE
8
Black
10
158.24
20
-110.688
11
157.892
21
-110.688
0
LINE
8
Black
10
157.892
20
-110.688
11
157.566
21
-110.569
0
LINE
8
Black
10
157.566
20
-110.569
11
157.3
21
-110.346
0
LINE
8
Black
10
157.3
20
-110.346
11
157.126
21
-110.045
0
LINE
8
Black
10
157.126
20
-110.045
11
157.066
21
-109.703
0
LINE
8
Black
10
157.066
20
-109.703
11
157.066
21
-108.893
0
LINE
8
Black
10
157.066
20
-108.893
11
157.126
21
-108.551
0
LINE
8
Black
10
157.126
20
-108.551
11
157.3
21
-108.25
0
LINE
8
Black
10
157.3
20
-108.25
11
157.566
21
-108.027
0
LINE
8
Black
10
157.566
20
-108.027
11
157.892
21
-107.908
0
LINE
8
Black
10
157.892
20
-107.908
11
158.24
21
-107.908
0
LINE
8
Black
10
158.24
20
-107.908
11
158.566
21
-108.027
0
LINE
8
Black
10
163.646
20
-108.027
11
163.912
21
-108.25
0
LINE
8
Black
10
163.912
20
-108.25
11
164.086
21
-108.551
0
LINE
8
Black
10
164.086
20
-108.551
11
164.146
21
-108.893
0
LINE
8
Black
10
164.146
20
-108.893
11
164.146
21
-109.703
0
LINE
8
Black
10
164.146
20
-109.703
11
164.086
21
-110.045
0
LINE
8
Black
10
164.086
20
-110.045
11
163.912
21
-110.346
0
LINE
8
Black
10
163.912
20
-110.346
11
163.646
21
-110.569
0
LINE
8
Black
10
163.646
20
-110.569
11
163.32
21
-110.688
0
LINE
8
Black
10
163.32
20
-110.688
11
162.972
21
-110.688
0
LINE
8
Black
10
162.972
20
-110.688
11
162.646
21
-110.569
0
LINE
8
Black
10
162.646
20
-110.569
11
162.38
21
-110.346
0
LINE
8
Black
10
162.38
20
-110.346
11
162.206
21
-110.045
0
LINE
8
Black
10
162.206
20
-110.045
11
162.146
21
-109.703
0
LINE
8
Black
10
162.146
20
-109.703
11
162.146
21
-108.893
0
LINE
8
Black
10
162.146
20
-108.893
11
162.206
21
-108.551
0
LINE
8
Black
10
162.206
20
-108.551
11
162.38
21
-108.25
0
LINE
8
Black
10
162.38
20
-108.25
11
162.646
21
-108.027
0
LINE
8
Black
10
162.646
20
-108.027
11
162.972
21
-107.908
0
LINE
8
Black
10
162.972
20
-107.908
11
163.32
21
-107.908
0
LINE
8
Black
10
163.32
20
-107.908
11
163.646
21
-108.027
0
LINE
8
Black
10
161.106
20
-108.027
11
161.372
21
-108.25
0
LINE
8
Black
10
161.372
20
-108.25
11
161.546
21
-108.551
0
LINE
8
Black
10
161.546
20
-108.551
11
161.606
21
-108.893
0
LINE
8
Black
10
161.606
20
-108.893
11
161.606
21
-109.703
0
LINE
8
Black
10
161.606
20
-109.703
11
161.546
21
-110.045
0
LINE
8
Black
10
161.546
20
-110.045
11
161.372
21
-110.346
0
LINE
8
Black
10
161.372
20
-110.346
11
161.106
21
-110.569
0
LINE
8
Black
10
161.106
20
-110.569
11
160.78
21
-110.688
0
LINE
8
Black
10
160.78
20
-110.688
11
160.432
21
-110.688
0
LINE
8
Black
10
160.432
20
-110.688
11
160.106
21
-110.569
0
LINE
8
Black
10
160.106
20
-110.569
11
159.84
21
-110.346
0
LINE
8
Black
10
159.84
20
-110.346
11
159.666
21
-110.045
0
LINE
8
Black
10
159.666
20
-110.045
11
159.606
21
-109.703
0
LINE
8
Black
10
159.606
20
-109.703
11
159.606
21
-108.893
0
LINE
8
Black
10
159.606
20
-108.893
11
159.666
21
-108.551
0
LINE
8
Black
10
159.666
20
-108.551
11
159.84
21
-108.25
0
LINE
8
Black
10
159.84
20
-108.25
11
160.106
21
-108.027
0
LINE
8
Black
10
160.106
20
-108.027
11
160.432
21
-107.908
0
LINE
8
Black
10
160.432
20
-107.908
11
160.78
21
-107.908
0
LINE
8
Black
10
160.78
20
-107.908
11
161.106
21
-108.027
0
LINE
8
Black
10
143.326
20
-108.027
11
143.592
21
-108.25
0
LINE
8
Black
10
143.592
20
-108.25
11
143.766
21
-108.551
0
LINE
8
Black
10
143.766
20
-108.551
11
143.826
21
-108.893
0
LINE
8
Black
10
143.826
20
-108.893
11
143.826
21
-109.703
0
LINE
8
Black
10
143.826
20
-109.703
11
143.766
21
-110.045
0
LINE
8
Black
10
143.766
20
-110.045
11
143.592
21
-110.346
0
LINE
8
Black
10
143.592
20
-110.346
11
143.326
21
-110.569
0
LINE
8
Black
10
143.326
20
-110.569
11
143
21
-110.688
0
LINE
8
Black
10
143
20
-110.688
11
142.652
21
-110.688
0
LINE
8
Black
10
142.652
20
-110.688
11
142.326
21
-110.569
0
LINE
8
Black
10
142.326
20
-110.569
11
142.06
21
-110.346
0
LINE
8
Black
10
142.06
20
-110.346
11
141.886
21
-110.045
0
LINE
8
Black
10
141.886
20
-110.045
11
141.826
21
-109.703
0
LINE
8
Black
10
141.826
20
-109.703
11
141.826
21
-108.893
0
LINE
8
Black
10
141.826
20
-108.893
11
141.886
21
-108.551
0
LINE
8
Black
10
141.886
20
-108.551
11
142.06
21
-108.25
0
LINE
8
Black
10
142.06
20
-108.25
11
142.326
21
-108.027
0
LINE
8
Black
10
142.326
20
-108.027
11
142.652
21
-107.908
0
LINE
8
Black
10
142.652
20
-107.908
11
143
21
-107.908
0
LINE
8
Black
10
143
20
-107.908
11
143.326
21
-108.027
0
LINE
8
Black
10
136.863
20
-106.173
11
137.179
21
-106.356
0
LINE
8
Black
10
137.179
20
-106.356
11
137.413
21
-106.635
0
LINE
8
Black
10
137.413
20
-106.635
11
137.538
21
-106.978
0
LINE
8
Black
10
137.538
20
-106.978
11
137.538
21
-107.342
0
LINE
8
Black
10
137.538
20
-107.342
11
137.413
21
-107.685
0
LINE
8
Black
10
137.413
20
-107.685
11
137.179
21
-107.964
0
LINE
8
Black
10
137.179
20
-107.964
11
136.863
21
-108.147
0
LINE
8
Black
10
136.863
20
-108.147
11
136.504
21
-108.21
0
LINE
8
Black
10
136.504
20
-108.21
11
136.496
21
-108.21
0
LINE
8
Black
10
136.496
20
-108.21
11
136.137
21
-108.147
0
LINE
8
Black
10
136.137
20
-108.147
11
135.821
21
-107.964
0
LINE
8
Black
10
135.821
20
-107.964
11
135.587
21
-107.685
0
LINE
8
Black
10
135.587
20
-107.685
11
135.462
21
-107.342
0
LINE
8
Black
10
135.462
20
-107.342
11
135.462
21
-106.978
0
LINE
8
Black
10
135.462
20
-106.978
11
135.587
21
-106.635
0
LINE
8
Black
10
135.587
20
-106.635
11
135.821
21
-106.356
0
LINE
8
Black
10
135.821
20
-106.356
11
136.137
21
-106.173
0
LINE
8
Black
10
136.137
20
-106.173
11
136.496
21
-106.11
0
LINE
8
Black
10
136.496
20
-106.11
11
136.504
21
-106.11
0
LINE
8
Black
10
136.504
20
-106.11
11
136.863
21
-106.173
0
LINE
8
Black
10
181.863
20
-106.173
11
182.179
21
-106.356
0
LINE
8
Black
10
182.179
20
-106.356
11
182.413
21
-106.635
0
LINE
8
Black
10
182.413
20
-106.635
11
182.538
21
-106.978
0
LINE
8
Black
10
182.538
20
-106.978
11
182.538
21
-107.342
0
LINE
8
Black
10
182.538
20
-107.342
11
182.413
21
-107.685
0
LINE
8
Black
10
182.413
20
-107.685
11
182.179
21
-107.964
0
LINE
8
Black
10
182.179
20
-107.964
11
181.863
21
-108.147
0
LINE
8
Black
10
181.863
20
-108.147
11
181.504
21
-108.21
0
LINE
8
Black
10
181.504
20
-108.21
11
181.496
21
-108.21
0
LINE
8
Black
10
181.496
20
-108.21
11
181.137
21
-108.147
0
LINE
8
Black
10
181.137
20
-108.147
11
180.821
21
-107.964
0
LINE
8
Black
10
180.821
20
-107.964
11
180.587
21
-107.685
0
LINE
8
Black
10
180.587
20
-107.685
11
180.462
21
-107.342
0
LINE
8
Black
10
180.462
20
-107.342
11
180.462
21
-106.978
0
LINE
8
Black
10
180.462
20
-106.978
11
180.587
21
-106.635
0
LINE
8
Black
10
180.587
20
-106.635
11
180.821
21
-106.356
0
LINE
8
Black
10
180.821
20
-106.356
11
181.137
21
-106.173
0
LINE
8
Black
10
181.137
20
-106.173
11
181.496
21
-106.11
0
LINE
8
Black
10
181.496
20
-106.11
11
181.504
21
-106.11
0
LINE
8
Black
10
181.504
20
-106.11
11
181.863
21
-106.173
0
LINE
8
Black
10
161.843
20
-105.057
11
162.145
21
-105.231
0
LINE
8
Black
10
162.145
20
-105.231
11
162.369
21
-105.498
0
LINE
8
Black
10
162.369
20
-105.498
11
162.489
21
-105.826
0
LINE
8
Black
10
162.489
20
-105.826
11
162.489
21
-106.174
0
LINE
8
Black
10
162.489
20
-106.174
11
162.369
21
-106.502
0
LINE
8
Black
10
162.369
20
-106.502
11
162.145
21
-106.769
0
LINE
8
Black
10
162.145
20
-106.769
11
161.843
21
-106.943
0
LINE
8
Black
10
161.843
20
-106.943
11
161.5
21
-107.004
0
LINE
8
Black
10
161.5
20
-107.004
11
161.157
21
-106.943
0
LINE
8
Black
10
161.157
20
-106.943
11
160.855
21
-106.769
0
LINE
8
Black
10
160.855
20
-106.769
11
160.631
21
-106.502
0
LINE
8
Black
10
160.631
20
-106.502
11
160.511
21
-106.174
0
LINE
8
Black
10
160.511
20
-106.174
11
160.511
21
-105.826
0
LINE
8
Black
10
160.511
20
-105.826
11
160.631
21
-105.498
0
LINE
8
Black
10
160.631
20
-105.498
11
160.855
21
-105.231
0
LINE
8
Black
10
160.855
20
-105.231
11
161.157
21
-105.057
0
LINE
8
Black
10
161.157
20
-105.057
11
161.5
21
-104.996
0
LINE
8
Black
10
161.5
20
-104.996
11
161.843
21
-105.057
0
LINE
8
Black
10
146.843
20
-105.057
11
147.145
21
-105.231
0
LINE
8
Black
10
147.145
20
-105.231
11
147.369
21
-105.498
0
LINE
8
Black
10
147.369
20
-105.498
11
147.489
21
-105.826
0
LINE
8
Black
10
147.489
20
-105.826
11
147.489
21
-106.174
0
LINE
8
Black
10
147.489
20
-106.174
11
147.369
21
-106.502
0
LINE
8
Black
10
147.369
20
-106.502
11
147.145
21
-106.769
0
LINE
8
Black
10
147.145
20
-106.769
11
146.843
21
-106.943
0
LINE
8
Black
10
146.843
20
-106.943
11
146.5
21
-107.004
0
LINE
8
Black
10
146.5
20
-107.004
11
146.157
21
-106.943
0
LINE
8
Black
10
146.157
20
-106.943
11
145.855
21
-106.769
0
LINE
8
Black
10
145.855
20
-106.769
11
145.631
21
-106.502
0
LINE
8
Black
10
145.631
20
-106.502
11
145.511
21
-106.174
0
LINE
8
Black
10
145.511
20
-106.174
11
145.511
21
-105.826
0
LINE
8
Black
10
145.511
20
-105.826
11
145.631
21
-105.498
0
LINE
8
Black
10
145.631
20
-105.498
11
145.855
21
-105.231
0
LINE
8
Black
10
145.855
20
-105.231
11
146.157
21
-105.057
0
LINE
8
Black
10
146.157
20
-105.057
11
146.5
21
-104.996
0
LINE
8
Black
10
146.5
20
-104.996
11
146.843
21
-105.057
0
LINE
8
Black
10
176.343
20
-104.557
11
176.645
21
-104.731
0
LINE
8
Black
10
176.645
20
-104.731
11
176.869
21
-104.998
0
LINE
8
Black
10
176.869
20
-104.998
11
176.989
21
-105.326
0
LINE
8
Black
10
176.989
20
-105.326
11
176.989
21
-105.674
0
LINE
8
Black
10
176.989
20
-105.674
11
176.869
21
-106.002
0
LINE
8
Black
10
176.869
20
-106.002
11
176.645
21
-106.269
0
LINE
8
Black
10
176.645
20
-106.269
11
176.343
21
-106.443
0
LINE
8
Black
10
176.343
20
-106.443
11
176
21
-106.504
0
LINE
8
Black
10
176
20
-106.504
11
175.657
21
-106.443
0
LINE
8
Black
10
175.657
20
-106.443
11
175.355
21
-106.269
0
LINE
8
Black
10
175.355
20
-106.269
11
175.131
21
-106.002
0
LINE
8
Black
10
175.131
20
-106.002
11
175.011
21
-105.674
0
LINE
8
Black
10
175.011
20
-105.674
11
175.011
21
-105.326
0
LINE
8
Black
10
175.011
20
-105.326
11
175.131
21
-104.998
0
LINE
8
Black
10
175.131
20
-104.998
11
175.355
21
-104.731
0
LINE
8
Black
10
175.355
20
-104.731
11
175.657
21
-104.557
0
LINE
8
Black
10
175.657
20
-104.557
11
176
21
-104.496
0
LINE
8
Black
10
176
20
-104.496
11
176.343
21
-104.557
0
LINE
8
Black
10
165.843
20
-104.057
11
166.145
21
-104.231
0
LINE
8
Black
10
166.145
20
-104.231
11
166.369
21
-104.498
0
LINE
8
Black
10
166.369
20
-104.498
11
166.489
21
-104.826
0
LINE
8
Black
10
166.489
20
-104.826
11
166.489
21
-105.174
0
LINE
8
Black
10
166.489
20
-105.174
11
166.369
21
-105.502
0
LINE
8
Black
10
166.369
20
-105.502
11
166.145
21
-105.769
0
LINE
8
Black
10
166.145
20
-105.769
11
165.843
21
-105.943
0
LINE
8
Black
10
165.843
20
-105.943
11
165.5
21
-106.004
0
LINE
8
Black
10
165.5
20
-106.004
11
165.157
21
-105.943
0
LINE
8
Black
10
165.157
20
-105.943
11
164.855
21
-105.769
0
LINE
8
Black
10
164.855
20
-105.769
11
164.631
21
-105.502
0
LINE
8
Black
10
164.631
20
-105.502
11
164.511
21
-105.174
0
LINE
8
Black
10
164.511
20
-105.174
11
164.511
21
-104.826
0
LINE
8
Black
10
164.511
20
-104.826
11
164.631
21
-104.498
0
LINE
8
Black
10
164.631
20
-104.498
11
164.855
21
-104.231
0
LINE
8
Black
10
164.855
20
-104.231
11
165.157
21
-104.057
0
LINE
8
Black
10
165.157
20
-104.057
11
165.5
21
-103.996
0
LINE
8
Black
10
165.5
20
-103.996
11
165.843
21
-104.057
0
LINE
8
Black
10
136.863
20
-103.633
11
137.179
21
-103.816
0
LINE
8
Black
10
137.179
20
-103.816
11
137.413
21
-104.095
0
LINE
8
Black
10
137.413
20
-104.095
11
137.538
21
-104.438
0
LINE
8
Black
10
137.538
20
-104.438
11
137.538
21
-104.802
0
LINE
8
Black
10
137.538
20
-104.802
11
137.413
21
-105.145
0
LINE
8
Black
10
137.413
20
-105.145
11
137.179
21
-105.424
0
LINE
8
Black
10
137.179
20
-105.424
11
136.863
21
-105.607
0
LINE
8
Black
10
136.863
20
-105.607
11
136.504
21
-105.67
0
LINE
8
Black
10
136.504
20
-105.67
11
136.496
21
-105.67
0
LINE
8
Black
10
136.496
20
-105.67
11
136.137
21
-105.607
0
LINE
8
Black
10
136.137
20
-105.607
11
135.821
21
-105.424
0
LINE
8
Black
10
135.821
20
-105.424
11
135.587
21
-105.145
0
LINE
8
Black
10
135.587
20
-105.145
11
135.462
21
-104.802
0
LINE
8
Black
10
135.462
20
-104.802
11
135.462
21
-104.438
0
LINE
8
Black
10
135.462
20
-104.438
11
135.587
21
-104.095
0
LINE
8
Black
10
135.587
20
-104.095
11
135.821
21
-103.816
0
LINE
8
Black
10
135.821
20
-103.816
11
136.137
21
-103.633
0
LINE
8
Black
10
136.137
20
-103.633
11
136.496
21
-103.57
0
LINE
8
Black
10
136.496
20
-103.57
11
136.504
21
-103.57
0
LINE
8
Black
10
136.504
20
-103.57
11
136.863
21
-103.633
0
LINE
8
Black
10
181.863
20
-103.633
11
182.179
21
-103.816
0
LINE
8
Black
10
182.179
20
-103.816
11
182.413
21
-104.095
0
LINE
8
Black
10
182.413
20
-104.095
11
182.538
21
-104.438
0
LINE
8
Black
10
182.538
20
-104.438
11
182.538
21
-104.802
0
LINE
8
Black
10
182.538
20
-104.802
11
182.413
21
-105.145
0
LINE
8
Black
10
182.413
20
-105.145
11
182.179
21
-105.424
0
LINE
8
Black
10
182.179
20
-105.424
11
181.863
21
-105.607
0
LINE
8
Black
10
181.863
20
-105.607
11
181.504
21
-105.67
0
LINE
8
Black
10
181.504
20
-105.67
11
181.496
21
-105.67
0
LINE
8
Black
10
181.496
20
-105.67
11
181.137
21
-105.607
0
LINE
8
Black
10
181.137
20
-105.607
11
180.821
21
-105.424
0
LINE
8
Black
10
180.821
20
-105.424
11
180.587
21
-105.145
0
LINE
8
Black
10
180.587
20
-105.145
11
180.462
21
-104.802
0
LINE
8
Black
10
180.462
20
-104.802
11
180.462
21
-104.438
0
LINE
8
Black
10
180.462
20
-104.438
11
180.587
21
-104.095
0
LINE
8
Black
10
180.587
20
-104.095
11
180.821
21
-103.816
0
LINE
8
Black
10
180.821
20
-103.816
11
181.137
21
-103.633
0
LINE
8
Black
10
181.137
20
-103.633
11
181.496
21
-103.57
0
LINE
8
Black
10
181.496
20
-103.57
11
181.504
21
-103.57
0
LINE
8
Black
10
181.504
20
-103.57
11
181.863
21
-103.633
0
LINE
8
Black
10
151.943
20
-103.457
11
152.245
21
-103.631
0
LINE
8
Black
10
152.245
20
-103.631
11
152.469
21
-103.898
0
LINE
8
Black
10
152.469
20
-103.898
11
152.589
21
-104.226
0
LINE
8
Black
10
152.589
20
-104.226
11
152.589
21
-104.574
0
LINE
8
Black
10
152.589
20
-104.574
11
152.469
21
-104.902
0
LINE
8
Black
10
152.469
20
-104.902
11
152.245
21
-105.169
0
LINE
8
Black
10
152.245
20
-105.169
11
151.943
21
-105.343
0
LINE
8
Black
10
151.943
20
-105.343
11
151.6
21
-105.404
0
LINE
8
Black
10
151.6
20
-105.404
11
151.257
21
-105.343
0
LINE
8
Black
10
151.257
20
-105.343
11
150.955
21
-105.169
0
LINE
8
Black
10
150.955
20
-105.169
11
150.731
21
-104.902
0
LINE
8
Black
10
150.731
20
-104.902
11
150.611
21
-104.574
0
LINE
8
Black
10
150.611
20
-104.574
11
150.611
21
-104.226
0
LINE
8
Black
10
150.611
20
-104.226
11
150.731
21
-103.898
0
LINE
8
Black
10
150.731
20
-103.898
11
150.955
21
-103.631
0
LINE
8
Black
10
150.955
20
-103.631
11
151.257
21
-103.457
0
LINE
8
Black
10
151.257
20
-103.457
11
151.6
21
-103.396
0
LINE
8
Black
10
151.6
20
-103.396
11
151.943
21
-103.457
0
LINE
8
Black
10
156.743
20
-103.457
11
157.045
21
-103.631
0
LINE
8
Black
10
157.045
20
-103.631
11
157.269
21
-103.898
0
LINE
8
Black
10
157.269
20
-103.898
11
157.389
21
-104.226
0
LINE
8
Black
10
157.389
20
-104.226
11
157.389
21
-104.574
0
LINE
8
Black
10
157.389
20
-104.574
11
157.269
21
-104.902
0
LINE
8
Black
10
157.269
20
-104.902
11
157.045
21
-105.169
0
LINE
8
Black
10
157.045
20
-105.169
11
156.743
21
-105.343
0
LINE
8
Black
10
156.743
20
-105.343
11
156.4
21
-105.404
0
LINE
8
Black
10
156.4
20
-105.404
11
156.057
21
-105.343
0
LINE
8
Black
10
156.057
20
-105.343
11
155.755
21
-105.169
0
LINE
8
Black
10
155.755
20
-105.169
11
155.531
21
-104.902
0
LINE
8
Black
10
155.531
20
-104.902
11
155.411
21
-104.574
0
LINE
8
Black
10
155.411
20
-104.574
11
155.411
21
-104.226
0
LINE
8
Black
10
155.411
20
-104.226
11
155.531
21
-103.898
0
LINE
8
Black
10
155.531
20
-103.898
11
155.755
21
-103.631
0
LINE
8
Black
10
155.755
20
-103.631
11
156.057
21
-103.457
0
LINE
8
Black
10
156.057
20
-103.457
11
156.4
21
-103.396
0
LINE
8
Black
10
156.4
20
-103.396
11
156.743
21
-103.457
0
LINE
8
Black
10
176.343
20
-102.057
11
176.645
21
-102.231
0
LINE
8
Black
10
176.645
20
-102.231
11
176.869
21
-102.498
0
LINE
8
Black
10
176.869
20
-102.498
11
176.989
21
-102.826
0
LINE
8
Black
10
176.989
20
-102.826
11
176.989
21
-103.174
0
LINE
8
Black
10
176.989
20
-103.174
11
176.869
21
-103.502
0
LINE
8
Black
10
176.869
20
-103.502
11
176.645
21
-103.769
0
LINE
8
Black
10
176.645
20
-103.769
11
176.343
21
-103.943
0
LINE
8
Black
10
176.343
20
-103.943
11
176
21
-104.004
0
LINE
8
Black
10
176
20
-104.004
11
175.657
21
-103.943
0
LINE
8
Black
10
175.657
20
-103.943
11
175.355
21
-103.769
0
LINE
8
Black
10
175.355
20
-103.769
11
175.131
21
-103.502
0
LINE
8
Black
10
175.131
20
-103.502
11
175.011
21
-103.174
0
LINE
8
Black
10
175.011
20
-103.174
11
175.011
21
-102.826
0
LINE
8
Black
10
175.011
20
-102.826
11
175.131
21
-102.498
0
LINE
8
Black
10
175.131
20
-102.498
11
175.355
21
-102.231
0
LINE
8
Black
10
175.355
20
-102.231
11
175.657
21
-102.057
0
LINE
8
Black
10
175.657
20
-102.057
11
176
21
-101.996
0
LINE
8
Black
10
176
20
-101.996
11
176.343
21
-102.057
0
LINE
8
Black
10
165.843
20
-101.557
11
166.145
21
-101.731
0
LINE
8
Black
10
166.145
20
-101.731
11
166.369
21
-101.998
0
LINE
8
Black
10
166.369
20
-101.998
11
166.489
21
-102.326
0
LINE
8
Black
10
166.489
20
-102.326
11
166.489
21
-102.674
0
LINE
8
Black
10
166.489
20
-102.674
11
166.369
21
-103.002
0
LINE
8
Black
10
166.369
20
-103.002
11
166.145
21
-103.269
0
LINE
8
Black
10
166.145
20
-103.269
11
165.843
21
-103.443
0
LINE
8
Black
10
165.843
20
-103.443
11
165.5
21
-103.504
0
LINE
8
Black
10
165.5
20
-103.504
11
165.157
21
-103.443
0
LINE
8
Black
10
165.157
20
-103.443
11
164.855
21
-103.269
0
LINE
8
Black
10
164.855
20
-103.269
11
164.631
21
-103.002
0
LINE
8
Black
10
164.631
20
-103.002
11
164.511
21
-102.674
0
LINE
8
Black
10
164.511
20
-102.674
11
164.511
21
-102.326
0
LINE
8
Black
10
164.511
20
-102.326
11
164.631
21
-101.998
0
LINE
8
Black
10
164.631
20
-101.998
11
164.855
21
-101.731
0
LINE
8
Black
10
164.855
20
-101.731
11
165.157
21
-101.557
0
LINE
8
Black
10
165.157
20
-101.557
11
165.5
21
-101.496
0
LINE
8
Black
10
165.5
20
-101.496
11
165.843
21
-101.557
0
LINE
8
Black
10
181.863
20
-101.093
11
182.179
21
-101.276
0
LINE
8
Black
10
182.179
20
-101.276
11
182.413
21
-101.555
0
LINE
8
Black
10
182.413
20
-101.555
11
182.538
21
-101.898
0
LINE
8
Black
10
182.538
20
-101.898
11
182.538
21
-102.262
0
LINE
8
Black
10
182.538
20
-102.262
11
182.413
21
-102.605
0
LINE
8
Black
10
182.413
20
-102.605
11
182.179
21
-102.884
0
LINE
8
Black
10
182.179
20
-102.884
11
181.863
21
-103.067
0
LINE
8
Black
10
181.863
20
-103.067
11
181.504
21
-103.13
0
LINE
8
Black
10
181.504
20
-103.13
11
181.496
21
-103.13
0
LINE
8
Black
10
181.496
20
-103.13
11
181.137
21
-103.067
0
LINE
8
Black
10
181.137
20
-103.067
11
180.821
21
-102.884
0
LINE
8
Black
10
180.821
20
-102.884
11
180.587
21
-102.605
0
LINE
8
Black
10
180.587
20
-102.605
11
180.462
21
-102.262
0
LINE
8
Black
10
180.462
20
-102.262
11
180.462
21
-101.898
0
LINE
8
Black
10
180.462
20
-101.898
11
180.587
21
-101.555
0
LINE
8
Black
10
180.587
20
-101.555
11
180.821
21
-101.276
0
LINE
8
Black
10
180.821
20
-101.276
11
181.137
21
-101.093
0
LINE
8
Black
10
181.137
20
-101.093
11
181.496
21
-101.03
0
LINE
8
Black
10
181.496
20
-101.03
11
181.504
21
-101.03
0
LINE
8
Black
10
181.504
20
-101.03
11
181.863
21
-101.093
0
LINE
8
Black
10
136.863
20
-101.093
11
137.179
21
-101.276
0
LINE
8
Black
10
137.179
20
-101.276
11
137.413
21
-101.555
0
LINE
8
Black
10
137.413
20
-101.555
11
137.538
21
-101.898
0
LINE
8
Black
10
137.538
20
-101.898
11
137.538
21
-102.262
0
LINE
8
Black
10
137.538
20
-102.262
11
137.413
21
-102.605
0
LINE
8
Black
10
137.413
20
-102.605
11
137.179
21
-102.884
0
LINE
8
Black
10
137.179
20
-102.884
11
136.863
21
-103.067
0
LINE
8
Black
10
136.863
20
-103.067
11
136.504
21
-103.13
0
LINE
8
Black
10
136.504
20
-103.13
11
136.496
21
-103.13
0
LINE
8
Black
10
136.496
20
-103.13
11
136.137
21
-103.067
0
LINE
8
Black
10
136.137
20
-103.067
11
135.821
21
-102.884
0
LINE
8
Black
10
135.821
20
-102.884
11
135.587
21
-102.605
0
LINE
8
Black
10
135.587
20
-102.605
11
135.462
21
-102.262
0
LINE
8
Black
10
135.462
20
-102.262
11
135.462
21
-101.898
0
LINE
8
Black
10
135.462
20
-101.898
11
135.587
21
-101.555
0
LINE
8
Black
10
135.587
20
-101.555
11
135.821
21
-101.276
0
LINE
8
Black
10
135.821
20
-101.276
11
136.137
21
-101.093
0
LINE
8
Black
10
136.137
20
-101.093
11
136.496
21
-101.03
0
LINE
8
Black
10
136.496
20
-101.03
11
136.504
21
-101.03
0
LINE
8
Black
10
136.504
20
-101.03
11
136.863
21
-101.093
0
LINE
8
Black
10
146.843
20
-100.057
11
147.145
21
-100.231
0
LINE
8
Black
10
147.145
20
-100.231
11
147.369
21
-100.498
0
LINE
8
Black
10
147.369
20
-100.498
11
147.489
21
-100.826
0
LINE
8
Black
10
147.489
20
-100.826
11
147.489
21
-101.174
0
LINE
8
Black
10
147.489
20
-101.174
11
147.369
21
-101.502
0
LINE
8
Black
10
147.369
20
-101.502
11
147.145
21
-101.769
0
LINE
8
Black
10
147.145
20
-101.769
11
146.843
21
-101.943
0
LINE
8
Black
10
146.843
20
-101.943
11
146.5
21
-102.004
0
LINE
8
Black
10
146.5
20
-102.004
11
146.157
21
-101.943
0
LINE
8
Black
10
146.157
20
-101.943
11
145.855
21
-101.769
0
LINE
8
Black
10
145.855
20
-101.769
11
145.631
21
-101.502
0
LINE
8
Black
10
145.631
20
-101.502
11
145.511
21
-101.174
0
LINE
8
Black
10
145.511
20
-101.174
11
145.511
21
-100.826
0
LINE
8
Black
10
145.511
20
-100.826
11
145.631
21
-100.498
0
LINE
8
Black
10
145.631
20
-100.498
11
145.855
21
-100.231
0
LINE
8
Black
10
145.855
20
-100.231
11
146.157
21
-100.057
0
LINE
8
Black
10
146.157
20
-100.057
11
146.5
21
-99.9962
0
LINE
8
Black
10
146.5
20
-99.9962
11
146.843
21
-100.057
0
LINE
8
Black
10
161.843
20
-100.057
11
162.145
21
-100.231
0
LINE
8
Black
10
162.145
20
-100.231
11
162.369
21
-100.498
0
LINE
8
Black
10
162.369
20
-100.498
11
162.489
21
-100.826
0
LINE
8
Black
10
162.489
20
-100.826
11
162.489
21
-101.174
0
LINE
8
Black
10
162.489
20
-101.174
11
162.369
21
-101.502
0
LINE
8
Black
10
162.369
20
-101.502
11
162.145
21
-101.769
0
LINE
8
Black
10
162.145
20
-101.769
11
161.843
21
-101.943
0
LINE
8
Black
10
161.843
20
-101.943
11
161.5
21
-102.004
0
LINE
8
Black
10
161.5
20
-102.004
11
161.157
21
-101.943
0
LINE
8
Black
10
161.157
20
-101.943
11
160.855
21
-101.769
0
LINE
8
Black
10
160.855
20
-101.769
11
160.631
21
-101.502
0
LINE
8
Black
10
160.631
20
-101.502
11
160.511
21
-101.174
0
LINE
8
Black
10
160.511
20
-101.174
11
160.511
21
-100.826
0
LINE
8
Black
10
160.511
20
-100.826
11
160.631
21
-100.498
0
LINE
8
Black
10
160.631
20
-100.498
11
160.855
21
-100.231
0
LINE
8
Black
10
160.855
20
-100.231
11
161.157
21
-100.057
0
LINE
8
Black
10
161.157
20
-100.057
11
161.5
21
-99.9962
0
LINE
8
Black
10
161.5
20
-99.9962
11
161.843
21
-100.057
0
LINE
8
Black
10
181.863
20
-98.5533
11
182.179
21
-98.7357
0
LINE
8
Black
10
182.179
20
-98.7357
11
182.413
21
-99.015
0
LINE
8
Black
10
182.413
20
-99.015
11
182.538
21
-99.3577
0
LINE
8
Black
10
182.538
20
-99.3577
11
182.538
21
-99.7223
0
LINE
8
Black
10
182.538
20
-99.7223
11
182.413
21
-100.065
0
LINE
8
Black
10
182.413
20
-100.065
11
182.179
21
-100.344
0
LINE
8
Black
10
182.179
20
-100.344
11
181.863
21
-100.527
0
LINE
8
Black
10
181.863
20
-100.527
11
181.504
21
-100.59
0
LINE
8
Black
10
181.504
20
-100.59
11
181.496
21
-100.59
0
LINE
8
Black
10
181.496
20
-100.59
11
181.137
21
-100.527
0
LINE
8
Black
10
181.137
20
-100.527
11
180.821
21
-100.344
0
LINE
8
Black
10
180.821
20
-100.344
11
180.587
21
-100.065
0
LINE
8
Black
10
180.587
20
-100.065
11
180.462
21
-99.7223
0
LINE
8
Black
10
180.462
20
-99.7223
11
180.462
21
-99.3577
0
LINE
8
Black
10
180.462
20
-99.3577
11
180.587
21
-99.015
0
LINE
8
Black
10
180.587
20
-99.015
11
180.821
21
-98.7357
0
LINE
8
Black
10
180.821
20
-98.7357
11
181.137
21
-98.5533
0
LINE
8
Black
10
181.137
20
-98.5533
11
181.496
21
-98.49
0
LINE
8
Black
10
181.496
20
-98.49
11
181.504
21
-98.49
0
LINE
8
Black
10
181.504
20
-98.49
11
181.863
21
-98.5533
0
LINE
8
Black
10
136.863
20
-98.5533
11
137.179
21
-98.7357
0
LINE
8
Black
10
137.179
20
-98.7357
11
137.413
21
-99.015
0
LINE
8
Black
10
137.413
20
-99.015
11
137.538
21
-99.3577
0
LINE
8
Black
10
137.538
20
-99.3577
11
137.538
21
-99.7223
0
LINE
8
Black
10
137.538
20
-99.7223
11
137.413
21
-100.065
0
LINE
8
Black
10
137.413
20
-100.065
11
137.179
21
-100.344
0
LINE
8
Black
10
137.179
20
-100.344
11
136.863
21
-100.527
0
LINE
8
Black
10
136.863
20
-100.527
11
136.504
21
-100.59
0
LINE
8
Black
10
136.504
20
-100.59
11
136.496
21
-100.59
0
LINE
8
Black
10
136.496
20
-100.59
11
136.137
21
-100.527
0
LINE
8
Black
10
136.137
20
-100.527
11
135.821
21
-100.344
0
LINE
8
Black
10
135.821
20
-100.344
11
135.587
21
-100.065
0
LINE
8
Black
10
135.587
20
-100.065
11
135.462
21
-99.7223
0
LINE
8
Black
10
135.462
20
-99.7223
11
135.462
21
-99.3577
0
LINE
8
Black
10
135.462
20
-99.3577
11
135.587
21
-99.015
0
LINE
8
Black
10
135.587
20
-99.015
11
135.821
21
-98.7357
0
LINE
8
Black
10
135.821
20
-98.7357
11
136.137
21
-98.5533
0
LINE
8
Black
10
136.137
20
-98.5533
11
136.496
21
-98.49
0
LINE
8
Black
10
136.496
20
-98.49
11
136.504
21
-98.49
0
LINE
8
Black
10
136.504
20
-98.49
11
136.863
21
-98.5533
0
LINE
8
Black
10
157
20
-99.4
11
155
21
-99.4
0
LINE
8
Black
10
155
20
-99.4
11
155
21
-96.6
0
LINE
8
Black
10
155
20
-96.6
11
157
21
-96.6
0
LINE
8
Black
10
157
20
-96.6
11
157
21
-99.4
0
LINE
8
Black
10
159.04
20
-96.7286
11
159.306
21
-96.9519
0
LINE
8
Black
10
159.306
20
-96.9519
11
159.48
21
-97.2526
0
LINE
8
Black
10
159.48
20
-97.2526
11
159.54
21
-97.5947
0
LINE
8
Black
10
159.54
20
-97.5947
11
159.54
21
-98.4053
0
LINE
8
Black
10
159.54
20
-98.4053
11
159.48
21
-98.7474
0
LINE
8
Black
10
159.48
20
-98.7474
11
159.306
21
-99.0481
0
LINE
8
Black
10
159.306
20
-99.0481
11
159.04
21
-99.2714
0
LINE
8
Black
10
159.04
20
-99.2714
11
158.714
21
-99.3902
0
LINE
8
Black
10
158.714
20
-99.3902
11
158.366
21
-99.3902
0
LINE
8
Black
10
158.366
20
-99.3902
11
158.04
21
-99.2714
0
LINE
8
Black
10
158.04
20
-99.2714
11
157.774
21
-99.0481
0
LINE
8
Black
10
157.774
20
-99.0481
11
157.6
21
-98.7474
0
LINE
8
Black
10
157.6
20
-98.7474
11
157.54
21
-98.4053
0
LINE
8
Black
10
157.54
20
-98.4053
11
157.54
21
-97.5947
0
LINE
8
Black
10
157.54
20
-97.5947
11
157.6
21
-97.2526
0
LINE
8
Black
10
157.6
20
-97.2526
11
157.774
21
-96.9519
0
LINE
8
Black
10
157.774
20
-96.9519
11
158.04
21
-96.7286
0
LINE
8
Black
10
158.04
20
-96.7286
11
158.366
21
-96.6098
0
LINE
8
Black
10
158.366
20
-96.6098
11
158.714
21
-96.6098
0
LINE
8
Black
10
158.714
20
-96.6098
11
159.04
21
-96.7286
0
LINE
8
Black
10
161.58
20
-96.7286
11
161.846
21
-96.9519
0
LINE
8
Black
10
161.846
20
-96.9519
11
162.02
21
-97.2526
0
LINE
8
Black
10
162.02
20
-97.2526
11
162.08
21
-97.5947
0
LINE
8
Black
10
162.08
20
-97.5947
11
162.08
21
-98.4053
0
LINE
8
Black
10
162.08
20
-98.4053
11
162.02
21
-98.7474
0
LINE
8
Black
10
162.02
20
-98.7474
11
161.846
21
-99.0481
0
LINE
8
Black
10
161.846
20
-99.0481
11
161.58
21
-99.2714
0
LINE
8
Black
10
161.58
20
-99.2714
11
161.254
21
-99.3902
0
LINE
8
Black
10
161.254
20
-99.3902
11
160.906
21
-99.3902
0
LINE
8
Black
10
160.906
20
-99.3902
11
160.58
21
-99.2714
0
LINE
8
Black
10
160.58
20
-99.2714
11
160.314
21
-99.0481
0
LINE
8
Black
10
160.314
20
-99.0481
11
160.14
21
-98.7474
0
LINE
8
Black
10
160.14
20
-98.7474
11
160.08
21
-98.4053
0
LINE
8
Black
10
160.08
20
-98.4053
11
160.08
21
-97.5947
0
LINE
8
Black
10
160.08
20
-97.5947
11
160.14
21
-97.2526
0
LINE
8
Black
10
160.14
20
-97.2526
11
160.314
21
-96.9519
0
LINE
8
Black
10
160.314
20
-96.9519
11
160.58
21
-96.7286
0
LINE
8
Black
10
160.58
20
-96.7286
11
160.906
21
-96.6098
0
LINE
8
Black
10
160.906
20
-96.6098
11
161.254
21
-96.6098
0
LINE
8
Black
10
161.254
20
-96.6098
11
161.58
21
-96.7286
0
LINE
8
Black
10
164.12
20
-96.7286
11
164.386
21
-96.9519
0
LINE
8
Black
10
164.386
20
-96.9519
11
164.56
21
-97.2526
0
LINE
8
Black
10
164.56
20
-97.2526
11
164.62
21
-97.5947
0
LINE
8
Black
10
164.62
20
-97.5947
11
164.62
21
-98.4053
0
LINE
8
Black
10
164.62
20
-98.4053
11
164.56
21
-98.7474
0
LINE
8
Black
10
164.56
20
-98.7474
11
164.386
21
-99.0481
0
LINE
8
Black
10
164.386
20
-99.0481
11
164.12
21
-99.2714
0
LINE
8
Black
10
164.12
20
-99.2714
11
163.794
21
-99.3902
0
LINE
8
Black
10
163.794
20
-99.3902
11
163.446
21
-99.3902
0
LINE
8
Black
10
163.446
20
-99.3902
11
163.12
21
-99.2714
0
LINE
8
Black
10
163.12
20
-99.2714
11
162.854
21
-99.0481
0
LINE
8
Black
10
162.854
20
-99.0481
11
162.68
21
-98.7474
0
LINE
8
Black
10
162.68
20
-98.7474
11
162.62
21
-98.4053
0
LINE
8
Black
10
162.62
20
-98.4053
11
162.62
21
-97.5947
0
LINE
8
Black
10
162.62
20
-97.5947
11
162.68
21
-97.2526
0
LINE
8
Black
10
162.68
20
-97.2526
11
162.854
21
-96.9519
0
LINE
8
Black
10
162.854
20
-96.9519
11
163.12
21
-96.7286
0
LINE
8
Black
10
163.12
20
-96.7286
11
163.446
21
-96.6098
0
LINE
8
Black
10
163.446
20
-96.6098
11
163.794
21
-96.6098
0
LINE
8
Black
10
163.794
20
-96.6098
11
164.12
21
-96.7286
0
LINE
8
Black
10
166.66
20
-96.7286
11
166.926
21
-96.9519
0
LINE
8
Black
10
166.926
20
-96.9519
11
167.1
21
-97.2526
0
LINE
8
Black
10
167.1
20
-97.2526
11
167.16
21
-97.5947
0
LINE
8
Black
10
167.16
20
-97.5947
11
167.16
21
-98.4053
0
LINE
8
Black
10
167.16
20
-98.4053
11
167.1
21
-98.7474
0
LINE
8
Black
10
167.1
20
-98.7474
11
166.926
21
-99.0481
0
LINE
8
Black
10
166.926
20
-99.0481
11
166.66
21
-99.2714
0
LINE
8
Black
10
166.66
20
-99.2714
11
166.334
21
-99.3902
0
LINE
8
Black
10
166.334
20
-99.3902
11
165.986
21
-99.3902
0
LINE
8
Black
10
165.986
20
-99.3902
11
165.66
21
-99.2714
0
LINE
8
Black
10
165.66
20
-99.2714
11
165.394
21
-99.0481
0
LINE
8
Black
10
165.394
20
-99.0481
11
165.22
21
-98.7474
0
LINE
8
Black
10
165.22
20
-98.7474
11
165.16
21
-98.4053
0
LINE
8
Black
10
165.16
20
-98.4053
11
165.16
21
-97.5947
0
LINE
8
Black
10
165.16
20
-97.5947
11
165.22
21
-97.2526
0
LINE
8
Black
10
165.22
20
-97.2526
11
165.394
21
-96.9519
0
LINE
8
Black
10
165.394
20
-96.9519
11
165.66
21
-96.7286
0
LINE
8
Black
10
165.66
20
-96.7286
11
165.986
21
-96.6098
0
LINE
8
Black
10
165.986
20
-96.6098
11
166.334
21
-96.6098
0
LINE
8
Black
10
166.334
20
-96.6098
11
166.66
21
-96.7286
0
LINE
8
Black
10
169.2
20
-96.7286
11
169.466
21
-96.9519
0
LINE
8
Black
10
169.466
20
-96.9519
11
169.64
21
-97.2526
0
LINE
8
Black
10
169.64
20
-97.2526
11
169.7
21
-97.5947
0
LINE
8
Black
10
169.7
20
-97.5947
11
169.7
21
-98.4053
0
LINE
8
Black
10
169.7
20
-98.4053
11
169.64
21
-98.7474
0
LINE
8
Black
10
169.64
20
-98.7474
11
169.466
21
-99.0481
0
LINE
8
Black
10
169.466
20
-99.0481
11
169.2
21
-99.2714
0
LINE
8
Black
10
169.2
20
-99.2714
11
168.874
21
-99.3902
0
LINE
8
Black
10
168.874
20
-99.3902
11
168.526
21
-99.3902
0
LINE
8
Black
10
168.526
20
-99.3902
11
168.2
21
-99.2714
0
LINE
8
Black
10
168.2
20
-99.2714
11
167.934
21
-99.0481
0
LINE
8
Black
10
167.934
20
-99.0481
11
167.76
21
-98.7474
0
LINE
8
Black
10
167.76
20
-98.7474
11
167.7
21
-98.4053
0
LINE
8
Black
10
167.7
20
-98.4053
11
167.7
21
-97.5947
0
LINE
8
Black
10
167.7
20
-97.5947
11
167.76
21
-97.2526
0
LINE
8
Black
10
167.76
20
-97.2526
11
167.934
21
-96.9519
0
LINE
8
Black
10
167.934
20
-96.9519
11
168.2
21
-96.7286
0
LINE
8
Black
10
168.2
20
-96.7286
11
168.526
21
-96.6098
0
LINE
8
Black
10
168.526
20
-96.6098
11
168.874
21
-96.6098
0
LINE
8
Black
10
168.874
20
-96.6098
11
169.2
21
-96.7286
0
LINE
8
Black
10
171.74
20
-96.7286
11
172.006
21
-96.9519
0
LINE
8
Black
10
172.006
20
-96.9519
11
172.18
21
-97.2526
0
LINE
8
Black
10
172.18
20
-97.2526
11
172.24
21
-97.5947
0
LINE
8
Black
10
172.24
20
-97.5947
11
172.24
21
-98.4053
0
LINE
8
Black
10
172.24
20
-98.4053
11
172.18
21
-98.7474
0
LINE
8
Black
10
172.18
20
-98.7474
11
172.006
21
-99.0481
0
LINE
8
Black
10
172.006
20
-99.0481
11
171.74
21
-99.2714
0
LINE
8
Black
10
171.74
20
-99.2714
11
171.414
21
-99.3902
0
LINE
8
Black
10
171.414
20
-99.3902
11
171.066
21
-99.3902
0
LINE
8
Black
10
171.066
20
-99.3902
11
170.74
21
-99.2714
0
LINE
8
Black
10
170.74
20
-99.2714
11
170.474
21
-99.0481
0
LINE
8
Black
10
170.474
20
-99.0481
11
170.3
21
-98.7474
0
LINE
8
Black
10
170.3
20
-98.7474
11
170.24
21
-98.4053
0
LINE
8
Black
10
170.24
20
-98.4053
11
170.24
21
-97.5947
0
LINE
8
Black
10
170.24
20
-97.5947
11
170.3
21
-97.2526
0
LINE
8
Black
10
170.3
20
-97.2526
11
170.474
21
-96.9519
0
LINE
8
Black
10
170.474
20
-96.9519
11
170.74
21
-96.7286
0
LINE
8
Black
10
170.74
20
-96.7286
11
171.066
21
-96.6098
0
LINE
8
Black
10
171.066
20
-96.6098
11
171.414
21
-96.6098
0
LINE
8
Black
10
171.414
20
-96.6098
11
171.74
21
-96.7286
0
LINE
8
Black
10
174.28
20
-96.7286
11
174.546
21
-96.9519
0
LINE
8
Black
10
174.546
20
-96.9519
11
174.72
21
-97.2526
0
LINE
8
Black
10
174.72
20
-97.2526
11
174.78
21
-97.5947
0
LINE
8
Black
10
174.78
20
-97.5947
11
174.78
21
-98.4053
0
LINE
8
Black
10
174.78
20
-98.4053
11
174.72
21
-98.7474
0
LINE
8
Black
10
174.72
20
-98.7474
11
174.546
21
-99.0481
0
LINE
8
Black
10
174.546
20
-99.0481
11
174.28
21
-99.2714
0
LINE
8
Black
10
174.28
20
-99.2714
11
173.954
21
-99.3902
0
LINE
8
Black
10
173.954
20
-99.3902
11
173.606
21
-99.3902
0
LINE
8
Black
10
173.606
20
-99.3902
11
173.28
21
-99.2714
0
LINE
8
Black
10
173.28
20
-99.2714
11
173.014
21
-99.0481
0
LINE
8
Black
10
173.014
20
-99.0481
11
172.84
21
-98.7474
0
LINE
8
Black
10
172.84
20
-98.7474
11
172.78
21
-98.4053
0
LINE
8
Black
10
172.78
20
-98.4053
11
172.78
21
-97.5947
0
LINE
8
Black
10
172.78
20
-97.5947
11
172.84
21
-97.2526
0
LINE
8
Black
10
172.84
20
-97.2526
11
173.014
21
-96.9519
0
LINE
8
Black
10
173.014
20
-96.9519
11
173.28
21
-96.7286
0
LINE
8
Black
10
173.28
20
-96.7286
11
173.606
21
-96.6098
0
LINE
8
Black
10
173.606
20
-96.6098
11
173.954
21
-96.6098
0
LINE
8
Black
10
173.954
20
-96.6098
11
174.28
21
-96.7286
0
LINE
8
Black
10
144.556
20
-99.09
11
142.556
21
-99.09
0
LINE
8
Black
10
142.556
20
-99.09
11
142.556
21
-97.09
0
LINE
8
Black
10
142.556
20
-97.09
11
144.556
21
-97.09
0
LINE
8
Black
10
144.556
20
-97.09
11
144.556
21
-99.09
0
LINE
8
Black
10
151.676
20
-97.2202
11
151.942
21
-97.4434
0
LINE
8
Black
10
151.942
20
-97.4434
11
152.116
21
-97.7442
0
LINE
8
Black
10
152.116
20
-97.7442
11
152.176
21
-98.0862
0
LINE
8
Black
10
152.176
20
-98.0862
11
152.176
21
-98.0938
0
LINE
8
Black
10
152.176
20
-98.0938
11
152.116
21
-98.4358
0
LINE
8
Black
10
152.116
20
-98.4358
11
151.942
21
-98.7366
0
LINE
8
Black
10
151.942
20
-98.7366
11
151.676
21
-98.9598
0
LINE
8
Black
10
151.676
20
-98.9598
11
151.35
21
-99.0786
0
LINE
8
Black
10
151.35
20
-99.0786
11
151.002
21
-99.0786
0
LINE
8
Black
10
151.002
20
-99.0786
11
150.676
21
-98.9598
0
LINE
8
Black
10
150.676
20
-98.9598
11
150.41
21
-98.7366
0
LINE
8
Black
10
150.41
20
-98.7366
11
150.236
21
-98.4358
0
LINE
8
Black
10
150.236
20
-98.4358
11
150.176
21
-98.0938
0
LINE
8
Black
10
150.176
20
-98.0938
11
150.176
21
-98.0862
0
LINE
8
Black
10
150.176
20
-98.0862
11
150.236
21
-97.7442
0
LINE
8
Black
10
150.236
20
-97.7442
11
150.41
21
-97.4434
0
LINE
8
Black
10
150.41
20
-97.4434
11
150.676
21
-97.2202
0
LINE
8
Black
10
150.676
20
-97.2202
11
151.002
21
-97.1014
0
LINE
8
Black
10
151.002
20
-97.1014
11
151.35
21
-97.1014
0
LINE
8
Black
10
151.35
20
-97.1014
11
151.676
21
-97.2202
0
LINE
8
Black
10
149.136
20
-97.2202
11
149.402
21
-97.4434
0
LINE
8
Black
10
149.402
20
-97.4434
11
149.576
21
-97.7442
0
LINE
8
Black
10
149.576
20
-97.7442
11
149.636
21
-98.0862
0
LINE
8
Black
10
149.636
20
-98.0862
11
149.636
21
-98.0938
0
LINE
8
Black
10
149.636
20
-98.0938
11
149.576
21
-98.4358
0
LINE
8
Black
10
149.576
20
-98.4358
11
149.402
21
-98.7366
0
LINE
8
Black
10
149.402
20
-98.7366
11
149.136
21
-98.9598
0
LINE
8
Black
10
149.136
20
-98.9598
11
148.81
21
-99.0786
0
LINE
8
Black
10
148.81
20
-99.0786
11
148.462
21
-99.0786
0
LINE
8
Black
10
148.462
20
-99.0786
11
148.136
21
-98.9598
0
LINE
8
Black
10
148.136
20
-98.9598
11
147.87
21
-98.7366
0
LINE
8
Black
10
147.87
20
-98.7366
11
147.696
21
-98.4358
0
LINE
8
Black
10
147.696
20
-98.4358
11
147.636
21
-98.0938
0
LINE
8
Black
10
147.636
20
-98.0938
11
147.636
21
-98.0862
0
LINE
8
Black
10
147.636
20
-98.0862
11
147.696
21
-97.7442
0
LINE
8
Black
10
147.696
20
-97.7442
11
147.87
21
-97.4434
0
LINE
8
Black
10
147.87
20
-97.4434
11
148.136
21
-97.2202
0
LINE
8
Black
10
148.136
20
-97.2202
11
148.462
21
-97.1014
0
LINE
8
Black
10
148.462
20
-97.1014
11
148.81
21
-97.1014
0
LINE
8
Black
10
148.81
20
-97.1014
11
149.136
21
-97.2202
0
LINE
8
Black
10
146.596
20
-97.2202
11
146.862
21
-97.4434
0
LINE
8
Black
10
146.862
20
-97.4434
11
147.036
21
-97.7442
0
LINE
8
Black
10
147.036
20
-97.7442
11
147.096
21
-98.0862
0
LINE
8
Black
10
147.096
20
-98.0862
11
147.096
21
-98.0938
0
LINE
8
Black
10
147.096
20
-98.0938
11
147.036
21
-98.4358
0
LINE
8
Black
10
147.036
20
-98.4358
11
146.862
21
-98.7366
0
LINE
8
Black
10
146.862
20
-98.7366
11
146.596
21
-98.9598
0
LINE
8
Black
10
146.596
20
-98.9598
11
146.27
21
-99.0786
0
LINE
8
Black
10
146.27
20
-99.0786
11
145.922
21
-99.0786
0
LINE
8
Black
10
145.922
20
-99.0786
11
145.596
21
-98.9598
0
LINE
8
Black
10
145.596
20
-98.9598
11
145.33
21
-98.7366
0
LINE
8
Black
10
145.33
20
-98.7366
11
145.156
21
-98.4358
0
LINE
8
Black
10
145.156
20
-98.4358
11
145.096
21
-98.0938
0
LINE
8
Black
10
145.096
20
-98.0938
11
145.096
21
-98.0862
0
LINE
8
Black
10
145.096
20
-98.0862
11
145.156
21
-97.7442
0
LINE
8
Black
10
145.156
20
-97.7442
11
145.33
21
-97.4434
0
LINE
8
Black
10
145.33
20
-97.4434
11
145.596
21
-97.2202
0
LINE
8
Black
10
145.596
20
-97.2202
11
145.922
21
-97.1014
0
LINE
8
Black
10
145.922
20
-97.1014
11
146.27
21
-97.1014
0
LINE
8
Black
10
146.27
20
-97.1014
11
146.596
21
-97.2202
0
LINE
8
Black
10
137.55
20
-98.05
11
135.45
21
-98.05
0
LINE
8
Black
10
135.45
20
-98.05
11
135.45
21
-95.95
0
LINE
8
Black
10
135.45
20
-95.95
11
137.55
21
-95.95
0
LINE
8
Black
10
137.55
20
-95.95
11
137.55
21
-98.05
0
LINE
8
Black
10
182.55
20
-98.05
11
180.45
21
-98.05
0
LINE
8
Black
10
180.45
20
-98.05
11
180.45
21
-95.95
0
LINE
8
Black
10
180.45
20
-95.95
11
182.55
21
-95.95
0
LINE
8
Black
10
182.55
20
-95.95
11
182.55
21
-98.05
0
LINE
8
Black
10
174.28
20
-89.1086
11
174.546
21
-89.3319
0
LINE
8
Black
10
174.546
20
-89.3319
11
174.72
21
-89.6326
0
LINE
8
Black
10
174.72
20
-89.6326
11
174.78
21
-89.9747
0
LINE
8
Black
10
174.78
20
-89.9747
11
174.78
21
-90.7853
0
LINE
8
Black
10
174.78
20
-90.7853
11
174.72
21
-91.1274
0
LINE
8
Black
10
174.72
20
-91.1274
11
174.546
21
-91.4281
0
LINE
8
Black
10
174.546
20
-91.4281
11
174.28
21
-91.6514
0
LINE
8
Black
10
174.28
20
-91.6514
11
173.954
21
-91.7702
0
LINE
8
Black
10
173.954
20
-91.7702
11
173.606
21
-91.7702
0
LINE
8
Black
10
173.606
20
-91.7702
11
173.28
21
-91.6514
0
LINE
8
Black
10
173.28
20
-91.6514
11
173.014
21
-91.4281
0
LINE
8
Black
10
173.014
20
-91.4281
11
172.84
21
-91.1274
0
LINE
8
Black
10
172.84
20
-91.1274
11
172.78
21
-90.7853
0
LINE
8
Black
10
172.78
20
-90.7853
11
172.78
21
-89.9747
0
LINE
8
Black
10
172.78
20
-89.9747
11
172.84
21
-89.6326
0
LINE
8
Black
10
172.84
20
-89.6326
11
173.014
21
-89.3319
0
LINE
8
Black
10
173.014
20
-89.3319
11
173.28
21
-89.1086
0
LINE
8
Black
10
173.28
20
-89.1086
11
173.606
21
-88.9898
0
LINE
8
Black
10
173.606
20
-88.9898
11
173.954
21
-88.9898
0
LINE
8
Black
10
173.954
20
-88.9898
11
174.28
21
-89.1086
0
LINE
8
Black
10
171.74
20
-89.1086
11
172.006
21
-89.3319
0
LINE
8
Black
10
172.006
20
-89.3319
11
172.18
21
-89.6326
0
LINE
8
Black
10
172.18
20
-89.6326
11
172.24
21
-89.9747
0
LINE
8
Black
10
172.24
20
-89.9747
11
172.24
21
-90.7853
0
LINE
8
Black
10
172.24
20
-90.7853
11
172.18
21
-91.1274
0
LINE
8
Black
10
172.18
20
-91.1274
11
172.006
21
-91.4281
0
LINE
8
Black
10
172.006
20
-91.4281
11
171.74
21
-91.6514
0
LINE
8
Black
10
171.74
20
-91.6514
11
171.414
21
-91.7702
0
LINE
8
Black
10
171.414
20
-91.7702
11
171.066
21
-91.7702
0
LINE
8
Black
10
171.066
20
-91.7702
11
170.74
21
-91.6514
0
LINE
8
Black
10
170.74
20
-91.6514
11
170.474
21
-91.4281
0
LINE
8
Black
10
170.474
20
-91.4281
11
170.3
21
-91.1274
0
LINE
8
Black
10
170.3
20
-91.1274
11
170.24
21
-90.7853
0
LINE
8
Black
10
170.24
20
-90.7853
11
170.24
21
-89.9747
0
LINE
8
Black
10
170.24
20
-89.9747
11
170.3
21
-89.6326
0
LINE
8
Black
10
170.3
20
-89.6326
11
170.474
21
-89.3319
0
LINE
8
Black
10
170.474
20
-89.3319
11
170.74
21
-89.1086
0
LINE
8
Black
10
170.74
20
-89.1086
11
171.066
21
-88.9898
0
LINE
8
Black
10
171.066
20
-88.9898
11
171.414
21
-88.9898
0
LINE
8
Black
10
171.414
20
-88.9898
11
171.74
21
-89.1086
0
LINE
8
Black
10
169.2
20
-89.1086
11
169.466
21
-89.3319
0
LINE
8
Black
10
169.466
20
-89.3319
11
169.64
21
-89.6326
0
LINE
8
Black
10
169.64
20
-89.6326
11
169.7
21
-89.9747
0
LINE
8
Black
10
169.7
20
-89.9747
11
169.7
21
-90.7853
0
LINE
8
Black
10
169.7
20
-90.7853
11
169.64
21
-91.1274
0
LINE
8
Black
10
169.64
20
-91.1274
11
169.466
21
-91.4281
0
LINE
8
Black
10
169.466
20
-91.4281
11
169.2
21
-91.6514
0
LINE
8
Black
10
169.2
20
-91.6514
11
168.874
21
-91.7702
0
LINE
8
Black
10
168.874
20
-91.7702
11
168.526
21
-91.7702
0
LINE
8
Black
10
168.526
20
-91.7702
11
168.2
21
-91.6514
0
LINE
8
Black
10
168.2
20
-91.6514
11
167.934
21
-91.4281
0
LINE
8
Black
10
167.934
20
-91.4281
11
167.76
21
-91.1274
0
LINE
8
Black
10
167.76
20
-91.1274
11
167.7
21
-90.7853
0
LINE
8
Black
10
167.7
20
-90.7853
11
167.7
21
-89.9747
0
LINE
8
Black
10
167.7
20
-89.9747
11
167.76
21
-89.6326
0
LINE
8
Black
10
167.76
20
-89.6326
11
167.934
21
-89.3319
0
LINE
8
Black
10
167.934
20
-89.3319
11
168.2
21
-89.1086
0
LINE
8
Black
10
168.2
20
-89.1086
11
168.526
21
-88.9898
0
LINE
8
Black
10
168.526
20
-88.9898
11
168.874
21
-88.9898
0
LINE
8
Black
10
168.874
20
-88.9898
11
169.2
21
-89.1086
0
LINE
8
Black
10
166.66
20
-89.1086
11
166.926
21
-89.3319
0
LINE
8
Black
10
166.926
20
-89.3319
11
167.1
21
-89.6326
0
LINE
8
Black
10
167.1
20
-89.6326
11
167.16
21
-89.9747
0
LINE
8
Black
10
167.16
20
-89.9747
11
167.16
21
-90.7853
0
LINE
8
Black
10
167.16
20
-90.7853
11
167.1
21
-91.1274
0
LINE
8
Black
10
167.1
20
-91.1274
11
166.926
21
-91.4281
0
LINE
8
Black
10
166.926
20
-91.4281
11
166.66
21
-91.6514
0
LINE
8
Black
10
166.66
20
-91.6514
11
166.334
21
-91.7702
0
LINE
8
Black
10
166.334
20
-91.7702
11
165.986
21
-91.7702
0
LINE
8
Black
10
165.986
20
-91.7702
11
165.66
21
-91.6514
0
LINE
8
Black
10
165.66
20
-91.6514
11
165.394
21
-91.4281
0
LINE
8
Black
10
165.394
20
-91.4281
11
165.22
21
-91.1274
0
LINE
8
Black
10
165.22
20
-91.1274
11
165.16
21
-90.7853
0
LINE
8
Black
10
165.16
20
-90.7853
11
165.16
21
-89.9747
0
LINE
8
Black
10
165.16
20
-89.9747
11
165.22
21
-89.6326
0
LINE
8
Black
10
165.22
20
-89.6326
11
165.394
21
-89.3319
0
LINE
8
Black
10
165.394
20
-89.3319
11
165.66
21
-89.1086
0
LINE
8
Black
10
165.66
20
-89.1086
11
165.986
21
-88.9898
0
LINE
8
Black
10
165.986
20
-88.9898
11
166.334
21
-88.9898
0
LINE
8
Black
10
166.334
20
-88.9898
11
166.66
21
-89.1086
0
LINE
8
Black
10
164.12
20
-89.1086
11
164.386
21
-89.3319
0
LINE
8
Black
10
164.386
20
-89.3319
11
164.56
21
-89.6326
0
LINE
8
Black
10
164.56
20
-89.6326
11
164.62
21
-89.9747
0
LINE
8
Black
10
164.62
20
-89.9747
11
164.62
21
-90.7853
0
LINE
8
Black
10
164.62
20
-90.7853
11
164.56
21
-91.1274
0
LINE
8
Black
10
164.56
20
-91.1274
11
164.386
21
-91.4281
0
LINE
8
Black
10
164.386
20
-91.4281
11
164.12
21
-91.6514
0
LINE
8
Black
10
164.12
20
-91.6514
11
163.794
21
-91.7702
0
LINE
8
Black
10
163.794
20
-91.7702
11
163.446
21
-91.7702
0
LINE
8
Black
10
163.446
20
-91.7702
11
163.12
21
-91.6514
0
LINE
8
Black
10
163.12
20
-91.6514
11
162.854
21
-91.4281
0
LINE
8
Black
10
162.854
20
-91.4281
11
162.68
21
-91.1274
0
LINE
8
Black
10
162.68
20
-91.1274
11
162.62
21
-90.7853
0
LINE
8
Black
10
162.62
20
-90.7853
11
162.62
21
-89.9747
0
LINE
8
Black
10
162.62
20
-89.9747
11
162.68
21
-89.6326
0
LINE
8
Black
10
162.68
20
-89.6326
11
162.854
21
-89.3319
0
LINE
8
Black
10
162.854
20
-89.3319
11
163.12
21
-89.1086
0
LINE
8
Black
10
163.12
20
-89.1086
11
163.446
21
-88.9898
0
LINE
8
Black
10
163.446
20
-88.9898
11
163.794
21
-88.9898
0
LINE
8
Black
10
163.794
20
-88.9898
11
164.12
21
-89.1086
0
LINE
8
Black
10
161.58
20
-89.1086
11
161.846
21
-89.3319
0
LINE
8
Black
10
161.846
20
-89.3319
11
162.02
21
-89.6326
0
LINE
8
Black
10
162.02
20
-89.6326
11
162.08
21
-89.9747
0
LINE
8
Black
10
162.08
20
-89.9747
11
162.08
21
-90.7853
0
LINE
8
Black
10
162.08
20
-90.7853
11
162.02
21
-91.1274
0
LINE
8
Black
10
162.02
20
-91.1274
11
161.846
21
-91.4281
0
LINE
8
Black
10
161.846
20
-91.4281
11
161.58
21
-91.6514
0
LINE
8
Black
10
161.58
20
-91.6514
11
161.254
21
-91.7702
0
LINE
8
Black
10
161.254
20
-91.7702
11
160.906
21
-91.7702
0
LINE
8
Black
10
160.906
20
-91.7702
11
160.58
21
-91.6514
0
LINE
8
Black
10
160.58
20
-91.6514
11
160.314
21
-91.4281
0
LINE
8
Black
10
160.314
20
-91.4281
11
160.14
21
-91.1274
0
LINE
8
Black
10
160.14
20
-91.1274
11
160.08
21
-90.7853
0
LINE
8
Black
10
160.08
20
-90.7853
11
160.08
21
-89.9747
0
LINE
8
Black
10
160.08
20
-89.9747
11
160.14
21
-89.6326
0
LINE
8
Black
10
160.14
20
-89.6326
11
160.314
21
-89.3319
0
LINE
8
Black
10
160.314
20
-89.3319
11
160.58
21
-89.1086
0
LINE
8
Black
10
160.58
20
-89.1086
11
160.906
21
-88.9898
0
LINE
8
Black
10
160.906
20
-88.9898
11
161.254
21
-88.9898
0
LINE
8
Black
10
161.254
20
-88.9898
11
161.58
21
-89.1086
0
LINE
8
Black
10
159.04
20
-89.1086
11
159.306
21
-89.3319
0
LINE
8
Black
10
159.306
20
-89.3319
11
159.48
21
-89.6326
0
LINE
8
Black
10
159.48
20
-89.6326
11
159.54
21
-89.9747
0
LINE
8
Black
10
159.54
20
-89.9747
11
159.54
21
-90.7853
0
LINE
8
Black
10
159.54
20
-90.7853
11
159.48
21
-91.1274
0
LINE
8
Black
10
159.48
20
-91.1274
11
159.306
21
-91.4281
0
LINE
8
Black
10
159.306
20
-91.4281
11
159.04
21
-91.6514
0
LINE
8
Black
10
159.04
20
-91.6514
11
158.714
21
-91.7702
0
LINE
8
Black
10
158.714
20
-91.7702
11
158.366
21
-91.7702
0
LINE
8
Black
10
158.366
20
-91.7702
11
158.04
21
-91.6514
0
LINE
8
Black
10
158.04
20
-91.6514
11
157.774
21
-91.4281
0
LINE
8
Black
10
157.774
20
-91.4281
11
157.6
21
-91.1274
0
LINE
8
Black
10
157.6
20
-91.1274
11
157.54
21
-90.7853
0
LINE
8
Black
10
157.54
20
-90.7853
11
157.54
21
-89.9747
0
LINE
8
Black
10
157.54
20
-89.9747
11
157.6
21
-89.6326
0
LINE
8
Black
10
157.6
20
-89.6326
11
157.774
21
-89.3319
0
LINE
8
Black
10
157.774
20
-89.3319
11
158.04
21
-89.1086
0
LINE
8
Black
10
158.04
20
-89.1086
11
158.366
21
-88.9898
0
LINE
8
Black
10
158.366
20
-88.9898
11
158.714
21
-88.9898
0
LINE
8
Black
10
158.714
20
-88.9898
11
159.04
21
-89.1086
0
LINE
8
Black
10
156.5
20
-89.1086
11
156.766
21
-89.3319
0
LINE
8
Black
10
156.766
20
-89.3319
11
156.94
21
-89.6326
0
LINE
8
Black
10
156.94
20
-89.6326
11
157
21
-89.9747
0
LINE
8
Black
10
157
20
-89.9747
11
157
21
-90.7853
0
LINE
8
Black
10
157
20
-90.7853
11
156.94
21
-91.1274
0
LINE
8
Black
10
156.94
20
-91.1274
11
156.766
21
-91.4281
0
LINE
8
Black
10
156.766
20
-91.4281
11
156.5
21
-91.6514
0
LINE
8
Black
10
156.5
20
-91.6514
11
156.174
21
-91.7702
0
LINE
8
Black
10
156.174
20
-91.7702
11
155.826
21
-91.7702
0
LINE
8
Black
10
155.826
20
-91.7702
11
155.5
21
-91.6514
0
LINE
8
Black
10
155.5
20
-91.6514
11
155.234
21
-91.4281
0
LINE
8
Black
10
155.234
20
-91.4281
11
155.06
21
-91.1274
0
LINE
8
Black
10
155.06
20
-91.1274
11
155
21
-90.7853
0
LINE
8
Black
10
155
20
-90.7853
11
155
21
-89.9747
0
LINE
8
Black
10
155
20
-89.9747
11
155.06
21
-89.6326
0
LINE
8
Black
10
155.06
20
-89.6326
11
155.234
21
-89.3319
0
LINE
8
Black
10
155.234
20
-89.3319
11
155.5
21
-89.1086
0
LINE
8
Black
10
155.5
20
-89.1086
11
155.826
21
-88.9898
0
LINE
8
Black
10
155.826
20
-88.9898
11
156.174
21
-88.9898
0
LINE
8
Black
10
156.174
20
-88.9898
11
156.5
21
-89.1086
0
LINE
8
Black
10
151.676
20
-89.6002
11
151.942
21
-89.8234
0
LINE
8
Black
10
151.942
20
-89.8234
11
152.116
21
-90.1242
0
LINE
8
Black
10
152.116
20
-90.1242
11
152.176
21
-90.4662
0
LINE
8
Black
10
152.176
20
-90.4662
11
152.176
21
-90.4738
0
LINE
8
Black
10
152.176
20
-90.4738
11
152.116
21
-90.8158
0
LINE
8
Black
10
152.116
20
-90.8158
11
151.942
21
-91.1166
0
LINE
8
Black
10
151.942
20
-91.1166
11
151.676
21
-91.3398
0
LINE
8
Black
10
151.676
20
-91.3398
11
151.35
21
-91.4586
0
LINE
8
Black
10
151.35
20
-91.4586
11
151.002
21
-91.4586
0
LINE
8
Black
10
151.002
20
-91.4586
11
150.676
21
-91.3398
0
LINE
8
Black
10
150.676
20
-91.3398
11
150.41
21
-91.1166
0
LINE
8
Black
10
150.41
20
-91.1166
11
150.236
21
-90.8158
0
LINE
8
Black
10
150.236
20
-90.8158
11
150.176
21
-90.4738
0
LINE
8
Black
10
150.176
20
-90.4738
11
150.176
21
-90.4662
0
LINE
8
Black
10
150.176
20
-90.4662
11
150.236
21
-90.1242
0
LINE
8
Black
10
150.236
20
-90.1242
11
150.41
21
-89.8234
0
LINE
8
Black
10
150.41
20
-89.8234
11
150.676
21
-89.6002
0
LINE
8
Black
10
150.676
20
-89.6002
11
151.002
21
-89.4814
0
LINE
8
Black
10
151.002
20
-89.4814
11
151.35
21
-89.4814
0
LINE
8
Black
10
151.35
20
-89.4814
11
151.676
21
-89.6002
0
LINE
8
Black
10
144.056
20
-89.6002
11
144.322
21
-89.8234
0
LINE
8
Black
10
144.322
20
-89.8234
11
144.496
21
-90.1242
0
LINE
8
Black
10
144.496
20
-90.1242
11
144.556
21
-90.4662
0
LINE
8
Black
10
144.556
20
-90.4662
11
144.556
21
-90.4738
0
LINE
8
Black
10
144.556
20
-90.4738
11
144.496
21
-90.8158
0
LINE
8
Black
10
144.496
20
-90.8158
11
144.322
21
-91.1166
0
LINE
8
Black
10
144.322
20
-91.1166
11
144.056
21
-91.3398
0
LINE
8
Black
10
144.056
20
-91.3398
11
143.73
21
-91.4586
0
LINE
8
Black
10
143.73
20
-91.4586
11
143.382
21
-91.4586
0
LINE
8
Black
10
143.382
20
-91.4586
11
143.056
21
-91.3398
0
LINE
8
Black
10
143.056
20
-91.3398
11
142.79
21
-91.1166
0
LINE
8
Black
10
142.79
20
-91.1166
11
142.616
21
-90.8158
0
LINE
8
Black
10
142.616
20
-90.8158
11
142.556
21
-90.4738
0
LINE
8
Black
10
142.556
20
-90.4738
11
142.556
21
-90.4662
0
LINE
8
Black
10
142.556
20
-90.4662
11
142.616
21
-90.1242
0
LINE
8
Black
10
142.616
20
-90.1242
11
142.79
21
-89.8234
0
LINE
8
Black
10
142.79
20
-89.8234
11
143.056
21
-89.6002
0
LINE
8
Black
10
143.056
20
-89.6002
11
143.382
21
-89.4814
0
LINE
8
Black
10
143.382
20
-89.4814
11
143.73
21
-89.4814
0
LINE
8
Black
10
143.73
20
-89.4814
11
144.056
21
-89.6002
0
LINE
8
Black
10
146.596
20
-89.6002
11
146.862
21
-89.8234
0
LINE
8
Black
10
146.862
20
-89.8234
11
147.036
21
-90.1242
0
LINE
8
Black
10
147.036
20
-90.1242
11
147.096
21
-90.4662
0
LINE
8
Black
10
147.096
20
-90.4662
11
147.096
21
-90.4738
0
LINE
8
Black
10
147.096
20
-90.4738
11
147.036
21
-90.8158
0
LINE
8
Black
10
147.036
20
-90.8158
11
146.862
21
-91.1166
0
LINE
8
Black
10
146.862
20
-91.1166
11
146.596
21
-91.3398
0
LINE
8
Black
10
146.596
20
-91.3398
11
146.27
21
-91.4586
0
LINE
8
Black
10
146.27
20
-91.4586
11
145.922
21
-91.4586
0
LINE
8
Black
10
145.922
20
-91.4586
11
145.596
21
-91.3398
0
LINE
8
Black
10
145.596
20
-91.3398
11
145.33
21
-91.1166
0
LINE
8
Black
10
145.33
20
-91.1166
11
145.156
21
-90.8158
0
LINE
8
Black
10
145.156
20
-90.8158
11
145.096
21
-90.4738
0
LINE
8
Black
10
145.096
20
-90.4738
11
145.096
21
-90.4662
0
LINE
8
Black
10
145.096
20
-90.4662
11
145.156
21
-90.1242
0
LINE
8
Black
10
145.156
20
-90.1242
11
145.33
21
-89.8234
0
LINE
8
Black
10
145.33
20
-89.8234
11
145.596
21
-89.6002
0
LINE
8
Black
10
145.596
20
-89.6002
11
145.922
21
-89.4814
0
LINE
8
Black
10
145.922
20
-89.4814
11
146.27
21
-89.4814
0
LINE
8
Black
10
146.27
20
-89.4814
11
146.596
21
-89.6002
0
LINE
8
Black
10
149.136
20
-89.6002
11
149.402
21
-89.8234
0
LINE
8
Black
10
149.402
20
-89.8234
11
149.576
21
-90.1242
0
LINE
8
Black
10
149.576
20
-90.1242
11
149.636
21
-90.4662
0
LINE
8
Black
10
149.636
20
-90.4662
11
149.636
21
-90.4738
0
LINE
8
Black
10
149.636
20
-90.4738
11
149.576
21
-90.8158
0
LINE
8
Black
10
149.576
20
-90.8158
11
149.402
21
-91.1166
0
LINE
8
Black
10
149.402
20
-91.1166
11
149.136
21
-91.3398
0
LINE
8
Black
10
149.136
20
-91.3398
11
148.81
21
-91.4586
0
LINE
8
Black
10
148.81
20
-91.4586
11
148.462
21
-91.4586
0
LINE
8
Black
10
148.462
20
-91.4586
11
148.136
21
-91.3398
0
LINE
8
Black
10
148.136
20
-91.3398
11
147.87
21
-91.1166
0
LINE
8
Black
10
147.87
20
-91.1166
11
147.696
21
-90.8158
0
LINE
8
Black
10
147.696
20
-90.8158
11
147.636
21
-90.4738
0
LINE
8
Black
10
147.636
20
-90.4738
11
147.636
21
-90.4662
0
LINE
8
Black
10
147.636
20
-90.4662
11
147.696
21
-90.1242
0
LINE
8
Black
10
147.696
20
-90.1242
11
147.87
21
-89.8234
0
LINE
8
Black
10
147.87
20
-89.8234
11
148.136
21
-89.6002
0
LINE
8
Black
10
148.136
20
-89.6002
11
148.462
21
-89.4814
0
LINE
8
Black
10
148.462
20
-89.4814
11
148.81
21
-89.4814
0
LINE
8
Black
10
148.81
20
-89.4814
11
149.136
21
-89.6002
0
LINE
8
Black
10
153.297
20
-86.4787
11
153.599
21
-86.653
0
LINE
8
Black
10
153.599
20
-86.653
11
153.823
21
-86.9201
0
LINE
8
Black
10
153.823
20
-86.9201
11
153.943
21
-87.2477
0
LINE
8
Black
10
153.943
20
-87.2477
11
153.943
21
-87.5963
0
LINE
8
Black
10
153.943
20
-87.5963
11
153.823
21
-87.9239
0
LINE
8
Black
10
153.823
20
-87.9239
11
153.599
21
-88.191
0
LINE
8
Black
10
153.599
20
-88.191
11
153.297
21
-88.3653
0
LINE
8
Black
10
153.297
20
-88.3653
11
152.954
21
-88.4258
0
LINE
8
Black
10
152.954
20
-88.4258
11
152.611
21
-88.3653
0
LINE
8
Black
10
152.611
20
-88.3653
11
152.309
21
-88.191
0
LINE
8
Black
10
152.309
20
-88.191
11
152.085
21
-87.9239
0
LINE
8
Black
10
152.085
20
-87.9239
11
151.965
21
-87.5963
0
LINE
8
Black
10
151.965
20
-87.5963
11
151.965
21
-87.2477
0
LINE
8
Black
10
151.965
20
-87.2477
11
152.085
21
-86.9201
0
LINE
8
Black
10
152.085
20
-86.9201
11
152.309
21
-86.653
0
LINE
8
Black
10
152.309
20
-86.653
11
152.611
21
-86.4787
0
LINE
8
Black
10
152.611
20
-86.4787
11
152.954
21
-86.4182
0
LINE
8
Black
10
152.954
20
-86.4182
11
153.297
21
-86.4787
0
LINE
8
Black
10
143.14
20
-86.4823
11
143.441
21
-86.656
0
LINE
8
Black
10
143.441
20
-86.656
11
143.664
21
-86.922
0
LINE
8
Black
10
143.664
20
-86.922
11
143.783
21
-87.2484
0
LINE
8
Black
10
143.783
20
-87.2484
11
143.783
21
-87.5956
0
LINE
8
Black
10
143.783
20
-87.5956
11
143.664
21
-87.922
0
LINE
8
Black
10
143.664
20
-87.922
11
143.441
21
-88.188
0
LINE
8
Black
10
143.441
20
-88.188
11
143.14
21
-88.3617
0
LINE
8
Black
10
143.14
20
-88.3617
11
142.798
21
-88.422
0
LINE
8
Black
10
142.798
20
-88.422
11
142.79
21
-88.422
0
LINE
8
Black
10
142.79
20
-88.422
11
142.448
21
-88.3617
0
LINE
8
Black
10
142.448
20
-88.3617
11
142.147
21
-88.188
0
LINE
8
Black
10
142.147
20
-88.188
11
141.924
21
-87.922
0
LINE
8
Black
10
141.924
20
-87.922
11
141.805
21
-87.5956
0
LINE
8
Black
10
141.805
20
-87.5956
11
141.805
21
-87.2484
0
LINE
8
Black
10
141.805
20
-87.2484
11
141.924
21
-86.922
0
LINE
8
Black
10
141.924
20
-86.922
11
142.147
21
-86.656
0
LINE
8
Black
10
142.147
20
-86.656
11
142.448
21
-86.4823
0
LINE
8
Black
10
142.448
20
-86.4823
11
142.79
21
-86.422
0
LINE
8
Black
10
142.79
20
-86.422
11
142.798
21
-86.422
0
LINE
8
Black
10
142.798
20
-86.422
11
143.14
21
-86.4823
0
LINE
8
Black
10
151.773
20
-83.1767
11
152.075
21
-83.351
0
LINE
8
Black
10
152.075
20
-83.351
11
152.299
21
-83.6181
0
LINE
8
Black
10
152.299
20
-83.6181
11
152.419
21
-83.9457
0
LINE
8
Black
10
152.419
20
-83.9457
11
152.419
21
-84.2943
0
LINE
8
Black
10
152.419
20
-84.2943
11
152.299
21
-84.6219
0
LINE
8
Black
10
152.299
20
-84.6219
11
152.075
21
-84.889
0
LINE
8
Black
10
152.075
20
-84.889
11
151.773
21
-85.0633
0
LINE
8
Black
10
151.773
20
-85.0633
11
151.43
21
-85.1238
0
LINE
8
Black
10
151.43
20
-85.1238
11
151.087
21
-85.0633
0
LINE
8
Black
10
151.087
20
-85.0633
11
150.785
21
-84.889
0
LINE
8
Black
10
150.785
20
-84.889
11
150.561
21
-84.6219
0
LINE
8
Black
10
150.561
20
-84.6219
11
150.441
21
-84.2943
0
LINE
8
Black
10
150.441
20
-84.2943
11
150.441
21
-83.9457
0
LINE
8
Black
10
150.441
20
-83.9457
11
150.561
21
-83.6181
0
LINE
8
Black
10
150.561
20
-83.6181
11
150.785
21
-83.351
0
LINE
8
Black
10
150.785
20
-83.351
11
151.087
21
-83.1767
0
LINE
8
Black
10
151.087
20
-83.1767
11
151.43
21
-83.1162
0
LINE
8
Black
10
151.43
20
-83.1162
11
151.773
21
-83.1767
0
LINE
8
Black
10
141.616
20
-83.1803
11
141.917
21
-83.354
0
LINE
8
Black
10
141.917
20
-83.354
11
142.14
21
-83.62
0
LINE
8
Black
10
142.14
20
-83.62
11
142.259
21
-83.9464
0
LINE
8
Black
10
142.259
20
-83.9464
11
142.259
21
-84.2936
0
LINE
8
Black
10
142.259
20
-84.2936
11
142.14
21
-84.62
0
LINE
8
Black
10
142.14
20
-84.62
11
141.917
21
-84.886
0
LINE
8
Black
10
141.917
20
-84.886
11
141.616
21
-85.0597
0
LINE
8
Black
10
141.616
20
-85.0597
11
141.274
21
-85.12
0
LINE
8
Black
10
141.274
20
-85.12
11
141.266
21
-85.12
0
LINE
8
Black
10
141.266
20
-85.12
11
140.924
21
-85.0597
0
LINE
8
Black
10
140.924
20
-85.0597
11
140.623
21
-84.886
0
LINE
8
Black
10
140.623
20
-84.886
11
140.4
21
-84.62
0
LINE
8
Black
10
140.4
20
-84.62
11
140.281
21
-84.2936
0
LINE
8
Black
10
140.281
20
-84.2936
11
140.281
21
-83.9464
0
LINE
8
Black
10
140.281
20
-83.9464
11
140.4
21
-83.62
0
LINE
8
Black
10
140.4
20
-83.62
11
140.623
21
-83.354
0
LINE
8
Black
10
140.623
20
-83.354
11
140.924
21
-83.1803
0
LINE
8
Black
10
140.924
20
-83.1803
11
141.266
21
-83.12
0
LINE
8
Black
10
141.266
20
-83.12
11
141.274
21
-83.12
0
LINE
8
Black
10
141.274
20
-83.12
11
141.616
21
-83.1803
0
LINE
8
Black
10
146.13
20
-81.36
11
144.03
21
-81.36
0
LINE
8
Black
10
144.03
20
-81.36
11
144.03
21
-79.26
0
LINE
8
Black
10
144.03
20
-79.26
11
146.13
21
-79.26
0
LINE
8
Black
10
146.13
20
-79.26
11
146.13
21
-81.36
0
LINE
8
Black
10
153.225
20
-79.3967
11
153.504
21
-79.6311
0
LINE
8
Black
10
153.504
20
-79.6311
11
153.687
21
-79.9469
0
LINE
8
Black
10
153.687
20
-79.9469
11
153.75
21
-80.306
0
LINE
8
Black
10
153.75
20
-80.306
11
153.75
21
-80.314
0
LINE
8
Black
10
153.75
20
-80.314
11
153.687
21
-80.6731
0
LINE
8
Black
10
153.687
20
-80.6731
11
153.504
21
-80.9889
0
LINE
8
Black
10
153.504
20
-80.9889
11
153.225
21
-81.2233
0
LINE
8
Black
10
153.225
20
-81.2233
11
152.882
21
-81.3481
0
LINE
8
Black
10
152.882
20
-81.3481
11
152.518
21
-81.3481
0
LINE
8
Black
10
152.518
20
-81.3481
11
152.175
21
-81.2233
0
LINE
8
Black
10
152.175
20
-81.2233
11
151.896
21
-80.9889
0
LINE
8
Black
10
151.896
20
-80.9889
11
151.713
21
-80.6731
0
LINE
8
Black
10
151.713
20
-80.6731
11
151.65
21
-80.314
0
LINE
8
Black
10
151.65
20
-80.314
11
151.65
21
-80.306
0
LINE
8
Black
10
151.65
20
-80.306
11
151.713
21
-79.9469
0
LINE
8
Black
10
151.713
20
-79.9469
11
151.896
21
-79.6311
0
LINE
8
Black
10
151.896
20
-79.6311
11
152.175
21
-79.3967
0
LINE
8
Black
10
152.175
20
-79.3967
11
152.518
21
-79.2719
0
LINE
8
Black
10
152.518
20
-79.2719
11
152.882
21
-79.2719
0
LINE
8
Black
10
152.882
20
-79.2719
11
153.225
21
-79.3967
0
LINE
8
Black
10
148.145
20
-79.3967
11
148.424
21
-79.6311
0
LINE
8
Black
10
148.424
20
-79.6311
11
148.607
21
-79.9469
0
LINE
8
Black
10
148.607
20
-79.9469
11
148.67
21
-80.306
0
LINE
8
Black
10
148.67
20
-80.306
11
148.67
21
-80.314
0
LINE
8
Black
10
148.67
20
-80.314
11
148.607
21
-80.6731
0
LINE
8
Black
10
148.607
20
-80.6731
11
148.424
21
-80.9889
0
LINE
8
Black
10
148.424
20
-80.9889
11
148.145
21
-81.2233
0
LINE
8
Black
10
148.145
20
-81.2233
11
147.802
21
-81.3481
0
LINE
8
Black
10
147.802
20
-81.3481
11
147.438
21
-81.3481
0
LINE
8
Black
10
147.438
20
-81.3481
11
147.095
21
-81.2233
0
LINE
8
Black
10
147.095
20
-81.2233
11
146.816
21
-80.9889
0
LINE
8
Black
10
146.816
20
-80.9889
11
146.633
21
-80.6731
0
LINE
8
Black
10
146.633
20
-80.6731
11
146.57
21
-80.314
0
LINE
8
Black
10
146.57
20
-80.314
11
146.57
21
-80.306
0
LINE
8
Black
10
146.57
20
-80.306
11
146.633
21
-79.9469
0
LINE
8
Black
10
146.633
20
-79.9469
11
146.816
21
-79.6311
0
LINE
8
Black
10
146.816
20
-79.6311
11
147.095
21
-79.3967
0
LINE
8
Black
10
147.095
20
-79.3967
11
147.438
21
-79.2719
0
LINE
8
Black
10
147.438
20
-79.2719
11
147.802
21
-79.2719
0
LINE
8
Black
10
147.802
20
-79.2719
11
148.145
21
-79.3967
0
LINE
8
Black
10
150.685
20
-79.3967
11
150.964
21
-79.6311
0
LINE
8
Black
10
150.964
20
-79.6311
11
151.147
21
-79.9469
0
LINE
8
Black
10
151.147
20
-79.9469
11
151.21
21
-80.306
0
LINE
8
Black
10
151.21
20
-80.306
11
151.21
21
-80.314
0
LINE
8
Black
10
151.21
20
-80.314
11
151.147
21
-80.6731
0
LINE
8
Black
10
151.147
20
-80.6731
11
150.964
21
-80.9889
0
LINE
8
Black
10
150.964
20
-80.9889
11
150.685
21
-81.2233
0
LINE
8
Black
10
150.685
20
-81.2233
11
150.342
21
-81.3481
0
LINE
8
Black
10
150.342
20
-81.3481
11
149.978
21
-81.3481
0
LINE
8
Black
10
149.978
20
-81.3481
11
149.635
21
-81.2233
0
LINE
8
Black
10
149.635
20
-81.2233
11
149.356
21
-80.9889
0
LINE
8
Black
10
149.356
20
-80.9889
11
149.173
21
-80.6731
0
LINE
8
Black
10
149.173
20
-80.6731
11
149.11
21
-80.314
0
LINE
8
Black
10
149.11
20
-80.314
11
149.11
21
-80.306
0
LINE
8
Black
10
149.11
20
-80.306
11
149.173
21
-79.9469
0
LINE
8
Black
10
149.173
20
-79.9469
11
149.356
21
-79.6311
0
LINE
8
Black
10
149.356
20
-79.6311
11
149.635
21
-79.3967
0
LINE
8
Black
10
149.635
20
-79.3967
11
149.978
21
-79.2719
0
LINE
8
Black
10
149.978
20
-79.2719
11
150.342
21
-79.2719
0
LINE
8
Black
10
150.342
20
-79.2719
11
150.685
21
-79.3967
0
LINE
8
Black
10
155.765
20
-79.3967
11
156.044
21
-79.6311
0
LINE
8
Black
10
156.044
20
-79.6311
11
156.227
21
-79.9469
0
LINE
8
Black
10
156.227
20
-79.9469
11
156.29
21
-80.306
0
LINE
8
Black
10
156.29
20
-80.306
11
156.29
21
-80.314
0
LINE
8
Black
10
156.29
20
-80.314
11
156.227
21
-80.6731
0
LINE
8
Black
10
156.227
20
-80.6731
11
156.044
21
-80.9889
0
LINE
8
Black
10
156.044
20
-80.9889
11
155.765
21
-81.2233
0
LINE
8
Black
10
155.765
20
-81.2233
11
155.422
21
-81.3481
0
LINE
8
Black
10
155.422
20
-81.3481
11
155.058
21
-81.3481
0
LINE
8
Black
10
155.058
20
-81.3481
11
154.715
21
-81.2233
0
LINE
8
Black
10
154.715
20
-81.2233
11
154.436
21
-80.9889
0
LINE
8
Black
10
154.436
20
-80.9889
11
154.253
21
-80.6731
0
LINE
8
Black
10
154.253
20
-80.6731
11
154.19
21
-80.314
0
LINE
8
Black
10
154.19
20
-80.314
11
154.19
21
-80.306
0
LINE
8
Black
10
154.19
20
-80.306
11
154.253
21
-79.9469
0
LINE
8
Black
10
154.253
20
-79.9469
11
154.436
21
-79.6311
0
LINE
8
Black
10
154.436
20
-79.6311
11
154.715
21
-79.3967
0
LINE
8
Black
10
154.715
20
-79.3967
11
155.058
21
-79.2719
0
LINE
8
Black
10
155.058
20
-79.2719
11
155.422
21
-79.2719
0
LINE
8
Black
10
155.422
20
-79.2719
11
155.765
21
-79.3967
0
LINE
8
Black
10
158.305
20
-79.3967
11
158.584
21
-79.6311
0
LINE
8
Black
10
158.584
20
-79.6311
11
158.767
21
-79.9469
0
LINE
8
Black
10
158.767
20
-79.9469
11
158.83
21
-80.306
0
LINE
8
Black
10
158.83
20
-80.306
11
158.83
21
-80.314
0
LINE
8
Black
10
158.83
20
-80.314
11
158.767
21
-80.6731
0
LINE
8
Black
10
158.767
20
-80.6731
11
158.584
21
-80.9889
0
LINE
8
Black
10
158.584
20
-80.9889
11
158.305
21
-81.2233
0
LINE
8
Black
10
158.305
20
-81.2233
11
157.962
21
-81.3481
0
LINE
8
Black
10
157.962
20
-81.3481
11
157.598
21
-81.3481
0
LINE
8
Black
10
157.598
20
-81.3481
11
157.255
21
-81.2233
0
LINE
8
Black
10
157.255
20
-81.2233
11
156.976
21
-80.9889
0
LINE
8
Black
10
156.976
20
-80.9889
11
156.793
21
-80.6731
0
LINE
8
Black
10
156.793
20
-80.6731
11
156.73
21
-80.314
0
LINE
8
Black
10
156.73
20
-80.314
11
156.73
21
-80.306
0
LINE
8
Black
10
156.73
20
-80.306
11
156.793
21
-79.9469
0
LINE
8
Black
10
156.793
20
-79.9469
11
156.976
21
-79.6311
0
LINE
8
Black
10
156.976
20
-79.6311
11
157.255
21
-79.3967
0
LINE
8
Black
10
157.255
20
-79.3967
11
157.598
21
-79.2719
0
LINE
8
Black
10
157.598
20
-79.2719
11
157.962
21
-79.2719
0
LINE
8
Black
10
157.962
20
-79.2719
11
158.305
21
-79.3967
0
LINE
8
Black
10
160.845
20
-79.3967
11
161.124
21
-79.6311
0
LINE
8
Black
10
161.124
20
-79.6311
11
161.307
21
-79.9469
0
LINE
8
Black
10
161.307
20
-79.9469
11
161.37
21
-80.306
0
LINE
8
Black
10
161.37
20
-80.306
11
161.37
21
-80.314
0
LINE
8
Black
10
161.37
20
-80.314
11
161.307
21
-80.6731
0
LINE
8
Black
10
161.307
20
-80.6731
11
161.124
21
-80.9889
0
LINE
8
Black
10
161.124
20
-80.9889
11
160.845
21
-81.2233
0
LINE
8
Black
10
160.845
20
-81.2233
11
160.502
21
-81.3481
0
LINE
8
Black
10
160.502
20
-81.3481
11
160.138
21
-81.3481
0
LINE
8
Black
10
160.138
20
-81.3481
11
159.795
21
-81.2233
0
LINE
8
Black
10
159.795
20
-81.2233
11
159.516
21
-80.9889
0
LINE
8
Black
10
159.516
20
-80.9889
11
159.333
21
-80.6731
0
LINE
8
Black
10
159.333
20
-80.6731
11
159.27
21
-80.314
0
LINE
8
Black
10
159.27
20
-80.314
11
159.27
21
-80.306
0
LINE
8
Black
10
159.27
20
-80.306
11
159.333
21
-79.9469
0
LINE
8
Black
10
159.333
20
-79.9469
11
159.516
21
-79.6311
0
LINE
8
Black
10
159.516
20
-79.6311
11
159.795
21
-79.3967
0
LINE
8
Black
10
159.795
20
-79.3967
11
160.138
21
-79.2719
0
LINE
8
Black
10
160.138
20
-79.2719
11
160.502
21
-79.2719
0
LINE
8
Black
10
160.502
20
-79.2719
11
160.845
21
-79.3967
0
LINE
8
Black
10
163.385
20
-79.3967
11
163.664
21
-79.6311
0
LINE
8
Black
10
163.664
20
-79.6311
11
163.847
21
-79.9469
0
LINE
8
Black
10
163.847
20
-79.9469
11
163.91
21
-80.306
0
LINE
8
Black
10
163.91
20
-80.306
11
163.91
21
-80.314
0
LINE
8
Black
10
163.91
20
-80.314
11
163.847
21
-80.6731
0
LINE
8
Black
10
163.847
20
-80.6731
11
163.664
21
-80.9889
0
LINE
8
Black
10
163.664
20
-80.9889
11
163.385
21
-81.2233
0
LINE
8
Black
10
163.385
20
-81.2233
11
163.042
21
-81.3481
0
LINE
8
Black
10
163.042
20
-81.3481
11
162.678
21
-81.3481
0
LINE
8
Black
10
162.678
20
-81.3481
11
162.335
21
-81.2233
0
LINE
8
Black
10
162.335
20
-81.2233
11
162.056
21
-80.9889
0
LINE
8
Black
10
162.056
20
-80.9889
11
161.873
21
-80.6731
0
LINE
8
Black
10
161.873
20
-80.6731
11
161.81
21
-80.314
0
LINE
8
Black
10
161.81
20
-80.314
11
161.81
21
-80.306
0
LINE
8
Black
10
161.81
20
-80.306
11
161.873
21
-79.9469
0
LINE
8
Black
10
161.873
20
-79.9469
11
162.056
21
-79.6311
0
LINE
8
Black
10
162.056
20
-79.6311
11
162.335
21
-79.3967
0
LINE
8
Black
10
162.335
20
-79.3967
11
162.678
21
-79.2719
0
LINE
8
Black
10
162.678
20
-79.2719
11
163.042
21
-79.2719
0
LINE
8
Black
10
163.042
20
-79.2719
11
163.385
21
-79.3967
0
LINE
8
Black
10
165.925
20
-79.3967
11
166.204
21
-79.6311
0
LINE
8
Black
10
166.204
20
-79.6311
11
166.387
21
-79.9469
0
LINE
8
Black
10
166.387
20
-79.9469
11
166.45
21
-80.306
0
LINE
8
Black
10
166.45
20
-80.306
11
166.45
21
-80.314
0
LINE
8
Black
10
166.45
20
-80.314
11
166.387
21
-80.6731
0
LINE
8
Black
10
166.387
20
-80.6731
11
166.204
21
-80.9889
0
LINE
8
Black
10
166.204
20
-80.9889
11
165.925
21
-81.2233
0
LINE
8
Black
10
165.925
20
-81.2233
11
165.582
21
-81.3481
0
LINE
8
Black
10
165.582
20
-81.3481
11
165.218
21
-81.3481
0
LINE
8
Black
10
165.218
20
-81.3481
11
164.875
21
-81.2233
0
LINE
8
Black
10
164.875
20
-81.2233
11
164.596
21
-80.9889
0
LINE
8
Black
10
164.596
20
-80.9889
11
164.413
21
-80.6731
0
LINE
8
Black
10
164.413
20
-80.6731
11
164.35
21
-80.314
0
LINE
8
Black
10
164.35
20
-80.314
11
164.35
21
-80.306
0
LINE
8
Black
10
164.35
20
-80.306
11
164.413
21
-79.9469
0
LINE
8
Black
10
164.413
20
-79.9469
11
164.596
21
-79.6311
0
LINE
8
Black
10
164.596
20
-79.6311
11
164.875
21
-79.3967
0
LINE
8
Black
10
164.875
20
-79.3967
11
165.218
21
-79.2719
0
LINE
8
Black
10
165.218
20
-79.2719
11
165.582
21
-79.2719
0
LINE
8
Black
10
165.582
20
-79.2719
11
165.925
21
-79.3967
0
LINE
8
Black
10
168.465
20
-79.3967
11
168.744
21
-79.6311
0
LINE
8
Black
10
168.744
20
-79.6311
11
168.927
21
-79.9469
0
LINE
8
Black
10
168.927
20
-79.9469
11
168.99
21
-80.306
0
LINE
8
Black
10
168.99
20
-80.306
11
168.99
21
-80.314
0
LINE
8
Black
10
168.99
20
-80.314
11
168.927
21
-80.6731
0
LINE
8
Black
10
168.927
20
-80.6731
11
168.744
21
-80.9889
0
LINE
8
Black
10
168.744
20
-80.9889
11
168.465
21
-81.2233
0
LINE
8
Black
10
168.465
20
-81.2233
11
168.122
21
-81.3481
0
LINE
8
Black
10
168.122
20
-81.3481
11
167.758
21
-81.3481
0
LINE
8
Black
10
167.758
20
-81.3481
11
167.415
21
-81.2233
0
LINE
8
Black
10
167.415
20
-81.2233
11
167.136
21
-80.9889
0
LINE
8
Black
10
167.136
20
-80.9889
11
166.953
21
-80.6731
0
LINE
8
Black
10
166.953
20
-80.6731
11
166.89
21
-80.314
0
LINE
8
Black
10
166.89
20
-80.314
11
166.89
21
-80.306
0
LINE
8
Black
10
166.89
20
-80.306
11
166.953
21
-79.9469
0
LINE
8
Black
10
166.953
20
-79.9469
11
167.136
21
-79.6311
0
LINE
8
Black
10
167.136
20
-79.6311
11
167.415
21
-79.3967
0
LINE
8
Black
10
167.415
20
-79.3967
11
167.758
21
-79.2719
0
LINE
8
Black
10
167.758
20
-79.2719
11
168.122
21
-79.2719
0
LINE
8
Black
10
168.122
20
-79.2719
11
168.465
21
-79.3967
0
LINE
8
Black
10
171.005
20
-79.3967
11
171.284
21
-79.6311
0
LINE
8
Black
10
171.284
20
-79.6311
11
171.467
21
-79.9469
0
LINE
8
Black
10
171.467
20
-79.9469
11
171.53
21
-80.306
0
LINE
8
Black
10
171.53
20
-80.306
11
171.53
21
-80.314
0
LINE
8
Black
10
171.53
20
-80.314
11
171.467
21
-80.6731
0
LINE
8
Black
10
171.467
20
-80.6731
11
171.284
21
-80.9889
0
LINE
8
Black
10
171.284
20
-80.9889
11
171.005
21
-81.2233
0
LINE
8
Black
10
171.005
20
-81.2233
11
170.662
21
-81.3481
0
LINE
8
Black
10
170.662
20
-81.3481
11
170.298
21
-81.3481
0
LINE
8
Black
10
170.298
20
-81.3481
11
169.955
21
-81.2233
0
LINE
8
Black
10
169.955
20
-81.2233
11
169.676
21
-80.9889
0
LINE
8
Black
10
169.676
20
-80.9889
11
169.493
21
-80.6731
0
LINE
8
Black
10
169.493
20
-80.6731
11
169.43
21
-80.314
0
LINE
8
Black
10
169.43
20
-80.314
11
169.43
21
-80.306
0
LINE
8
Black
10
169.43
20
-80.306
11
169.493
21
-79.9469
0
LINE
8
Black
10
169.493
20
-79.9469
11
169.676
21
-79.6311
0
LINE
8
Black
10
169.676
20
-79.6311
11
169.955
21
-79.3967
0
LINE
8
Black
10
169.955
20
-79.3967
11
170.298
21
-79.2719
0
LINE
8
Black
10
170.298
20
-79.2719
11
170.662
21
-79.2719
0
LINE
8
Black
10
170.662
20
-79.2719
11
171.005
21
-79.3967
0
LINE
8
Black
10
173.545
20
-79.3967
11
173.824
21
-79.6311
0
LINE
8
Black
10
173.824
20
-79.6311
11
174.007
21
-79.9469
0
LINE
8
Black
10
174.007
20
-79.9469
11
174.07
21
-80.306
0
LINE
8
Black
10
174.07
20
-80.306
11
174.07
21
-80.314
0
LINE
8
Black
10
174.07
20
-80.314
11
174.007
21
-80.6731
0
LINE
8
Black
10
174.007
20
-80.6731
11
173.824
21
-80.9889
0
LINE
8
Black
10
173.824
20
-80.9889
11
173.545
21
-81.2233
0
LINE
8
Black
10
173.545
20
-81.2233
11
173.202
21
-81.3481
0
LINE
8
Black
10
173.202
20
-81.3481
11
172.838
21
-81.3481
0
LINE
8
Black
10
172.838
20
-81.3481
11
172.495
21
-81.2233
0
LINE
8
Black
10
172.495
20
-81.2233
11
172.216
21
-80.9889
0
LINE
8
Black
10
172.216
20
-80.9889
11
172.033
21
-80.6731
0
LINE
8
Black
10
172.033
20
-80.6731
11
171.97
21
-80.314
0
LINE
8
Black
10
171.97
20
-80.314
11
171.97
21
-80.306
0
LINE
8
Black
10
171.97
20
-80.306
11
172.033
21
-79.9469
0
LINE
8
Black
10
172.033
20
-79.9469
11
172.216
21
-79.6311
0
LINE
8
Black
10
172.216
20
-79.6311
11
172.495
21
-79.3967
0
LINE
8
Black
10
172.495
20
-79.3967
11
172.838
21
-79.2719
0
LINE
8
Black
10
172.838
20
-79.2719
11
173.202
21
-79.2719
0
LINE
8
Black
10
173.202
20
-79.2719
11
173.545
21
-79.3967
0
LINE
8
Black
10
160.215
20
-76.1344
11
160.576
21
-76.3427
0
LINE
8
Black
10
160.576
20
-76.3427
11
160.844
21
-76.662
0
LINE
8
Black
10
160.844
20
-76.662
11
160.986
21
-77.0536
0
LINE
8
Black
10
160.986
20
-77.0536
11
160.986
21
-77.4704
0
LINE
8
Black
10
160.986
20
-77.4704
11
160.844
21
-77.862
0
LINE
8
Black
10
160.844
20
-77.862
11
160.576
21
-78.1813
0
LINE
8
Black
10
160.576
20
-78.1813
11
160.215
21
-78.3896
0
LINE
8
Black
10
160.215
20
-78.3896
11
159.804
21
-78.462
0
LINE
8
Black
10
159.804
20
-78.462
11
157.788
21
-78.462
0
LINE
8
Black
10
157.788
20
-78.462
11
157.377
21
-78.3896
0
LINE
8
Black
10
157.377
20
-78.3896
11
157.016
21
-78.1813
0
LINE
8
Black
10
157.016
20
-78.1813
11
156.748
21
-77.862
0
LINE
8
Black
10
156.748
20
-77.862
11
156.606
21
-77.4704
0
LINE
8
Black
10
156.606
20
-77.4704
11
156.606
21
-77.0536
0
LINE
8
Black
10
156.606
20
-77.0536
11
156.748
21
-76.662
0
LINE
8
Black
10
156.748
20
-76.662
11
157.016
21
-76.3427
0
LINE
8
Black
10
157.016
20
-76.3427
11
157.377
21
-76.1344
0
LINE
8
Black
10
157.377
20
-76.1344
11
157.788
21
-76.062
0
LINE
8
Black
10
157.788
20
-76.062
11
159.804
21
-76.062
0
LINE
8
Black
10
159.804
20
-76.062
11
160.215
21
-76.1344
0
LINE
8
Black
10
155.037
20
-76.1344
11
155.398
21
-76.3427
0
LINE
8
Black
10
155.398
20
-76.3427
11
155.666
21
-76.662
0
LINE
8
Black
10
155.666
20
-76.662
11
155.809
21
-77.0536
0
LINE
8
Black
10
155.809
20
-77.0536
11
155.809
21
-77.4704
0
LINE
8
Black
10
155.809
20
-77.4704
11
155.666
21
-77.862
0
LINE
8
Black
10
155.666
20
-77.862
11
155.398
21
-78.1813
0
LINE
8
Black
10
155.398
20
-78.1813
11
155.037
21
-78.3896
0
LINE
8
Black
10
155.037
20
-78.3896
11
154.627
21
-78.462
0
LINE
8
Black
10
154.627
20
-78.462
11
136.549
21
-78.462
0
LINE
8
Black
10
136.549
20
-78.462
11
136.139
21
-78.3896
0
LINE
8
Black
10
136.139
20
-78.3896
11
135.778
21
-78.1813
0
LINE
8
Black
10
135.778
20
-78.1813
11
135.51
21
-77.862
0
LINE
8
Black
10
135.51
20
-77.862
11
135.367
21
-77.4704
0
LINE
8
Black
10
135.367
20
-77.4704
11
135.367
21
-77.0536
0
LINE
8
Black
10
135.367
20
-77.0536
11
135.51
21
-76.662
0
LINE
8
Black
10
135.51
20
-76.662
11
135.778
21
-76.3427
0
LINE
8
Black
10
135.778
20
-76.3427
11
136.139
21
-76.1344
0
LINE
8
Black
10
136.139
20
-76.1344
11
136.549
21
-76.062
0
LINE
8
Black
10
136.549
20
-76.062
11
154.627
21
-76.062
0
LINE
8
Black
10
154.627
20
-76.062
11
155.037
21
-76.1344
0
LINE
8
Black
10
181.453
20
-76.1344
11
181.814
21
-76.3427
0
LINE
8
Black
10
181.814
20
-76.3427
11
182.082
21
-76.662
0
LINE
8
Black
10
182.082
20
-76.662
11
182.225
21
-77.0536
0
LINE
8
Black
10
182.225
20
-77.0536
11
182.225
21
-77.4704
0
LINE
8
Black
10
182.225
20
-77.4704
11
182.082
21
-77.862
0
LINE
8
Black
10
182.082
20
-77.862
11
181.814
21
-78.1813
0
LINE
8
Black
10
181.814
20
-78.1813
11
181.453
21
-78.3896
0
LINE
8
Black
10
181.453
20
-78.3896
11
181.043
21
-78.462
0
LINE
8
Black
10
181.043
20
-78.462
11
162.965
21
-78.462
0
LINE
8
Black
10
162.965
20
-78.462
11
162.555
21
-78.3896
0
LINE
8
Black
10
162.555
20
-78.3896
11
162.194
21
-78.1813
0
LINE
8
Black
10
162.194
20
-78.1813
11
161.926
21
-77.862
0
LINE
8
Black
10
161.926
20
-77.862
11
161.783
21
-77.4704
0
LINE
8
Black
10
161.783
20
-77.4704
11
161.783
21
-77.0536
0
LINE
8
Black
10
161.783
20
-77.0536
11
161.926
21
-76.662
0
LINE
8
Black
10
161.926
20
-76.662
11
162.194
21
-76.3427
0
LINE
8
Black
10
162.194
20
-76.3427
11
162.555
21
-76.1344
0
LINE
8
Black
10
162.555
20
-76.1344
11
162.965
21
-76.062
0
LINE
8
Black
10
162.965
20
-76.062
11
181.043
21
-76.062
0
LINE
8
Black
10
181.043
20
-76.062
11
181.453
21
-76.1344
0
LINE
8
Black
10
174.07
20
-75.264
11
171.97
21
-75.264
0
LINE
8
Black
10
171.97
20
-75.264
11
171.97
21
-73.164
0
LINE
8
Black
10
171.97
20
-73.164
11
174.07
21
-73.164
0
LINE
8
Black
10
174.07
20
-73.164
11
174.07
21
-75.264
0
LINE
8
Black
10
158.305
20
-73.3007
11
158.584
21
-73.5351
0
LINE
8
Black
10
158.584
20
-73.5351
11
158.767
21
-73.8509
0
LINE
8
Black
10
158.767
20
-73.8509
11
158.83
21
-74.21
0
LINE
8
Black
10
158.83
20
-74.21
11
158.83
21
-74.218
0
LINE
8
Black
10
158.83
20
-74.218
11
158.767
21
-74.5771
0
LINE
8
Black
10
158.767
20
-74.5771
11
158.584
21
-74.8929
0
LINE
8
Black
10
158.584
20
-74.8929
11
158.305
21
-75.1273
0
LINE
8
Black
10
158.305
20
-75.1273
11
157.962
21
-75.2521
0
LINE
8
Black
10
157.962
20
-75.2521
11
157.598
21
-75.2521
0
LINE
8
Black
10
157.598
20
-75.2521
11
157.255
21
-75.1273
0
LINE
8
Black
10
157.255
20
-75.1273
11
156.976
21
-74.8929
0
LINE
8
Black
10
156.976
20
-74.8929
11
156.793
21
-74.5771
0
LINE
8
Black
10
156.793
20
-74.5771
11
156.73
21
-74.218
0
LINE
8
Black
10
156.73
20
-74.218
11
156.73
21
-74.21
0
LINE
8
Black
10
156.73
20
-74.21
11
156.793
21
-73.8509
0
LINE
8
Black
10
156.793
20
-73.8509
11
156.976
21
-73.5351
0
LINE
8
Black
10
156.976
20
-73.5351
11
157.255
21
-73.3007
0
LINE
8
Black
10
157.255
20
-73.3007
11
157.598
21
-73.1759
0
LINE
8
Black
10
157.598
20
-73.1759
11
157.962
21
-73.1759
0
LINE
8
Black
10
157.962
20
-73.1759
11
158.305
21
-73.3007
0
LINE
8
Black
10
171.005
20
-73.3007
11
171.284
21
-73.5351
0
LINE
8
Black
10
171.284
20
-73.5351
11
171.467
21
-73.8509
0
LINE
8
Black
10
171.467
20
-73.8509
11
171.53
21
-74.21
0
LINE
8
Black
10
171.53
20
-74.21
11
171.53
21
-74.218
0
LINE
8
Black
10
171.53
20
-74.218
11
171.467
21
-74.5771
0
LINE
8
Black
10
171.467
20
-74.5771
11
171.284
21
-74.8929
0
LINE
8
Black
10
171.284
20
-74.8929
11
171.005
21
-75.1273
0
LINE
8
Black
10
171.005
20
-75.1273
11
170.662
21
-75.2521
0
LINE
8
Black
10
170.662
20
-75.2521
11
170.298
21
-75.2521
0
LINE
8
Black
10
170.298
20
-75.2521
11
169.955
21
-75.1273
0
LINE
8
Black
10
169.955
20
-75.1273
11
169.676
21
-74.8929
0
LINE
8
Black
10
169.676
20
-74.8929
11
169.493
21
-74.5771
0
LINE
8
Black
10
169.493
20
-74.5771
11
169.43
21
-74.218
0
LINE
8
Black
10
169.43
20
-74.218
11
169.43
21
-74.21
0
LINE
8
Black
10
169.43
20
-74.21
11
169.493
21
-73.8509
0
LINE
8
Black
10
169.493
20
-73.8509
11
169.676
21
-73.5351
0
LINE
8
Black
10
169.676
20
-73.5351
11
169.955
21
-73.3007
0
LINE
8
Black
10
169.955
20
-73.3007
11
170.298
21
-73.1759
0
LINE
8
Black
10
170.298
20
-73.1759
11
170.662
21
-73.1759
0
LINE
8
Black
10
170.662
20
-73.1759
11
171.005
21
-73.3007
0
LINE
8
Black
10
168.465
20
-73.3007
11
168.744
21
-73.5351
0
LINE
8
Black
10
168.744
20
-73.5351
11
168.927
21
-73.8509
0
LINE
8
Black
10
168.927
20
-73.8509
11
168.99
21
-74.21
0
LINE
8
Black
10
168.99
20
-74.21
11
168.99
21
-74.218
0
LINE
8
Black
10
168.99
20
-74.218
11
168.927
21
-74.5771
0
LINE
8
Black
10
168.927
20
-74.5771
11
168.744
21
-74.8929
0
LINE
8
Black
10
168.744
20
-74.8929
11
168.465
21
-75.1273
0
LINE
8
Black
10
168.465
20
-75.1273
11
168.122
21
-75.2521
0
LINE
8
Black
10
168.122
20
-75.2521
11
167.758
21
-75.2521
0
LINE
8
Black
10
167.758
20
-75.2521
11
167.415
21
-75.1273
0
LINE
8
Black
10
167.415
20
-75.1273
11
167.136
21
-74.8929
0
LINE
8
Black
10
167.136
20
-74.8929
11
166.953
21
-74.5771
0
LINE
8
Black
10
166.953
20
-74.5771
11
166.89
21
-74.218
0
LINE
8
Black
10
166.89
20
-74.218
11
166.89
21
-74.21
0
LINE
8
Black
10
166.89
20
-74.21
11
166.953
21
-73.8509
0
LINE
8
Black
10
166.953
20
-73.8509
11
167.136
21
-73.5351
0
LINE
8
Black
10
167.136
20
-73.5351
11
167.415
21
-73.3007
0
LINE
8
Black
10
167.415
20
-73.3007
11
167.758
21
-73.1759
0
LINE
8
Black
10
167.758
20
-73.1759
11
168.122
21
-73.1759
0
LINE
8
Black
10
168.122
20
-73.1759
11
168.465
21
-73.3007
0
LINE
8
Black
10
165.925
20
-73.3007
11
166.204
21
-73.5351
0
LINE
8
Black
10
166.204
20
-73.5351
11
166.387
21
-73.8509
0
LINE
8
Black
10
166.387
20
-73.8509
11
166.45
21
-74.21
0
LINE
8
Black
10
166.45
20
-74.21
11
166.45
21
-74.218
0
LINE
8
Black
10
166.45
20
-74.218
11
166.387
21
-74.5771
0
LINE
8
Black
10
166.387
20
-74.5771
11
166.204
21
-74.8929
0
LINE
8
Black
10
166.204
20
-74.8929
11
165.925
21
-75.1273
0
LINE
8
Black
10
165.925
20
-75.1273
11
165.582
21
-75.2521
0
LINE
8
Black
10
165.582
20
-75.2521
11
165.218
21
-75.2521
0
LINE
8
Black
10
165.218
20
-75.2521
11
164.875
21
-75.1273
0
LINE
8
Black
10
164.875
20
-75.1273
11
164.596
21
-74.8929
0
LINE
8
Black
10
164.596
20
-74.8929
11
164.413
21
-74.5771
0
LINE
8
Black
10
164.413
20
-74.5771
11
164.35
21
-74.218
0
LINE
8
Black
10
164.35
20
-74.218
11
164.35
21
-74.21
0
LINE
8
Black
10
164.35
20
-74.21
11
164.413
21
-73.8509
0
LINE
8
Black
10
164.413
20
-73.8509
11
164.596
21
-73.5351
0
LINE
8
Black
10
164.596
20
-73.5351
11
164.875
21
-73.3007
0
LINE
8
Black
10
164.875
20
-73.3007
11
165.218
21
-73.1759
0
LINE
8
Black
10
165.218
20
-73.1759
11
165.582
21
-73.1759
0
LINE
8
Black
10
165.582
20
-73.1759
11
165.925
21
-73.3007
0
LINE
8
Black
10
163.385
20
-73.3007
11
163.664
21
-73.5351
0
LINE
8
Black
10
163.664
20
-73.5351
11
163.847
21
-73.8509
0
LINE
8
Black
10
163.847
20
-73.8509
11
163.91
21
-74.21
0
LINE
8
Black
10
163.91
20
-74.21
11
163.91
21
-74.218
0
LINE
8
Black
10
163.91
20
-74.218
11
163.847
21
-74.5771
0
LINE
8
Black
10
163.847
20
-74.5771
11
163.664
21
-74.8929
0
LINE
8
Black
10
163.664
20
-74.8929
11
163.385
21
-75.1273
0
LINE
8
Black
10
163.385
20
-75.1273
11
163.042
21
-75.2521
0
LINE
8
Black
10
163.042
20
-75.2521
11
162.678
21
-75.2521
0
LINE
8
Black
10
162.678
20
-75.2521
11
162.335
21
-75.1273
0
LINE
8
Black
10
162.335
20
-75.1273
11
162.056
21
-74.8929
0
LINE
8
Black
10
162.056
20
-74.8929
11
161.873
21
-74.5771
0
LINE
8
Black
10
161.873
20
-74.5771
11
161.81
21
-74.218
0
LINE
8
Black
10
161.81
20
-74.218
11
161.81
21
-74.21
0
LINE
8
Black
10
161.81
20
-74.21
11
161.873
21
-73.8509
0
LINE
8
Black
10
161.873
20
-73.8509
11
162.056
21
-73.5351
0
LINE
8
Black
10
162.056
20
-73.5351
11
162.335
21
-73.3007
0
LINE
8
Black
10
162.335
20
-73.3007
11
162.678
21
-73.1759
0
LINE
8
Black
10
162.678
20
-73.1759
11
163.042
21
-73.1759
0
LINE
8
Black
10
163.042
20
-73.1759
11
163.385
21
-73.3007
0
LINE
8
Black
10
160.845
20
-73.3007
11
161.124
21
-73.5351
0
LINE
8
Black
10
161.124
20
-73.5351
11
161.307
21
-73.8509
0
LINE
8
Black
10
161.307
20
-73.8509
11
161.37
21
-74.21
0
LINE
8
Black
10
161.37
20
-74.21
11
161.37
21
-74.218
0
LINE
8
Black
10
161.37
20
-74.218
11
161.307
21
-74.5771
0
LINE
8
Black
10
161.307
20
-74.5771
11
161.124
21
-74.8929
0
LINE
8
Black
10
161.124
20
-74.8929
11
160.845
21
-75.1273
0
LINE
8
Black
10
160.845
20
-75.1273
11
160.502
21
-75.2521
0
LINE
8
Black
10
160.502
20
-75.2521
11
160.138
21
-75.2521
0
LINE
8
Black
10
160.138
20
-75.2521
11
159.795
21
-75.1273
0
LINE
8
Black
10
159.795
20
-75.1273
11
159.516
21
-74.8929
0
LINE
8
Black
10
159.516
20
-74.8929
11
159.333
21
-74.5771
0
LINE
8
Black
10
159.333
20
-74.5771
11
159.27
21
-74.218
0
LINE
8
Black
10
159.27
20
-74.218
11
159.27
21
-74.21
0
LINE
8
Black
10
159.27
20
-74.21
11
159.333
21
-73.8509
0
LINE
8
Black
10
159.333
20
-73.8509
11
159.516
21
-73.5351
0
LINE
8
Black
10
159.516
20
-73.5351
11
159.795
21
-73.3007
0
LINE
8
Black
10
159.795
20
-73.3007
11
160.138
21
-73.1759
0
LINE
8
Black
10
160.138
20
-73.1759
11
160.502
21
-73.1759
0
LINE
8
Black
10
160.502
20
-73.1759
11
160.845
21
-73.3007
0
LINE
8
Black
10
155.765
20
-73.3007
11
156.044
21
-73.5351
0
LINE
8
Black
10
156.044
20
-73.5351
11
156.227
21
-73.8509
0
LINE
8
Black
10
156.227
20
-73.8509
11
156.29
21
-74.21
0
LINE
8
Black
10
156.29
20
-74.21
11
156.29
21
-74.218
0
LINE
8
Black
10
156.29
20
-74.218
11
156.227
21
-74.5771
0
LINE
8
Black
10
156.227
20
-74.5771
11
156.044
21
-74.8929
0
LINE
8
Black
10
156.044
20
-74.8929
11
155.765
21
-75.1273
0
LINE
8
Black
10
155.765
20
-75.1273
11
155.422
21
-75.2521
0
LINE
8
Black
10
155.422
20
-75.2521
11
155.058
21
-75.2521
0
LINE
8
Black
10
155.058
20
-75.2521
11
154.715
21
-75.1273
0
LINE
8
Black
10
154.715
20
-75.1273
11
154.436
21
-74.8929
0
LINE
8
Black
10
154.436
20
-74.8929
11
154.253
21
-74.5771
0
LINE
8
Black
10
154.253
20
-74.5771
11
154.19
21
-74.218
0
LINE
8
Black
10
154.19
20
-74.218
11
154.19
21
-74.21
0
LINE
8
Black
10
154.19
20
-74.21
11
154.253
21
-73.8509
0
LINE
8
Black
10
154.253
20
-73.8509
11
154.436
21
-73.5351
0
LINE
8
Black
10
154.436
20
-73.5351
11
154.715
21
-73.3007
0
LINE
8
Black
10
154.715
20
-73.3007
11
155.058
21
-73.1759
0
LINE
8
Black
10
155.058
20
-73.1759
11
155.422
21
-73.1759
0
LINE
8
Black
10
155.422
20
-73.1759
11
155.765
21
-73.3007
0
LINE
8
Black
10
153.225
20
-73.3007
11
153.504
21
-73.5351
0
LINE
8
Black
10
153.504
20
-73.5351
11
153.687
21
-73.8509
0
LINE
8
Black
10
153.687
20
-73.8509
11
153.75
21
-74.21
0
LINE
8
Black
10
153.75
20
-74.21
11
153.75
21
-74.218
0
LINE
8
Black
10
153.75
20
-74.218
11
153.687
21
-74.5771
0
LINE
8
Black
10
153.687
20
-74.5771
11
153.504
21
-74.8929
0
LINE
8
Black
10
153.504
20
-74.8929
11
153.225
21
-75.1273
0
LINE
8
Black
10
153.225
20
-75.1273
11
152.882
21
-75.2521
0
LINE
8
Black
10
152.882
20
-75.2521
11
152.518
21
-75.2521
0
LINE
8
Black
10
152.518
20
-75.2521
11
152.175
21
-75.1273
0
LINE
8
Black
10
152.175
20
-75.1273
11
151.896
21
-74.8929
0
LINE
8
Black
10
151.896
20
-74.8929
11
151.713
21
-74.5771
0
LINE
8
Black
10
151.713
20
-74.5771
11
151.65
21
-74.218
0
LINE
8
Black
10
151.65
20
-74.218
11
151.65
21
-74.21
0
LINE
8
Black
10
151.65
20
-74.21
11
151.713
21
-73.8509
0
LINE
8
Black
10
151.713
20
-73.8509
11
151.896
21
-73.5351
0
LINE
8
Black
10
151.896
20
-73.5351
11
152.175
21
-73.3007
0
LINE
8
Black
10
152.175
20
-73.3007
11
152.518
21
-73.1759
0
LINE
8
Black
10
152.518
20
-73.1759
11
152.882
21
-73.1759
0
LINE
8
Black
10
152.882
20
-73.1759
11
153.225
21
-73.3007
0
LINE
8
Black
10
150.685
20
-73.3007
11
150.964
21
-73.5351
0
LINE
8
Black
10
150.964
20
-73.5351
11
151.147
21
-73.8509
0
LINE
8
Black
10
151.147
20
-73.8509
11
151.21
21
-74.21
0
LINE
8
Black
10
151.21
20
-74.21
11
151.21
21
-74.218
0
LINE
8
Black
10
151.21
20
-74.218
11
151.147
21
-74.5771
0
LINE
8
Black
10
151.147
20
-74.5771
11
150.964
21
-74.8929
0
LINE
8
Black
10
150.964
20
-74.8929
11
150.685
21
-75.1273
0
LINE
8
Black
10
150.685
20
-75.1273
11
150.342
21
-75.2521
0
LINE
8
Black
10
150.342
20
-75.2521
11
149.978
21
-75.2521
0
LINE
8
Black
10
149.978
20
-75.2521
11
149.635
21
-75.1273
0
LINE
8
Black
10
149.635
20
-75.1273
11
149.356
21
-74.8929
0
LINE
8
Black
10
149.356
20
-74.8929
11
149.173
21
-74.5771
0
LINE
8
Black
10
149.173
20
-74.5771
11
149.11
21
-74.218
0
LINE
8
Black
10
149.11
20
-74.218
11
149.11
21
-74.21
0
LINE
8
Black
10
149.11
20
-74.21
11
149.173
21
-73.8509
0
LINE
8
Black
10
149.173
20
-73.8509
11
149.356
21
-73.5351
0
LINE
8
Black
10
149.356
20
-73.5351
11
149.635
21
-73.3007
0
LINE
8
Black
10
149.635
20
-73.3007
11
149.978
21
-73.1759
0
LINE
8
Black
10
149.978
20
-73.1759
11
150.342
21
-73.1759
0
LINE
8
Black
10
150.342
20
-73.1759
11
150.685
21
-73.3007
0
LINE
8
Black
10
148.145
20
-73.3007
11
148.424
21
-73.5351
0
LINE
8
Black
10
148.424
20
-73.5351
11
148.607
21
-73.8509
0
LINE
8
Black
10
148.607
20
-73.8509
11
148.67
21
-74.21
0
LINE
8
Black
10
148.67
20
-74.21
11
148.67
21
-74.218
0
LINE
8
Black
10
148.67
20
-74.218
11
148.607
21
-74.5771
0
LINE
8
Black
10
148.607
20
-74.5771
11
148.424
21
-74.8929
0
LINE
8
Black
10
148.424
20
-74.8929
11
148.145
21
-75.1273
0
LINE
8
Black
10
148.145
20
-75.1273
11
147.802
21
-75.2521
0
LINE
8
Black
10
147.802
20
-75.2521
11
147.438
21
-75.2521
0
LINE
8
Black
10
147.438
20
-75.2521
11
147.095
21
-75.1273
0
LINE
8
Black
10
147.095
20
-75.1273
11
146.816
21
-74.8929
0
LINE
8
Black
10
146.816
20
-74.8929
11
146.633
21
-74.5771
0
LINE
8
Black
10
146.633
20
-74.5771
11
146.57
21
-74.218
0
LINE
8
Black
10
146.57
20
-74.218
11
146.57
21
-74.21
0
LINE
8
Black
10
146.57
20
-74.21
11
146.633
21
-73.8509
0
LINE
8
Black
10
146.633
20
-73.8509
11
146.816
21
-73.5351
0
LINE
8
Black
10
146.816
20
-73.5351
11
147.095
21
-73.3007
0
LINE
8
Black
10
147.095
20
-73.3007
11
147.438
21
-73.1759
0
LINE
8
Black
10
147.438
20
-73.1759
11
147.802
21
-73.1759
0
LINE
8
Black
10
147.802
20
-73.1759
11
148.145
21
-73.3007
0
LINE
8
Black
10
145.605
20
-73.3007
11
145.884
21
-73.5351
0
LINE
8
Black
10
145.884
20
-73.5351
11
146.067
21
-73.8509
0
LINE
8
Black
10
146.067
20
-73.8509
11
146.13
21
-74.21
0
LINE
8
Black
10
146.13
20
-74.21
11
146.13
21
-74.218
0
LINE
8
Black
10
146.13
20
-74.218
11
146.067
21
-74.5771
0
LINE
8
Black
10
146.067
20
-74.5771
11
145.884
21
-74.8929
0
LINE
8
Black
10
145.884
20
-74.8929
11
145.605
21
-75.1273
0
LINE
8
Black
10
145.605
20
-75.1273
11
145.262
21
-75.2521
0
LINE
8
Black
10
145.262
20
-75.2521
11
144.898
21
-75.2521
0
LINE
8
Black
10
144.898
20
-75.2521
11
144.555
21
-75.1273
0
LINE
8
Black
10
144.555
20
-75.1273
11
144.276
21
-74.8929
0
LINE
8
Black
10
144.276
20
-74.8929
11
144.093
21
-74.5771
0
LINE
8
Black
10
144.093
20
-74.5771
11
144.03
21
-74.218
0
LINE
8
Black
10
144.03
20
-74.218
11
144.03
21
-74.21
0
LINE
8
Black
10
144.03
20
-74.21
11
144.093
21
-73.8509
0
LINE
8
Black
10
144.093
20
-73.8509
11
144.276
21
-73.5351
0
LINE
8
Black
10
144.276
20
-73.5351
11
144.555
21
-73.3007
0
LINE
8
Black
10
144.555
20
-73.3007
11
144.898
21
-73.1759
0
LINE
8
Black
10
144.898
20
-73.1759
11
145.262
21
-73.1759
0
LINE
8
Black
10
145.262
20
-73.1759
11
145.605
21
-73.3007
0
LINE
8
Black
10
171.515
20
-65.7111
11
171.968
21
-65.9725
0
LINE
8
Black
10
171.968
20
-65.9725
11
172.304
21
-66.3731
0
LINE
8
Black
10
172.304
20
-66.3731
11
172.483
21
-66.8645
0
LINE
8
Black
10
172.483
20
-66.8645
11
172.483
21
-67.3875
0
LINE
8
Black
10
172.483
20
-67.3875
11
172.304
21
-67.8789
0
LINE
8
Black
10
172.304
20
-67.8789
11
171.968
21
-68.2795
0
LINE
8
Black
10
171.968
20
-68.2795
11
171.515
21
-68.5409
0
LINE
8
Black
10
171.515
20
-68.5409
11
171
21
-68.6317
0
LINE
8
Black
10
171
20
-68.6317
11
170.485
21
-68.5409
0
LINE
8
Black
10
170.485
20
-68.5409
11
170.032
21
-68.2795
0
LINE
8
Black
10
170.032
20
-68.2795
11
169.696
21
-67.8789
0
LINE
8
Black
10
169.696
20
-67.8789
11
169.517
21
-67.3875
0
LINE
8
Black
10
169.517
20
-67.3875
11
169.517
21
-66.8645
0
LINE
8
Black
10
169.517
20
-66.8645
11
169.696
21
-66.3731
0
LINE
8
Black
10
169.696
20
-66.3731
11
170.032
21
-65.9725
0
LINE
8
Black
10
170.032
20
-65.9725
11
170.485
21
-65.7111
0
LINE
8
Black
10
170.485
20
-65.7111
11
171
21
-65.6203
0
LINE
8
Black
10
171
20
-65.6203
11
171.515
21
-65.7111
0
LINE
8
Black
10
147.515
20
-65.7111
11
147.968
21
-65.9725
0
LINE
8
Black
10
147.968
20
-65.9725
11
148.304
21
-66.3731
0
LINE
8
Black
10
148.304
20
-66.3731
11
148.483
21
-66.8645
0
LINE
8
Black
10
148.483
20
-66.8645
11
148.483
21
-67.3875
0
LINE
8
Black
10
148.483
20
-67.3875
11
148.304
21
-67.8789
0
LINE
8
Black
10
148.304
20
-67.8789
11
147.968
21
-68.2795
0
LINE
8
Black
10
147.968
20
-68.2795
11
147.515
21
-68.5409
0
LINE
8
Black
10
147.515
20
-68.5409
11
147
21
-68.6317
0
LINE
8
Black
10
147
20
-68.6317
11
146.485
21
-68.5409
0
LINE
8
Black
10
146.485
20
-68.5409
11
146.032
21
-68.2795
0
LINE
8
Black
10
146.032
20
-68.2795
11
145.696
21
-67.8789
0
LINE
8
Black
10
145.696
20
-67.8789
11
145.517
21
-67.3875
0
LINE
8
Black
10
145.517
20
-67.3875
11
145.517
21
-66.8645
0
LINE
8
Black
10
145.517
20
-66.8645
11
145.696
21
-66.3731
0
LINE
8
Black
10
145.696
20
-66.3731
11
146.032
21
-65.9725
0
LINE
8
Black
10
146.032
20
-65.9725
11
146.485
21
-65.7111
0
LINE
8
Black
10
146.485
20
-65.7111
11
147
21
-65.6203
0
LINE
8
Black
10
147
20
-65.6203
11
147.515
21
-65.7111
0
LINE
8
Black
10
167.515
20
-64.7111
11
167.968
21
-64.9725
0
LINE
8
Black
10
167.968
20
-64.9725
11
168.304
21
-65.3731
0
LINE
8
Black
10
168.304
20
-65.3731
11
168.483
21
-65.8645
0
LINE
8
Black
10
168.483
20
-65.8645
11
168.483
21
-66.3875
0
LINE
8
Black
10
168.483
20
-66.3875
11
168.304
21
-66.8789
0
LINE
8
Black
10
168.304
20
-66.8789
11
167.968
21
-67.2795
0
LINE
8
Black
10
167.968
20
-67.2795
11
167.515
21
-67.5409
0
LINE
8
Black
10
167.515
20
-67.5409
11
167
21
-67.6317
0
LINE
8
Black
10
167
20
-67.6317
11
166.485
21
-67.5409
0
LINE
8
Black
10
166.485
20
-67.5409
11
166.032
21
-67.2795
0
LINE
8
Black
10
166.032
20
-67.2795
11
165.696
21
-66.8789
0
LINE
8
Black
10
165.696
20
-66.8789
11
165.517
21
-66.3875
0
LINE
8
Black
10
165.517
20
-66.3875
11
165.517
21
-65.8645
0
LINE
8
Black
10
165.517
20
-65.8645
11
165.696
21
-65.3731
0
LINE
8
Black
10
165.696
20
-65.3731
11
166.032
21
-64.9725
0
LINE
8
Black
10
166.032
20
-64.9725
11
166.485
21
-64.7111
0
LINE
8
Black
10
166.485
20
-64.7111
11
167
21
-64.6203
0
LINE
8
Black
10
167
20
-64.6203
11
167.515
21
-64.7111
0
LINE
8
Black
10
151.515
20
-64.7111
11
151.968
21
-64.9725
0
LINE
8
Black
10
151.968
20
-64.9725
11
152.304
21
-65.3731
0
LINE
8
Black
10
152.304
20
-65.3731
11
152.483
21
-65.8645
0
LINE
8
Black
10
152.483
20
-65.8645
11
152.483
21
-66.3875
0
LINE
8
Black
10
152.483
20
-66.3875
11
152.304
21
-66.8789
0
LINE
8
Black
10
152.304
20
-66.8789
11
151.968
21
-67.2795
0
LINE
8
Black
10
151.968
20
-67.2795
11
151.515
21
-67.5409
0
LINE
8
Black
10
151.515
20
-67.5409
11
151
21
-67.6317
0
LINE
8
Black
10
151
20
-67.6317
11
150.485
21
-67.5409
0
LINE
8
Black
10
150.485
20
-67.5409
11
150.032
21
-67.2795
0
LINE
8
Black
10
150.032
20
-67.2795
11
149.696
21
-66.8789
0
LINE
8
Black
10
149.696
20
-66.8789
11
149.517
21
-66.3875
0
LINE
8
Black
10
149.517
20
-66.3875
11
149.517
21
-65.8645
0
LINE
8
Black
10
149.517
20
-65.8645
11
149.696
21
-65.3731
0
LINE
8
Black
10
149.696
20
-65.3731
11
150.032
21
-64.9725
0
LINE
8
Black
10
150.032
20
-64.9725
11
150.485
21
-64.7111
0
LINE
8
Black
10
150.485
20
-64.7111
11
151
21
-64.6203
0
LINE
8
Black
10
151
20
-64.6203
11
151.515
21
-64.7111
0
LINE
8
Black
10
175.515
20
-64.7111
11
175.968
21
-64.9725
0
LINE
8
Black
10
175.968
20
-64.9725
11
176.304
21
-65.3731
0
LINE
8
Black
10
176.304
20
-65.3731
11
176.483
21
-65.8645
0
LINE
8
Black
10
176.483
20
-65.8645
11
176.483
21
-66.3875
0
LINE
8
Black
10
176.483
20
-66.3875
11
176.304
21
-66.8789
0
LINE
8
Black
10
176.304
20
-66.8789
11
175.968
21
-67.2795
0
LINE
8
Black
10
175.968
20
-67.2795
11
175.515
21
-67.5409
0
LINE
8
Black
10
175.515
20
-67.5409
11
175
21
-67.6317
0
LINE
8
Black
10
175
20
-67.6317
11
174.485
21
-67.5409
0
LINE
8
Black
10
174.485
20
-67.5409
11
174.032
21
-67.2795
0
LINE
8
Black
10
174.032
20
-67.2795
11
173.696
21
-66.8789
0
LINE
8
Black
10
173.696
20
-66.8789
11
173.517
21
-66.3875
0
LINE
8
Black
10
173.517
20
-66.3875
11
173.517
21
-65.8645
0
LINE
8
Black
10
173.517
20
-65.8645
11
173.696
21
-65.3731
0
LINE
8
Black
10
173.696
20
-65.3731
11
174.032
21
-64.9725
0
LINE
8
Black
10
174.032
20
-64.9725
11
174.485
21
-64.7111
0
LINE
8
Black
10
174.485
20
-64.7111
11
175
21
-64.6203
0
LINE
8
Black
10
175
20
-64.6203
11
175.515
21
-64.7111
0
LINE
8
Black
10
143.515
20
-64.7111
11
143.968
21
-64.9725
0
LINE
8
Black
10
143.968
20
-64.9725
11
144.304
21
-65.3731
0
LINE
8
Black
10
144.304
20
-65.3731
11
144.483
21
-65.8645
0
LINE
8
Black
10
144.483
20
-65.8645
11
144.483
21
-66.3875
0
LINE
8
Black
10
144.483
20
-66.3875
11
144.304
21
-66.8789
0
LINE
8
Black
10
144.304
20
-66.8789
11
143.968
21
-67.2795
0
LINE
8
Black
10
143.968
20
-67.2795
11
143.515
21
-67.5409
0
LINE
8
Black
10
143.515
20
-67.5409
11
143
21
-67.6317
0
LINE
8
Black
10
143
20
-67.6317
11
142.485
21
-67.5409
0
LINE
8
Black
10
142.485
20
-67.5409
11
142.032
21
-67.2795
0
LINE
8
Black
10
142.032
20
-67.2795
11
141.696
21
-66.8789
0
LINE
8
Black
10
141.696
20
-66.8789
11
141.517
21
-66.3875
0
LINE
8
Black
10
141.517
20
-66.3875
11
141.517
21
-65.8645
0
LINE
8
Black
10
141.517
20
-65.8645
11
141.696
21
-65.3731
0
LINE
8
Black
10
141.696
20
-65.3731
11
142.032
21
-64.9725
0
LINE
8
Black
10
142.032
20
-64.9725
11
142.485
21
-64.7111
0
LINE
8
Black
10
142.485
20
-64.7111
11
143
21
-64.6203
0
LINE
8
Black
10
143
20
-64.6203
11
143.515
21
-64.7111
0
LINE
8
Black
10
177.265
20
-61.2111
11
177.718
21
-61.4725
0
LINE
8
Black
10
177.718
20
-61.4725
11
178.054
21
-61.8731
0
LINE
8
Black
10
178.054
20
-61.8731
11
178.233
21
-62.3645
0
LINE
8
Black
10
178.233
20
-62.3645
11
178.233
21
-62.8875
0
LINE
8
Black
10
178.233
20
-62.8875
11
178.054
21
-63.3789
0
LINE
8
Black
10
178.054
20
-63.3789
11
177.718
21
-63.7795
0
LINE
8
Black
10
177.718
20
-63.7795
11
177.265
21
-64.0409
0
LINE
8
Black
10
177.265
20
-64.0409
11
176.75
21
-64.1317
0
LINE
8
Black
10
176.75
20
-64.1317
11
176.235
21
-64.0409
0
LINE
8
Black
10
176.235
20
-64.0409
11
175.782
21
-63.7795
0
LINE
8
Black
10
175.782
20
-63.7795
11
175.446
21
-63.3789
0
LINE
8
Black
10
175.446
20
-63.3789
11
175.267
21
-62.8875
0
LINE
8
Black
10
175.267
20
-62.8875
11
175.267
21
-62.3645
0
LINE
8
Black
10
175.267
20
-62.3645
11
175.446
21
-61.8731
0
LINE
8
Black
10
175.446
20
-61.8731
11
175.782
21
-61.4725
0
LINE
8
Black
10
175.782
20
-61.4725
11
176.235
21
-61.2111
0
LINE
8
Black
10
176.235
20
-61.2111
11
176.75
21
-61.1203
0
LINE
8
Black
10
176.75
20
-61.1203
11
177.265
21
-61.2111
0
LINE
8
Black
10
141.765
20
-61.2111
11
142.218
21
-61.4725
0
LINE
8
Black
10
142.218
20
-61.4725
11
142.554
21
-61.8731
0
LINE
8
Black
10
142.554
20
-61.8731
11
142.733
21
-62.3645
0
LINE
8
Black
10
142.733
20
-62.3645
11
142.733
21
-62.8875
0
LINE
8
Black
10
142.733
20
-62.8875
11
142.554
21
-63.3789
0
LINE
8
Black
10
142.554
20
-63.3789
11
142.218
21
-63.7795
0
LINE
8
Black
10
142.218
20
-63.7795
11
141.765
21
-64.0409
0
LINE
8
Black
10
141.765
20
-64.0409
11
141.25
21
-64.1317
0
LINE
8
Black
10
141.25
20
-64.1317
11
140.735
21
-64.0409
0
LINE
8
Black
10
140.735
20
-64.0409
11
140.282
21
-63.7795
0
LINE
8
Black
10
140.282
20
-63.7795
11
139.946
21
-63.3789
0
LINE
8
Black
10
139.946
20
-63.3789
11
139.767
21
-62.8875
0
LINE
8
Black
10
139.767
20
-62.8875
11
139.767
21
-62.3645
0
LINE
8
Black
10
139.767
20
-62.3645
11
139.946
21
-61.8731
0
LINE
8
Black
10
139.946
20
-61.8731
11
140.282
21
-61.4725
0
LINE
8
Black
10
140.282
20
-61.4725
11
140.735
21
-61.2111
0
LINE
8
Black
10
140.735
20
-61.2111
11
141.25
21
-61.1203
0
LINE
8
Black
10
141.25
20
-61.1203
11
141.765
21
-61.2111
0
LINE
8
Black
10
165.765
20
-61.2111
11
166.218
21
-61.4725
0
LINE
8
Black
10
166.218
20
-61.4725
11
166.554
21
-61.8731
0
LINE
8
Black
10
166.554
20
-61.8731
11
166.733
21
-62.3645
0
LINE
8
Black
10
166.733
20
-62.3645
11
166.733
21
-62.8875
0
LINE
8
Black
10
166.733
20
-62.8875
11
166.554
21
-63.3789
0
LINE
8
Black
10
166.554
20
-63.3789
11
166.218
21
-63.7795
0
LINE
8
Black
10
166.218
20
-63.7795
11
165.765
21
-64.0409
0
LINE
8
Black
10
165.765
20
-64.0409
11
165.25
21
-64.1317
0
LINE
8
Black
10
165.25
20
-64.1317
11
164.735
21
-64.0409
0
LINE
8
Black
10
164.735
20
-64.0409
11
164.282
21
-63.7795
0
LINE
8
Black
10
164.282
20
-63.7795
11
163.946
21
-63.3789
0
LINE
8
Black
10
163.946
20
-63.3789
11
163.767
21
-62.8875
0
LINE
8
Black
10
163.767
20
-62.8875
11
163.767
21
-62.3645
0
LINE
8
Black
10
163.767
20
-62.3645
11
163.946
21
-61.8731
0
LINE
8
Black
10
163.946
20
-61.8731
11
164.282
21
-61.4725
0
LINE
8
Black
10
164.282
20
-61.4725
11
164.735
21
-61.2111
0
LINE
8
Black
10
164.735
20
-61.2111
11
165.25
21
-61.1203
0
LINE
8
Black
10
165.25
20
-61.1203
11
165.765
21
-61.2111
0
LINE
8
Black
10
153.265
20
-61.2111
11
153.718
21
-61.4725
0
LINE
8
Black
10
153.718
20
-61.4725
11
154.054
21
-61.8731
0
LINE
8
Black
10
154.054
20
-61.8731
11
154.233
21
-62.3645
0
LINE
8
Black
10
154.233
20
-62.3645
11
154.233
21
-62.8875
0
LINE
8
Black
10
154.233
20
-62.8875
11
154.054
21
-63.3789
0
LINE
8
Black
10
154.054
20
-63.3789
11
153.718
21
-63.7795
0
LINE
8
Black
10
153.718
20
-63.7795
11
153.265
21
-64.0409
0
LINE
8
Black
10
153.265
20
-64.0409
11
152.75
21
-64.1317
0
LINE
8
Black
10
152.75
20
-64.1317
11
152.235
21
-64.0409
0
LINE
8
Black
10
152.235
20
-64.0409
11
151.782
21
-63.7795
0
LINE
8
Black
10
151.782
20
-63.7795
11
151.446
21
-63.3789
0
LINE
8
Black
10
151.446
20
-63.3789
11
151.267
21
-62.8875
0
LINE
8
Black
10
151.267
20
-62.8875
11
151.267
21
-62.3645
0
LINE
8
Black
10
151.267
20
-62.3645
11
151.446
21
-61.8731
0
LINE
8
Black
10
151.446
20
-61.8731
11
151.782
21
-61.4725
0
LINE
8
Black
10
151.782
20
-61.4725
11
152.235
21
-61.2111
0
LINE
8
Black
10
152.235
20
-61.2111
11
152.75
21
-61.1203
0
LINE
8
Black
10
152.75
20
-61.1203
11
153.265
21
-61.2111
0
LINE
8
Black
10
171.927
20
-55.5791
11
172.742
21
-56.0498
0
LINE
8
Black
10
172.742
20
-56.0498
11
173.347
21
-56.7708
0
LINE
8
Black
10
173.347
20
-56.7708
11
173.669
21
-57.6554
0
LINE
8
Black
10
173.669
20
-57.6554
11
173.669
21
-58.5966
0
LINE
8
Black
10
173.669
20
-58.5966
11
173.347
21
-59.4812
0
LINE
8
Black
10
173.347
20
-59.4812
11
172.742
21
-60.2022
0
LINE
8
Black
10
172.742
20
-60.2022
11
171.927
21
-60.6729
0
LINE
8
Black
10
171.927
20
-60.6729
11
171
21
-60.8363
0
LINE
8
Black
10
171
20
-60.8363
11
170.073
21
-60.6729
0
LINE
8
Black
10
170.073
20
-60.6729
11
169.258
21
-60.2022
0
LINE
8
Black
10
169.258
20
-60.2022
11
168.653
21
-59.4812
0
LINE
8
Black
10
168.653
20
-59.4812
11
168.331
21
-58.5966
0
LINE
8
Black
10
168.331
20
-58.5966
11
168.331
21
-57.6554
0
LINE
8
Black
10
168.331
20
-57.6554
11
168.653
21
-56.7708
0
LINE
8
Black
10
168.653
20
-56.7708
11
169.258
21
-56.0498
0
LINE
8
Black
10
169.258
20
-56.0498
11
170.073
21
-55.5791
0
LINE
8
Black
10
170.073
20
-55.5791
11
171
21
-55.4157
0
LINE
8
Black
10
171
20
-55.4157
11
171.927
21
-55.5791
0
LINE
8
Black
10
147.927
20
-55.5791
11
148.742
21
-56.0498
0
LINE
8
Black
10
148.742
20
-56.0498
11
149.347
21
-56.7708
0
LINE
8
Black
10
149.347
20
-56.7708
11
149.669
21
-57.6554
0
LINE
8
Black
10
149.669
20
-57.6554
11
149.669
21
-58.5966
0
LINE
8
Black
10
149.669
20
-58.5966
11
149.347
21
-59.4812
0
LINE
8
Black
10
149.347
20
-59.4812
11
148.742
21
-60.2022
0
LINE
8
Black
10
148.742
20
-60.2022
11
147.927
21
-60.6729
0
LINE
8
Black
10
147.927
20
-60.6729
11
147
21
-60.8363
0
LINE
8
Black
10
147
20
-60.8363
11
146.073
21
-60.6729
0
LINE
8
Black
10
146.073
20
-60.6729
11
145.258
21
-60.2022
0
LINE
8
Black
10
145.258
20
-60.2022
11
144.653
21
-59.4812
0
LINE
8
Black
10
144.653
20
-59.4812
11
144.331
21
-58.5966
0
LINE
8
Black
10
144.331
20
-58.5966
11
144.331
21
-57.6554
0
LINE
8
Black
10
144.331
20
-57.6554
11
144.653
21
-56.7708
0
LINE
8
Black
10
144.653
20
-56.7708
11
145.258
21
-56.0498
0
LINE
8
Black
10
145.258
20
-56.0498
11
146.073
21
-55.5791
0
LINE
8
Black
10
146.073
20
-55.5791
11
147
21
-55.4157
0
LINE
8
Black
10
147
20
-55.4157
11
147.927
21
-55.5791
0
LINE
8
Black
10
177.265
20
-56.7111
11
177.718
21
-56.9725
0
LINE
8
Black
10
177.718
20
-56.9725
11
178.054
21
-57.3731
0
LINE
8
Black
10
178.054
20
-57.3731
11
178.233
21
-57.8645
0
LINE
8
Black
10
178.233
20
-57.8645
11
178.233
21
-58.3875
0
LINE
8
Black
10
178.233
20
-58.3875
11
178.054
21
-58.8789
0
LINE
8
Black
10
178.054
20
-58.8789
11
177.718
21
-59.2795
0
LINE
8
Black
10
177.718
20
-59.2795
11
177.265
21
-59.5409
0
LINE
8
Black
10
177.265
20
-59.5409
11
176.75
21
-59.6317
0
LINE
8
Black
10
176.75
20
-59.6317
11
176.235
21
-59.5409
0
LINE
8
Black
10
176.235
20
-59.5409
11
175.782
21
-59.2795
0
LINE
8
Black
10
175.782
20
-59.2795
11
175.446
21
-58.8789
0
LINE
8
Black
10
175.446
20
-58.8789
11
175.267
21
-58.3875
0
LINE
8
Black
10
175.267
20
-58.3875
11
175.267
21
-57.8645
0
LINE
8
Black
10
175.267
20
-57.8645
11
175.446
21
-57.3731
0
LINE
8
Black
10
175.446
20
-57.3731
11
175.782
21
-56.9725
0
LINE
8
Black
10
175.782
20
-56.9725
11
176.235
21
-56.7111
0
LINE
8
Black
10
176.235
20
-56.7111
11
176.75
21
-56.6203
0
LINE
8
Black
10
176.75
20
-56.6203
11
177.265
21
-56.7111
0
LINE
8
Black
10
165.765
20
-56.7111
11
166.218
21
-56.9725
0
LINE
8
Black
10
166.218
20
-56.9725
11
166.554
21
-57.3731
0
LINE
8
Black
10
166.554
20
-57.3731
11
166.733
21
-57.8645
0
LINE
8
Black
10
166.733
20
-57.8645
11
166.733
21
-58.3875
0
LINE
8
Black
10
166.733
20
-58.3875
11
166.554
21
-58.8789
0
LINE
8
Black
10
166.554
20
-58.8789
11
166.218
21
-59.2795
0
LINE
8
Black
10
166.218
20
-59.2795
11
165.765
21
-59.5409
0
LINE
8
Black
10
165.765
20
-59.5409
11
165.25
21
-59.6317
0
LINE
8
Black
10
165.25
20
-59.6317
11
164.735
21
-59.5409
0
LINE
8
Black
10
164.735
20
-59.5409
11
164.282
21
-59.2795
0
LINE
8
Black
10
164.282
20
-59.2795
11
163.946
21
-58.8789
0
LINE
8
Black
10
163.946
20
-58.8789
11
163.767
21
-58.3875
0
LINE
8
Black
10
163.767
20
-58.3875
11
163.767
21
-57.8645
0
LINE
8
Black
10
163.767
20
-57.8645
11
163.946
21
-57.3731
0
LINE
8
Black
10
163.946
20
-57.3731
11
164.282
21
-56.9725
0
LINE
8
Black
10
164.282
20
-56.9725
11
164.735
21
-56.7111
0
LINE
8
Black
10
164.735
20
-56.7111
11
165.25
21
-56.6203
0
LINE
8
Black
10
165.25
20
-56.6203
11
165.765
21
-56.7111
0
LINE
8
Black
10
153.265
20
-56.7111
11
153.718
21
-56.9725
0
LINE
8
Black
10
153.718
20
-56.9725
11
154.054
21
-57.3731
0
LINE
8
Black
10
154.054
20
-57.3731
11
154.233
21
-57.8645
0
LINE
8
Black
10
154.233
20
-57.8645
11
154.233
21
-58.3875
0
LINE
8
Black
10
154.233
20
-58.3875
11
154.054
21
-58.8789
0
LINE
8
Black
10
154.054
20
-58.8789
11
153.718
21
-59.2795
0
LINE
8
Black
10
153.718
20
-59.2795
11
153.265
21
-59.5409
0
LINE
8
Black
10
153.265
20
-59.5409
11
152.75
21
-59.6317
0
LINE
8
Black
10
152.75
20
-59.6317
11
152.235
21
-59.5409
0
LINE
8
Black
10
152.235
20
-59.5409
11
151.782
21
-59.2795
0
LINE
8
Black
10
151.782
20
-59.2795
11
151.446
21
-58.8789
0
LINE
8
Black
10
151.446
20
-58.8789
11
151.267
21
-58.3875
0
LINE
8
Black
10
151.267
20
-58.3875
11
151.267
21
-57.8645
0
LINE
8
Black
10
151.267
20
-57.8645
11
151.446
21
-57.3731
0
LINE
8
Black
10
151.446
20
-57.3731
11
151.782
21
-56.9725
0
LINE
8
Black
10
151.782
20
-56.9725
11
152.235
21
-56.7111
0
LINE
8
Black
10
152.235
20
-56.7111
11
152.75
21
-56.6203
0
LINE
8
Black
10
152.75
20
-56.6203
11
153.265
21
-56.7111
0
LINE
8
Black
10
141.765
20
-56.7111
11
142.218
21
-56.9725
0
LINE
8
Black
10
142.218
20
-56.9725
11
142.554
21
-57.3731
0
LINE
8
Black
10
142.554
20
-57.3731
11
142.733
21
-57.8645
0
LINE
8
Black
10
142.733
20
-57.8645
11
142.733
21
-58.3875
0
LINE
8
Black
10
142.733
20
-58.3875
11
142.554
21
-58.8789
0
LINE
8
Black
10
142.554
20
-58.8789
11
142.218
21
-59.2795
0
LINE
8
Black
10
142.218
20
-59.2795
11
141.765
21
-59.5409
0
LINE
8
Black
10
141.765
20
-59.5409
11
141.25
21
-59.6317
0
LINE
8
Black
10
141.25
20
-59.6317
11
140.735
21
-59.5409
0
LINE
8
Black
10
140.735
20
-59.5409
11
140.282
21
-59.2795
0
LINE
8
Black
10
140.282
20
-59.2795
11
139.946
21
-58.8789
0
LINE
8
Black
10
139.946
20
-58.8789
11
139.767
21
-58.3875
0
LINE
8
Black
10
139.767
20
-58.3875
11
139.767
21
-57.8645
0
LINE
8
Black
10
139.767
20
-57.8645
11
139.946
21
-57.3731
0
LINE
8
Black
10
139.946
20
-57.3731
11
140.282
21
-56.9725
0
LINE
8
Black
10
140.282
20
-56.9725
11
140.735
21
-56.7111
0
LINE
8
Black
10
140.735
20
-56.7111
11
141.25
21
-56.6203
0
LINE
8
Black
10
141.25
20
-56.6203
11
141.765
21
-56.7111
0
LINE
8
Black
10
153.265
20
-52.2111
11
153.718
21
-52.4725
0
LINE
8
Black
10
153.718
20
-52.4725
11
154.054
21
-52.8731
0
LINE
8
Black
10
154.054
20
-52.8731
11
154.233
21
-53.3645
0
LINE
8
Black
10
154.233
20
-53.3645
11
154.233
21
-53.8875
0
LINE
8
Black
10
154.233
20
-53.8875
11
154.054
21
-54.3789
0
LINE
8
Black
10
154.054
20
-54.3789
11
153.718
21
-54.7795
0
LINE
8
Black
10
153.718
20
-54.7795
11
153.265
21
-55.0409
0
LINE
8
Black
10
153.265
20
-55.0409
11
152.75
21
-55.1317
0
LINE
8
Black
10
152.75
20
-55.1317
11
152.235
21
-55.0409
0
LINE
8
Black
10
152.235
20
-55.0409
11
151.782
21
-54.7795
0
LINE
8
Black
10
151.782
20
-54.7795
11
151.446
21
-54.3789
0
LINE
8
Black
10
151.446
20
-54.3789
11
151.267
21
-53.8875
0
LINE
8
Black
10
151.267
20
-53.8875
11
151.267
21
-53.3645
0
LINE
8
Black
10
151.267
20
-53.3645
11
151.446
21
-52.8731
0
LINE
8
Black
10
151.446
20
-52.8731
11
151.782
21
-52.4725
0
LINE
8
Black
10
151.782
20
-52.4725
11
152.235
21
-52.2111
0
LINE
8
Black
10
152.235
20
-52.2111
11
152.75
21
-52.1203
0
LINE
8
Black
10
152.75
20
-52.1203
11
153.265
21
-52.2111
0
LINE
8
Black
10
165.765
20
-52.2111
11
166.218
21
-52.4725
0
LINE
8
Black
10
166.218
20
-52.4725
11
166.554
21
-52.8731
0
LINE
8
Black
10
166.554
20
-52.8731
11
166.733
21
-53.3645
0
LINE
8
Black
10
166.733
20
-53.3645
11
166.733
21
-53.8875
0
LINE
8
Black
10
166.733
20
-53.8875
11
166.554
21
-54.3789
0
LINE
8
Black
10
166.554
20
-54.3789
11
166.218
21
-54.7795
0
LINE
8
Black
10
166.218
20
-54.7795
11
165.765
21
-55.0409
0
LINE
8
Black
10
165.765
20
-55.0409
11
165.25
21
-55.1317
0
LINE
8
Black
10
165.25
20
-55.1317
11
164.735
21
-55.0409
0
LINE
8
Black
10
164.735
20
-55.0409
11
164.282
21
-54.7795
0
LINE
8
Black
10
164.282
20
-54.7795
11
163.946
21
-54.3789
0
LINE
8
Black
10
163.946
20
-54.3789
11
163.767
21
-53.8875
0
LINE
8
Black
10
163.767
20
-53.8875
11
163.767
21
-53.3645
0
LINE
8
Black
10
163.767
20
-53.3645
11
163.946
21
-52.8731
0
LINE
8
Black
10
163.946
20
-52.8731
11
164.282
21
-52.4725
0
LINE
8
Black
10
164.282
20
-52.4725
11
164.735
21
-52.2111
0
LINE
8
Black
10
164.735
20
-52.2111
11
165.25
21
-52.1203
0
LINE
8
Black
10
165.25
20
-52.1203
11
165.765
21
-52.2111
0
LINE
8
Black
10
177.265
20
-52.2111
11
177.718
21
-52.4725
0
LINE
8
Black
10
177.718
20
-52.4725
11
178.054
21
-52.8731
0
LINE
8
Black
10
178.054
20
-52.8731
11
178.233
21
-53.3645
0
LINE
8
Black
10
178.233
20
-53.3645
11
178.233
21
-53.8875
0
LINE
8
Black
10
178.233
20
-53.8875
11
178.054
21
-54.3789
0
LINE
8
Black
10
178.054
20
-54.3789
11
177.718
21
-54.7795
0
LINE
8
Black
10
177.718
20
-54.7795
11
177.265
21
-55.0409
0
LINE
8
Black
10
177.265
20
-55.0409
11
176.75
21
-55.1317
0
LINE
8
Black
10
176.75
20
-55.1317
11
176.235
21
-55.0409
0
LINE
8
Black
10
176.235
20
-55.0409
11
175.782
21
-54.7795
0
LINE
8
Black
10
175.782
20
-54.7795
11
175.446
21
-54.3789
0
LINE
8
Black
10
175.446
20
-54.3789
11
175.267
21
-53.8875
0
LINE
8
Black
10
175.267
20
-53.8875
11
175.267
21
-53.3645
0
LINE
8
Black
10
175.267
20
-53.3645
11
175.446
21
-52.8731
0
LINE
8
Black
10
175.446
20
-52.8731
11
175.782
21
-52.4725
0
LINE
8
Black
10
175.782
20
-52.4725
11
176.235
21
-52.2111
0
LINE
8
Black
10
176.235
20
-52.2111
11
176.75
21
-52.1203
0
LINE
8
Black
10
176.75
20
-52.1203
11
177.265
21
-52.2111
0
LINE
8
Black
10
141.765
20
-52.2111
11
142.218
21
-52.4725
0
LINE
8
Black
10
142.218
20
-52.4725
11
142.554
21
-52.8731
0
LINE
8
Black
10
142.554
20
-52.8731
11
142.733
21
-53.3645
0
LINE
8
Black
10
142.733
20
-53.3645
11
142.733
21
-53.8875
0
LINE
8
Black
10
142.733
20
-53.8875
11
142.554
21
-54.3789
0
LINE
8
Black
10
142.554
20
-54.3789
11
142.218
21
-54.7795
0
LINE
8
Black
10
142.218
20
-54.7795
11
141.765
21
-55.0409
0
LINE
8
Black
10
141.765
20
-55.0409
11
141.25
21
-55.1317
0
LINE
8
Black
10
141.25
20
-55.1317
11
140.735
21
-55.0409
0
LINE
8
Black
10
140.735
20
-55.0409
11
140.282
21
-54.7795
0
LINE
8
Black
10
140.282
20
-54.7795
11
139.946
21
-54.3789
0
LINE
8
Black
10
139.946
20
-54.3789
11
139.767
21
-53.8875
0
LINE
8
Black
10
139.767
20
-53.8875
11
139.767
21
-53.3645
0
LINE
8
Black
10
139.767
20
-53.3645
11
139.946
21
-52.8731
0
LINE
8
Black
10
139.946
20
-52.8731
11
140.282
21
-52.4725
0
LINE
8
Black
10
140.282
20
-52.4725
11
140.735
21
-52.2111
0
LINE
8
Black
10
140.735
20
-52.2111
11
141.25
21
-52.1203
0
LINE
8
Black
10
141.25
20
-52.1203
11
141.765
21
-52.2111
0
LINE
8
Black
10
151.515
20
-48.7111
11
151.968
21
-48.9725
0
LINE
8
Black
10
151.968
20
-48.9725
11
152.304
21
-49.3731
0
LINE
8
Black
10
152.304
20
-49.3731
11
152.483
21
-49.8645
0
LINE
8
Black
10
152.483
20
-49.8645
11
152.483
21
-50.3875
0
LINE
8
Black
10
152.483
20
-50.3875
11
152.304
21
-50.8789
0
LINE
8
Black
10
152.304
20
-50.8789
11
151.968
21
-51.2795
0
LINE
8
Black
10
151.968
20
-51.2795
11
151.515
21
-51.5409
0
LINE
8
Black
10
151.515
20
-51.5409
11
151
21
-51.6317
0
LINE
8
Black
10
151
20
-51.6317
11
150.485
21
-51.5409
0
LINE
8
Black
10
150.485
20
-51.5409
11
150.032
21
-51.2795
0
LINE
8
Black
10
150.032
20
-51.2795
11
149.696
21
-50.8789
0
LINE
8
Black
10
149.696
20
-50.8789
11
149.517
21
-50.3875
0
LINE
8
Black
10
149.517
20
-50.3875
11
149.517
21
-49.8645
0
LINE
8
Black
10
149.517
20
-49.8645
11
149.696
21
-49.3731
0
LINE
8
Black
10
149.696
20
-49.3731
11
150.032
21
-48.9725
0
LINE
8
Black
10
150.032
20
-48.9725
11
150.485
21
-48.7111
0
LINE
8
Black
10
150.485
20
-48.7111
11
151
21
-48.6203
0
LINE
8
Black
10
151
20
-48.6203
11
151.515
21
-48.7111
0
LINE
8
Black
10
167.515
20
-48.7111
11
167.968
21
-48.9725
0
LINE
8
Black
10
167.968
20
-48.9725
11
168.304
21
-49.3731
0
LINE
8
Black
10
168.304
20
-49.3731
11
168.483
21
-49.8645
0
LINE
8
Black
10
168.483
20
-49.8645
11
168.483
21
-50.3875
0
LINE
8
Black
10
168.483
20
-50.3875
11
168.304
21
-50.8789
0
LINE
8
Black
10
168.304
20
-50.8789
11
167.968
21
-51.2795
0
LINE
8
Black
10
167.968
20
-51.2795
11
167.515
21
-51.5409
0
LINE
8
Black
10
167.515
20
-51.5409
11
167
21
-51.6317
0
LINE
8
Black
10
167
20
-51.6317
11
166.485
21
-51.5409
0
LINE
8
Black
10
166.485
20
-51.5409
11
166.032
21
-51.2795
0
LINE
8
Black
10
166.032
20
-51.2795
11
165.696
21
-50.8789
0
LINE
8
Black
10
165.696
20
-50.8789
11
165.517
21
-50.3875
0
LINE
8
Black
10
165.517
20
-50.3875
11
165.517
21
-49.8645
0
LINE
8
Black
10
165.517
20
-49.8645
11
165.696
21
-49.3731
0
LINE
8
Black
10
165.696
20
-49.3731
11
166.032
21
-48.9725
0
LINE
8
Black
10
166.032
20
-48.9725
11
166.485
21
-48.7111
0
LINE
8
Black
10
166.485
20
-48.7111
11
167
21
-48.6203
0
LINE
8
Black
10
167
20
-48.6203
11
167.515
21
-48.7111
0
LINE
8
Black
10
175.515
20
-48.7111
11
175.968
21
-48.9725
0
LINE
8
Black
10
175.968
20
-48.9725
11
176.304
21
-49.3731
0
LINE
8
Black
10
176.304
20
-49.3731
11
176.483
21
-49.8645
0
LINE
8
Black
10
176.483
20
-49.8645
11
176.483
21
-50.3875
0
LINE
8
Black
10
176.483
20
-50.3875
11
176.304
21
-50.8789
0
LINE
8
Black
10
176.304
20
-50.8789
11
175.968
21
-51.2795
0
LINE
8
Black
10
175.968
20
-51.2795
11
175.515
21
-51.5409
0
LINE
8
Black
10
175.515
20
-51.5409
11
175
21
-51.6317
0
LINE
8
Black
10
175
20
-51.6317
11
174.485
21
-51.5409
0
LINE
8
Black
10
174.485
20
-51.5409
11
174.032
21
-51.2795
0
LINE
8
Black
10
174.032
20
-51.2795
11
173.696
21
-50.8789
0
LINE
8
Black
10
173.696
20
-50.8789
11
173.517
21
-50.3875
0
LINE
8
Black
10
173.517
20
-50.3875
11
173.517
21
-49.8645
0
LINE
8
Black
10
173.517
20
-49.8645
11
173.696
21
-49.3731
0
LINE
8
Black
10
173.696
20
-49.3731
11
174.032
21
-48.9725
0
LINE
8
Black
10
174.032
20
-48.9725
11
174.485
21
-48.7111
0
LINE
8
Black
10
174.485
20
-48.7111
11
175
21
-48.6203
0
LINE
8
Black
10
175
20
-48.6203
11
175.515
21
-48.7111
0
LINE
8
Black
10
143.515
20
-48.7111
11
143.968
21
-48.9725
0
LINE
8
Black
10
143.968
20
-48.9725
11
144.304
21
-49.3731
0
LINE
8
Black
10
144.304
20
-49.3731
11
144.483
21
-49.8645
0
LINE
8
Black
10
144.483
20
-49.8645
11
144.483
21
-50.3875
0
LINE
8
Black
10
144.483
20
-50.3875
11
144.304
21
-50.8789
0
LINE
8
Black
10
144.304
20
-50.8789
11
143.968
21
-51.2795
0
LINE
8
Black
10
143.968
20
-51.2795
11
143.515
21
-51.5409
0
LINE
8
Black
10
143.515
20
-51.5409
11
143
21
-51.6317
0
LINE
8
Black
10
143
20
-51.6317
11
142.485
21
-51.5409
0
LINE
8
Black
10
142.485
20
-51.5409
11
142.032
21
-51.2795
0
LINE
8
Black
10
142.032
20
-51.2795
11
141.696
21
-50.8789
0
LINE
8
Black
10
141.696
20
-50.8789
11
141.517
21
-50.3875
0
LINE
8
Black
10
141.517
20
-50.3875
11
141.517
21
-49.8645
0
LINE
8
Black
10
141.517
20
-49.8645
11
141.696
21
-49.3731
0
LINE
8
Black
10
141.696
20
-49.3731
11
142.032
21
-48.9725
0
LINE
8
Black
10
142.032
20
-48.9725
11
142.485
21
-48.7111
0
LINE
8
Black
10
142.485
20
-48.7111
11
143
21
-48.6203
0
LINE
8
Black
10
143
20
-48.6203
11
143.515
21
-48.7111
0
LINE
8
Black
10
147.515
20
-47.7111
11
147.968
21
-47.9725
0
LINE
8
Black
10
147.968
20
-47.9725
11
148.304
21
-48.3731
0
LINE
8
Black
10
148.304
20
-48.3731
11
148.483
21
-48.8645
0
LINE
8
Black
10
148.483
20
-48.8645
11
148.483
21
-49.3875
0
LINE
8
Black
10
148.483
20
-49.3875
11
148.304
21
-49.8789
0
LINE
8
Black
10
148.304
20
-49.8789
11
147.968
21
-50.2795
0
LINE
8
Black
10
147.968
20
-50.2795
11
147.515
21
-50.5409
0
LINE
8
Black
10
147.515
20
-50.5409
11
147
21
-50.6317
0
LINE
8
Black
10
147
20
-50.6317
11
146.485
21
-50.5409
0
LINE
8
Black
10
146.485
20
-50.5409
11
146.032
21
-50.2795
0
LINE
8
Black
10
146.032
20
-50.2795
11
145.696
21
-49.8789
0
LINE
8
Black
10
145.696
20
-49.8789
11
145.517
21
-49.3875
0
LINE
8
Black
10
145.517
20
-49.3875
11
145.517
21
-48.8645
0
LINE
8
Black
10
145.517
20
-48.8645
11
145.696
21
-48.3731
0
LINE
8
Black
10
145.696
20
-48.3731
11
146.032
21
-47.9725
0
LINE
8
Black
10
146.032
20
-47.9725
11
146.485
21
-47.7111
0
LINE
8
Black
10
146.485
20
-47.7111
11
147
21
-47.6203
0
LINE
8
Black
10
147
20
-47.6203
11
147.515
21
-47.7111
0
LINE
8
Black
10
171.515
20
-47.7111
11
171.968
21
-47.9725
0
LINE
8
Black
10
171.968
20
-47.9725
11
172.304
21
-48.3731
0
LINE
8
Black
10
172.304
20
-48.3731
11
172.483
21
-48.8645
0
LINE
8
Black
10
172.483
20
-48.8645
11
172.483
21
-49.3875
0
LINE
8
Black
10
172.483
20
-49.3875
11
172.304
21
-49.8789
0
LINE
8
Black
10
172.304
20
-49.8789
11
171.968
21
-50.2795
0
LINE
8
Black
10
171.968
20
-50.2795
11
171.515
21
-50.5409
0
LINE
8
Black
10
171.515
20
-50.5409
11
171
21
-50.6317
0
LINE
8
Black
10
171
20
-50.6317
11
170.485
21
-50.5409
0
LINE
8
Black
10
170.485
20
-50.5409
11
170.032
21
-50.2795
0
LINE
8
Black
10
170.032
20
-50.2795
11
169.696
21
-49.8789
0
LINE
8
Black
10
169.696
20
-49.8789
11
169.517
21
-49.3875
0
LINE
8
Black
10
169.517
20
-49.3875
11
169.517
21
-48.8645
0
LINE
8
Black
10
169.517
20
-48.8645
11
169.696
21
-48.3731
0
LINE
8
Black
10
169.696
20
-48.3731
11
170.032
21
-47.9725
0
LINE
8
Black
10
170.032
20
-47.9725
11
170.485
21
-47.7111
0
LINE
8
Black
10
170.485
20
-47.7111
11
171
21
-47.6203
0
LINE
8
Black
10
171
20
-47.6203
11
171.515
21
-47.7111
  0
ENDSEC
  0
EOF
