G04 #@! TF.FileFunction,Profile,NP*
%FSLAX46Y46*%
G04 Gerber Fmt 4.6, Leading zero omitted, Abs format (unit mm)*
G04 Created by KiCad (PCBNEW 4.0.7) date 10/23/17 00:13:22*
%MOMM*%
%LPD*%
G01*
G04 APERTURE LIST*
%ADD10C,0.100000*%
G04 APERTURE END LIST*
D10*
X162868000Y-144597918D02*
G75*
G02X157868000Y-139597918I0J5000000D01*
G01*
X201868000Y-144597918D02*
X162868000Y-144597918D01*
X206868000Y-139597918D02*
G75*
G02X201868000Y-144597918I-5000000J0D01*
G01*
X206868000Y-50097918D02*
X206868000Y-139597918D01*
X201868000Y-45097918D02*
G75*
G02X206868000Y-50097918I0J-5000000D01*
G01*
X162868000Y-45097918D02*
X201868000Y-45097918D01*
X157868000Y-50097918D02*
G75*
G02X162868000Y-45097918I5000000J0D01*
G01*
X202968000Y-141081601D02*
G75*
G03X202968000Y-141081601I-1600000J0D01*
G01*
X164968000Y-141081601D02*
G75*
G03X164968000Y-141081601I-1600000J0D01*
G01*
X162968000Y-90581601D02*
G75*
G03X162968000Y-90581601I-1600000J0D01*
G01*
X204968000Y-90581601D02*
G75*
G03X204968000Y-90581601I-1600000J0D01*
G01*
X204968000Y-74581601D02*
G75*
G03X204968000Y-74581601I-1600000J0D01*
G01*
X162968000Y-74581601D02*
G75*
G03X162968000Y-74581601I-1600000J0D01*
G01*
X203968000Y-49581601D02*
G75*
G03X203968000Y-49581601I-1600000J0D01*
G01*
X163968000Y-49581601D02*
G75*
G03X163968000Y-49581601I-1600000J0D01*
G01*
X108846000Y-139597918D02*
X108846000Y-50097918D01*
X113846000Y-144597918D02*
G75*
G02X108846000Y-139597918I0J5000000D01*
G01*
X152846000Y-144597918D02*
X113846000Y-144597918D01*
X157846000Y-139597918D02*
G75*
G02X152846000Y-144597918I-5000000J0D01*
G01*
X152846000Y-45097918D02*
G75*
G02X157846000Y-50097918I0J-5000000D01*
G01*
X113846000Y-45097918D02*
X152846000Y-45097918D01*
X108846000Y-50097918D02*
G75*
G02X113846000Y-45097918I5000000J0D01*
G01*
X153946000Y-141081601D02*
G75*
G03X153946000Y-141081601I-1600000J0D01*
G01*
X115946000Y-141081601D02*
G75*
G03X115946000Y-141081601I-1600000J0D01*
G01*
X113946000Y-90581601D02*
G75*
G03X113946000Y-90581601I-1600000J0D01*
G01*
X155946000Y-90581601D02*
G75*
G03X155946000Y-90581601I-1600000J0D01*
G01*
X155946000Y-74581601D02*
G75*
G03X155946000Y-74581601I-1600000J0D01*
G01*
X113946000Y-74581601D02*
G75*
G03X113946000Y-74581601I-1600000J0D01*
G01*
X154946000Y-49581601D02*
G75*
G03X154946000Y-49581601I-1600000J0D01*
G01*
X114946000Y-49581601D02*
G75*
G03X114946000Y-49581601I-1600000J0D01*
G01*
M02*
