M48
;DRILL file {KiCad 4.0.7} date 10/16/17 21:22:12
;FORMAT={-:-/ absolute / metric / decimal}
FMAT,2
METRIC,TZ
T1C0.400
T2C0.800
T3C1.000
T4C1.600
T5C2.000
%
G90
G05
M71
T1
X139.778Y-133.08
X145.842Y-71.42
X145.842Y-131.11
X147.874Y-135.682
X150.668Y-55.926
X151.684Y-128.57
X152.478Y-99.646
X153.462Y-83.612
X155.24Y-51.608
X155.24Y-72.436
X157.018Y-83.104
X158.826Y-65.618
X160.828Y-83.866
X161.082Y-85.898
X161.826Y-61.118
X162.098Y-53.64
X163.326Y-70.368
X163.622Y-85.898
X164.384Y-48.56
X164.576Y-66.868
X165.686Y-132.158
X166.448Y-131.65
X168.226Y-132.158
X168.702Y-69.896
X169.576Y-54.618
X170.766Y-132.158
X172.544Y-125.046
X177.37Y-125.3
T2
X137.Y-112.
X137.Y-117.
X141.Y-122.
X141.Y-126.
X141.27Y-84.12
X142.794Y-87.422
X142.826Y-109.298
X142.826Y-116.918
X143.556Y-90.47
X143.556Y-98.09
X145.366Y-109.298
X145.366Y-116.918
X146.096Y-90.47
X146.096Y-98.09
X146.5Y-101.
X146.5Y-106.
X147.906Y-109.298
X147.906Y-116.918
X148.636Y-90.47
X148.636Y-98.09
X150.446Y-109.298
X150.446Y-116.918
X151.16Y-122.
X151.16Y-126.
X151.176Y-90.47
X151.176Y-98.09
X151.43Y-84.12
X152.954Y-87.422
X152.986Y-109.298
X152.986Y-116.918
X155.526Y-109.298
X155.526Y-116.918
X156.Y-90.38
X156.Y-98.
X158.Y-122.
X158.066Y-109.298
X158.066Y-116.918
X158.54Y-90.38
X158.54Y-98.
X160.5Y-122.
X160.606Y-109.298
X160.606Y-116.918
X161.08Y-90.38
X161.08Y-98.
X161.5Y-101.
X161.5Y-106.
X163.146Y-109.298
X163.146Y-116.918
X163.62Y-90.38
X163.62Y-98.
X164.Y-122.
X165.5Y-102.5
X165.5Y-105.
X165.686Y-109.298
X165.686Y-116.918
X166.16Y-90.38
X166.16Y-98.
X168.226Y-109.298
X168.226Y-116.918
X168.7Y-90.38
X168.7Y-98.
X170.766Y-109.298
X170.766Y-116.918
X171.24Y-90.38
X171.24Y-98.
X173.306Y-109.298
X173.306Y-116.918
X173.78Y-90.38
X173.78Y-98.
X174.16Y-122.
X175.846Y-109.298
X175.846Y-116.918
X176.Y-103.
X176.Y-105.5
T3
X136.5Y-97.
X136.5Y-99.54
X136.5Y-102.08
X136.5Y-104.62
X136.5Y-107.16
X136.5Y-127.
X136.5Y-129.54
X136.5Y-132.08
X136.5Y-134.62
X145.08Y-74.214
X145.08Y-80.31
X147.62Y-74.214
X147.62Y-80.31
X149.906Y-138.095
X149.906Y-140.635
X150.16Y-74.214
X150.16Y-80.31
X151.6Y-104.4
X151.716Y-131.65
X152.446Y-138.095
X152.446Y-140.635
X152.7Y-74.214
X152.7Y-80.31
X154.256Y-131.65
X154.986Y-138.095
X154.986Y-140.635
X155.24Y-74.214
X155.24Y-80.31
X156.4Y-104.4
X156.796Y-131.65
X157.78Y-74.214
X157.78Y-80.31
X159.336Y-131.65
X160.32Y-74.214
X160.32Y-80.31
X161.876Y-131.65
X162.86Y-74.214
X162.86Y-80.31
X164.Y-139.
X165.4Y-74.214
X165.4Y-80.31
X166.54Y-139.
X167.94Y-74.214
X167.94Y-80.31
X169.08Y-139.
X170.48Y-74.214
X170.48Y-80.31
X171.62Y-139.
X173.02Y-74.214
X173.02Y-80.31
X181.5Y-97.
X181.5Y-99.54
X181.5Y-102.08
X181.5Y-104.62
X181.5Y-107.16
X181.5Y-111.84
X181.5Y-114.38
X181.5Y-116.92
X181.5Y-119.46
X181.5Y-122.
X181.5Y-127.
X181.5Y-129.54
X181.5Y-132.08
X181.5Y-134.62
T4
X141.25Y-53.626
X141.25Y-58.126
X141.25Y-62.626
X143.Y-50.126
X143.Y-66.126
X147.Y-49.126
X147.Y-67.126
X151.Y-50.126
X151.Y-66.126
X152.75Y-53.626
X152.75Y-58.126
X152.75Y-62.626
X165.25Y-53.626
X165.25Y-58.126
X165.25Y-62.626
X167.Y-50.126
X167.Y-66.126
X171.Y-49.126
X171.Y-67.126
X175.Y-50.126
X175.Y-66.126
X176.75Y-53.626
X176.75Y-58.126
X176.75Y-62.626
T5
X136.588Y-77.262G85X154.588Y-77.262
G05
X157.796Y-77.262G85X159.796Y-77.262
G05
X163.004Y-77.262G85X181.004Y-77.262
G05
T0
M30
