G04 #@! TF.FileFunction,Profile,NP*
%FSLAX46Y46*%
G04 Gerber Fmt 4.6, Leading zero omitted, Abs format (unit mm)*
G04 Created by KiCad (PCBNEW 4.0.6) date 11/14/17 14:49:57*
%MOMM*%
%LPD*%
G01*
G04 APERTURE LIST*
%ADD10C,0.100000*%
%ADD11C,0.300000*%
%ADD12C,0.200000*%
G04 APERTURE END LIST*
D10*
D11*
X150526000Y-41096571D02*
X150026000Y-42596571D01*
X149526000Y-41096571D01*
X149026000Y-42025143D02*
X147883143Y-42025143D01*
X146311714Y-42453714D02*
X146383143Y-42525143D01*
X146597429Y-42596571D01*
X146740286Y-42596571D01*
X146954571Y-42525143D01*
X147097429Y-42382286D01*
X147168857Y-42239429D01*
X147240286Y-41953714D01*
X147240286Y-41739429D01*
X147168857Y-41453714D01*
X147097429Y-41310857D01*
X146954571Y-41168000D01*
X146740286Y-41096571D01*
X146597429Y-41096571D01*
X146383143Y-41168000D01*
X146311714Y-41239429D01*
X145668857Y-41096571D02*
X145668857Y-42310857D01*
X145597429Y-42453714D01*
X145526000Y-42525143D01*
X145383143Y-42596571D01*
X145097429Y-42596571D01*
X144954571Y-42525143D01*
X144883143Y-42453714D01*
X144811714Y-42310857D01*
X144811714Y-41096571D01*
X144311714Y-41096571D02*
X143454571Y-41096571D01*
X143883142Y-42596571D02*
X143883142Y-41096571D01*
X141811714Y-42596571D02*
X141811714Y-41096571D01*
X141811714Y-41810857D02*
X140954571Y-41810857D01*
X140954571Y-42596571D02*
X140954571Y-41096571D01*
X140240285Y-41810857D02*
X139740285Y-41810857D01*
X139525999Y-42596571D02*
X140240285Y-42596571D01*
X140240285Y-41096571D01*
X139525999Y-41096571D01*
X138025999Y-42596571D02*
X138525999Y-41882286D01*
X138883142Y-42596571D02*
X138883142Y-41096571D01*
X138311714Y-41096571D01*
X138168856Y-41168000D01*
X138097428Y-41239429D01*
X138025999Y-41382286D01*
X138025999Y-41596571D01*
X138097428Y-41739429D01*
X138168856Y-41810857D01*
X138311714Y-41882286D01*
X138883142Y-41882286D01*
X137383142Y-41810857D02*
X136883142Y-41810857D01*
X136668856Y-42596571D02*
X137383142Y-42596571D01*
X137383142Y-41096571D01*
X136668856Y-41096571D01*
D12*
X143626000Y-43568000D02*
X143626000Y-141368000D01*
D11*
X207526000Y-76596571D02*
X207026000Y-78096571D01*
X206526000Y-76596571D01*
X206026000Y-77525143D02*
X204883143Y-77525143D01*
X203311714Y-77953714D02*
X203383143Y-78025143D01*
X203597429Y-78096571D01*
X203740286Y-78096571D01*
X203954571Y-78025143D01*
X204097429Y-77882286D01*
X204168857Y-77739429D01*
X204240286Y-77453714D01*
X204240286Y-77239429D01*
X204168857Y-76953714D01*
X204097429Y-76810857D01*
X203954571Y-76668000D01*
X203740286Y-76596571D01*
X203597429Y-76596571D01*
X203383143Y-76668000D01*
X203311714Y-76739429D01*
X202668857Y-76596571D02*
X202668857Y-77810857D01*
X202597429Y-77953714D01*
X202526000Y-78025143D01*
X202383143Y-78096571D01*
X202097429Y-78096571D01*
X201954571Y-78025143D01*
X201883143Y-77953714D01*
X201811714Y-77810857D01*
X201811714Y-76596571D01*
X201311714Y-76596571D02*
X200454571Y-76596571D01*
X200883142Y-78096571D02*
X200883142Y-76596571D01*
X198811714Y-78096571D02*
X198811714Y-76596571D01*
X198811714Y-77310857D02*
X197954571Y-77310857D01*
X197954571Y-78096571D02*
X197954571Y-76596571D01*
X197240285Y-77310857D02*
X196740285Y-77310857D01*
X196525999Y-78096571D02*
X197240285Y-78096571D01*
X197240285Y-76596571D01*
X196525999Y-76596571D01*
X195025999Y-78096571D02*
X195525999Y-77382286D01*
X195883142Y-78096571D02*
X195883142Y-76596571D01*
X195311714Y-76596571D01*
X195168856Y-76668000D01*
X195097428Y-76739429D01*
X195025999Y-76882286D01*
X195025999Y-77096571D01*
X195097428Y-77239429D01*
X195168856Y-77310857D01*
X195311714Y-77382286D01*
X195883142Y-77382286D01*
X194383142Y-77310857D02*
X193883142Y-77310857D01*
X193668856Y-78096571D02*
X194383142Y-78096571D01*
X194383142Y-76596571D01*
X193668856Y-76596571D01*
D12*
X94326000Y-77268000D02*
X192876000Y-77268000D01*
M02*
