M48
;DRILL file {KiCad 4.0.7} date 10/23/17 00:13:27
;FORMAT={-:-/ absolute / metric / decimal}
FMAT,2
METRIC,TZ
T1C0.400
T2C0.800
T3C1.000
T4C1.600
T5C2.000
%
G90
G05
M71
T1
X114.124Y-134.858
X120.188Y-73.198
X120.188Y-132.888
X122.22Y-137.46
X125.014Y-57.704
X126.03Y-130.348
X126.824Y-101.424
X127.808Y-85.39
X129.586Y-53.386
X129.586Y-74.214
X131.364Y-84.882
X133.172Y-67.396
X135.174Y-85.644
X135.428Y-87.676
X136.172Y-62.896
X136.444Y-55.418
X137.672Y-72.146
X137.968Y-87.676
X138.73Y-50.338
X138.922Y-68.646
X140.032Y-133.936
X140.794Y-133.428
X142.572Y-133.936
X143.048Y-71.674
X143.922Y-56.396
X145.112Y-133.936
X146.89Y-126.824
X151.716Y-127.078
X163.146Y-134.858
X169.21Y-73.198
X169.21Y-132.888
X171.242Y-137.46
X174.036Y-57.704
X175.052Y-130.348
X175.846Y-101.424
X176.83Y-85.39
X178.608Y-53.386
X178.608Y-74.214
X180.386Y-84.882
X182.194Y-67.396
X184.196Y-85.644
X184.45Y-87.676
X185.194Y-62.896
X185.466Y-55.418
X186.694Y-72.146
X186.99Y-87.676
X187.752Y-50.338
X187.944Y-68.646
X189.054Y-133.936
X189.816Y-133.428
X191.594Y-133.936
X192.07Y-71.674
X192.944Y-56.396
X194.134Y-133.936
X195.912Y-126.824
X200.738Y-127.078
T2
X111.346Y-113.778
X111.346Y-118.778
X115.346Y-123.778
X115.346Y-127.778
X115.616Y-85.898
X117.14Y-89.2
X117.172Y-111.076
X117.172Y-118.696
X117.902Y-92.248
X117.902Y-99.868
X119.712Y-111.076
X119.712Y-118.696
X120.442Y-92.248
X120.442Y-99.868
X120.846Y-102.778
X120.846Y-107.778
X122.252Y-111.076
X122.252Y-118.696
X122.982Y-92.248
X122.982Y-99.868
X124.792Y-111.076
X124.792Y-118.696
X125.506Y-123.778
X125.506Y-127.778
X125.522Y-92.248
X125.522Y-99.868
X125.776Y-85.898
X127.3Y-89.2
X127.332Y-111.076
X127.332Y-118.696
X129.872Y-111.076
X129.872Y-118.696
X130.346Y-92.158
X130.346Y-99.778
X132.346Y-123.778
X132.412Y-111.076
X132.412Y-118.696
X132.886Y-92.158
X132.886Y-99.778
X134.846Y-123.778
X134.952Y-111.076
X134.952Y-118.696
X135.426Y-92.158
X135.426Y-99.778
X135.846Y-102.778
X135.846Y-107.778
X137.492Y-111.076
X137.492Y-118.696
X137.966Y-92.158
X137.966Y-99.778
X138.346Y-123.778
X139.846Y-104.278
X139.846Y-106.778
X140.032Y-111.076
X140.032Y-118.696
X140.506Y-92.158
X140.506Y-99.778
X142.572Y-111.076
X142.572Y-118.696
X143.046Y-92.158
X143.046Y-99.778
X145.112Y-111.076
X145.112Y-118.696
X145.586Y-92.158
X145.586Y-99.778
X147.652Y-111.076
X147.652Y-118.696
X148.126Y-92.158
X148.126Y-99.778
X148.506Y-123.778
X150.192Y-111.076
X150.192Y-118.696
X150.346Y-104.778
X150.346Y-107.278
X160.368Y-113.778
X160.368Y-118.778
X164.368Y-123.778
X164.368Y-127.778
X164.638Y-85.898
X166.162Y-89.2
X166.194Y-111.076
X166.194Y-118.696
X166.924Y-92.248
X166.924Y-99.868
X168.734Y-111.076
X168.734Y-118.696
X169.464Y-92.248
X169.464Y-99.868
X169.868Y-102.778
X169.868Y-107.778
X171.274Y-111.076
X171.274Y-118.696
X172.004Y-92.248
X172.004Y-99.868
X173.814Y-111.076
X173.814Y-118.696
X174.528Y-123.778
X174.528Y-127.778
X174.544Y-92.248
X174.544Y-99.868
X174.798Y-85.898
X176.322Y-89.2
X176.354Y-111.076
X176.354Y-118.696
X178.894Y-111.076
X178.894Y-118.696
X179.368Y-92.158
X179.368Y-99.778
X181.368Y-123.778
X181.434Y-111.076
X181.434Y-118.696
X181.908Y-92.158
X181.908Y-99.778
X183.868Y-123.778
X183.974Y-111.076
X183.974Y-118.696
X184.448Y-92.158
X184.448Y-99.778
X184.868Y-102.778
X184.868Y-107.778
X186.514Y-111.076
X186.514Y-118.696
X186.988Y-92.158
X186.988Y-99.778
X187.368Y-123.778
X188.868Y-104.278
X188.868Y-106.778
X189.054Y-111.076
X189.054Y-118.696
X189.528Y-92.158
X189.528Y-99.778
X191.594Y-111.076
X191.594Y-118.696
X192.068Y-92.158
X192.068Y-99.778
X194.134Y-111.076
X194.134Y-118.696
X194.608Y-92.158
X194.608Y-99.778
X196.674Y-111.076
X196.674Y-118.696
X197.148Y-92.158
X197.148Y-99.778
X197.528Y-123.778
X199.214Y-111.076
X199.214Y-118.696
X199.368Y-104.778
X199.368Y-107.278
T3
X110.846Y-98.778
X110.846Y-101.318
X110.846Y-103.858
X110.846Y-106.398
X110.846Y-108.938
X110.846Y-128.778
X110.846Y-131.318
X110.846Y-133.858
X110.846Y-136.398
X119.426Y-75.992
X119.426Y-82.088
X121.966Y-75.992
X121.966Y-82.088
X124.252Y-139.873
X124.252Y-142.413
X124.506Y-75.992
X124.506Y-82.088
X125.946Y-106.178
X126.062Y-133.428
X126.792Y-139.873
X126.792Y-142.413
X127.046Y-75.992
X127.046Y-82.088
X128.602Y-133.428
X129.332Y-139.873
X129.332Y-142.413
X129.586Y-75.992
X129.586Y-82.088
X130.746Y-106.178
X131.142Y-133.428
X132.126Y-75.992
X132.126Y-82.088
X133.682Y-133.428
X134.666Y-75.992
X134.666Y-82.088
X136.222Y-133.428
X137.206Y-75.992
X137.206Y-82.088
X138.346Y-140.778
X139.746Y-75.992
X139.746Y-82.088
X140.886Y-140.778
X142.286Y-75.992
X142.286Y-82.088
X143.426Y-140.778
X144.826Y-75.992
X144.826Y-82.088
X145.966Y-140.778
X147.366Y-75.992
X147.366Y-82.088
X155.846Y-98.778
X155.846Y-101.318
X155.846Y-103.858
X155.846Y-106.398
X155.846Y-108.938
X155.846Y-113.618
X155.846Y-116.158
X155.846Y-118.698
X155.846Y-121.238
X155.846Y-123.778
X155.846Y-128.778
X155.846Y-131.318
X155.846Y-133.858
X155.846Y-136.398
X159.868Y-98.778
X159.868Y-101.318
X159.868Y-103.858
X159.868Y-106.398
X159.868Y-108.938
X159.868Y-128.778
X159.868Y-131.318
X159.868Y-133.858
X159.868Y-136.398
X168.448Y-75.992
X168.448Y-82.088
X170.988Y-75.992
X170.988Y-82.088
X173.274Y-139.873
X173.274Y-142.413
X173.528Y-75.992
X173.528Y-82.088
X174.968Y-106.178
X175.084Y-133.428
X175.814Y-139.873
X175.814Y-142.413
X176.068Y-75.992
X176.068Y-82.088
X177.624Y-133.428
X178.354Y-139.873
X178.354Y-142.413
X178.608Y-75.992
X178.608Y-82.088
X179.768Y-106.178
X180.164Y-133.428
X181.148Y-75.992
X181.148Y-82.088
X182.704Y-133.428
X183.688Y-75.992
X183.688Y-82.088
X185.244Y-133.428
X186.228Y-75.992
X186.228Y-82.088
X187.368Y-140.778
X188.768Y-75.992
X188.768Y-82.088
X189.908Y-140.778
X191.308Y-75.992
X191.308Y-82.088
X192.448Y-140.778
X193.848Y-75.992
X193.848Y-82.088
X194.988Y-140.778
X196.388Y-75.992
X196.388Y-82.088
X204.868Y-98.778
X204.868Y-101.318
X204.868Y-103.858
X204.868Y-106.398
X204.868Y-108.938
X204.868Y-113.618
X204.868Y-116.158
X204.868Y-118.698
X204.868Y-121.238
X204.868Y-123.778
X204.868Y-128.778
X204.868Y-131.318
X204.868Y-133.858
X204.868Y-136.398
T4
X115.596Y-55.404
X115.596Y-59.904
X115.596Y-64.404
X117.346Y-51.904
X117.346Y-67.904
X121.346Y-50.904
X121.346Y-68.904
X125.346Y-51.904
X125.346Y-67.904
X127.096Y-55.404
X127.096Y-59.904
X127.096Y-64.404
X139.596Y-55.404
X139.596Y-59.904
X139.596Y-64.404
X141.346Y-51.904
X141.346Y-67.904
X145.346Y-50.904
X145.346Y-68.904
X149.346Y-51.904
X149.346Y-67.904
X151.096Y-55.404
X151.096Y-59.904
X151.096Y-64.404
X164.618Y-55.404
X164.618Y-59.904
X164.618Y-64.404
X166.368Y-51.904
X166.368Y-67.904
X170.368Y-50.904
X170.368Y-68.904
X174.368Y-51.904
X174.368Y-67.904
X176.118Y-55.404
X176.118Y-59.904
X176.118Y-64.404
X188.618Y-55.404
X188.618Y-59.904
X188.618Y-64.404
X190.368Y-51.904
X190.368Y-67.904
X194.368Y-50.904
X194.368Y-68.904
X198.368Y-51.904
X198.368Y-67.904
X200.118Y-55.404
X200.118Y-59.904
X200.118Y-64.404
T5
X110.934Y-79.04G85X128.934Y-79.04
G05
X132.142Y-79.04G85X134.142Y-79.04
G05
X137.35Y-79.04G85X155.35Y-79.04
G05
X159.956Y-79.04G85X177.956Y-79.04
G05
X181.164Y-79.04G85X183.164Y-79.04
G05
X186.372Y-79.04G85X204.372Y-79.04
G05
T0
M30
