G04 #@! TF.FileFunction,Copper,L1,Top,Signal*
%FSLAX46Y46*%
G04 Gerber Fmt 4.6, Leading zero omitted, Abs format (unit mm)*
G04 Created by KiCad (PCBNEW 4.0.7) date 10/16/17 21:23:38*
%MOMM*%
%LPD*%
G01*
G04 APERTURE LIST*
%ADD10C,0.100000*%
%ADD11R,1.600000X1.600000*%
%ADD12O,1.600000X1.600000*%
%ADD13C,1.600000*%
%ADD14R,1.700000X1.700000*%
%ADD15O,1.700000X1.700000*%
%ADD16R,1.600000X2.400000*%
%ADD17O,1.600000X2.400000*%
%ADD18C,2.600000*%
%ADD19O,20.000000X2.000000*%
%ADD20O,4.000000X2.000000*%
%ADD21C,0.600000*%
%ADD22C,1.000000*%
%ADD23C,2.000000*%
%ADD24C,0.250000*%
G04 APERTURE END LIST*
D10*
D11*
X143556000Y-98090000D03*
D12*
X151176000Y-90470000D03*
X146096000Y-98090000D03*
X148636000Y-90470000D03*
X148636000Y-98090000D03*
X146096000Y-90470000D03*
X151176000Y-98090000D03*
X143556000Y-90470000D03*
D13*
X165500000Y-105000000D03*
X165500000Y-102500000D03*
X176000000Y-103000000D03*
X176000000Y-105500000D03*
X137000000Y-117000000D03*
X137000000Y-112000000D03*
X158000000Y-122000000D03*
X160500000Y-122000000D03*
X161500000Y-101000000D03*
X161500000Y-106000000D03*
X146500000Y-101000000D03*
X146500000Y-106000000D03*
D14*
X181500000Y-127000000D03*
D15*
X181500000Y-129540000D03*
X181500000Y-132080000D03*
X181500000Y-134620000D03*
D14*
X181500000Y-122000000D03*
D15*
X181500000Y-119460000D03*
X181500000Y-116920000D03*
X181500000Y-114380000D03*
X181500000Y-111840000D03*
D14*
X136500000Y-127000000D03*
D15*
X136500000Y-129540000D03*
X136500000Y-132080000D03*
X136500000Y-134620000D03*
D14*
X149906000Y-140635000D03*
D15*
X149906000Y-138095000D03*
X152446000Y-140635000D03*
X152446000Y-138095000D03*
X154986000Y-140635000D03*
X154986000Y-138095000D03*
D14*
X164000000Y-139000000D03*
D15*
X166540000Y-139000000D03*
X169080000Y-139000000D03*
X171620000Y-139000000D03*
D14*
X181500000Y-97000000D03*
D15*
X181500000Y-99540000D03*
X181500000Y-102080000D03*
X181500000Y-104620000D03*
X181500000Y-107160000D03*
D14*
X136500000Y-97000000D03*
D15*
X136500000Y-99540000D03*
X136500000Y-102080000D03*
X136500000Y-104620000D03*
X136500000Y-107160000D03*
D13*
X164000000Y-122000000D03*
D12*
X174160000Y-122000000D03*
D13*
X141000000Y-122000000D03*
D12*
X151160000Y-122000000D03*
D13*
X151430000Y-84120000D03*
D12*
X141270000Y-84120000D03*
D13*
X141000000Y-126000000D03*
D12*
X151160000Y-126000000D03*
D13*
X152954000Y-87422000D03*
D12*
X142794000Y-87422000D03*
D16*
X175846000Y-109298000D03*
D17*
X142826000Y-116918000D03*
X173306000Y-109298000D03*
X145366000Y-116918000D03*
X170766000Y-109298000D03*
X147906000Y-116918000D03*
X168226000Y-109298000D03*
X150446000Y-116918000D03*
X165686000Y-109298000D03*
X152986000Y-116918000D03*
X163146000Y-109298000D03*
X155526000Y-116918000D03*
X160606000Y-109298000D03*
X158066000Y-116918000D03*
X158066000Y-109298000D03*
X160606000Y-116918000D03*
X155526000Y-109298000D03*
X163146000Y-116918000D03*
X152986000Y-109298000D03*
X165686000Y-116918000D03*
X150446000Y-109298000D03*
X168226000Y-116918000D03*
X147906000Y-109298000D03*
X170766000Y-116918000D03*
X145366000Y-109298000D03*
X173306000Y-116918000D03*
X142826000Y-109298000D03*
X175846000Y-116918000D03*
D16*
X156000000Y-98000000D03*
D17*
X173780000Y-90380000D03*
X158540000Y-98000000D03*
X171240000Y-90380000D03*
X161080000Y-98000000D03*
X168700000Y-90380000D03*
X163620000Y-98000000D03*
X166160000Y-90380000D03*
X166160000Y-98000000D03*
X163620000Y-90380000D03*
X168700000Y-98000000D03*
X161080000Y-90380000D03*
X171240000Y-98000000D03*
X158540000Y-90380000D03*
X173780000Y-98000000D03*
X156000000Y-90380000D03*
D18*
X147000000Y-67126000D03*
X143000000Y-66126000D03*
X141250000Y-62626000D03*
X141250000Y-58126000D03*
X141250000Y-53626000D03*
X143000000Y-50126000D03*
X147000000Y-49126000D03*
X151000000Y-50126000D03*
X152750000Y-53626000D03*
X152750000Y-58126000D03*
X152750000Y-62626000D03*
X151000000Y-66126000D03*
X171000000Y-67126000D03*
X167000000Y-66126000D03*
X165250000Y-62626000D03*
X165250000Y-58126000D03*
X165250000Y-53626000D03*
X167000000Y-50126000D03*
X171000000Y-49126000D03*
X175000000Y-50126000D03*
X176750000Y-53626000D03*
X176750000Y-58126000D03*
X176750000Y-62626000D03*
X175000000Y-66126000D03*
D13*
X151600000Y-104400000D03*
X156400000Y-104400000D03*
D14*
X161876000Y-131650000D03*
D15*
X159336000Y-131650000D03*
X156796000Y-131650000D03*
X154256000Y-131650000D03*
X151716000Y-131650000D03*
D14*
X145080000Y-80310000D03*
D15*
X147620000Y-80310000D03*
X150160000Y-80310000D03*
X152700000Y-80310000D03*
X155240000Y-80310000D03*
X157780000Y-80310000D03*
X160320000Y-80310000D03*
X162860000Y-80310000D03*
X165400000Y-80310000D03*
X167940000Y-80310000D03*
X170480000Y-80310000D03*
X173020000Y-80310000D03*
D14*
X173020000Y-74214000D03*
D15*
X170480000Y-74214000D03*
X167940000Y-74214000D03*
X165400000Y-74214000D03*
X162860000Y-74214000D03*
X160320000Y-74214000D03*
X157780000Y-74214000D03*
X155240000Y-74214000D03*
X152700000Y-74214000D03*
X150160000Y-74214000D03*
X147620000Y-74214000D03*
X145080000Y-74214000D03*
D19*
X145588000Y-77262000D03*
X172004000Y-77262000D03*
D20*
X158796000Y-77262000D03*
D21*
X139778000Y-133080000D03*
X177370000Y-125300000D03*
X172544000Y-125046000D03*
X151684000Y-128570000D03*
X145842000Y-131110000D03*
X147874000Y-135682000D03*
X165686000Y-132158000D03*
X166448000Y-131650000D03*
X168226000Y-132158000D03*
X170766000Y-132158000D03*
X152478000Y-99646000D03*
X153462000Y-83612000D03*
X157018000Y-83104000D03*
X160828000Y-83866000D03*
X161082000Y-85898000D03*
X163622000Y-85898000D03*
X164576000Y-66868000D03*
X168702000Y-69896000D03*
X161826000Y-61118000D03*
X169576000Y-54618000D03*
X162098000Y-53640000D03*
X164384000Y-48560000D03*
X158826000Y-65618000D03*
X155240000Y-72436000D03*
X155240000Y-51608000D03*
X150668000Y-55926000D03*
X145842000Y-71420000D03*
X163326000Y-70368000D03*
D22*
X164130000Y-107234000D02*
X164638000Y-107234000D01*
X164130000Y-107234000D02*
X162606000Y-107234000D01*
X160606000Y-109298000D02*
X162606000Y-107298000D01*
X162606000Y-107234000D02*
X162606000Y-107298000D01*
X164638000Y-107234000D02*
X165500000Y-106372000D01*
X165500000Y-105000000D02*
X165500000Y-106372000D01*
D23*
X139872000Y-133174000D02*
X146318000Y-133174000D01*
X139778000Y-133080000D02*
X139872000Y-133174000D01*
X147652000Y-133174000D02*
X146318000Y-133174000D01*
X148668000Y-134190000D02*
X147652000Y-133174000D01*
X153748000Y-134190000D02*
X148668000Y-134190000D01*
X154256000Y-133682000D02*
X153748000Y-134190000D01*
X154256000Y-131650000D02*
X154256000Y-133682000D01*
X147239000Y-138095000D02*
X146096000Y-136952000D01*
X147239000Y-138095000D02*
X149906000Y-138095000D01*
X146096000Y-133396000D02*
X146096000Y-136952000D01*
X146318000Y-133174000D02*
X146096000Y-133396000D01*
X172798000Y-125300000D02*
X177370000Y-125300000D01*
X172544000Y-125046000D02*
X172798000Y-125300000D01*
X181500000Y-122000000D02*
X181500000Y-127000000D01*
X137000000Y-117000000D02*
X137000000Y-126500000D01*
X137000000Y-126500000D02*
X136500000Y-127000000D01*
X164000000Y-122000000D02*
X164000000Y-121836000D01*
X164000000Y-121836000D02*
X161876000Y-119712000D01*
X161876000Y-119712000D02*
X156542000Y-119712000D01*
X156542000Y-119712000D02*
X155526000Y-118696000D01*
X155526000Y-118696000D02*
X155526000Y-116918000D01*
X160606000Y-109298000D02*
X160606000Y-111076000D01*
X155526000Y-114378000D02*
X155526000Y-116918000D01*
X156796000Y-113108000D02*
X155526000Y-114378000D01*
X158574000Y-113108000D02*
X156796000Y-113108000D01*
X160606000Y-111076000D02*
X158574000Y-113108000D01*
D24*
X160500000Y-122000000D02*
X160500000Y-124834000D01*
X156764000Y-128570000D02*
X151684000Y-128570000D01*
X160500000Y-124834000D02*
X156764000Y-128570000D01*
X150668000Y-131110000D02*
X151208000Y-131650000D01*
X145842000Y-131110000D02*
X150668000Y-131110000D01*
X151208000Y-131650000D02*
X151716000Y-131650000D01*
X154986000Y-138095000D02*
X154986000Y-136190000D01*
X154986000Y-136190000D02*
X156556000Y-134620000D01*
X156556000Y-134620000D02*
X157382000Y-134620000D01*
X157382000Y-134620000D02*
X181500000Y-134620000D01*
X152700000Y-98090000D02*
X151176000Y-98090000D01*
D23*
X146096000Y-98090000D02*
X146096000Y-100596000D01*
X146096000Y-100596000D02*
X146500000Y-101000000D01*
D24*
X166160000Y-90380000D02*
X166160000Y-91738000D01*
X162384000Y-100116000D02*
X161500000Y-101000000D01*
X162384000Y-95514000D02*
X162384000Y-100116000D01*
X166160000Y-91738000D02*
X162384000Y-95514000D01*
D23*
X165500000Y-102500000D02*
X171214000Y-102500000D01*
X179804000Y-104620000D02*
X181500000Y-104620000D01*
X178640000Y-103456000D02*
X179804000Y-104620000D01*
X178640000Y-102440000D02*
X178640000Y-103456000D01*
X176608000Y-100408000D02*
X178640000Y-102440000D01*
X173306000Y-100408000D02*
X176608000Y-100408000D01*
X171214000Y-102500000D02*
X173306000Y-100408000D01*
D24*
X155610000Y-101000000D02*
X161500000Y-101000000D01*
X152610000Y-98000000D02*
X152700000Y-98090000D01*
X152700000Y-98090000D02*
X155610000Y-101000000D01*
D23*
X146500000Y-101114998D02*
X146500000Y-101000000D01*
X136500000Y-107160000D02*
X136500000Y-104620000D01*
X181500000Y-107160000D02*
X181500000Y-111840000D01*
X181500000Y-104620000D02*
X181500000Y-107160000D01*
D24*
X181500000Y-134620000D02*
X182528000Y-134620000D01*
X182528000Y-134620000D02*
X182958000Y-134190000D01*
X182958000Y-134190000D02*
X182958000Y-113298000D01*
X182958000Y-113298000D02*
X181500000Y-111840000D01*
D23*
X136500000Y-107160000D02*
X136500000Y-111500000D01*
X136500000Y-111500000D02*
X137000000Y-112000000D01*
D24*
X156400000Y-104400000D02*
X161042000Y-104400000D01*
X161500000Y-104858000D02*
X161500000Y-106000000D01*
X161042000Y-104400000D02*
X161500000Y-104858000D01*
X156400000Y-104400000D02*
X156400000Y-104614000D01*
X156400000Y-104614000D02*
X155526000Y-105488000D01*
X155526000Y-105488000D02*
X155526000Y-109298000D01*
X151600000Y-104400000D02*
X151898000Y-104400000D01*
X151898000Y-104400000D02*
X152986000Y-105488000D01*
X152986000Y-105488000D02*
X152986000Y-109298000D01*
X136500000Y-129540000D02*
X158242000Y-129540000D01*
X159336000Y-130634000D02*
X159336000Y-131650000D01*
X158242000Y-129540000D02*
X159336000Y-130634000D01*
X175846000Y-116918000D02*
X175846000Y-119204000D01*
X180340000Y-129540000D02*
X181500000Y-129540000D01*
X179402000Y-128602000D02*
X180340000Y-129540000D01*
X179402000Y-122760000D02*
X179402000Y-128602000D01*
X175846000Y-119204000D02*
X179402000Y-122760000D01*
X136500000Y-132080000D02*
X137668000Y-132080000D01*
X156796000Y-130634000D02*
X156796000Y-131650000D01*
X156288000Y-130126000D02*
X156796000Y-130634000D01*
X139622000Y-130126000D02*
X156288000Y-130126000D01*
X137668000Y-132080000D02*
X139622000Y-130126000D01*
X156796000Y-131650000D02*
X156796000Y-132920000D01*
X179832000Y-132744000D02*
X179832000Y-132080000D01*
X178894000Y-133682000D02*
X179832000Y-132744000D01*
X157558000Y-133682000D02*
X178894000Y-133682000D01*
X156796000Y-132920000D02*
X157558000Y-133682000D01*
X173306000Y-116918000D02*
X173306000Y-118696000D01*
X179832000Y-132080000D02*
X181500000Y-132080000D01*
X178894000Y-131142000D02*
X179832000Y-132080000D01*
X178894000Y-123268000D02*
X178894000Y-131142000D01*
X175846000Y-120220000D02*
X178894000Y-123268000D01*
X174830000Y-120220000D02*
X175846000Y-120220000D01*
X173306000Y-118696000D02*
X174830000Y-120220000D01*
X181500000Y-119460000D02*
X180166000Y-119460000D01*
X170766000Y-110822000D02*
X170766000Y-109298000D01*
X172036000Y-112092000D02*
X170766000Y-110822000D01*
X177624000Y-112092000D02*
X172036000Y-112092000D01*
X178386000Y-112854000D02*
X177624000Y-112092000D01*
X178386000Y-117680000D02*
X178386000Y-112854000D01*
X180166000Y-119460000D02*
X178386000Y-117680000D01*
X181500000Y-116920000D02*
X180166000Y-116920000D01*
X173306000Y-110822000D02*
X173306000Y-109298000D01*
X174068000Y-111584000D02*
X173306000Y-110822000D01*
X177878000Y-111584000D02*
X174068000Y-111584000D01*
X178894000Y-112600000D02*
X177878000Y-111584000D01*
X178894000Y-115648000D02*
X178894000Y-112600000D01*
X180166000Y-116920000D02*
X178894000Y-115648000D01*
X152446000Y-136952000D02*
X152446000Y-138095000D01*
X151938000Y-136444000D02*
X152446000Y-136952000D01*
X148636000Y-136444000D02*
X151938000Y-136444000D01*
X147874000Y-135682000D02*
X148636000Y-136444000D01*
X163146000Y-116918000D02*
X163146000Y-118442000D01*
X165686000Y-120982000D02*
X165686000Y-132158000D01*
X163146000Y-118442000D02*
X165686000Y-120982000D01*
X165686000Y-116918000D02*
X165686000Y-119712000D01*
X166448000Y-120474000D02*
X166448000Y-131650000D01*
X165686000Y-119712000D02*
X166448000Y-120474000D01*
X168226000Y-116918000D02*
X168226000Y-132158000D01*
X170766000Y-116918000D02*
X170766000Y-132158000D01*
D23*
X136500000Y-97000000D02*
X136500000Y-99540000D01*
X181500000Y-97000000D02*
X181500000Y-99540000D01*
D24*
X143556000Y-98090000D02*
X143556000Y-99106000D01*
X140034000Y-122000000D02*
X139778000Y-121744000D01*
X139778000Y-121744000D02*
X139778000Y-101170000D01*
X140034000Y-122000000D02*
X141000000Y-122000000D01*
X140826000Y-100122000D02*
X139778000Y-101170000D01*
X142540000Y-100122000D02*
X140826000Y-100122000D01*
X143556000Y-99106000D02*
X142540000Y-100122000D01*
X142826000Y-116918000D02*
X142826000Y-118442000D01*
X146384000Y-122000000D02*
X151160000Y-122000000D01*
X142826000Y-118442000D02*
X146384000Y-122000000D01*
X152986000Y-124538000D02*
X152986000Y-125300000D01*
X145366000Y-118442000D02*
X147398000Y-120474000D01*
X147398000Y-120474000D02*
X151970000Y-120474000D01*
X151970000Y-120474000D02*
X152986000Y-121490000D01*
X152986000Y-121490000D02*
X152986000Y-124538000D01*
X145366000Y-116918000D02*
X145366000Y-118442000D01*
X152286000Y-126000000D02*
X151160000Y-126000000D01*
X152986000Y-125300000D02*
X152286000Y-126000000D01*
X147906000Y-109298000D02*
X147906000Y-105488000D01*
X167718000Y-100154000D02*
X164416000Y-100154000D01*
X164416000Y-100154000D02*
X163146000Y-101424000D01*
X163146000Y-101424000D02*
X163146000Y-102440000D01*
X163146000Y-102440000D02*
X162638000Y-102948000D01*
X162638000Y-102948000D02*
X150446000Y-102948000D01*
X150446000Y-102948000D02*
X149938000Y-103456000D01*
X167718000Y-100154000D02*
X168700000Y-99172000D01*
X147906000Y-105488000D02*
X149938000Y-103456000D01*
X168700000Y-98000000D02*
X168700000Y-99172000D01*
X149176000Y-102440000D02*
X149684000Y-102440000D01*
X149176000Y-102440000D02*
X145366000Y-102440000D01*
X145366000Y-102440000D02*
X143334000Y-104472000D01*
X143334000Y-104472000D02*
X143334000Y-105742000D01*
X143334000Y-105742000D02*
X145366000Y-107774000D01*
X145366000Y-109298000D02*
X145366000Y-107774000D01*
X149684000Y-102440000D02*
X152478000Y-99646000D01*
D22*
X150160000Y-81834000D02*
X150160000Y-80310000D01*
X150414000Y-82088000D02*
X150160000Y-81834000D01*
X151938000Y-82088000D02*
X150414000Y-82088000D01*
X153462000Y-83612000D02*
X151938000Y-82088000D01*
X155240000Y-87676000D02*
X156764000Y-86152000D01*
X158540000Y-95806000D02*
X155490000Y-92756000D01*
X155490000Y-92756000D02*
X154986000Y-92756000D01*
X154986000Y-92756000D02*
X154224000Y-91994000D01*
X154224000Y-91994000D02*
X154224000Y-88692000D01*
X154224000Y-88692000D02*
X155240000Y-87676000D01*
X158540000Y-98000000D02*
X158540000Y-95806000D01*
X156764000Y-83358000D02*
X157018000Y-83104000D01*
X156764000Y-86152000D02*
X156764000Y-83358000D01*
X154732000Y-85390000D02*
X155240000Y-84882000D01*
X150922000Y-86660000D02*
X151938000Y-85644000D01*
X151938000Y-85644000D02*
X154224000Y-85644000D01*
X156000000Y-98000000D02*
X156000000Y-95802000D01*
X152954000Y-89962000D02*
X150922000Y-87930000D01*
X152954000Y-92756000D02*
X152954000Y-89962000D01*
X156000000Y-95802000D02*
X152954000Y-92756000D01*
X150922000Y-87930000D02*
X150922000Y-86660000D01*
X154478000Y-85644000D02*
X154732000Y-85390000D01*
X154224000Y-85644000D02*
X154478000Y-85644000D01*
X155240000Y-84882000D02*
X155240000Y-80310000D01*
X171240000Y-90380000D02*
X171240000Y-87928000D01*
X157780000Y-81580000D02*
X157780000Y-80310000D01*
X158542000Y-82342000D02*
X157780000Y-81580000D01*
X164892000Y-82342000D02*
X158542000Y-82342000D01*
X169464000Y-86914000D02*
X164892000Y-82342000D01*
X170226000Y-86914000D02*
X169464000Y-86914000D01*
X171240000Y-87928000D02*
X170226000Y-86914000D01*
X168700000Y-90380000D02*
X168700000Y-88690000D01*
X163876000Y-83866000D02*
X160828000Y-83866000D01*
X168700000Y-88690000D02*
X163876000Y-83866000D01*
X161080000Y-90380000D02*
X161080000Y-85900000D01*
X161080000Y-85900000D02*
X161082000Y-85898000D01*
X163620000Y-90380000D02*
X163620000Y-85900000D01*
X163620000Y-85900000D02*
X163622000Y-85898000D01*
X173780000Y-90380000D02*
X173780000Y-86912000D01*
X167940000Y-83104000D02*
X167940000Y-80310000D01*
X170226000Y-85390000D02*
X167940000Y-83104000D01*
X172258000Y-85390000D02*
X170226000Y-85390000D01*
X173780000Y-86912000D02*
X172258000Y-85390000D01*
X173780000Y-98000000D02*
X173780000Y-95044000D01*
X170480000Y-82596000D02*
X170480000Y-80310000D01*
X171750000Y-83866000D02*
X170480000Y-82596000D01*
X173782000Y-83866000D02*
X171750000Y-83866000D01*
X176322000Y-86406000D02*
X173782000Y-83866000D01*
X176322000Y-92502000D02*
X176322000Y-86406000D01*
X173780000Y-95044000D02*
X176322000Y-92502000D01*
X173020000Y-72436000D02*
X172512000Y-71928000D01*
X167178000Y-71928000D02*
X164576000Y-66868000D01*
X172512000Y-71928000D02*
X167178000Y-71928000D01*
X173020000Y-72436000D02*
X173020000Y-74214000D01*
X169464000Y-65324000D02*
X169464000Y-62626000D01*
X168702000Y-67610000D02*
X169464000Y-65324000D01*
X168702000Y-69896000D02*
X168702000Y-67610000D01*
X169306000Y-62626000D02*
X169464000Y-62626000D01*
X169464000Y-62626000D02*
X176750000Y-62626000D01*
X167178000Y-60498000D02*
X169306000Y-62626000D01*
X164384000Y-60498000D02*
X167178000Y-60498000D01*
X164130000Y-60244000D02*
X164384000Y-60498000D01*
X161826000Y-61372000D02*
X164130000Y-60244000D01*
X161826000Y-61118000D02*
X161826000Y-61372000D01*
X175326000Y-56702000D02*
X176750000Y-58126000D01*
X175326000Y-56118000D02*
X175326000Y-56702000D01*
X173826000Y-54618000D02*
X175326000Y-56118000D01*
X169576000Y-54618000D02*
X173826000Y-54618000D01*
X161826000Y-65868000D02*
X161844000Y-63800000D01*
X161844000Y-63800000D02*
X160066000Y-62022000D01*
X160066000Y-62022000D02*
X160066000Y-57450000D01*
X160066000Y-57450000D02*
X161844000Y-55672000D01*
X161844000Y-55672000D02*
X161844000Y-53894000D01*
X161844000Y-72944000D02*
X161844000Y-70404000D01*
X161844000Y-70404000D02*
X161826000Y-65868000D01*
X162860000Y-74214000D02*
X161844000Y-72944000D01*
X161844000Y-53894000D02*
X162098000Y-53640000D01*
X169210000Y-52370000D02*
X172766000Y-52370000D01*
X172766000Y-52370000D02*
X176750000Y-53626000D01*
X167178000Y-55926000D02*
X169210000Y-52370000D01*
X164384000Y-55926000D02*
X167178000Y-55926000D01*
X162098000Y-53640000D02*
X164384000Y-55926000D01*
X160320000Y-74214000D02*
X160326000Y-64618000D01*
X160326000Y-64618000D02*
X158576000Y-62868000D01*
X158576000Y-62868000D02*
X158542000Y-56688000D01*
X158542000Y-56688000D02*
X160320000Y-54910000D01*
X160320000Y-54910000D02*
X160320000Y-51100000D01*
X160320000Y-51100000D02*
X162860000Y-48560000D01*
X151000000Y-50126000D02*
X153166000Y-50126000D01*
X154732000Y-48560000D02*
X162860000Y-48560000D01*
X162860000Y-48560000D02*
X164384000Y-48560000D01*
X153166000Y-50126000D02*
X154732000Y-48560000D01*
X157780000Y-71166000D02*
X158796000Y-70150000D01*
X158796000Y-70150000D02*
X158826000Y-65618000D01*
X157780000Y-74214000D02*
X157780000Y-71166000D01*
X147000000Y-49126000D02*
X147000000Y-47656000D01*
X171000000Y-47810000D02*
X171000000Y-49126000D01*
X170226000Y-47036000D02*
X171000000Y-47810000D01*
X147620000Y-47036000D02*
X170226000Y-47036000D01*
X147000000Y-47656000D02*
X147620000Y-47036000D01*
X155240000Y-72436000D02*
X155240000Y-51608000D01*
X141250000Y-53626000D02*
X148368000Y-53626000D01*
X148368000Y-53626000D02*
X150668000Y-55926000D01*
X148890000Y-65578000D02*
X148890000Y-64816000D01*
X152700000Y-74214000D02*
X152700000Y-72436000D01*
X149144000Y-68880000D02*
X149144000Y-67610000D01*
X152700000Y-72436000D02*
X149144000Y-68880000D01*
X148890000Y-65578000D02*
X149144000Y-67610000D01*
X143556000Y-54656000D02*
X142526000Y-53626000D01*
X143556000Y-61260000D02*
X143556000Y-54656000D01*
X145080000Y-62784000D02*
X143556000Y-61260000D01*
X146858000Y-62784000D02*
X145080000Y-62784000D01*
X148890000Y-64816000D02*
X146858000Y-62784000D01*
X142526000Y-53626000D02*
X141250000Y-53626000D01*
X150160000Y-74214000D02*
X150160000Y-72944000D01*
X148636000Y-71420000D02*
X145842000Y-71420000D01*
X150160000Y-72944000D02*
X148636000Y-71420000D01*
X165250000Y-62626000D02*
X163326000Y-64618000D01*
X163326000Y-70368000D02*
X163326000Y-67868000D01*
X163326000Y-67868000D02*
X163326000Y-64618000D01*
X145080000Y-74214000D02*
X145080000Y-72944000D01*
X143000000Y-70864000D02*
X143000000Y-66126000D01*
X145080000Y-72944000D02*
X143000000Y-70864000D01*
M02*
