G04 #@! TF.FileFunction,Copper,L2,Bot,Signal*
%FSLAX46Y46*%
G04 Gerber Fmt 4.6, Leading zero omitted, Abs format (unit mm)*
G04 Created by KiCad (PCBNEW 4.0.7) date 10/23/17 00:13:22*
%MOMM*%
%LPD*%
G01*
G04 APERTURE LIST*
%ADD10C,0.100000*%
%ADD11R,1.600000X1.600000*%
%ADD12O,1.600000X1.600000*%
%ADD13C,1.600000*%
%ADD14R,1.700000X1.700000*%
%ADD15O,1.700000X1.700000*%
%ADD16R,1.600000X2.400000*%
%ADD17O,1.600000X2.400000*%
%ADD18C,2.600000*%
%ADD19O,20.000000X2.000000*%
%ADD20O,4.000000X2.000000*%
%ADD21C,0.600000*%
%ADD22C,2.000000*%
%ADD23C,1.000000*%
%ADD24C,0.250000*%
G04 APERTURE END LIST*
D10*
D11*
X166924000Y-99868000D03*
D12*
X174544000Y-92248000D03*
X169464000Y-99868000D03*
X172004000Y-92248000D03*
X172004000Y-99868000D03*
X169464000Y-92248000D03*
X174544000Y-99868000D03*
X166924000Y-92248000D03*
D13*
X188868000Y-106778000D03*
X188868000Y-104278000D03*
X199368000Y-104778000D03*
X199368000Y-107278000D03*
X160368000Y-118778000D03*
X160368000Y-113778000D03*
X181368000Y-123778000D03*
X183868000Y-123778000D03*
X184868000Y-102778000D03*
X184868000Y-107778000D03*
X169868000Y-102778000D03*
X169868000Y-107778000D03*
D14*
X204868000Y-128778000D03*
D15*
X204868000Y-131318000D03*
X204868000Y-133858000D03*
X204868000Y-136398000D03*
D14*
X204868000Y-123778000D03*
D15*
X204868000Y-121238000D03*
X204868000Y-118698000D03*
X204868000Y-116158000D03*
X204868000Y-113618000D03*
D14*
X159868000Y-128778000D03*
D15*
X159868000Y-131318000D03*
X159868000Y-133858000D03*
X159868000Y-136398000D03*
D14*
X173274000Y-142413000D03*
D15*
X173274000Y-139873000D03*
X175814000Y-142413000D03*
X175814000Y-139873000D03*
X178354000Y-142413000D03*
X178354000Y-139873000D03*
D14*
X187368000Y-140778000D03*
D15*
X189908000Y-140778000D03*
X192448000Y-140778000D03*
X194988000Y-140778000D03*
D14*
X204868000Y-98778000D03*
D15*
X204868000Y-101318000D03*
X204868000Y-103858000D03*
X204868000Y-106398000D03*
X204868000Y-108938000D03*
D14*
X159868000Y-98778000D03*
D15*
X159868000Y-101318000D03*
X159868000Y-103858000D03*
X159868000Y-106398000D03*
X159868000Y-108938000D03*
D13*
X187368000Y-123778000D03*
D12*
X197528000Y-123778000D03*
D13*
X164368000Y-123778000D03*
D12*
X174528000Y-123778000D03*
D13*
X174798000Y-85898000D03*
D12*
X164638000Y-85898000D03*
D13*
X164368000Y-127778000D03*
D12*
X174528000Y-127778000D03*
D13*
X176322000Y-89200000D03*
D12*
X166162000Y-89200000D03*
D16*
X199214000Y-111076000D03*
D17*
X166194000Y-118696000D03*
X196674000Y-111076000D03*
X168734000Y-118696000D03*
X194134000Y-111076000D03*
X171274000Y-118696000D03*
X191594000Y-111076000D03*
X173814000Y-118696000D03*
X189054000Y-111076000D03*
X176354000Y-118696000D03*
X186514000Y-111076000D03*
X178894000Y-118696000D03*
X183974000Y-111076000D03*
X181434000Y-118696000D03*
X181434000Y-111076000D03*
X183974000Y-118696000D03*
X178894000Y-111076000D03*
X186514000Y-118696000D03*
X176354000Y-111076000D03*
X189054000Y-118696000D03*
X173814000Y-111076000D03*
X191594000Y-118696000D03*
X171274000Y-111076000D03*
X194134000Y-118696000D03*
X168734000Y-111076000D03*
X196674000Y-118696000D03*
X166194000Y-111076000D03*
X199214000Y-118696000D03*
D16*
X179368000Y-99778000D03*
D17*
X197148000Y-92158000D03*
X181908000Y-99778000D03*
X194608000Y-92158000D03*
X184448000Y-99778000D03*
X192068000Y-92158000D03*
X186988000Y-99778000D03*
X189528000Y-92158000D03*
X189528000Y-99778000D03*
X186988000Y-92158000D03*
X192068000Y-99778000D03*
X184448000Y-92158000D03*
X194608000Y-99778000D03*
X181908000Y-92158000D03*
X197148000Y-99778000D03*
X179368000Y-92158000D03*
D18*
X170368000Y-68904000D03*
X166368000Y-67904000D03*
X164618000Y-64404000D03*
X164618000Y-59904000D03*
X164618000Y-55404000D03*
X166368000Y-51904000D03*
X170368000Y-50904000D03*
X174368000Y-51904000D03*
X176118000Y-55404000D03*
X176118000Y-59904000D03*
X176118000Y-64404000D03*
X174368000Y-67904000D03*
X194368000Y-68904000D03*
X190368000Y-67904000D03*
X188618000Y-64404000D03*
X188618000Y-59904000D03*
X188618000Y-55404000D03*
X190368000Y-51904000D03*
X194368000Y-50904000D03*
X198368000Y-51904000D03*
X200118000Y-55404000D03*
X200118000Y-59904000D03*
X200118000Y-64404000D03*
X198368000Y-67904000D03*
D13*
X174968000Y-106178000D03*
X179768000Y-106178000D03*
D14*
X185244000Y-133428000D03*
D15*
X182704000Y-133428000D03*
X180164000Y-133428000D03*
X177624000Y-133428000D03*
X175084000Y-133428000D03*
D14*
X168448000Y-82088000D03*
D15*
X170988000Y-82088000D03*
X173528000Y-82088000D03*
X176068000Y-82088000D03*
X178608000Y-82088000D03*
X181148000Y-82088000D03*
X183688000Y-82088000D03*
X186228000Y-82088000D03*
X188768000Y-82088000D03*
X191308000Y-82088000D03*
X193848000Y-82088000D03*
X196388000Y-82088000D03*
D14*
X196388000Y-75992000D03*
D15*
X193848000Y-75992000D03*
X191308000Y-75992000D03*
X188768000Y-75992000D03*
X186228000Y-75992000D03*
X183688000Y-75992000D03*
X181148000Y-75992000D03*
X178608000Y-75992000D03*
X176068000Y-75992000D03*
X173528000Y-75992000D03*
X170988000Y-75992000D03*
X168448000Y-75992000D03*
D19*
X168956000Y-79040000D03*
X195372000Y-79040000D03*
D20*
X182164000Y-79040000D03*
D11*
X117902000Y-99868000D03*
D12*
X125522000Y-92248000D03*
X120442000Y-99868000D03*
X122982000Y-92248000D03*
X122982000Y-99868000D03*
X120442000Y-92248000D03*
X125522000Y-99868000D03*
X117902000Y-92248000D03*
D13*
X139846000Y-106778000D03*
X139846000Y-104278000D03*
X150346000Y-104778000D03*
X150346000Y-107278000D03*
X111346000Y-118778000D03*
X111346000Y-113778000D03*
X132346000Y-123778000D03*
X134846000Y-123778000D03*
X135846000Y-102778000D03*
X135846000Y-107778000D03*
X120846000Y-102778000D03*
X120846000Y-107778000D03*
D14*
X155846000Y-128778000D03*
D15*
X155846000Y-131318000D03*
X155846000Y-133858000D03*
X155846000Y-136398000D03*
D14*
X155846000Y-123778000D03*
D15*
X155846000Y-121238000D03*
X155846000Y-118698000D03*
X155846000Y-116158000D03*
X155846000Y-113618000D03*
D14*
X110846000Y-128778000D03*
D15*
X110846000Y-131318000D03*
X110846000Y-133858000D03*
X110846000Y-136398000D03*
D14*
X124252000Y-142413000D03*
D15*
X124252000Y-139873000D03*
X126792000Y-142413000D03*
X126792000Y-139873000D03*
X129332000Y-142413000D03*
X129332000Y-139873000D03*
D14*
X138346000Y-140778000D03*
D15*
X140886000Y-140778000D03*
X143426000Y-140778000D03*
X145966000Y-140778000D03*
D14*
X155846000Y-98778000D03*
D15*
X155846000Y-101318000D03*
X155846000Y-103858000D03*
X155846000Y-106398000D03*
X155846000Y-108938000D03*
D14*
X110846000Y-98778000D03*
D15*
X110846000Y-101318000D03*
X110846000Y-103858000D03*
X110846000Y-106398000D03*
X110846000Y-108938000D03*
D13*
X138346000Y-123778000D03*
D12*
X148506000Y-123778000D03*
D13*
X115346000Y-123778000D03*
D12*
X125506000Y-123778000D03*
D13*
X125776000Y-85898000D03*
D12*
X115616000Y-85898000D03*
D13*
X115346000Y-127778000D03*
D12*
X125506000Y-127778000D03*
D13*
X127300000Y-89200000D03*
D12*
X117140000Y-89200000D03*
D16*
X150192000Y-111076000D03*
D17*
X117172000Y-118696000D03*
X147652000Y-111076000D03*
X119712000Y-118696000D03*
X145112000Y-111076000D03*
X122252000Y-118696000D03*
X142572000Y-111076000D03*
X124792000Y-118696000D03*
X140032000Y-111076000D03*
X127332000Y-118696000D03*
X137492000Y-111076000D03*
X129872000Y-118696000D03*
X134952000Y-111076000D03*
X132412000Y-118696000D03*
X132412000Y-111076000D03*
X134952000Y-118696000D03*
X129872000Y-111076000D03*
X137492000Y-118696000D03*
X127332000Y-111076000D03*
X140032000Y-118696000D03*
X124792000Y-111076000D03*
X142572000Y-118696000D03*
X122252000Y-111076000D03*
X145112000Y-118696000D03*
X119712000Y-111076000D03*
X147652000Y-118696000D03*
X117172000Y-111076000D03*
X150192000Y-118696000D03*
D16*
X130346000Y-99778000D03*
D17*
X148126000Y-92158000D03*
X132886000Y-99778000D03*
X145586000Y-92158000D03*
X135426000Y-99778000D03*
X143046000Y-92158000D03*
X137966000Y-99778000D03*
X140506000Y-92158000D03*
X140506000Y-99778000D03*
X137966000Y-92158000D03*
X143046000Y-99778000D03*
X135426000Y-92158000D03*
X145586000Y-99778000D03*
X132886000Y-92158000D03*
X148126000Y-99778000D03*
X130346000Y-92158000D03*
D18*
X121346000Y-68904000D03*
X117346000Y-67904000D03*
X115596000Y-64404000D03*
X115596000Y-59904000D03*
X115596000Y-55404000D03*
X117346000Y-51904000D03*
X121346000Y-50904000D03*
X125346000Y-51904000D03*
X127096000Y-55404000D03*
X127096000Y-59904000D03*
X127096000Y-64404000D03*
X125346000Y-67904000D03*
X145346000Y-68904000D03*
X141346000Y-67904000D03*
X139596000Y-64404000D03*
X139596000Y-59904000D03*
X139596000Y-55404000D03*
X141346000Y-51904000D03*
X145346000Y-50904000D03*
X149346000Y-51904000D03*
X151096000Y-55404000D03*
X151096000Y-59904000D03*
X151096000Y-64404000D03*
X149346000Y-67904000D03*
D13*
X125946000Y-106178000D03*
X130746000Y-106178000D03*
D14*
X136222000Y-133428000D03*
D15*
X133682000Y-133428000D03*
X131142000Y-133428000D03*
X128602000Y-133428000D03*
X126062000Y-133428000D03*
D14*
X119426000Y-82088000D03*
D15*
X121966000Y-82088000D03*
X124506000Y-82088000D03*
X127046000Y-82088000D03*
X129586000Y-82088000D03*
X132126000Y-82088000D03*
X134666000Y-82088000D03*
X137206000Y-82088000D03*
X139746000Y-82088000D03*
X142286000Y-82088000D03*
X144826000Y-82088000D03*
X147366000Y-82088000D03*
D14*
X147366000Y-75992000D03*
D15*
X144826000Y-75992000D03*
X142286000Y-75992000D03*
X139746000Y-75992000D03*
X137206000Y-75992000D03*
X134666000Y-75992000D03*
X132126000Y-75992000D03*
X129586000Y-75992000D03*
X127046000Y-75992000D03*
X124506000Y-75992000D03*
X121966000Y-75992000D03*
X119426000Y-75992000D03*
D19*
X119934000Y-79040000D03*
X146350000Y-79040000D03*
D20*
X133142000Y-79040000D03*
D21*
X163146000Y-134858000D03*
X200738000Y-127078000D03*
X195912000Y-126824000D03*
X114124000Y-134858000D03*
X151716000Y-127078000D03*
X146890000Y-126824000D03*
X175052000Y-130348000D03*
X169210000Y-132888000D03*
X126030000Y-130348000D03*
X120188000Y-132888000D03*
X171242000Y-137460000D03*
X122220000Y-137460000D03*
X189054000Y-133936000D03*
X140032000Y-133936000D03*
X189816000Y-133428000D03*
X140794000Y-133428000D03*
X191594000Y-133936000D03*
X142572000Y-133936000D03*
X194134000Y-133936000D03*
X145112000Y-133936000D03*
X175846000Y-101424000D03*
X126824000Y-101424000D03*
X176830000Y-85390000D03*
X127808000Y-85390000D03*
X180386000Y-84882000D03*
X131364000Y-84882000D03*
X184196000Y-85644000D03*
X135174000Y-85644000D03*
X184450000Y-87676000D03*
X135428000Y-87676000D03*
X186990000Y-87676000D03*
X137968000Y-87676000D03*
X187944000Y-68646000D03*
X138922000Y-68646000D03*
X192070000Y-71674000D03*
X185194000Y-62896000D03*
X143048000Y-71674000D03*
X136172000Y-62896000D03*
X192944000Y-56396000D03*
X143922000Y-56396000D03*
X185466000Y-55418000D03*
X136444000Y-55418000D03*
X187752000Y-50338000D03*
X138730000Y-50338000D03*
X182194000Y-67396000D03*
X133172000Y-67396000D03*
X178608000Y-74214000D03*
X178608000Y-53386000D03*
X129586000Y-74214000D03*
X129586000Y-53386000D03*
X174036000Y-57704000D03*
X125014000Y-57704000D03*
X169210000Y-73198000D03*
X120188000Y-73198000D03*
X186694000Y-72146000D03*
X137672000Y-72146000D03*
D22*
X163146000Y-134858000D02*
X163146000Y-130634000D01*
X163146000Y-130634000D02*
X161290000Y-128778000D01*
X159868000Y-128778000D02*
X161290000Y-128778000D01*
X188868000Y-106778000D02*
X191066000Y-106778000D01*
X189528000Y-101136000D02*
X189528000Y-99778000D01*
X192102000Y-103710000D02*
X189528000Y-101136000D01*
X192102000Y-105742000D02*
X192102000Y-103710000D01*
X191066000Y-106778000D02*
X192102000Y-105742000D01*
X187368000Y-123778000D02*
X192866000Y-123778000D01*
X200738000Y-127078000D02*
X204038000Y-123778000D01*
X192866000Y-123778000D02*
X195912000Y-126824000D01*
X204038000Y-123778000D02*
X204868000Y-123778000D01*
X178894000Y-118696000D02*
X178894000Y-120220000D01*
X177624000Y-130380000D02*
X177624000Y-133428000D01*
X178132000Y-129872000D02*
X177624000Y-130380000D01*
X178132000Y-120982000D02*
X178132000Y-129872000D01*
X178894000Y-120220000D02*
X178132000Y-120982000D01*
X114124000Y-134858000D02*
X114124000Y-130634000D01*
X114124000Y-130634000D02*
X112268000Y-128778000D01*
X110846000Y-128778000D02*
X112268000Y-128778000D01*
X139846000Y-106778000D02*
X142044000Y-106778000D01*
X140506000Y-101136000D02*
X140506000Y-99778000D01*
X143080000Y-103710000D02*
X140506000Y-101136000D01*
X143080000Y-105742000D02*
X143080000Y-103710000D01*
X142044000Y-106778000D02*
X143080000Y-105742000D01*
X138346000Y-123778000D02*
X143844000Y-123778000D01*
X151716000Y-127078000D02*
X155016000Y-123778000D01*
X143844000Y-123778000D02*
X146890000Y-126824000D01*
X155016000Y-123778000D02*
X155846000Y-123778000D01*
X129872000Y-118696000D02*
X129872000Y-120220000D01*
X128602000Y-130380000D02*
X128602000Y-133428000D01*
X129110000Y-129872000D02*
X128602000Y-130380000D01*
X129110000Y-120982000D02*
X129110000Y-129872000D01*
X129872000Y-120220000D02*
X129110000Y-120982000D01*
D23*
X175084000Y-133428000D02*
X175084000Y-130380000D01*
X175084000Y-130380000D02*
X175052000Y-130348000D01*
D24*
X175052000Y-130348000D02*
X175084000Y-130380000D01*
X175084000Y-133428000D02*
X175084000Y-134634000D01*
X175084000Y-134634000D02*
X178354000Y-137904000D01*
X178354000Y-137904000D02*
X178354000Y-139873000D01*
X159868000Y-136398000D02*
X165700000Y-136398000D01*
X165700000Y-136398000D02*
X169210000Y-132888000D01*
X169464000Y-99868000D02*
X169464000Y-98852000D01*
X160902000Y-106398000D02*
X159868000Y-106398000D01*
X161590000Y-105710000D02*
X160902000Y-106398000D01*
X161590000Y-102154000D02*
X161590000Y-105710000D01*
X165654000Y-98090000D02*
X161590000Y-102154000D01*
X168702000Y-98090000D02*
X165654000Y-98090000D01*
X169464000Y-98852000D02*
X168702000Y-98090000D01*
D23*
X174544000Y-99868000D02*
X174544000Y-100376000D01*
X174544000Y-100376000D02*
X172142000Y-102778000D01*
X172142000Y-102778000D02*
X169868000Y-102778000D01*
D22*
X184868000Y-102778000D02*
X187368000Y-102778000D01*
X187368000Y-102778000D02*
X188868000Y-104278000D01*
X184868000Y-102778000D02*
X184868000Y-104350000D01*
X184868000Y-104350000D02*
X181434000Y-107784000D01*
X181434000Y-107784000D02*
X181434000Y-111076000D01*
D23*
X183974000Y-118696000D02*
X183974000Y-123672000D01*
X183974000Y-123672000D02*
X183868000Y-123778000D01*
D22*
X181434000Y-111076000D02*
X181434000Y-113362000D01*
X183974000Y-115902000D02*
X183974000Y-118696000D01*
X181434000Y-113362000D02*
X183974000Y-115902000D01*
D23*
X126062000Y-133428000D02*
X126062000Y-130380000D01*
X126062000Y-130380000D02*
X126030000Y-130348000D01*
D24*
X126030000Y-130348000D02*
X126062000Y-130380000D01*
X126062000Y-133428000D02*
X126062000Y-134634000D01*
X126062000Y-134634000D02*
X129332000Y-137904000D01*
X129332000Y-137904000D02*
X129332000Y-139873000D01*
X110846000Y-136398000D02*
X116678000Y-136398000D01*
X116678000Y-136398000D02*
X120188000Y-132888000D01*
X120442000Y-99868000D02*
X120442000Y-98852000D01*
X111880000Y-106398000D02*
X110846000Y-106398000D01*
X112568000Y-105710000D02*
X111880000Y-106398000D01*
X112568000Y-102154000D02*
X112568000Y-105710000D01*
X116632000Y-98090000D02*
X112568000Y-102154000D01*
X119680000Y-98090000D02*
X116632000Y-98090000D01*
X120442000Y-98852000D02*
X119680000Y-98090000D01*
D23*
X125522000Y-99868000D02*
X125522000Y-100376000D01*
X125522000Y-100376000D02*
X123120000Y-102778000D01*
X123120000Y-102778000D02*
X120846000Y-102778000D01*
D22*
X135846000Y-102778000D02*
X138346000Y-102778000D01*
X138346000Y-102778000D02*
X139846000Y-104278000D01*
X135846000Y-102778000D02*
X135846000Y-104350000D01*
X135846000Y-104350000D02*
X132412000Y-107784000D01*
X132412000Y-107784000D02*
X132412000Y-111076000D01*
D23*
X134952000Y-118696000D02*
X134952000Y-123672000D01*
X134952000Y-123672000D02*
X134846000Y-123778000D01*
D22*
X132412000Y-111076000D02*
X132412000Y-113362000D01*
X134952000Y-115902000D02*
X134952000Y-118696000D01*
X132412000Y-113362000D02*
X134952000Y-115902000D01*
D24*
X204868000Y-116158000D02*
X203534000Y-116158000D01*
X200536000Y-104778000D02*
X199368000Y-104778000D01*
X202008000Y-106250000D02*
X200536000Y-104778000D01*
X202008000Y-114632000D02*
X202008000Y-106250000D01*
X203534000Y-116158000D02*
X202008000Y-114632000D01*
X155846000Y-116158000D02*
X154512000Y-116158000D01*
X151514000Y-104778000D02*
X150346000Y-104778000D01*
X152986000Y-106250000D02*
X151514000Y-104778000D01*
X152986000Y-114632000D02*
X152986000Y-106250000D01*
X154512000Y-116158000D02*
X152986000Y-114632000D01*
X181434000Y-131650000D02*
X181434000Y-141238000D01*
X181434000Y-131650000D02*
X183466000Y-129618000D01*
X183466000Y-129618000D02*
X195658000Y-129618000D01*
X195658000Y-129618000D02*
X197528000Y-127748000D01*
X197528000Y-123778000D02*
X197528000Y-127748000D01*
X180259000Y-142413000D02*
X178354000Y-142413000D01*
X181434000Y-141238000D02*
X180259000Y-142413000D01*
X199368000Y-107278000D02*
X199368000Y-110922000D01*
X199368000Y-110922000D02*
X199214000Y-111076000D01*
X197944000Y-115140000D02*
X197944000Y-114378000D01*
X197528000Y-122160000D02*
X197944000Y-121744000D01*
X197944000Y-121744000D02*
X197944000Y-115140000D01*
X197528000Y-123778000D02*
X197528000Y-122160000D01*
X199214000Y-113108000D02*
X199214000Y-111076000D01*
X197944000Y-114378000D02*
X199214000Y-113108000D01*
X132412000Y-131650000D02*
X132412000Y-141238000D01*
X132412000Y-131650000D02*
X134444000Y-129618000D01*
X134444000Y-129618000D02*
X146636000Y-129618000D01*
X146636000Y-129618000D02*
X148506000Y-127748000D01*
X148506000Y-123778000D02*
X148506000Y-127748000D01*
X131237000Y-142413000D02*
X129332000Y-142413000D01*
X132412000Y-141238000D02*
X131237000Y-142413000D01*
X150346000Y-107278000D02*
X150346000Y-110922000D01*
X150346000Y-110922000D02*
X150192000Y-111076000D01*
X148922000Y-115140000D02*
X148922000Y-114378000D01*
X148506000Y-122160000D02*
X148922000Y-121744000D01*
X148922000Y-121744000D02*
X148922000Y-115140000D01*
X148506000Y-123778000D02*
X148506000Y-122160000D01*
X150192000Y-113108000D02*
X150192000Y-111076000D01*
X148922000Y-114378000D02*
X150192000Y-113108000D01*
D23*
X181434000Y-118696000D02*
X181434000Y-123712000D01*
X181434000Y-123712000D02*
X181368000Y-123778000D01*
X132412000Y-118696000D02*
X132412000Y-123712000D01*
X132412000Y-123712000D02*
X132346000Y-123778000D01*
D24*
X174968000Y-106178000D02*
X170330000Y-106178000D01*
X169868000Y-106640000D02*
X169868000Y-107778000D01*
X170330000Y-106178000D02*
X169868000Y-106640000D01*
X125946000Y-106178000D02*
X121308000Y-106178000D01*
X120846000Y-106640000D02*
X120846000Y-107778000D01*
X121308000Y-106178000D02*
X120846000Y-106640000D01*
X182704000Y-133428000D02*
X182704000Y-131904000D01*
X202692000Y-131318000D02*
X204868000Y-131318000D01*
X202008000Y-130634000D02*
X202692000Y-131318000D01*
X183974000Y-130634000D02*
X202008000Y-130634000D01*
X182704000Y-131904000D02*
X183974000Y-130634000D01*
X133682000Y-133428000D02*
X133682000Y-131904000D01*
X153670000Y-131318000D02*
X155846000Y-131318000D01*
X152986000Y-130634000D02*
X153670000Y-131318000D01*
X134952000Y-130634000D02*
X152986000Y-130634000D01*
X133682000Y-131904000D02*
X134952000Y-130634000D01*
X171782000Y-134666000D02*
X171782000Y-136222000D01*
X174544000Y-141016000D02*
X173274000Y-142286000D01*
X174544000Y-138476000D02*
X174544000Y-141016000D01*
X174036000Y-137968000D02*
X174544000Y-138476000D01*
X173528000Y-137968000D02*
X174036000Y-137968000D01*
X171782000Y-136222000D02*
X173528000Y-137968000D01*
X173274000Y-142286000D02*
X173274000Y-142413000D01*
X171782000Y-122252000D02*
X171782000Y-134666000D01*
X171782000Y-134666000D02*
X171782000Y-134698000D01*
X173814000Y-120220000D02*
X173814000Y-118696000D01*
X173814000Y-120220000D02*
X171782000Y-122252000D01*
X122760000Y-134666000D02*
X122760000Y-136222000D01*
X125522000Y-141016000D02*
X124252000Y-142286000D01*
X125522000Y-138476000D02*
X125522000Y-141016000D01*
X125014000Y-137968000D02*
X125522000Y-138476000D01*
X124506000Y-137968000D02*
X125014000Y-137968000D01*
X122760000Y-136222000D02*
X124506000Y-137968000D01*
X124252000Y-142286000D02*
X124252000Y-142413000D01*
X122760000Y-122252000D02*
X122760000Y-134666000D01*
X122760000Y-134666000D02*
X122760000Y-134698000D01*
X124792000Y-120220000D02*
X124792000Y-118696000D01*
X124792000Y-120220000D02*
X122760000Y-122252000D01*
X172290000Y-135682000D02*
X172290000Y-135714000D01*
X172290000Y-135714000D02*
X173782000Y-137206000D01*
X177084000Y-141143000D02*
X175814000Y-142413000D01*
X177084000Y-138476000D02*
X177084000Y-141143000D01*
X175814000Y-137206000D02*
X177084000Y-138476000D01*
X173782000Y-137206000D02*
X175814000Y-137206000D01*
X172290000Y-122506000D02*
X172290000Y-135682000D01*
X173306000Y-121490000D02*
X172290000Y-122506000D01*
X175084000Y-121490000D02*
X173306000Y-121490000D01*
X176354000Y-118696000D02*
X176354000Y-120220000D01*
X176354000Y-120220000D02*
X175084000Y-121490000D01*
X123268000Y-135682000D02*
X123268000Y-135714000D01*
X123268000Y-135714000D02*
X124760000Y-137206000D01*
X128062000Y-141143000D02*
X126792000Y-142413000D01*
X128062000Y-138476000D02*
X128062000Y-141143000D01*
X126792000Y-137206000D02*
X128062000Y-138476000D01*
X124760000Y-137206000D02*
X126792000Y-137206000D01*
X123268000Y-122506000D02*
X123268000Y-135682000D01*
X124284000Y-121490000D02*
X123268000Y-122506000D01*
X126062000Y-121490000D02*
X124284000Y-121490000D01*
X127332000Y-118696000D02*
X127332000Y-120220000D01*
X127332000Y-120220000D02*
X126062000Y-121490000D01*
X171274000Y-134158000D02*
X171274000Y-137428000D01*
X171274000Y-137428000D02*
X171242000Y-137460000D01*
X171274000Y-118696000D02*
X171274000Y-134158000D01*
X171274000Y-134158000D02*
X171274000Y-134190000D01*
X122252000Y-134158000D02*
X122252000Y-137428000D01*
X122252000Y-137428000D02*
X122220000Y-137460000D01*
X122252000Y-118696000D02*
X122252000Y-134158000D01*
X122252000Y-134158000D02*
X122252000Y-134190000D01*
X187276000Y-138508000D02*
X187276000Y-140686000D01*
X189054000Y-136730000D02*
X187276000Y-138508000D01*
X189054000Y-133936000D02*
X189054000Y-136730000D01*
X187276000Y-140686000D02*
X187368000Y-140778000D01*
X138254000Y-138508000D02*
X138254000Y-140686000D01*
X140032000Y-136730000D02*
X138254000Y-138508000D01*
X140032000Y-133936000D02*
X140032000Y-136730000D01*
X138254000Y-140686000D02*
X138346000Y-140778000D01*
X189908000Y-139362000D02*
X189908000Y-140778000D01*
X189816000Y-139270000D02*
X189908000Y-139362000D01*
X189816000Y-133428000D02*
X189816000Y-139270000D01*
X140886000Y-139362000D02*
X140886000Y-140778000D01*
X140794000Y-139270000D02*
X140886000Y-139362000D01*
X140794000Y-133428000D02*
X140794000Y-139270000D01*
X192448000Y-134790000D02*
X192448000Y-140778000D01*
X191594000Y-133936000D02*
X192448000Y-134790000D01*
X143426000Y-134790000D02*
X143426000Y-140778000D01*
X142572000Y-133936000D02*
X143426000Y-134790000D01*
X194988000Y-134790000D02*
X194988000Y-140778000D01*
X194134000Y-133936000D02*
X194988000Y-134790000D01*
X145966000Y-134790000D02*
X145966000Y-140778000D01*
X145112000Y-133936000D02*
X145966000Y-134790000D01*
D22*
X196896000Y-95296000D02*
X198420000Y-95296000D01*
X173020000Y-95296000D02*
X196896000Y-95296000D01*
X172004000Y-94280000D02*
X173020000Y-95296000D01*
X201902000Y-98778000D02*
X204868000Y-98778000D01*
X198420000Y-95296000D02*
X201902000Y-98778000D01*
X172004000Y-92248000D02*
X172004000Y-94280000D01*
X170480000Y-95804000D02*
X165400000Y-95804000D01*
X172004000Y-94280000D02*
X170480000Y-95804000D01*
X159868000Y-98778000D02*
X162426000Y-98778000D01*
X165400000Y-93772000D02*
X166924000Y-92248000D01*
X165400000Y-95804000D02*
X165400000Y-93772000D01*
X162426000Y-98778000D02*
X165400000Y-95804000D01*
X159868000Y-98778000D02*
X159950000Y-98778000D01*
X147874000Y-95296000D02*
X149398000Y-95296000D01*
X123998000Y-95296000D02*
X147874000Y-95296000D01*
X122982000Y-94280000D02*
X123998000Y-95296000D01*
X152880000Y-98778000D02*
X155846000Y-98778000D01*
X149398000Y-95296000D02*
X152880000Y-98778000D01*
X122982000Y-92248000D02*
X122982000Y-94280000D01*
X121458000Y-95804000D02*
X116378000Y-95804000D01*
X122982000Y-94280000D02*
X121458000Y-95804000D01*
X110846000Y-98778000D02*
X113404000Y-98778000D01*
X116378000Y-93772000D02*
X117902000Y-92248000D01*
X116378000Y-95804000D02*
X116378000Y-93772000D01*
X113404000Y-98778000D02*
X116378000Y-95804000D01*
X110846000Y-98778000D02*
X110928000Y-98778000D01*
X169464000Y-92248000D02*
X169464000Y-91486000D01*
X169464000Y-91486000D02*
X174798000Y-86152000D01*
X174798000Y-86152000D02*
X174798000Y-85898000D01*
X120442000Y-92248000D02*
X120442000Y-91486000D01*
X120442000Y-91486000D02*
X125776000Y-86152000D01*
X125776000Y-86152000D02*
X125776000Y-85898000D01*
D24*
X168988000Y-101170000D02*
X171718000Y-101170000D01*
X168988000Y-101170000D02*
X167464000Y-102694000D01*
X167464000Y-102694000D02*
X163654000Y-102694000D01*
X163654000Y-102694000D02*
X162638000Y-103710000D01*
X164368000Y-127778000D02*
X163462000Y-127778000D01*
X162638000Y-126954000D02*
X162638000Y-103710000D01*
X163462000Y-127778000D02*
X162638000Y-126954000D01*
X172004000Y-100884000D02*
X172004000Y-99868000D01*
X171718000Y-101170000D02*
X172004000Y-100884000D01*
X119966000Y-101170000D02*
X122696000Y-101170000D01*
X119966000Y-101170000D02*
X118442000Y-102694000D01*
X118442000Y-102694000D02*
X114632000Y-102694000D01*
X114632000Y-102694000D02*
X113616000Y-103710000D01*
X115346000Y-127778000D02*
X114440000Y-127778000D01*
X113616000Y-126954000D02*
X113616000Y-103710000D01*
X114440000Y-127778000D02*
X113616000Y-126954000D01*
X122982000Y-100884000D02*
X122982000Y-99868000D01*
X122696000Y-101170000D02*
X122982000Y-100884000D01*
D22*
X174544000Y-92248000D02*
X175306000Y-92248000D01*
X175306000Y-92248000D02*
X176322000Y-91232000D01*
X176322000Y-91232000D02*
X176322000Y-89200000D01*
X125522000Y-92248000D02*
X126284000Y-92248000D01*
X126284000Y-92248000D02*
X127300000Y-91232000D01*
X127300000Y-91232000D02*
X127300000Y-89200000D01*
D24*
X179148000Y-103456000D02*
X181434000Y-103456000D01*
X173814000Y-108790000D02*
X174576000Y-108028000D01*
X174576000Y-108028000D02*
X176862000Y-108028000D01*
X176862000Y-108028000D02*
X177878000Y-107012000D01*
X177878000Y-107012000D02*
X177878000Y-104726000D01*
X177878000Y-104726000D02*
X179148000Y-103456000D01*
X173814000Y-111076000D02*
X173814000Y-108790000D01*
X181434000Y-103456000D02*
X184448000Y-100442000D01*
X184448000Y-100442000D02*
X184448000Y-99778000D01*
X130126000Y-103456000D02*
X132412000Y-103456000D01*
X124792000Y-108790000D02*
X125554000Y-108028000D01*
X125554000Y-108028000D02*
X127840000Y-108028000D01*
X127840000Y-108028000D02*
X128856000Y-107012000D01*
X128856000Y-107012000D02*
X128856000Y-104726000D01*
X128856000Y-104726000D02*
X130126000Y-103456000D01*
X124792000Y-111076000D02*
X124792000Y-108790000D01*
X132412000Y-103456000D02*
X135426000Y-100442000D01*
X135426000Y-100442000D02*
X135426000Y-99778000D01*
X192068000Y-99778000D02*
X192068000Y-98596000D01*
X143046000Y-99778000D02*
X143046000Y-98596000D01*
X194388000Y-97614000D02*
X194388000Y-99558000D01*
X193626000Y-96852000D02*
X194388000Y-97614000D01*
X177116000Y-96852000D02*
X193626000Y-96852000D01*
X175846000Y-98122000D02*
X177116000Y-96852000D01*
X175846000Y-101424000D02*
X175846000Y-98122000D01*
X194388000Y-99558000D02*
X194608000Y-99778000D01*
X145366000Y-97614000D02*
X145366000Y-99558000D01*
X144604000Y-96852000D02*
X145366000Y-97614000D01*
X128094000Y-96852000D02*
X144604000Y-96852000D01*
X126824000Y-98122000D02*
X128094000Y-96852000D01*
X126824000Y-101424000D02*
X126824000Y-98122000D01*
X145366000Y-99558000D02*
X145586000Y-99778000D01*
X166194000Y-111076000D02*
X166194000Y-107774000D01*
X176100000Y-103964000D02*
X176862000Y-103202000D01*
X171496000Y-103932000D02*
X176100000Y-103964000D01*
X170226000Y-105202000D02*
X171496000Y-103932000D01*
X168734000Y-105234000D02*
X170226000Y-105202000D01*
X166194000Y-107774000D02*
X168734000Y-105234000D01*
X186988000Y-99778000D02*
X186988000Y-98596000D01*
X186988000Y-98596000D02*
X186006000Y-97614000D01*
X186006000Y-97614000D02*
X178132000Y-97614000D01*
X178132000Y-97614000D02*
X176862000Y-98884000D01*
X176862000Y-98884000D02*
X176862000Y-103202000D01*
X117172000Y-111076000D02*
X117172000Y-107774000D01*
X127078000Y-103964000D02*
X127840000Y-103202000D01*
X122474000Y-103932000D02*
X127078000Y-103964000D01*
X121204000Y-105202000D02*
X122474000Y-103932000D01*
X119712000Y-105234000D02*
X121204000Y-105202000D01*
X117172000Y-107774000D02*
X119712000Y-105234000D01*
X137966000Y-99778000D02*
X137966000Y-98596000D01*
X137966000Y-98596000D02*
X136984000Y-97614000D01*
X136984000Y-97614000D02*
X129110000Y-97614000D01*
X129110000Y-97614000D02*
X127840000Y-98884000D01*
X127840000Y-98884000D02*
X127840000Y-103202000D01*
D22*
X164638000Y-85898000D02*
X166416000Y-85898000D01*
X168448000Y-83866000D02*
X168448000Y-82088000D01*
X166416000Y-85898000D02*
X168448000Y-83866000D01*
X115616000Y-85898000D02*
X117394000Y-85898000D01*
X119426000Y-83866000D02*
X119426000Y-82088000D01*
X117394000Y-85898000D02*
X119426000Y-83866000D01*
X166162000Y-89200000D02*
X167940000Y-89200000D01*
X170988000Y-86152000D02*
X170988000Y-82088000D01*
X167940000Y-89200000D02*
X170988000Y-86152000D01*
X117140000Y-89200000D02*
X118918000Y-89200000D01*
X121966000Y-86152000D02*
X121966000Y-82088000D01*
X118918000Y-89200000D02*
X121966000Y-86152000D01*
D23*
X179368000Y-92158000D02*
X179368000Y-87928000D01*
X179368000Y-87928000D02*
X176830000Y-85390000D01*
X130346000Y-92158000D02*
X130346000Y-87928000D01*
X130346000Y-87928000D02*
X127808000Y-85390000D01*
X176068000Y-83358000D02*
X176068000Y-82088000D01*
X176576000Y-83866000D02*
X176068000Y-83358000D01*
X179370000Y-83866000D02*
X176576000Y-83866000D01*
X180386000Y-84882000D02*
X179370000Y-83866000D01*
X127046000Y-83358000D02*
X127046000Y-82088000D01*
X127554000Y-83866000D02*
X127046000Y-83358000D01*
X130348000Y-83866000D02*
X127554000Y-83866000D01*
X131364000Y-84882000D02*
X130348000Y-83866000D01*
X194608000Y-92158000D02*
X194608000Y-91044000D01*
X145586000Y-92158000D02*
X145586000Y-91044000D01*
X183688000Y-85136000D02*
X183688000Y-82088000D01*
X184196000Y-85644000D02*
X183688000Y-85136000D01*
X134666000Y-85136000D02*
X134666000Y-82088000D01*
X135174000Y-85644000D02*
X134666000Y-85136000D01*
X186228000Y-85898000D02*
X186228000Y-82088000D01*
X184450000Y-87676000D02*
X186228000Y-85898000D01*
X137206000Y-85898000D02*
X137206000Y-82088000D01*
X135428000Y-87676000D02*
X137206000Y-85898000D01*
X188768000Y-85898000D02*
X188768000Y-82088000D01*
X186990000Y-87676000D02*
X188768000Y-85898000D01*
X139746000Y-85898000D02*
X139746000Y-82088000D01*
X137968000Y-87676000D02*
X139746000Y-85898000D01*
X181908000Y-92158000D02*
X181908000Y-90726000D01*
X196388000Y-85644000D02*
X196388000Y-82088000D01*
X192578000Y-89454000D02*
X196388000Y-85644000D01*
X183180000Y-89454000D02*
X192578000Y-89454000D01*
X181908000Y-90726000D02*
X183180000Y-89454000D01*
X132886000Y-92158000D02*
X132886000Y-90726000D01*
X147366000Y-85644000D02*
X147366000Y-82088000D01*
X143556000Y-89454000D02*
X147366000Y-85644000D01*
X134158000Y-89454000D02*
X143556000Y-89454000D01*
X132886000Y-90726000D02*
X134158000Y-89454000D01*
X185194000Y-68896000D02*
X181444000Y-68896000D01*
X177694000Y-68896000D02*
X175694000Y-68896000D01*
X174368000Y-67904000D02*
X175694000Y-68896000D01*
X187944000Y-68646000D02*
X185944000Y-68646000D01*
X185944000Y-68646000D02*
X185194000Y-68896000D01*
X181444000Y-68896000D02*
X177694000Y-68896000D01*
X136172000Y-68896000D02*
X132422000Y-68896000D01*
X128672000Y-68896000D02*
X126672000Y-68896000D01*
X125346000Y-67904000D02*
X126672000Y-68896000D01*
X138922000Y-68646000D02*
X136922000Y-68646000D01*
X136922000Y-68646000D02*
X136172000Y-68896000D01*
X132422000Y-68896000D02*
X128672000Y-68896000D01*
X193848000Y-75992000D02*
X193848000Y-74722000D01*
X198420000Y-70150000D02*
X198368000Y-67904000D01*
X197171402Y-71129764D02*
X198420000Y-70150000D01*
X195052097Y-71126184D02*
X197171402Y-71129764D01*
X193848000Y-71928000D02*
X195052097Y-71126184D01*
X193848000Y-74722000D02*
X193848000Y-71928000D01*
X144826000Y-75992000D02*
X144826000Y-74722000D01*
X149398000Y-70150000D02*
X149346000Y-67904000D01*
X148149402Y-71129764D02*
X149398000Y-70150000D01*
X146030097Y-71126184D02*
X148149402Y-71129764D01*
X144826000Y-71928000D02*
X146030097Y-71126184D01*
X144826000Y-74722000D02*
X144826000Y-71928000D01*
X191308000Y-75992000D02*
X191308000Y-72436000D01*
X191308000Y-72436000D02*
X192070000Y-71674000D01*
X176118000Y-64404000D02*
X179274000Y-64404000D01*
X183194000Y-62896000D02*
X185194000Y-62896000D01*
X179274000Y-64404000D02*
X183194000Y-62896000D01*
X142286000Y-75992000D02*
X142286000Y-72436000D01*
X142286000Y-72436000D02*
X143048000Y-71674000D01*
X127096000Y-64404000D02*
X130252000Y-64404000D01*
X134172000Y-62896000D02*
X136172000Y-62896000D01*
X130252000Y-64404000D02*
X134172000Y-62896000D01*
X189944000Y-57704000D02*
X190136000Y-57704000D01*
X191444000Y-56396000D02*
X192944000Y-56396000D01*
X190136000Y-57704000D02*
X191444000Y-56396000D01*
X189530000Y-57704000D02*
X189944000Y-57704000D01*
X189944000Y-57704000D02*
X190038000Y-57704000D01*
X177678000Y-59904000D02*
X178608000Y-58974000D01*
X178608000Y-58974000D02*
X186401060Y-58974000D01*
X186401060Y-58974000D02*
X187671060Y-57704000D01*
X187671060Y-57704000D02*
X189530000Y-57704000D01*
X176118000Y-59904000D02*
X177678000Y-59904000D01*
X194444000Y-65396000D02*
X192832000Y-66848000D01*
X192070000Y-69388000D02*
X192832000Y-66848000D01*
X188768000Y-74976000D02*
X188768000Y-75992000D01*
X189784000Y-73960000D02*
X189784000Y-71674000D01*
X188768000Y-74976000D02*
X189784000Y-73960000D01*
X189784000Y-71674000D02*
X192070000Y-69388000D01*
X200118000Y-59904000D02*
X199776000Y-59904000D01*
X199776000Y-59904000D02*
X198944000Y-62146000D01*
X198944000Y-62146000D02*
X197444000Y-64146000D01*
X197444000Y-64146000D02*
X196444000Y-65396000D01*
X196444000Y-65396000D02*
X194444000Y-65396000D01*
X140922000Y-57704000D02*
X141114000Y-57704000D01*
X142422000Y-56396000D02*
X143922000Y-56396000D01*
X141114000Y-57704000D02*
X142422000Y-56396000D01*
X140508000Y-57704000D02*
X140922000Y-57704000D01*
X140922000Y-57704000D02*
X141016000Y-57704000D01*
X128656000Y-59904000D02*
X129586000Y-58974000D01*
X129586000Y-58974000D02*
X137379060Y-58974000D01*
X137379060Y-58974000D02*
X138649060Y-57704000D01*
X138649060Y-57704000D02*
X140508000Y-57704000D01*
X127096000Y-59904000D02*
X128656000Y-59904000D01*
X145422000Y-65396000D02*
X143810000Y-66848000D01*
X143048000Y-69388000D02*
X143810000Y-66848000D01*
X139746000Y-74976000D02*
X139746000Y-75992000D01*
X140762000Y-73960000D02*
X140762000Y-71674000D01*
X139746000Y-74976000D02*
X140762000Y-73960000D01*
X140762000Y-71674000D02*
X143048000Y-69388000D01*
X151096000Y-59904000D02*
X150754000Y-59904000D01*
X150754000Y-59904000D02*
X149922000Y-62146000D01*
X149922000Y-62146000D02*
X148422000Y-64146000D01*
X148422000Y-64146000D02*
X147422000Y-65396000D01*
X147422000Y-65396000D02*
X145422000Y-65396000D01*
X176118000Y-55404000D02*
X185452000Y-55404000D01*
X185452000Y-55404000D02*
X185466000Y-55418000D01*
X127096000Y-55404000D02*
X136430000Y-55404000D01*
X136430000Y-55404000D02*
X136444000Y-55418000D01*
X198368000Y-49524000D02*
X198368000Y-51904000D01*
X197150000Y-48306000D02*
X198368000Y-49524000D01*
X189784000Y-48306000D02*
X197150000Y-48306000D01*
X187752000Y-50338000D02*
X189784000Y-48306000D01*
X149346000Y-49524000D02*
X149346000Y-51904000D01*
X148128000Y-48306000D02*
X149346000Y-49524000D01*
X140762000Y-48306000D02*
X148128000Y-48306000D01*
X138730000Y-50338000D02*
X140762000Y-48306000D01*
X195444000Y-56646000D02*
X194194000Y-55396000D01*
X196944000Y-56646000D02*
X195444000Y-56646000D01*
X182194000Y-67396000D02*
X185720000Y-64816000D01*
X185720000Y-64816000D02*
X187498000Y-62022000D01*
X187498000Y-62022000D02*
X190038000Y-62022000D01*
X190038000Y-62022000D02*
X191694000Y-63396000D01*
X197944000Y-61146000D02*
X195694000Y-63396000D01*
X197944000Y-57646000D02*
X197944000Y-61146000D01*
X195694000Y-63396000D02*
X191694000Y-63396000D01*
X197944000Y-57646000D02*
X196944000Y-56646000D01*
X194194000Y-55396000D02*
X194194000Y-51078000D01*
X194194000Y-51078000D02*
X194368000Y-50904000D01*
X146422000Y-56646000D02*
X145172000Y-55396000D01*
X147922000Y-56646000D02*
X146422000Y-56646000D01*
X133172000Y-67396000D02*
X136698000Y-64816000D01*
X136698000Y-64816000D02*
X138476000Y-62022000D01*
X138476000Y-62022000D02*
X141016000Y-62022000D01*
X141016000Y-62022000D02*
X142672000Y-63396000D01*
X148922000Y-61146000D02*
X146672000Y-63396000D01*
X148922000Y-57646000D02*
X148922000Y-61146000D01*
X146672000Y-63396000D02*
X142672000Y-63396000D01*
X148922000Y-57646000D02*
X147922000Y-56646000D01*
X145172000Y-55396000D02*
X145172000Y-51078000D01*
X145172000Y-51078000D02*
X145346000Y-50904000D01*
X178608000Y-53386000D02*
X180386000Y-51608000D01*
X181910000Y-51608000D02*
X180386000Y-51608000D01*
X178608000Y-74976000D02*
X178608000Y-75992000D01*
X178608000Y-74976000D02*
X178608000Y-74214000D01*
X183942000Y-51904000D02*
X182206000Y-51904000D01*
X182206000Y-51904000D02*
X181910000Y-51608000D01*
X184196000Y-51904000D02*
X183942000Y-51904000D01*
X183942000Y-51904000D02*
X183900000Y-51904000D01*
X190368000Y-51904000D02*
X184196000Y-51904000D01*
X184196000Y-51904000D02*
X184154000Y-51904000D01*
X166368000Y-50132000D02*
X166368000Y-51904000D01*
X181910000Y-51608000D02*
X178608000Y-48306000D01*
X178608000Y-48306000D02*
X168194000Y-48306000D01*
X168194000Y-48306000D02*
X166368000Y-50132000D01*
X129586000Y-53386000D02*
X131364000Y-51608000D01*
X132888000Y-51608000D02*
X131364000Y-51608000D01*
X129586000Y-74976000D02*
X129586000Y-75992000D01*
X129586000Y-74976000D02*
X129586000Y-74214000D01*
X134920000Y-51904000D02*
X133184000Y-51904000D01*
X133184000Y-51904000D02*
X132888000Y-51608000D01*
X135174000Y-51904000D02*
X134920000Y-51904000D01*
X134920000Y-51904000D02*
X134878000Y-51904000D01*
X141346000Y-51904000D02*
X135174000Y-51904000D01*
X135174000Y-51904000D02*
X135132000Y-51904000D01*
X117346000Y-50132000D02*
X117346000Y-51904000D01*
X132888000Y-51608000D02*
X129586000Y-48306000D01*
X129586000Y-48306000D02*
X119172000Y-48306000D01*
X119172000Y-48306000D02*
X117346000Y-50132000D01*
X185974000Y-57704000D02*
X188274000Y-55404000D01*
X174036000Y-57704000D02*
X185974000Y-57704000D01*
X188274000Y-55404000D02*
X188618000Y-55404000D01*
X136952000Y-57704000D02*
X139252000Y-55404000D01*
X125014000Y-57704000D02*
X136952000Y-57704000D01*
X139252000Y-55404000D02*
X139596000Y-55404000D01*
X180194000Y-60896000D02*
X186194000Y-60896000D01*
X168194000Y-63646000D02*
X172444000Y-63646000D01*
X172444000Y-63646000D02*
X173944000Y-62146000D01*
X173944000Y-62146000D02*
X178944000Y-62146000D01*
X178944000Y-62146000D02*
X180194000Y-60896000D01*
X164618000Y-60070000D02*
X168194000Y-63646000D01*
X186444000Y-60646000D02*
X187876000Y-60646000D01*
X186194000Y-60896000D02*
X186444000Y-60646000D01*
X187876000Y-60646000D02*
X188618000Y-59904000D01*
X164618000Y-59904000D02*
X164618000Y-60070000D01*
X163200000Y-59904000D02*
X164618000Y-59904000D01*
X161844000Y-61260000D02*
X163200000Y-59904000D01*
X161844000Y-70912000D02*
X161844000Y-61260000D01*
X164130000Y-73198000D02*
X161844000Y-70912000D01*
X169210000Y-73198000D02*
X164130000Y-73198000D01*
X131172000Y-60896000D02*
X137172000Y-60896000D01*
X119172000Y-63646000D02*
X123422000Y-63646000D01*
X123422000Y-63646000D02*
X124922000Y-62146000D01*
X124922000Y-62146000D02*
X129922000Y-62146000D01*
X129922000Y-62146000D02*
X131172000Y-60896000D01*
X115596000Y-60070000D02*
X119172000Y-63646000D01*
X137422000Y-60646000D02*
X138854000Y-60646000D01*
X137172000Y-60896000D02*
X137422000Y-60646000D01*
X138854000Y-60646000D02*
X139596000Y-59904000D01*
X115596000Y-59904000D02*
X115596000Y-60070000D01*
X114178000Y-59904000D02*
X115596000Y-59904000D01*
X112822000Y-61260000D02*
X114178000Y-59904000D01*
X112822000Y-70912000D02*
X112822000Y-61260000D01*
X115108000Y-73198000D02*
X112822000Y-70912000D01*
X120188000Y-73198000D02*
X115108000Y-73198000D01*
X185984475Y-72879578D02*
X176255479Y-73000216D01*
X176255479Y-73000216D02*
X171401713Y-73867642D01*
X185984475Y-72879578D02*
X186694000Y-72146000D01*
X167686000Y-71420000D02*
X170226000Y-71420000D01*
X167686000Y-71420000D02*
X164892000Y-71420000D01*
X164892000Y-71420000D02*
X163622000Y-70150000D01*
X163622000Y-70150000D02*
X163622000Y-65400000D01*
X164618000Y-64404000D02*
X163622000Y-65400000D01*
X170988000Y-74722000D02*
X170988000Y-75992000D01*
X171401713Y-73867642D02*
X170988000Y-74722000D01*
X170226000Y-71420000D02*
X171401713Y-73867642D01*
X136962475Y-72879578D02*
X127233479Y-73000216D01*
X127233479Y-73000216D02*
X122379713Y-73867642D01*
X136962475Y-72879578D02*
X137672000Y-72146000D01*
X118664000Y-71420000D02*
X121204000Y-71420000D01*
X118664000Y-71420000D02*
X115870000Y-71420000D01*
X115870000Y-71420000D02*
X114600000Y-70150000D01*
X114600000Y-70150000D02*
X114600000Y-65400000D01*
X115596000Y-64404000D02*
X114600000Y-65400000D01*
X121966000Y-74722000D02*
X121966000Y-75992000D01*
X122379713Y-73867642D02*
X121966000Y-74722000D01*
X121204000Y-71420000D02*
X122379713Y-73867642D01*
X172694000Y-70396000D02*
X173782000Y-71420000D01*
X173782000Y-71420000D02*
X184196000Y-71420000D01*
X184196000Y-71420000D02*
X185212000Y-70404000D01*
X185212000Y-70404000D02*
X188768000Y-70404000D01*
X166686000Y-67904000D02*
X168194000Y-66396000D01*
X171194000Y-66396000D02*
X172194000Y-67396000D01*
X168194000Y-66396000D02*
X171194000Y-66396000D01*
X172694000Y-70396000D02*
X172194000Y-67396000D01*
X188768000Y-70404000D02*
X190368000Y-68722000D01*
X190368000Y-68722000D02*
X190368000Y-67904000D01*
X166368000Y-67904000D02*
X166686000Y-67904000D01*
X123672000Y-70396000D02*
X124760000Y-71420000D01*
X124760000Y-71420000D02*
X135174000Y-71420000D01*
X135174000Y-71420000D02*
X136190000Y-70404000D01*
X136190000Y-70404000D02*
X139746000Y-70404000D01*
X117664000Y-67904000D02*
X119172000Y-66396000D01*
X122172000Y-66396000D02*
X123172000Y-67396000D01*
X119172000Y-66396000D02*
X122172000Y-66396000D01*
X123672000Y-70396000D02*
X123172000Y-67396000D01*
X139746000Y-70404000D02*
X141346000Y-68722000D01*
X141346000Y-68722000D02*
X141346000Y-67904000D01*
X117346000Y-67904000D02*
X117664000Y-67904000D01*
M02*
