G04 #@! TF.FileFunction,Soldermask,Bot*
%FSLAX46Y46*%
G04 Gerber Fmt 4.6, Leading zero omitted, Abs format (unit mm)*
G04 Created by KiCad (PCBNEW 4.0.7) date 10/23/17 00:13:22*
%MOMM*%
%LPD*%
G01*
G04 APERTURE LIST*
%ADD10C,0.100000*%
%ADD11R,2.000000X2.000000*%
%ADD12O,2.000000X2.000000*%
%ADD13C,2.000000*%
%ADD14R,2.100000X2.100000*%
%ADD15O,2.100000X2.100000*%
%ADD16R,2.000000X2.800000*%
%ADD17O,2.000000X2.800000*%
%ADD18C,3.000000*%
%ADD19C,5.400000*%
%ADD20O,20.400000X2.400000*%
%ADD21O,4.400000X2.400000*%
G04 APERTURE END LIST*
D10*
D11*
X166924000Y-99868000D03*
D12*
X174544000Y-92248000D03*
X169464000Y-99868000D03*
X172004000Y-92248000D03*
X172004000Y-99868000D03*
X169464000Y-92248000D03*
X174544000Y-99868000D03*
X166924000Y-92248000D03*
D13*
X188868000Y-106778000D03*
X188868000Y-104278000D03*
X199368000Y-104778000D03*
X199368000Y-107278000D03*
X160368000Y-118778000D03*
X160368000Y-113778000D03*
X181368000Y-123778000D03*
X183868000Y-123778000D03*
X184868000Y-102778000D03*
X184868000Y-107778000D03*
X169868000Y-102778000D03*
X169868000Y-107778000D03*
D14*
X204868000Y-128778000D03*
D15*
X204868000Y-131318000D03*
X204868000Y-133858000D03*
X204868000Y-136398000D03*
D14*
X204868000Y-123778000D03*
D15*
X204868000Y-121238000D03*
X204868000Y-118698000D03*
X204868000Y-116158000D03*
X204868000Y-113618000D03*
D14*
X159868000Y-128778000D03*
D15*
X159868000Y-131318000D03*
X159868000Y-133858000D03*
X159868000Y-136398000D03*
D14*
X173274000Y-142413000D03*
D15*
X173274000Y-139873000D03*
X175814000Y-142413000D03*
X175814000Y-139873000D03*
X178354000Y-142413000D03*
X178354000Y-139873000D03*
D14*
X187368000Y-140778000D03*
D15*
X189908000Y-140778000D03*
X192448000Y-140778000D03*
X194988000Y-140778000D03*
D14*
X204868000Y-98778000D03*
D15*
X204868000Y-101318000D03*
X204868000Y-103858000D03*
X204868000Y-106398000D03*
X204868000Y-108938000D03*
D14*
X159868000Y-98778000D03*
D15*
X159868000Y-101318000D03*
X159868000Y-103858000D03*
X159868000Y-106398000D03*
X159868000Y-108938000D03*
D13*
X187368000Y-123778000D03*
D12*
X197528000Y-123778000D03*
D13*
X164368000Y-123778000D03*
D12*
X174528000Y-123778000D03*
D13*
X174798000Y-85898000D03*
D12*
X164638000Y-85898000D03*
D13*
X164368000Y-127778000D03*
D12*
X174528000Y-127778000D03*
D13*
X176322000Y-89200000D03*
D12*
X166162000Y-89200000D03*
D16*
X199214000Y-111076000D03*
D17*
X166194000Y-118696000D03*
X196674000Y-111076000D03*
X168734000Y-118696000D03*
X194134000Y-111076000D03*
X171274000Y-118696000D03*
X191594000Y-111076000D03*
X173814000Y-118696000D03*
X189054000Y-111076000D03*
X176354000Y-118696000D03*
X186514000Y-111076000D03*
X178894000Y-118696000D03*
X183974000Y-111076000D03*
X181434000Y-118696000D03*
X181434000Y-111076000D03*
X183974000Y-118696000D03*
X178894000Y-111076000D03*
X186514000Y-118696000D03*
X176354000Y-111076000D03*
X189054000Y-118696000D03*
X173814000Y-111076000D03*
X191594000Y-118696000D03*
X171274000Y-111076000D03*
X194134000Y-118696000D03*
X168734000Y-111076000D03*
X196674000Y-118696000D03*
X166194000Y-111076000D03*
X199214000Y-118696000D03*
D16*
X179368000Y-99778000D03*
D17*
X197148000Y-92158000D03*
X181908000Y-99778000D03*
X194608000Y-92158000D03*
X184448000Y-99778000D03*
X192068000Y-92158000D03*
X186988000Y-99778000D03*
X189528000Y-92158000D03*
X189528000Y-99778000D03*
X186988000Y-92158000D03*
X192068000Y-99778000D03*
X184448000Y-92158000D03*
X194608000Y-99778000D03*
X181908000Y-92158000D03*
X197148000Y-99778000D03*
X179368000Y-92158000D03*
D18*
X170368000Y-68904000D03*
X166368000Y-67904000D03*
X164618000Y-64404000D03*
X164618000Y-59904000D03*
X164618000Y-55404000D03*
X166368000Y-51904000D03*
X170368000Y-50904000D03*
X174368000Y-51904000D03*
X176118000Y-55404000D03*
X176118000Y-59904000D03*
X176118000Y-64404000D03*
D19*
X170368000Y-59904000D03*
D18*
X174368000Y-67904000D03*
X194368000Y-68904000D03*
X190368000Y-67904000D03*
X188618000Y-64404000D03*
X188618000Y-59904000D03*
X188618000Y-55404000D03*
X190368000Y-51904000D03*
X194368000Y-50904000D03*
X198368000Y-51904000D03*
X200118000Y-55404000D03*
X200118000Y-59904000D03*
X200118000Y-64404000D03*
D19*
X194368000Y-59904000D03*
D18*
X198368000Y-67904000D03*
D13*
X174968000Y-106178000D03*
X179768000Y-106178000D03*
D14*
X185244000Y-133428000D03*
D15*
X182704000Y-133428000D03*
X180164000Y-133428000D03*
X177624000Y-133428000D03*
X175084000Y-133428000D03*
D14*
X168448000Y-82088000D03*
D15*
X170988000Y-82088000D03*
X173528000Y-82088000D03*
X176068000Y-82088000D03*
X178608000Y-82088000D03*
X181148000Y-82088000D03*
X183688000Y-82088000D03*
X186228000Y-82088000D03*
X188768000Y-82088000D03*
X191308000Y-82088000D03*
X193848000Y-82088000D03*
X196388000Y-82088000D03*
D14*
X196388000Y-75992000D03*
D15*
X193848000Y-75992000D03*
X191308000Y-75992000D03*
X188768000Y-75992000D03*
X186228000Y-75992000D03*
X183688000Y-75992000D03*
X181148000Y-75992000D03*
X178608000Y-75992000D03*
X176068000Y-75992000D03*
X173528000Y-75992000D03*
X170988000Y-75992000D03*
X168448000Y-75992000D03*
D20*
X168956000Y-79040000D03*
X195372000Y-79040000D03*
D21*
X182164000Y-79040000D03*
D11*
X117902000Y-99868000D03*
D12*
X125522000Y-92248000D03*
X120442000Y-99868000D03*
X122982000Y-92248000D03*
X122982000Y-99868000D03*
X120442000Y-92248000D03*
X125522000Y-99868000D03*
X117902000Y-92248000D03*
D13*
X139846000Y-106778000D03*
X139846000Y-104278000D03*
X150346000Y-104778000D03*
X150346000Y-107278000D03*
X111346000Y-118778000D03*
X111346000Y-113778000D03*
X132346000Y-123778000D03*
X134846000Y-123778000D03*
X135846000Y-102778000D03*
X135846000Y-107778000D03*
X120846000Y-102778000D03*
X120846000Y-107778000D03*
D14*
X155846000Y-128778000D03*
D15*
X155846000Y-131318000D03*
X155846000Y-133858000D03*
X155846000Y-136398000D03*
D14*
X155846000Y-123778000D03*
D15*
X155846000Y-121238000D03*
X155846000Y-118698000D03*
X155846000Y-116158000D03*
X155846000Y-113618000D03*
D14*
X110846000Y-128778000D03*
D15*
X110846000Y-131318000D03*
X110846000Y-133858000D03*
X110846000Y-136398000D03*
D14*
X124252000Y-142413000D03*
D15*
X124252000Y-139873000D03*
X126792000Y-142413000D03*
X126792000Y-139873000D03*
X129332000Y-142413000D03*
X129332000Y-139873000D03*
D14*
X138346000Y-140778000D03*
D15*
X140886000Y-140778000D03*
X143426000Y-140778000D03*
X145966000Y-140778000D03*
D14*
X155846000Y-98778000D03*
D15*
X155846000Y-101318000D03*
X155846000Y-103858000D03*
X155846000Y-106398000D03*
X155846000Y-108938000D03*
D14*
X110846000Y-98778000D03*
D15*
X110846000Y-101318000D03*
X110846000Y-103858000D03*
X110846000Y-106398000D03*
X110846000Y-108938000D03*
D13*
X138346000Y-123778000D03*
D12*
X148506000Y-123778000D03*
D13*
X115346000Y-123778000D03*
D12*
X125506000Y-123778000D03*
D13*
X125776000Y-85898000D03*
D12*
X115616000Y-85898000D03*
D13*
X115346000Y-127778000D03*
D12*
X125506000Y-127778000D03*
D13*
X127300000Y-89200000D03*
D12*
X117140000Y-89200000D03*
D16*
X150192000Y-111076000D03*
D17*
X117172000Y-118696000D03*
X147652000Y-111076000D03*
X119712000Y-118696000D03*
X145112000Y-111076000D03*
X122252000Y-118696000D03*
X142572000Y-111076000D03*
X124792000Y-118696000D03*
X140032000Y-111076000D03*
X127332000Y-118696000D03*
X137492000Y-111076000D03*
X129872000Y-118696000D03*
X134952000Y-111076000D03*
X132412000Y-118696000D03*
X132412000Y-111076000D03*
X134952000Y-118696000D03*
X129872000Y-111076000D03*
X137492000Y-118696000D03*
X127332000Y-111076000D03*
X140032000Y-118696000D03*
X124792000Y-111076000D03*
X142572000Y-118696000D03*
X122252000Y-111076000D03*
X145112000Y-118696000D03*
X119712000Y-111076000D03*
X147652000Y-118696000D03*
X117172000Y-111076000D03*
X150192000Y-118696000D03*
D16*
X130346000Y-99778000D03*
D17*
X148126000Y-92158000D03*
X132886000Y-99778000D03*
X145586000Y-92158000D03*
X135426000Y-99778000D03*
X143046000Y-92158000D03*
X137966000Y-99778000D03*
X140506000Y-92158000D03*
X140506000Y-99778000D03*
X137966000Y-92158000D03*
X143046000Y-99778000D03*
X135426000Y-92158000D03*
X145586000Y-99778000D03*
X132886000Y-92158000D03*
X148126000Y-99778000D03*
X130346000Y-92158000D03*
D18*
X121346000Y-68904000D03*
X117346000Y-67904000D03*
X115596000Y-64404000D03*
X115596000Y-59904000D03*
X115596000Y-55404000D03*
X117346000Y-51904000D03*
X121346000Y-50904000D03*
X125346000Y-51904000D03*
X127096000Y-55404000D03*
X127096000Y-59904000D03*
X127096000Y-64404000D03*
D19*
X121346000Y-59904000D03*
D18*
X125346000Y-67904000D03*
X145346000Y-68904000D03*
X141346000Y-67904000D03*
X139596000Y-64404000D03*
X139596000Y-59904000D03*
X139596000Y-55404000D03*
X141346000Y-51904000D03*
X145346000Y-50904000D03*
X149346000Y-51904000D03*
X151096000Y-55404000D03*
X151096000Y-59904000D03*
X151096000Y-64404000D03*
D19*
X145346000Y-59904000D03*
D18*
X149346000Y-67904000D03*
D13*
X125946000Y-106178000D03*
X130746000Y-106178000D03*
D14*
X136222000Y-133428000D03*
D15*
X133682000Y-133428000D03*
X131142000Y-133428000D03*
X128602000Y-133428000D03*
X126062000Y-133428000D03*
D14*
X119426000Y-82088000D03*
D15*
X121966000Y-82088000D03*
X124506000Y-82088000D03*
X127046000Y-82088000D03*
X129586000Y-82088000D03*
X132126000Y-82088000D03*
X134666000Y-82088000D03*
X137206000Y-82088000D03*
X139746000Y-82088000D03*
X142286000Y-82088000D03*
X144826000Y-82088000D03*
X147366000Y-82088000D03*
D14*
X147366000Y-75992000D03*
D15*
X144826000Y-75992000D03*
X142286000Y-75992000D03*
X139746000Y-75992000D03*
X137206000Y-75992000D03*
X134666000Y-75992000D03*
X132126000Y-75992000D03*
X129586000Y-75992000D03*
X127046000Y-75992000D03*
X124506000Y-75992000D03*
X121966000Y-75992000D03*
X119426000Y-75992000D03*
D20*
X119934000Y-79040000D03*
X146350000Y-79040000D03*
D21*
X133142000Y-79040000D03*
M02*
