G04 #@! TF.FileFunction,Copper,L2,Bot,Signal*
%FSLAX46Y46*%
G04 Gerber Fmt 4.6, Leading zero omitted, Abs format (unit mm)*
G04 Created by KiCad (PCBNEW 4.0.7) date 10/16/17 21:23:38*
%MOMM*%
%LPD*%
G01*
G04 APERTURE LIST*
%ADD10C,0.100000*%
%ADD11R,1.600000X1.600000*%
%ADD12O,1.600000X1.600000*%
%ADD13C,1.600000*%
%ADD14R,1.700000X1.700000*%
%ADD15O,1.700000X1.700000*%
%ADD16R,1.600000X2.400000*%
%ADD17O,1.600000X2.400000*%
%ADD18C,2.600000*%
%ADD19O,20.000000X2.000000*%
%ADD20O,4.000000X2.000000*%
%ADD21C,0.600000*%
%ADD22C,2.000000*%
%ADD23C,1.000000*%
%ADD24C,0.250000*%
G04 APERTURE END LIST*
D10*
D11*
X143556000Y-98090000D03*
D12*
X151176000Y-90470000D03*
X146096000Y-98090000D03*
X148636000Y-90470000D03*
X148636000Y-98090000D03*
X146096000Y-90470000D03*
X151176000Y-98090000D03*
X143556000Y-90470000D03*
D13*
X165500000Y-105000000D03*
X165500000Y-102500000D03*
X176000000Y-103000000D03*
X176000000Y-105500000D03*
X137000000Y-117000000D03*
X137000000Y-112000000D03*
X158000000Y-122000000D03*
X160500000Y-122000000D03*
X161500000Y-101000000D03*
X161500000Y-106000000D03*
X146500000Y-101000000D03*
X146500000Y-106000000D03*
D14*
X181500000Y-127000000D03*
D15*
X181500000Y-129540000D03*
X181500000Y-132080000D03*
X181500000Y-134620000D03*
D14*
X181500000Y-122000000D03*
D15*
X181500000Y-119460000D03*
X181500000Y-116920000D03*
X181500000Y-114380000D03*
X181500000Y-111840000D03*
D14*
X136500000Y-127000000D03*
D15*
X136500000Y-129540000D03*
X136500000Y-132080000D03*
X136500000Y-134620000D03*
D14*
X149906000Y-140635000D03*
D15*
X149906000Y-138095000D03*
X152446000Y-140635000D03*
X152446000Y-138095000D03*
X154986000Y-140635000D03*
X154986000Y-138095000D03*
D14*
X164000000Y-139000000D03*
D15*
X166540000Y-139000000D03*
X169080000Y-139000000D03*
X171620000Y-139000000D03*
D14*
X181500000Y-97000000D03*
D15*
X181500000Y-99540000D03*
X181500000Y-102080000D03*
X181500000Y-104620000D03*
X181500000Y-107160000D03*
D14*
X136500000Y-97000000D03*
D15*
X136500000Y-99540000D03*
X136500000Y-102080000D03*
X136500000Y-104620000D03*
X136500000Y-107160000D03*
D13*
X164000000Y-122000000D03*
D12*
X174160000Y-122000000D03*
D13*
X141000000Y-122000000D03*
D12*
X151160000Y-122000000D03*
D13*
X151430000Y-84120000D03*
D12*
X141270000Y-84120000D03*
D13*
X141000000Y-126000000D03*
D12*
X151160000Y-126000000D03*
D13*
X152954000Y-87422000D03*
D12*
X142794000Y-87422000D03*
D16*
X175846000Y-109298000D03*
D17*
X142826000Y-116918000D03*
X173306000Y-109298000D03*
X145366000Y-116918000D03*
X170766000Y-109298000D03*
X147906000Y-116918000D03*
X168226000Y-109298000D03*
X150446000Y-116918000D03*
X165686000Y-109298000D03*
X152986000Y-116918000D03*
X163146000Y-109298000D03*
X155526000Y-116918000D03*
X160606000Y-109298000D03*
X158066000Y-116918000D03*
X158066000Y-109298000D03*
X160606000Y-116918000D03*
X155526000Y-109298000D03*
X163146000Y-116918000D03*
X152986000Y-109298000D03*
X165686000Y-116918000D03*
X150446000Y-109298000D03*
X168226000Y-116918000D03*
X147906000Y-109298000D03*
X170766000Y-116918000D03*
X145366000Y-109298000D03*
X173306000Y-116918000D03*
X142826000Y-109298000D03*
X175846000Y-116918000D03*
D16*
X156000000Y-98000000D03*
D17*
X173780000Y-90380000D03*
X158540000Y-98000000D03*
X171240000Y-90380000D03*
X161080000Y-98000000D03*
X168700000Y-90380000D03*
X163620000Y-98000000D03*
X166160000Y-90380000D03*
X166160000Y-98000000D03*
X163620000Y-90380000D03*
X168700000Y-98000000D03*
X161080000Y-90380000D03*
X171240000Y-98000000D03*
X158540000Y-90380000D03*
X173780000Y-98000000D03*
X156000000Y-90380000D03*
D18*
X147000000Y-67126000D03*
X143000000Y-66126000D03*
X141250000Y-62626000D03*
X141250000Y-58126000D03*
X141250000Y-53626000D03*
X143000000Y-50126000D03*
X147000000Y-49126000D03*
X151000000Y-50126000D03*
X152750000Y-53626000D03*
X152750000Y-58126000D03*
X152750000Y-62626000D03*
X151000000Y-66126000D03*
X171000000Y-67126000D03*
X167000000Y-66126000D03*
X165250000Y-62626000D03*
X165250000Y-58126000D03*
X165250000Y-53626000D03*
X167000000Y-50126000D03*
X171000000Y-49126000D03*
X175000000Y-50126000D03*
X176750000Y-53626000D03*
X176750000Y-58126000D03*
X176750000Y-62626000D03*
X175000000Y-66126000D03*
D13*
X151600000Y-104400000D03*
X156400000Y-104400000D03*
D14*
X161876000Y-131650000D03*
D15*
X159336000Y-131650000D03*
X156796000Y-131650000D03*
X154256000Y-131650000D03*
X151716000Y-131650000D03*
D14*
X145080000Y-80310000D03*
D15*
X147620000Y-80310000D03*
X150160000Y-80310000D03*
X152700000Y-80310000D03*
X155240000Y-80310000D03*
X157780000Y-80310000D03*
X160320000Y-80310000D03*
X162860000Y-80310000D03*
X165400000Y-80310000D03*
X167940000Y-80310000D03*
X170480000Y-80310000D03*
X173020000Y-80310000D03*
D14*
X173020000Y-74214000D03*
D15*
X170480000Y-74214000D03*
X167940000Y-74214000D03*
X165400000Y-74214000D03*
X162860000Y-74214000D03*
X160320000Y-74214000D03*
X157780000Y-74214000D03*
X155240000Y-74214000D03*
X152700000Y-74214000D03*
X150160000Y-74214000D03*
X147620000Y-74214000D03*
X145080000Y-74214000D03*
D19*
X145588000Y-77262000D03*
X172004000Y-77262000D03*
D20*
X158796000Y-77262000D03*
D21*
X139778000Y-133080000D03*
X177370000Y-125300000D03*
X172544000Y-125046000D03*
X151684000Y-128570000D03*
X145842000Y-131110000D03*
X147874000Y-135682000D03*
X165686000Y-132158000D03*
X166448000Y-131650000D03*
X168226000Y-132158000D03*
X170766000Y-132158000D03*
X152478000Y-99646000D03*
X153462000Y-83612000D03*
X157018000Y-83104000D03*
X160828000Y-83866000D03*
X161082000Y-85898000D03*
X163622000Y-85898000D03*
X164576000Y-66868000D03*
X168702000Y-69896000D03*
X161826000Y-61118000D03*
X169576000Y-54618000D03*
X162098000Y-53640000D03*
X164384000Y-48560000D03*
X158826000Y-65618000D03*
X155240000Y-72436000D03*
X155240000Y-51608000D03*
X150668000Y-55926000D03*
X145842000Y-71420000D03*
X163326000Y-70368000D03*
D22*
X139778000Y-133080000D02*
X139778000Y-128856000D01*
X139778000Y-128856000D02*
X137922000Y-127000000D01*
X136500000Y-127000000D02*
X137922000Y-127000000D01*
X165500000Y-105000000D02*
X167698000Y-105000000D01*
X166160000Y-99358000D02*
X166160000Y-98000000D01*
X168734000Y-101932000D02*
X166160000Y-99358000D01*
X168734000Y-103964000D02*
X168734000Y-101932000D01*
X167698000Y-105000000D02*
X168734000Y-103964000D01*
X164000000Y-122000000D02*
X169498000Y-122000000D01*
X177370000Y-125300000D02*
X180670000Y-122000000D01*
X169498000Y-122000000D02*
X172544000Y-125046000D01*
X180670000Y-122000000D02*
X181500000Y-122000000D01*
X155526000Y-116918000D02*
X155526000Y-118442000D01*
X154256000Y-128602000D02*
X154256000Y-131650000D01*
X154764000Y-128094000D02*
X154256000Y-128602000D01*
X154764000Y-119204000D02*
X154764000Y-128094000D01*
X155526000Y-118442000D02*
X154764000Y-119204000D01*
D23*
X151716000Y-131650000D02*
X151716000Y-128602000D01*
X151716000Y-128602000D02*
X151684000Y-128570000D01*
D24*
X151684000Y-128570000D02*
X151716000Y-128602000D01*
X151716000Y-131650000D02*
X151716000Y-132856000D01*
X151716000Y-132856000D02*
X154986000Y-136126000D01*
X154986000Y-136126000D02*
X154986000Y-138095000D01*
X136500000Y-134620000D02*
X142332000Y-134620000D01*
X142332000Y-134620000D02*
X145842000Y-131110000D01*
X146096000Y-98090000D02*
X146096000Y-97074000D01*
X137534000Y-104620000D02*
X136500000Y-104620000D01*
X138222000Y-103932000D02*
X137534000Y-104620000D01*
X138222000Y-100376000D02*
X138222000Y-103932000D01*
X142286000Y-96312000D02*
X138222000Y-100376000D01*
X145334000Y-96312000D02*
X142286000Y-96312000D01*
X146096000Y-97074000D02*
X145334000Y-96312000D01*
D23*
X151176000Y-98090000D02*
X151176000Y-98598000D01*
X151176000Y-98598000D02*
X148774000Y-101000000D01*
X148774000Y-101000000D02*
X146500000Y-101000000D01*
D22*
X161500000Y-101000000D02*
X164000000Y-101000000D01*
X164000000Y-101000000D02*
X165500000Y-102500000D01*
X161500000Y-101000000D02*
X161500000Y-102572000D01*
X161500000Y-102572000D02*
X158066000Y-106006000D01*
X158066000Y-106006000D02*
X158066000Y-109298000D01*
D23*
X160606000Y-116918000D02*
X160606000Y-121894000D01*
X160606000Y-121894000D02*
X160500000Y-122000000D01*
D22*
X158066000Y-109298000D02*
X158066000Y-111584000D01*
X160606000Y-114124000D02*
X160606000Y-116918000D01*
X158066000Y-111584000D02*
X160606000Y-114124000D01*
D24*
X181500000Y-114380000D02*
X180166000Y-114380000D01*
X177168000Y-103000000D02*
X176000000Y-103000000D01*
X178640000Y-104472000D02*
X177168000Y-103000000D01*
X178640000Y-112854000D02*
X178640000Y-104472000D01*
X180166000Y-114380000D02*
X178640000Y-112854000D01*
X158066000Y-129872000D02*
X158066000Y-139460000D01*
X158066000Y-129872000D02*
X160098000Y-127840000D01*
X160098000Y-127840000D02*
X172290000Y-127840000D01*
X172290000Y-127840000D02*
X174160000Y-125970000D01*
X174160000Y-122000000D02*
X174160000Y-125970000D01*
X156891000Y-140635000D02*
X154986000Y-140635000D01*
X158066000Y-139460000D02*
X156891000Y-140635000D01*
X176000000Y-105500000D02*
X176000000Y-109144000D01*
X176000000Y-109144000D02*
X175846000Y-109298000D01*
X174576000Y-113362000D02*
X174576000Y-112600000D01*
X174160000Y-120382000D02*
X174576000Y-119966000D01*
X174576000Y-119966000D02*
X174576000Y-113362000D01*
X174160000Y-122000000D02*
X174160000Y-120382000D01*
X175846000Y-111330000D02*
X175846000Y-109298000D01*
X174576000Y-112600000D02*
X175846000Y-111330000D01*
D23*
X158066000Y-116918000D02*
X158066000Y-121934000D01*
X158066000Y-121934000D02*
X158000000Y-122000000D01*
D24*
X151600000Y-104400000D02*
X146962000Y-104400000D01*
X146500000Y-104862000D02*
X146500000Y-106000000D01*
X146962000Y-104400000D02*
X146500000Y-104862000D01*
X159336000Y-131650000D02*
X159336000Y-130126000D01*
X179324000Y-129540000D02*
X181500000Y-129540000D01*
X178640000Y-128856000D02*
X179324000Y-129540000D01*
X160606000Y-128856000D02*
X178640000Y-128856000D01*
X159336000Y-130126000D02*
X160606000Y-128856000D01*
X148414000Y-132888000D02*
X148414000Y-134444000D01*
X151176000Y-139238000D02*
X149906000Y-140508000D01*
X151176000Y-136698000D02*
X151176000Y-139238000D01*
X150668000Y-136190000D02*
X151176000Y-136698000D01*
X150160000Y-136190000D02*
X150668000Y-136190000D01*
X148414000Y-134444000D02*
X150160000Y-136190000D01*
X149906000Y-140508000D02*
X149906000Y-140635000D01*
X148414000Y-120474000D02*
X148414000Y-132888000D01*
X148414000Y-132888000D02*
X148414000Y-132920000D01*
X150446000Y-118442000D02*
X150446000Y-116918000D01*
X150446000Y-118442000D02*
X148414000Y-120474000D01*
X148922000Y-133904000D02*
X148922000Y-133936000D01*
X148922000Y-133936000D02*
X150414000Y-135428000D01*
X153716000Y-139365000D02*
X152446000Y-140635000D01*
X153716000Y-136698000D02*
X153716000Y-139365000D01*
X152446000Y-135428000D02*
X153716000Y-136698000D01*
X150414000Y-135428000D02*
X152446000Y-135428000D01*
X148922000Y-120728000D02*
X148922000Y-133904000D01*
X149938000Y-119712000D02*
X148922000Y-120728000D01*
X151716000Y-119712000D02*
X149938000Y-119712000D01*
X152986000Y-116918000D02*
X152986000Y-118442000D01*
X152986000Y-118442000D02*
X151716000Y-119712000D01*
X147906000Y-132380000D02*
X147906000Y-135650000D01*
X147906000Y-135650000D02*
X147874000Y-135682000D01*
X147906000Y-116918000D02*
X147906000Y-132380000D01*
X147906000Y-132380000D02*
X147906000Y-132412000D01*
X163908000Y-136730000D02*
X163908000Y-138908000D01*
X165686000Y-134952000D02*
X163908000Y-136730000D01*
X165686000Y-132158000D02*
X165686000Y-134952000D01*
X163908000Y-138908000D02*
X164000000Y-139000000D01*
X166540000Y-137584000D02*
X166540000Y-139000000D01*
X166448000Y-137492000D02*
X166540000Y-137584000D01*
X166448000Y-131650000D02*
X166448000Y-137492000D01*
X169080000Y-133012000D02*
X169080000Y-139000000D01*
X168226000Y-132158000D02*
X169080000Y-133012000D01*
X171620000Y-133012000D02*
X171620000Y-139000000D01*
X170766000Y-132158000D02*
X171620000Y-133012000D01*
D22*
X173528000Y-93518000D02*
X175052000Y-93518000D01*
X149652000Y-93518000D02*
X173528000Y-93518000D01*
X148636000Y-92502000D02*
X149652000Y-93518000D01*
X178534000Y-97000000D02*
X181500000Y-97000000D01*
X175052000Y-93518000D02*
X178534000Y-97000000D01*
X148636000Y-90470000D02*
X148636000Y-92502000D01*
X147112000Y-94026000D02*
X142032000Y-94026000D01*
X148636000Y-92502000D02*
X147112000Y-94026000D01*
X136500000Y-97000000D02*
X139058000Y-97000000D01*
X142032000Y-91994000D02*
X143556000Y-90470000D01*
X142032000Y-94026000D02*
X142032000Y-91994000D01*
X139058000Y-97000000D02*
X142032000Y-94026000D01*
X136500000Y-97000000D02*
X136582000Y-97000000D01*
X146096000Y-90470000D02*
X146096000Y-89708000D01*
X146096000Y-89708000D02*
X151430000Y-84374000D01*
X151430000Y-84374000D02*
X151430000Y-84120000D01*
D24*
X145620000Y-99392000D02*
X148350000Y-99392000D01*
X145620000Y-99392000D02*
X144096000Y-100916000D01*
X144096000Y-100916000D02*
X140286000Y-100916000D01*
X140286000Y-100916000D02*
X139270000Y-101932000D01*
X141000000Y-126000000D02*
X140094000Y-126000000D01*
X139270000Y-125176000D02*
X139270000Y-101932000D01*
X140094000Y-126000000D02*
X139270000Y-125176000D01*
X148636000Y-99106000D02*
X148636000Y-98090000D01*
X148350000Y-99392000D02*
X148636000Y-99106000D01*
D22*
X151176000Y-90470000D02*
X151938000Y-90470000D01*
X151938000Y-90470000D02*
X152954000Y-89454000D01*
X152954000Y-89454000D02*
X152954000Y-87422000D01*
D24*
X155780000Y-101678000D02*
X158066000Y-101678000D01*
X150446000Y-107012000D02*
X151208000Y-106250000D01*
X151208000Y-106250000D02*
X153494000Y-106250000D01*
X153494000Y-106250000D02*
X154510000Y-105234000D01*
X154510000Y-105234000D02*
X154510000Y-102948000D01*
X154510000Y-102948000D02*
X155780000Y-101678000D01*
X150446000Y-109298000D02*
X150446000Y-107012000D01*
X158066000Y-101678000D02*
X161080000Y-98664000D01*
X161080000Y-98664000D02*
X161080000Y-98000000D01*
X168700000Y-98000000D02*
X168700000Y-96818000D01*
X171020000Y-95836000D02*
X171020000Y-97780000D01*
X170258000Y-95074000D02*
X171020000Y-95836000D01*
X153748000Y-95074000D02*
X170258000Y-95074000D01*
X152478000Y-96344000D02*
X153748000Y-95074000D01*
X152478000Y-99646000D02*
X152478000Y-96344000D01*
X171020000Y-97780000D02*
X171240000Y-98000000D01*
X142826000Y-109298000D02*
X142826000Y-105996000D01*
X152732000Y-102186000D02*
X153494000Y-101424000D01*
X148128000Y-102154000D02*
X152732000Y-102186000D01*
X146858000Y-103424000D02*
X148128000Y-102154000D01*
X145366000Y-103456000D02*
X146858000Y-103424000D01*
X142826000Y-105996000D02*
X145366000Y-103456000D01*
X163620000Y-98000000D02*
X163620000Y-96818000D01*
X163620000Y-96818000D02*
X162638000Y-95836000D01*
X162638000Y-95836000D02*
X154764000Y-95836000D01*
X154764000Y-95836000D02*
X153494000Y-97106000D01*
X153494000Y-97106000D02*
X153494000Y-101424000D01*
D22*
X141270000Y-84120000D02*
X143048000Y-84120000D01*
X145080000Y-82088000D02*
X145080000Y-80310000D01*
X143048000Y-84120000D02*
X145080000Y-82088000D01*
X142794000Y-87422000D02*
X144572000Y-87422000D01*
X147620000Y-84374000D02*
X147620000Y-80310000D01*
X144572000Y-87422000D02*
X147620000Y-84374000D01*
D23*
X156000000Y-90380000D02*
X156000000Y-86150000D01*
X156000000Y-86150000D02*
X153462000Y-83612000D01*
X152700000Y-81580000D02*
X152700000Y-80310000D01*
X153208000Y-82088000D02*
X152700000Y-81580000D01*
X156002000Y-82088000D02*
X153208000Y-82088000D01*
X157018000Y-83104000D02*
X156002000Y-82088000D01*
X171240000Y-90380000D02*
X171240000Y-89266000D01*
X160320000Y-83358000D02*
X160320000Y-80310000D01*
X160828000Y-83866000D02*
X160320000Y-83358000D01*
X162860000Y-84120000D02*
X162860000Y-80310000D01*
X161082000Y-85898000D02*
X162860000Y-84120000D01*
X165400000Y-84120000D02*
X165400000Y-80310000D01*
X163622000Y-85898000D02*
X165400000Y-84120000D01*
X158540000Y-90380000D02*
X158540000Y-88948000D01*
X173020000Y-83866000D02*
X173020000Y-80310000D01*
X169210000Y-87676000D02*
X173020000Y-83866000D01*
X159812000Y-87676000D02*
X169210000Y-87676000D01*
X158540000Y-88948000D02*
X159812000Y-87676000D01*
X161826000Y-67118000D02*
X158076000Y-67118000D01*
X154326000Y-67118000D02*
X152326000Y-67118000D01*
X151000000Y-66126000D02*
X152326000Y-67118000D01*
X164576000Y-66868000D02*
X162576000Y-66868000D01*
X162576000Y-66868000D02*
X161826000Y-67118000D01*
X158076000Y-67118000D02*
X154326000Y-67118000D01*
X170480000Y-74214000D02*
X170480000Y-72944000D01*
X175052000Y-68372000D02*
X175000000Y-66126000D01*
X173803402Y-69351764D02*
X175052000Y-68372000D01*
X171684097Y-69348184D02*
X173803402Y-69351764D01*
X170480000Y-70150000D02*
X171684097Y-69348184D01*
X170480000Y-72944000D02*
X170480000Y-70150000D01*
X167940000Y-74214000D02*
X167940000Y-70658000D01*
X167940000Y-70658000D02*
X168702000Y-69896000D01*
X152750000Y-62626000D02*
X155906000Y-62626000D01*
X159826000Y-61118000D02*
X161826000Y-61118000D01*
X155906000Y-62626000D02*
X159826000Y-61118000D01*
X166576000Y-55926000D02*
X166768000Y-55926000D01*
X168076000Y-54618000D02*
X169576000Y-54618000D01*
X166768000Y-55926000D02*
X168076000Y-54618000D01*
X166162000Y-55926000D02*
X166576000Y-55926000D01*
X166576000Y-55926000D02*
X166670000Y-55926000D01*
X154310000Y-58126000D02*
X155240000Y-57196000D01*
X155240000Y-57196000D02*
X163033060Y-57196000D01*
X163033060Y-57196000D02*
X164303060Y-55926000D01*
X164303060Y-55926000D02*
X166162000Y-55926000D01*
X152750000Y-58126000D02*
X154310000Y-58126000D01*
X171076000Y-63618000D02*
X169464000Y-65070000D01*
X168702000Y-67610000D02*
X169464000Y-65070000D01*
X165400000Y-73198000D02*
X165400000Y-74214000D01*
X166416000Y-72182000D02*
X166416000Y-69896000D01*
X165400000Y-73198000D02*
X166416000Y-72182000D01*
X166416000Y-69896000D02*
X168702000Y-67610000D01*
X176750000Y-58126000D02*
X176408000Y-58126000D01*
X176408000Y-58126000D02*
X175576000Y-60368000D01*
X175576000Y-60368000D02*
X174076000Y-62368000D01*
X174076000Y-62368000D02*
X173076000Y-63618000D01*
X173076000Y-63618000D02*
X171076000Y-63618000D01*
X152750000Y-53626000D02*
X162084000Y-53626000D01*
X162084000Y-53626000D02*
X162098000Y-53640000D01*
X175000000Y-47746000D02*
X175000000Y-50126000D01*
X173782000Y-46528000D02*
X175000000Y-47746000D01*
X166416000Y-46528000D02*
X173782000Y-46528000D01*
X164384000Y-48560000D02*
X166416000Y-46528000D01*
X172076000Y-54868000D02*
X170826000Y-53618000D01*
X173576000Y-54868000D02*
X172076000Y-54868000D01*
X158826000Y-65618000D02*
X162352000Y-63038000D01*
X162352000Y-63038000D02*
X164130000Y-60244000D01*
X164130000Y-60244000D02*
X166670000Y-60244000D01*
X166670000Y-60244000D02*
X168326000Y-61618000D01*
X174576000Y-59368000D02*
X172326000Y-61618000D01*
X174576000Y-55868000D02*
X174576000Y-59368000D01*
X172326000Y-61618000D02*
X168326000Y-61618000D01*
X174576000Y-55868000D02*
X173576000Y-54868000D01*
X170826000Y-53618000D02*
X170826000Y-49300000D01*
X170826000Y-49300000D02*
X171000000Y-49126000D01*
X155240000Y-51608000D02*
X157018000Y-49830000D01*
X158542000Y-49830000D02*
X157018000Y-49830000D01*
X155240000Y-73198000D02*
X155240000Y-74214000D01*
X155240000Y-73198000D02*
X155240000Y-72436000D01*
X160574000Y-50126000D02*
X158838000Y-50126000D01*
X158838000Y-50126000D02*
X158542000Y-49830000D01*
X160828000Y-50126000D02*
X160574000Y-50126000D01*
X160574000Y-50126000D02*
X160532000Y-50126000D01*
X167000000Y-50126000D02*
X160828000Y-50126000D01*
X160828000Y-50126000D02*
X160786000Y-50126000D01*
X143000000Y-48354000D02*
X143000000Y-50126000D01*
X158542000Y-49830000D02*
X155240000Y-46528000D01*
X155240000Y-46528000D02*
X144826000Y-46528000D01*
X144826000Y-46528000D02*
X143000000Y-48354000D01*
X162606000Y-55926000D02*
X164906000Y-53626000D01*
X150668000Y-55926000D02*
X162606000Y-55926000D01*
X164906000Y-53626000D02*
X165250000Y-53626000D01*
X156826000Y-59118000D02*
X162826000Y-59118000D01*
X144826000Y-61868000D02*
X149076000Y-61868000D01*
X149076000Y-61868000D02*
X150576000Y-60368000D01*
X150576000Y-60368000D02*
X155576000Y-60368000D01*
X155576000Y-60368000D02*
X156826000Y-59118000D01*
X141250000Y-58292000D02*
X144826000Y-61868000D01*
X163076000Y-58868000D02*
X164508000Y-58868000D01*
X162826000Y-59118000D02*
X163076000Y-58868000D01*
X164508000Y-58868000D02*
X165250000Y-58126000D01*
X141250000Y-58126000D02*
X141250000Y-58292000D01*
X139832000Y-58126000D02*
X141250000Y-58126000D01*
X138476000Y-59482000D02*
X139832000Y-58126000D01*
X138476000Y-69134000D02*
X138476000Y-59482000D01*
X140762000Y-71420000D02*
X138476000Y-69134000D01*
X145842000Y-71420000D02*
X140762000Y-71420000D01*
X162616475Y-71101578D02*
X152887479Y-71222216D01*
X152887479Y-71222216D02*
X148033713Y-72089642D01*
X162616475Y-71101578D02*
X163326000Y-70368000D01*
X144318000Y-69642000D02*
X146858000Y-69642000D01*
X144318000Y-69642000D02*
X141524000Y-69642000D01*
X141524000Y-69642000D02*
X140254000Y-68372000D01*
X140254000Y-68372000D02*
X140254000Y-63622000D01*
X141250000Y-62626000D02*
X140254000Y-63622000D01*
X147620000Y-72944000D02*
X147620000Y-74214000D01*
X148033713Y-72089642D02*
X147620000Y-72944000D01*
X146858000Y-69642000D02*
X148033713Y-72089642D01*
X149326000Y-68618000D02*
X150414000Y-69642000D01*
X150414000Y-69642000D02*
X160828000Y-69642000D01*
X160828000Y-69642000D02*
X161844000Y-68626000D01*
X161844000Y-68626000D02*
X165400000Y-68626000D01*
X143318000Y-66126000D02*
X144826000Y-64618000D01*
X147826000Y-64618000D02*
X148826000Y-65618000D01*
X144826000Y-64618000D02*
X147826000Y-64618000D01*
X149326000Y-68618000D02*
X148826000Y-65618000D01*
X165400000Y-68626000D02*
X167000000Y-66944000D01*
X167000000Y-66944000D02*
X167000000Y-66126000D01*
X143000000Y-66126000D02*
X143318000Y-66126000D01*
M02*
