G04 #@! TF.FileFunction,Legend,Top*
%FSLAX46Y46*%
G04 Gerber Fmt 4.6, Leading zero omitted, Abs format (unit mm)*
G04 Created by KiCad (PCBNEW 4.0.7) date 10/23/17 00:13:22*
%MOMM*%
%LPD*%
G01*
G04 APERTURE LIST*
%ADD10C,0.100000*%
%ADD11C,0.120000*%
%ADD12C,0.150000*%
%ADD13C,0.200000*%
G04 APERTURE END LIST*
D10*
D11*
X165594000Y-95058000D02*
G75*
G02X165594000Y-97058000I0J-1000000D01*
G01*
X165594000Y-97058000D02*
X165594000Y-98708000D01*
X165594000Y-98708000D02*
X175874000Y-98708000D01*
X175874000Y-98708000D02*
X175874000Y-93408000D01*
X175874000Y-93408000D02*
X165594000Y-93408000D01*
X165594000Y-93408000D02*
X165594000Y-95058000D01*
X187558000Y-108088000D02*
X187558000Y-102968000D01*
X190178000Y-108088000D02*
X190178000Y-102968000D01*
X187558000Y-108088000D02*
X190178000Y-108088000D01*
X187558000Y-102968000D02*
X190178000Y-102968000D01*
X200678000Y-103468000D02*
X200678000Y-108588000D01*
X198058000Y-103468000D02*
X198058000Y-108588000D01*
X200678000Y-103468000D02*
X198058000Y-103468000D01*
X200678000Y-108588000D02*
X198058000Y-108588000D01*
X159058000Y-118838000D02*
X159058000Y-113718000D01*
X161678000Y-118838000D02*
X161678000Y-113718000D01*
X159058000Y-118838000D02*
X159372000Y-118838000D01*
X161364000Y-118838000D02*
X161678000Y-118838000D01*
X159058000Y-113718000D02*
X159372000Y-113718000D01*
X161364000Y-113718000D02*
X161678000Y-113718000D01*
X180058000Y-122468000D02*
X185178000Y-122468000D01*
X180058000Y-125088000D02*
X185178000Y-125088000D01*
X180058000Y-122468000D02*
X180058000Y-125088000D01*
X185178000Y-122468000D02*
X185178000Y-125088000D01*
X186178000Y-102718000D02*
X186178000Y-107838000D01*
X183558000Y-102718000D02*
X183558000Y-107838000D01*
X186178000Y-102718000D02*
X185864000Y-102718000D01*
X183872000Y-102718000D02*
X183558000Y-102718000D01*
X186178000Y-107838000D02*
X185864000Y-107838000D01*
X183872000Y-107838000D02*
X183558000Y-107838000D01*
X171178000Y-102718000D02*
X171178000Y-107838000D01*
X168558000Y-102718000D02*
X168558000Y-107838000D01*
X171178000Y-102718000D02*
X170864000Y-102718000D01*
X168872000Y-102718000D02*
X168558000Y-102718000D01*
X171178000Y-107838000D02*
X170864000Y-107838000D01*
X168872000Y-107838000D02*
X168558000Y-107838000D01*
X203538000Y-137728000D02*
X206198000Y-137728000D01*
X203538000Y-130048000D02*
X203538000Y-137728000D01*
X206198000Y-130048000D02*
X206198000Y-137728000D01*
X203538000Y-130048000D02*
X206198000Y-130048000D01*
X203538000Y-128778000D02*
X203538000Y-127448000D01*
X203538000Y-127448000D02*
X204868000Y-127448000D01*
X206198000Y-112288000D02*
X203538000Y-112288000D01*
X206198000Y-122508000D02*
X206198000Y-112288000D01*
X203538000Y-122508000D02*
X203538000Y-112288000D01*
X206198000Y-122508000D02*
X203538000Y-122508000D01*
X206198000Y-123778000D02*
X206198000Y-125108000D01*
X206198000Y-125108000D02*
X204868000Y-125108000D01*
X158538000Y-137728000D02*
X161198000Y-137728000D01*
X158538000Y-130048000D02*
X158538000Y-137728000D01*
X161198000Y-130048000D02*
X161198000Y-137728000D01*
X158538000Y-130048000D02*
X161198000Y-130048000D01*
X158538000Y-128778000D02*
X158538000Y-127448000D01*
X158538000Y-127448000D02*
X159868000Y-127448000D01*
X179684000Y-143743000D02*
X179684000Y-138543000D01*
X174544000Y-143743000D02*
X179684000Y-143743000D01*
X171944000Y-138543000D02*
X179684000Y-138543000D01*
X174544000Y-143743000D02*
X174544000Y-141143000D01*
X174544000Y-141143000D02*
X171944000Y-141143000D01*
X171944000Y-141143000D02*
X171944000Y-138543000D01*
X173274000Y-143743000D02*
X171944000Y-143743000D01*
X171944000Y-143743000D02*
X171944000Y-142413000D01*
X196318000Y-142108000D02*
X196318000Y-139448000D01*
X188638000Y-142108000D02*
X196318000Y-142108000D01*
X188638000Y-139448000D02*
X196318000Y-139448000D01*
X188638000Y-142108000D02*
X188638000Y-139448000D01*
X187368000Y-142108000D02*
X186038000Y-142108000D01*
X186038000Y-142108000D02*
X186038000Y-140778000D01*
X203538000Y-110268000D02*
X206198000Y-110268000D01*
X203538000Y-100048000D02*
X203538000Y-110268000D01*
X206198000Y-100048000D02*
X206198000Y-110268000D01*
X203538000Y-100048000D02*
X206198000Y-100048000D01*
X203538000Y-98778000D02*
X203538000Y-97448000D01*
X203538000Y-97448000D02*
X204868000Y-97448000D01*
X158538000Y-110268000D02*
X161198000Y-110268000D01*
X158538000Y-100048000D02*
X158538000Y-110268000D01*
X161198000Y-100048000D02*
X161198000Y-110268000D01*
X158538000Y-100048000D02*
X161198000Y-100048000D01*
X158538000Y-98778000D02*
X158538000Y-97448000D01*
X158538000Y-97448000D02*
X159868000Y-97448000D01*
X189238000Y-122468000D02*
X189238000Y-125088000D01*
X189238000Y-125088000D02*
X195658000Y-125088000D01*
X195658000Y-125088000D02*
X195658000Y-122468000D01*
X195658000Y-122468000D02*
X189238000Y-122468000D01*
X188348000Y-123778000D02*
X189238000Y-123778000D01*
X196548000Y-123778000D02*
X195658000Y-123778000D01*
X166238000Y-122468000D02*
X166238000Y-125088000D01*
X166238000Y-125088000D02*
X172658000Y-125088000D01*
X172658000Y-125088000D02*
X172658000Y-122468000D01*
X172658000Y-122468000D02*
X166238000Y-122468000D01*
X165348000Y-123778000D02*
X166238000Y-123778000D01*
X173548000Y-123778000D02*
X172658000Y-123778000D01*
X172928000Y-87208000D02*
X172928000Y-84588000D01*
X172928000Y-84588000D02*
X166508000Y-84588000D01*
X166508000Y-84588000D02*
X166508000Y-87208000D01*
X166508000Y-87208000D02*
X172928000Y-87208000D01*
X173818000Y-85898000D02*
X172928000Y-85898000D01*
X165618000Y-85898000D02*
X166508000Y-85898000D01*
X166238000Y-126468000D02*
X166238000Y-129088000D01*
X166238000Y-129088000D02*
X172658000Y-129088000D01*
X172658000Y-129088000D02*
X172658000Y-126468000D01*
X172658000Y-126468000D02*
X166238000Y-126468000D01*
X165348000Y-127778000D02*
X166238000Y-127778000D01*
X173548000Y-127778000D02*
X172658000Y-127778000D01*
X174452000Y-90510000D02*
X174452000Y-87890000D01*
X174452000Y-87890000D02*
X168032000Y-87890000D01*
X168032000Y-87890000D02*
X168032000Y-90510000D01*
X168032000Y-90510000D02*
X174452000Y-90510000D01*
X175342000Y-89200000D02*
X174452000Y-89200000D01*
X167142000Y-89200000D02*
X168032000Y-89200000D01*
X200544000Y-115886000D02*
G75*
G02X200544000Y-113886000I0J1000000D01*
G01*
X200544000Y-113886000D02*
X200544000Y-112636000D01*
X200544000Y-112636000D02*
X164864000Y-112636000D01*
X164864000Y-112636000D02*
X164864000Y-117136000D01*
X164864000Y-117136000D02*
X200544000Y-117136000D01*
X200544000Y-117136000D02*
X200544000Y-115886000D01*
X178038000Y-94968000D02*
G75*
G02X178038000Y-96968000I0J-1000000D01*
G01*
X178038000Y-96968000D02*
X178038000Y-98218000D01*
X178038000Y-98218000D02*
X198478000Y-98218000D01*
X198478000Y-98218000D02*
X198478000Y-93718000D01*
X198478000Y-93718000D02*
X178038000Y-93718000D01*
X178038000Y-93718000D02*
X178038000Y-94968000D01*
D12*
X181768000Y-103978000D02*
X172968000Y-103978000D01*
X181768000Y-108378000D02*
X173068000Y-108378000D01*
X173068000Y-108378000D02*
X172968000Y-108378000D01*
X172968000Y-103978000D02*
G75*
G03X172968000Y-108378000I2200000J-2200000D01*
G01*
X181768000Y-108378000D02*
G75*
G03X181768000Y-103978000I-2200000J2200000D01*
G01*
D11*
X173754000Y-132098000D02*
X173754000Y-134758000D01*
X183974000Y-132098000D02*
X173754000Y-132098000D01*
X183974000Y-134758000D02*
X173754000Y-134758000D01*
X183974000Y-132098000D02*
X183974000Y-134758000D01*
X185244000Y-132098000D02*
X186574000Y-132098000D01*
X186574000Y-132098000D02*
X186574000Y-133428000D01*
X197718000Y-83418000D02*
X197718000Y-80758000D01*
X169718000Y-83418000D02*
X197718000Y-83418000D01*
X169718000Y-80758000D02*
X197718000Y-80758000D01*
X169718000Y-83418000D02*
X169718000Y-80758000D01*
X168448000Y-83418000D02*
X167118000Y-83418000D01*
X167118000Y-83418000D02*
X167118000Y-82088000D01*
X167118000Y-74662000D02*
X167118000Y-77322000D01*
X195118000Y-74662000D02*
X167118000Y-74662000D01*
X195118000Y-77322000D02*
X167118000Y-77322000D01*
X195118000Y-74662000D02*
X195118000Y-77322000D01*
X196388000Y-74662000D02*
X197718000Y-74662000D01*
X197718000Y-74662000D02*
X197718000Y-75992000D01*
X116572000Y-95058000D02*
G75*
G02X116572000Y-97058000I0J-1000000D01*
G01*
X116572000Y-97058000D02*
X116572000Y-98708000D01*
X116572000Y-98708000D02*
X126852000Y-98708000D01*
X126852000Y-98708000D02*
X126852000Y-93408000D01*
X126852000Y-93408000D02*
X116572000Y-93408000D01*
X116572000Y-93408000D02*
X116572000Y-95058000D01*
X138536000Y-108088000D02*
X138536000Y-102968000D01*
X141156000Y-108088000D02*
X141156000Y-102968000D01*
X138536000Y-108088000D02*
X141156000Y-108088000D01*
X138536000Y-102968000D02*
X141156000Y-102968000D01*
X151656000Y-103468000D02*
X151656000Y-108588000D01*
X149036000Y-103468000D02*
X149036000Y-108588000D01*
X151656000Y-103468000D02*
X149036000Y-103468000D01*
X151656000Y-108588000D02*
X149036000Y-108588000D01*
X110036000Y-118838000D02*
X110036000Y-113718000D01*
X112656000Y-118838000D02*
X112656000Y-113718000D01*
X110036000Y-118838000D02*
X110350000Y-118838000D01*
X112342000Y-118838000D02*
X112656000Y-118838000D01*
X110036000Y-113718000D02*
X110350000Y-113718000D01*
X112342000Y-113718000D02*
X112656000Y-113718000D01*
X131036000Y-122468000D02*
X136156000Y-122468000D01*
X131036000Y-125088000D02*
X136156000Y-125088000D01*
X131036000Y-122468000D02*
X131036000Y-125088000D01*
X136156000Y-122468000D02*
X136156000Y-125088000D01*
X137156000Y-102718000D02*
X137156000Y-107838000D01*
X134536000Y-102718000D02*
X134536000Y-107838000D01*
X137156000Y-102718000D02*
X136842000Y-102718000D01*
X134850000Y-102718000D02*
X134536000Y-102718000D01*
X137156000Y-107838000D02*
X136842000Y-107838000D01*
X134850000Y-107838000D02*
X134536000Y-107838000D01*
X122156000Y-102718000D02*
X122156000Y-107838000D01*
X119536000Y-102718000D02*
X119536000Y-107838000D01*
X122156000Y-102718000D02*
X121842000Y-102718000D01*
X119850000Y-102718000D02*
X119536000Y-102718000D01*
X122156000Y-107838000D02*
X121842000Y-107838000D01*
X119850000Y-107838000D02*
X119536000Y-107838000D01*
X154516000Y-137728000D02*
X157176000Y-137728000D01*
X154516000Y-130048000D02*
X154516000Y-137728000D01*
X157176000Y-130048000D02*
X157176000Y-137728000D01*
X154516000Y-130048000D02*
X157176000Y-130048000D01*
X154516000Y-128778000D02*
X154516000Y-127448000D01*
X154516000Y-127448000D02*
X155846000Y-127448000D01*
X157176000Y-112288000D02*
X154516000Y-112288000D01*
X157176000Y-122508000D02*
X157176000Y-112288000D01*
X154516000Y-122508000D02*
X154516000Y-112288000D01*
X157176000Y-122508000D02*
X154516000Y-122508000D01*
X157176000Y-123778000D02*
X157176000Y-125108000D01*
X157176000Y-125108000D02*
X155846000Y-125108000D01*
X109516000Y-137728000D02*
X112176000Y-137728000D01*
X109516000Y-130048000D02*
X109516000Y-137728000D01*
X112176000Y-130048000D02*
X112176000Y-137728000D01*
X109516000Y-130048000D02*
X112176000Y-130048000D01*
X109516000Y-128778000D02*
X109516000Y-127448000D01*
X109516000Y-127448000D02*
X110846000Y-127448000D01*
X130662000Y-143743000D02*
X130662000Y-138543000D01*
X125522000Y-143743000D02*
X130662000Y-143743000D01*
X122922000Y-138543000D02*
X130662000Y-138543000D01*
X125522000Y-143743000D02*
X125522000Y-141143000D01*
X125522000Y-141143000D02*
X122922000Y-141143000D01*
X122922000Y-141143000D02*
X122922000Y-138543000D01*
X124252000Y-143743000D02*
X122922000Y-143743000D01*
X122922000Y-143743000D02*
X122922000Y-142413000D01*
X147296000Y-142108000D02*
X147296000Y-139448000D01*
X139616000Y-142108000D02*
X147296000Y-142108000D01*
X139616000Y-139448000D02*
X147296000Y-139448000D01*
X139616000Y-142108000D02*
X139616000Y-139448000D01*
X138346000Y-142108000D02*
X137016000Y-142108000D01*
X137016000Y-142108000D02*
X137016000Y-140778000D01*
X154516000Y-110268000D02*
X157176000Y-110268000D01*
X154516000Y-100048000D02*
X154516000Y-110268000D01*
X157176000Y-100048000D02*
X157176000Y-110268000D01*
X154516000Y-100048000D02*
X157176000Y-100048000D01*
X154516000Y-98778000D02*
X154516000Y-97448000D01*
X154516000Y-97448000D02*
X155846000Y-97448000D01*
X109516000Y-110268000D02*
X112176000Y-110268000D01*
X109516000Y-100048000D02*
X109516000Y-110268000D01*
X112176000Y-100048000D02*
X112176000Y-110268000D01*
X109516000Y-100048000D02*
X112176000Y-100048000D01*
X109516000Y-98778000D02*
X109516000Y-97448000D01*
X109516000Y-97448000D02*
X110846000Y-97448000D01*
X140216000Y-122468000D02*
X140216000Y-125088000D01*
X140216000Y-125088000D02*
X146636000Y-125088000D01*
X146636000Y-125088000D02*
X146636000Y-122468000D01*
X146636000Y-122468000D02*
X140216000Y-122468000D01*
X139326000Y-123778000D02*
X140216000Y-123778000D01*
X147526000Y-123778000D02*
X146636000Y-123778000D01*
X117216000Y-122468000D02*
X117216000Y-125088000D01*
X117216000Y-125088000D02*
X123636000Y-125088000D01*
X123636000Y-125088000D02*
X123636000Y-122468000D01*
X123636000Y-122468000D02*
X117216000Y-122468000D01*
X116326000Y-123778000D02*
X117216000Y-123778000D01*
X124526000Y-123778000D02*
X123636000Y-123778000D01*
X123906000Y-87208000D02*
X123906000Y-84588000D01*
X123906000Y-84588000D02*
X117486000Y-84588000D01*
X117486000Y-84588000D02*
X117486000Y-87208000D01*
X117486000Y-87208000D02*
X123906000Y-87208000D01*
X124796000Y-85898000D02*
X123906000Y-85898000D01*
X116596000Y-85898000D02*
X117486000Y-85898000D01*
X117216000Y-126468000D02*
X117216000Y-129088000D01*
X117216000Y-129088000D02*
X123636000Y-129088000D01*
X123636000Y-129088000D02*
X123636000Y-126468000D01*
X123636000Y-126468000D02*
X117216000Y-126468000D01*
X116326000Y-127778000D02*
X117216000Y-127778000D01*
X124526000Y-127778000D02*
X123636000Y-127778000D01*
X125430000Y-90510000D02*
X125430000Y-87890000D01*
X125430000Y-87890000D02*
X119010000Y-87890000D01*
X119010000Y-87890000D02*
X119010000Y-90510000D01*
X119010000Y-90510000D02*
X125430000Y-90510000D01*
X126320000Y-89200000D02*
X125430000Y-89200000D01*
X118120000Y-89200000D02*
X119010000Y-89200000D01*
X151522000Y-115886000D02*
G75*
G02X151522000Y-113886000I0J1000000D01*
G01*
X151522000Y-113886000D02*
X151522000Y-112636000D01*
X151522000Y-112636000D02*
X115842000Y-112636000D01*
X115842000Y-112636000D02*
X115842000Y-117136000D01*
X115842000Y-117136000D02*
X151522000Y-117136000D01*
X151522000Y-117136000D02*
X151522000Y-115886000D01*
X129016000Y-94968000D02*
G75*
G02X129016000Y-96968000I0J-1000000D01*
G01*
X129016000Y-96968000D02*
X129016000Y-98218000D01*
X129016000Y-98218000D02*
X149456000Y-98218000D01*
X149456000Y-98218000D02*
X149456000Y-93718000D01*
X149456000Y-93718000D02*
X129016000Y-93718000D01*
X129016000Y-93718000D02*
X129016000Y-94968000D01*
D12*
X132746000Y-103978000D02*
X123946000Y-103978000D01*
X132746000Y-108378000D02*
X124046000Y-108378000D01*
X124046000Y-108378000D02*
X123946000Y-108378000D01*
X123946000Y-103978000D02*
G75*
G03X123946000Y-108378000I2200000J-2200000D01*
G01*
X132746000Y-108378000D02*
G75*
G03X132746000Y-103978000I-2200000J2200000D01*
G01*
D11*
X124732000Y-132098000D02*
X124732000Y-134758000D01*
X134952000Y-132098000D02*
X124732000Y-132098000D01*
X134952000Y-134758000D02*
X124732000Y-134758000D01*
X134952000Y-132098000D02*
X134952000Y-134758000D01*
X136222000Y-132098000D02*
X137552000Y-132098000D01*
X137552000Y-132098000D02*
X137552000Y-133428000D01*
X148696000Y-83418000D02*
X148696000Y-80758000D01*
X120696000Y-83418000D02*
X148696000Y-83418000D01*
X120696000Y-80758000D02*
X148696000Y-80758000D01*
X120696000Y-83418000D02*
X120696000Y-80758000D01*
X119426000Y-83418000D02*
X118096000Y-83418000D01*
X118096000Y-83418000D02*
X118096000Y-82088000D01*
X118096000Y-74662000D02*
X118096000Y-77322000D01*
X146096000Y-74662000D02*
X118096000Y-74662000D01*
X146096000Y-77322000D02*
X118096000Y-77322000D01*
X146096000Y-74662000D02*
X146096000Y-77322000D01*
X147366000Y-74662000D02*
X148696000Y-74662000D01*
X148696000Y-74662000D02*
X148696000Y-75992000D01*
D12*
X164046381Y-96819905D02*
X164855905Y-96819905D01*
X164951143Y-96772286D01*
X164998762Y-96724667D01*
X165046381Y-96629429D01*
X165046381Y-96438952D01*
X164998762Y-96343714D01*
X164951143Y-96296095D01*
X164855905Y-96248476D01*
X164046381Y-96248476D01*
X164141619Y-95819905D02*
X164094000Y-95772286D01*
X164046381Y-95677048D01*
X164046381Y-95438952D01*
X164094000Y-95343714D01*
X164141619Y-95296095D01*
X164236857Y-95248476D01*
X164332095Y-95248476D01*
X164474952Y-95296095D01*
X165046381Y-95867524D01*
X165046381Y-95248476D01*
X191411143Y-105622666D02*
X191458762Y-105670285D01*
X191506381Y-105813142D01*
X191506381Y-105908380D01*
X191458762Y-106051238D01*
X191363524Y-106146476D01*
X191268286Y-106194095D01*
X191077810Y-106241714D01*
X190934952Y-106241714D01*
X190744476Y-106194095D01*
X190649238Y-106146476D01*
X190554000Y-106051238D01*
X190506381Y-105908380D01*
X190506381Y-105813142D01*
X190554000Y-105670285D01*
X190601619Y-105622666D01*
X191506381Y-104670285D02*
X191506381Y-105241714D01*
X191506381Y-104956000D02*
X190506381Y-104956000D01*
X190649238Y-105051238D01*
X190744476Y-105146476D01*
X190792095Y-105241714D01*
X202285143Y-106194666D02*
X202332762Y-106242285D01*
X202380381Y-106385142D01*
X202380381Y-106480380D01*
X202332762Y-106623238D01*
X202237524Y-106718476D01*
X202142286Y-106766095D01*
X201951810Y-106813714D01*
X201808952Y-106813714D01*
X201618476Y-106766095D01*
X201523238Y-106718476D01*
X201428000Y-106623238D01*
X201380381Y-106480380D01*
X201380381Y-106385142D01*
X201428000Y-106242285D01*
X201475619Y-106194666D01*
X201475619Y-105813714D02*
X201428000Y-105766095D01*
X201380381Y-105670857D01*
X201380381Y-105432761D01*
X201428000Y-105337523D01*
X201475619Y-105289904D01*
X201570857Y-105242285D01*
X201666095Y-105242285D01*
X201808952Y-105289904D01*
X202380381Y-105861333D01*
X202380381Y-105242285D01*
X162963143Y-116036666D02*
X163010762Y-116084285D01*
X163058381Y-116227142D01*
X163058381Y-116322380D01*
X163010762Y-116465238D01*
X162915524Y-116560476D01*
X162820286Y-116608095D01*
X162629810Y-116655714D01*
X162486952Y-116655714D01*
X162296476Y-116608095D01*
X162201238Y-116560476D01*
X162106000Y-116465238D01*
X162058381Y-116322380D01*
X162058381Y-116227142D01*
X162106000Y-116084285D01*
X162153619Y-116036666D01*
X162058381Y-115703333D02*
X162058381Y-115084285D01*
X162439333Y-115417619D01*
X162439333Y-115274761D01*
X162486952Y-115179523D01*
X162534571Y-115131904D01*
X162629810Y-115084285D01*
X162867905Y-115084285D01*
X162963143Y-115131904D01*
X163010762Y-115179523D01*
X163058381Y-115274761D01*
X163058381Y-115560476D01*
X163010762Y-115655714D01*
X162963143Y-115703333D01*
X182451334Y-121575143D02*
X182403715Y-121622762D01*
X182260858Y-121670381D01*
X182165620Y-121670381D01*
X182022762Y-121622762D01*
X181927524Y-121527524D01*
X181879905Y-121432286D01*
X181832286Y-121241810D01*
X181832286Y-121098952D01*
X181879905Y-120908476D01*
X181927524Y-120813238D01*
X182022762Y-120718000D01*
X182165620Y-120670381D01*
X182260858Y-120670381D01*
X182403715Y-120718000D01*
X182451334Y-120765619D01*
X183308477Y-121003714D02*
X183308477Y-121670381D01*
X183070381Y-120622762D02*
X182832286Y-121337048D01*
X183451334Y-121337048D01*
X183029143Y-103336666D02*
X183076762Y-103384285D01*
X183124381Y-103527142D01*
X183124381Y-103622380D01*
X183076762Y-103765238D01*
X182981524Y-103860476D01*
X182886286Y-103908095D01*
X182695810Y-103955714D01*
X182552952Y-103955714D01*
X182362476Y-103908095D01*
X182267238Y-103860476D01*
X182172000Y-103765238D01*
X182124381Y-103622380D01*
X182124381Y-103527142D01*
X182172000Y-103384285D01*
X182219619Y-103336666D01*
X182124381Y-102431904D02*
X182124381Y-102908095D01*
X182600571Y-102955714D01*
X182552952Y-102908095D01*
X182505333Y-102812857D01*
X182505333Y-102574761D01*
X182552952Y-102479523D01*
X182600571Y-102431904D01*
X182695810Y-102384285D01*
X182933905Y-102384285D01*
X183029143Y-102431904D01*
X183076762Y-102479523D01*
X183124381Y-102574761D01*
X183124381Y-102812857D01*
X183076762Y-102908095D01*
X183029143Y-102955714D01*
X168043143Y-105368666D02*
X168090762Y-105416285D01*
X168138381Y-105559142D01*
X168138381Y-105654380D01*
X168090762Y-105797238D01*
X167995524Y-105892476D01*
X167900286Y-105940095D01*
X167709810Y-105987714D01*
X167566952Y-105987714D01*
X167376476Y-105940095D01*
X167281238Y-105892476D01*
X167186000Y-105797238D01*
X167138381Y-105654380D01*
X167138381Y-105559142D01*
X167186000Y-105416285D01*
X167233619Y-105368666D01*
X167138381Y-104511523D02*
X167138381Y-104702000D01*
X167186000Y-104797238D01*
X167233619Y-104844857D01*
X167376476Y-104940095D01*
X167566952Y-104987714D01*
X167947905Y-104987714D01*
X168043143Y-104940095D01*
X168090762Y-104892476D01*
X168138381Y-104797238D01*
X168138381Y-104606761D01*
X168090762Y-104511523D01*
X168043143Y-104463904D01*
X167947905Y-104416285D01*
X167709810Y-104416285D01*
X167614571Y-104463904D01*
X167566952Y-104511523D01*
X167519333Y-104606761D01*
X167519333Y-104797238D01*
X167566952Y-104892476D01*
X167614571Y-104940095D01*
X167709810Y-104987714D01*
X202150667Y-128530381D02*
X202150667Y-129244667D01*
X202103047Y-129387524D01*
X202007809Y-129482762D01*
X201864952Y-129530381D01*
X201769714Y-129530381D01*
X203150667Y-129530381D02*
X202579238Y-129530381D01*
X202864952Y-129530381D02*
X202864952Y-128530381D01*
X202769714Y-128673238D01*
X202674476Y-128768476D01*
X202579238Y-128816095D01*
X201642667Y-123450381D02*
X201642667Y-124164667D01*
X201595047Y-124307524D01*
X201499809Y-124402762D01*
X201356952Y-124450381D01*
X201261714Y-124450381D01*
X202071238Y-123545619D02*
X202118857Y-123498000D01*
X202214095Y-123450381D01*
X202452191Y-123450381D01*
X202547429Y-123498000D01*
X202595048Y-123545619D01*
X202642667Y-123640857D01*
X202642667Y-123736095D01*
X202595048Y-123878952D01*
X202023619Y-124450381D01*
X202642667Y-124450381D01*
X159534667Y-125900381D02*
X159534667Y-126614667D01*
X159487047Y-126757524D01*
X159391809Y-126852762D01*
X159248952Y-126900381D01*
X159153714Y-126900381D01*
X159915619Y-125900381D02*
X160534667Y-125900381D01*
X160201333Y-126281333D01*
X160344191Y-126281333D01*
X160439429Y-126328952D01*
X160487048Y-126376571D01*
X160534667Y-126471810D01*
X160534667Y-126709905D01*
X160487048Y-126805143D01*
X160439429Y-126852762D01*
X160344191Y-126900381D01*
X160058476Y-126900381D01*
X159963238Y-126852762D01*
X159915619Y-126805143D01*
X170396381Y-141476333D02*
X171110667Y-141476333D01*
X171253524Y-141523953D01*
X171348762Y-141619191D01*
X171396381Y-141762048D01*
X171396381Y-141857286D01*
X170729714Y-140571571D02*
X171396381Y-140571571D01*
X170348762Y-140809667D02*
X171063048Y-141047762D01*
X171063048Y-140428714D01*
X184490381Y-141111333D02*
X185204667Y-141111333D01*
X185347524Y-141158953D01*
X185442762Y-141254191D01*
X185490381Y-141397048D01*
X185490381Y-141492286D01*
X184490381Y-140158952D02*
X184490381Y-140635143D01*
X184966571Y-140682762D01*
X184918952Y-140635143D01*
X184871333Y-140539905D01*
X184871333Y-140301809D01*
X184918952Y-140206571D01*
X184966571Y-140158952D01*
X185061810Y-140111333D01*
X185299905Y-140111333D01*
X185395143Y-140158952D01*
X185442762Y-140206571D01*
X185490381Y-140301809D01*
X185490381Y-140539905D01*
X185442762Y-140635143D01*
X185395143Y-140682762D01*
X204534667Y-95900381D02*
X204534667Y-96614667D01*
X204487047Y-96757524D01*
X204391809Y-96852762D01*
X204248952Y-96900381D01*
X204153714Y-96900381D01*
X205439429Y-95900381D02*
X205248952Y-95900381D01*
X205153714Y-95948000D01*
X205106095Y-95995619D01*
X205010857Y-96138476D01*
X204963238Y-96328952D01*
X204963238Y-96709905D01*
X205010857Y-96805143D01*
X205058476Y-96852762D01*
X205153714Y-96900381D01*
X205344191Y-96900381D01*
X205439429Y-96852762D01*
X205487048Y-96805143D01*
X205534667Y-96709905D01*
X205534667Y-96471810D01*
X205487048Y-96376571D01*
X205439429Y-96328952D01*
X205344191Y-96281333D01*
X205153714Y-96281333D01*
X205058476Y-96328952D01*
X205010857Y-96376571D01*
X204963238Y-96471810D01*
X159534667Y-95900381D02*
X159534667Y-96614667D01*
X159487047Y-96757524D01*
X159391809Y-96852762D01*
X159248952Y-96900381D01*
X159153714Y-96900381D01*
X159915619Y-95900381D02*
X160582286Y-95900381D01*
X160153714Y-96900381D01*
X192281334Y-121920381D02*
X191948000Y-121444190D01*
X191709905Y-121920381D02*
X191709905Y-120920381D01*
X192090858Y-120920381D01*
X192186096Y-120968000D01*
X192233715Y-121015619D01*
X192281334Y-121110857D01*
X192281334Y-121253714D01*
X192233715Y-121348952D01*
X192186096Y-121396571D01*
X192090858Y-121444190D01*
X191709905Y-121444190D01*
X193233715Y-121920381D02*
X192662286Y-121920381D01*
X192948000Y-121920381D02*
X192948000Y-120920381D01*
X192852762Y-121063238D01*
X192757524Y-121158476D01*
X192662286Y-121206095D01*
X169281334Y-121920381D02*
X168948000Y-121444190D01*
X168709905Y-121920381D02*
X168709905Y-120920381D01*
X169090858Y-120920381D01*
X169186096Y-120968000D01*
X169233715Y-121015619D01*
X169281334Y-121110857D01*
X169281334Y-121253714D01*
X169233715Y-121348952D01*
X169186096Y-121396571D01*
X169090858Y-121444190D01*
X168709905Y-121444190D01*
X169662286Y-121015619D02*
X169709905Y-120968000D01*
X169805143Y-120920381D01*
X170043239Y-120920381D01*
X170138477Y-120968000D01*
X170186096Y-121015619D01*
X170233715Y-121110857D01*
X170233715Y-121206095D01*
X170186096Y-121348952D01*
X169614667Y-121920381D01*
X170233715Y-121920381D01*
X164217334Y-84064381D02*
X163884000Y-83588190D01*
X163645905Y-84064381D02*
X163645905Y-83064381D01*
X164026858Y-83064381D01*
X164122096Y-83112000D01*
X164169715Y-83159619D01*
X164217334Y-83254857D01*
X164217334Y-83397714D01*
X164169715Y-83492952D01*
X164122096Y-83540571D01*
X164026858Y-83588190D01*
X163645905Y-83588190D01*
X164550667Y-83064381D02*
X165169715Y-83064381D01*
X164836381Y-83445333D01*
X164979239Y-83445333D01*
X165074477Y-83492952D01*
X165122096Y-83540571D01*
X165169715Y-83635810D01*
X165169715Y-83873905D01*
X165122096Y-83969143D01*
X165074477Y-84016762D01*
X164979239Y-84064381D01*
X164693524Y-84064381D01*
X164598286Y-84016762D01*
X164550667Y-83969143D01*
X169043334Y-130800381D02*
X168710000Y-130324190D01*
X168471905Y-130800381D02*
X168471905Y-129800381D01*
X168852858Y-129800381D01*
X168948096Y-129848000D01*
X168995715Y-129895619D01*
X169043334Y-129990857D01*
X169043334Y-130133714D01*
X168995715Y-130228952D01*
X168948096Y-130276571D01*
X168852858Y-130324190D01*
X168471905Y-130324190D01*
X169900477Y-130133714D02*
X169900477Y-130800381D01*
X169662381Y-129752762D02*
X169424286Y-130467048D01*
X170043334Y-130467048D01*
X163963334Y-89144381D02*
X163630000Y-88668190D01*
X163391905Y-89144381D02*
X163391905Y-88144381D01*
X163772858Y-88144381D01*
X163868096Y-88192000D01*
X163915715Y-88239619D01*
X163963334Y-88334857D01*
X163963334Y-88477714D01*
X163915715Y-88572952D01*
X163868096Y-88620571D01*
X163772858Y-88668190D01*
X163391905Y-88668190D01*
X164868096Y-88144381D02*
X164391905Y-88144381D01*
X164344286Y-88620571D01*
X164391905Y-88572952D01*
X164487143Y-88525333D01*
X164725239Y-88525333D01*
X164820477Y-88572952D01*
X164868096Y-88620571D01*
X164915715Y-88715810D01*
X164915715Y-88953905D01*
X164868096Y-89049143D01*
X164820477Y-89096762D01*
X164725239Y-89144381D01*
X164487143Y-89144381D01*
X164391905Y-89096762D01*
X164344286Y-89049143D01*
X200996381Y-115647905D02*
X201805905Y-115647905D01*
X201901143Y-115600286D01*
X201948762Y-115552667D01*
X201996381Y-115457429D01*
X201996381Y-115266952D01*
X201948762Y-115171714D01*
X201901143Y-115124095D01*
X201805905Y-115076476D01*
X200996381Y-115076476D01*
X201996381Y-114076476D02*
X201996381Y-114647905D01*
X201996381Y-114362191D02*
X200996381Y-114362191D01*
X201139238Y-114457429D01*
X201234476Y-114552667D01*
X201282095Y-114647905D01*
X176490381Y-96729905D02*
X177299905Y-96729905D01*
X177395143Y-96682286D01*
X177442762Y-96634667D01*
X177490381Y-96539429D01*
X177490381Y-96348952D01*
X177442762Y-96253714D01*
X177395143Y-96206095D01*
X177299905Y-96158476D01*
X176490381Y-96158476D01*
X176490381Y-95777524D02*
X176490381Y-95158476D01*
X176871333Y-95491810D01*
X176871333Y-95348952D01*
X176918952Y-95253714D01*
X176966571Y-95206095D01*
X177061810Y-95158476D01*
X177299905Y-95158476D01*
X177395143Y-95206095D01*
X177442762Y-95253714D01*
X177490381Y-95348952D01*
X177490381Y-95634667D01*
X177442762Y-95729905D01*
X177395143Y-95777524D01*
X169806095Y-64156381D02*
X169806095Y-64965905D01*
X169853714Y-65061143D01*
X169901333Y-65108762D01*
X169996571Y-65156381D01*
X170187048Y-65156381D01*
X170282286Y-65108762D01*
X170329905Y-65061143D01*
X170377524Y-64965905D01*
X170377524Y-64156381D01*
X171282286Y-64489714D02*
X171282286Y-65156381D01*
X171044190Y-64108762D02*
X170806095Y-64823048D01*
X171425143Y-64823048D01*
D13*
X177439429Y-71761143D02*
X176296571Y-71761143D01*
X176868000Y-71761143D02*
X176868000Y-68761143D01*
X176677524Y-69189714D01*
X176487048Y-69475429D01*
X176296571Y-69618286D01*
D12*
X193806095Y-64156381D02*
X193806095Y-64965905D01*
X193853714Y-65061143D01*
X193901333Y-65108762D01*
X193996571Y-65156381D01*
X194187048Y-65156381D01*
X194282286Y-65108762D01*
X194329905Y-65061143D01*
X194377524Y-64965905D01*
X194377524Y-64156381D01*
X195329905Y-64156381D02*
X194853714Y-64156381D01*
X194806095Y-64632571D01*
X194853714Y-64584952D01*
X194948952Y-64537333D01*
X195187048Y-64537333D01*
X195282286Y-64584952D01*
X195329905Y-64632571D01*
X195377524Y-64727810D01*
X195377524Y-64965905D01*
X195329905Y-65061143D01*
X195282286Y-65108762D01*
X195187048Y-65156381D01*
X194948952Y-65156381D01*
X194853714Y-65108762D01*
X194806095Y-65061143D01*
D13*
X201439429Y-71761143D02*
X200296571Y-71761143D01*
X200868000Y-71761143D02*
X200868000Y-68761143D01*
X200677524Y-69189714D01*
X200487048Y-69475429D01*
X200296571Y-69618286D01*
D12*
X173305809Y-103146190D02*
X173305809Y-103622381D01*
X172972476Y-102622381D02*
X173305809Y-103146190D01*
X173639143Y-102622381D01*
X174496286Y-103622381D02*
X173924857Y-103622381D01*
X174210571Y-103622381D02*
X174210571Y-102622381D01*
X174115333Y-102765238D01*
X174020095Y-102860476D01*
X173924857Y-102908095D01*
X187026381Y-133761333D02*
X187740667Y-133761333D01*
X187883524Y-133808953D01*
X187978762Y-133904191D01*
X188026381Y-134047048D01*
X188026381Y-134142286D01*
X187454952Y-133142286D02*
X187407333Y-133237524D01*
X187359714Y-133285143D01*
X187264476Y-133332762D01*
X187216857Y-133332762D01*
X187121619Y-133285143D01*
X187074000Y-133237524D01*
X187026381Y-133142286D01*
X187026381Y-132951809D01*
X187074000Y-132856571D01*
X187121619Y-132808952D01*
X187216857Y-132761333D01*
X187264476Y-132761333D01*
X187359714Y-132808952D01*
X187407333Y-132856571D01*
X187454952Y-132951809D01*
X187454952Y-133142286D01*
X187502571Y-133237524D01*
X187550190Y-133285143D01*
X187645429Y-133332762D01*
X187835905Y-133332762D01*
X187931143Y-133285143D01*
X187978762Y-133237524D01*
X188026381Y-133142286D01*
X188026381Y-132951809D01*
X187978762Y-132856571D01*
X187931143Y-132808952D01*
X187835905Y-132761333D01*
X187645429Y-132761333D01*
X187550190Y-132808952D01*
X187502571Y-132856571D01*
X187454952Y-132951809D01*
X165570381Y-82421333D02*
X166284667Y-82421333D01*
X166427524Y-82468953D01*
X166522762Y-82564191D01*
X166570381Y-82707048D01*
X166570381Y-82802286D01*
X166570381Y-81897524D02*
X166570381Y-81707048D01*
X166522762Y-81611809D01*
X166475143Y-81564190D01*
X166332286Y-81468952D01*
X166141810Y-81421333D01*
X165760857Y-81421333D01*
X165665619Y-81468952D01*
X165618000Y-81516571D01*
X165570381Y-81611809D01*
X165570381Y-81802286D01*
X165618000Y-81897524D01*
X165665619Y-81945143D01*
X165760857Y-81992762D01*
X165998952Y-81992762D01*
X166094190Y-81945143D01*
X166141810Y-81897524D01*
X166189429Y-81802286D01*
X166189429Y-81611809D01*
X166141810Y-81516571D01*
X166094190Y-81468952D01*
X165998952Y-81421333D01*
X198170381Y-76801523D02*
X198884667Y-76801523D01*
X199027524Y-76849143D01*
X199122762Y-76944381D01*
X199170381Y-77087238D01*
X199170381Y-77182476D01*
X199170381Y-75801523D02*
X199170381Y-76372952D01*
X199170381Y-76087238D02*
X198170381Y-76087238D01*
X198313238Y-76182476D01*
X198408476Y-76277714D01*
X198456095Y-76372952D01*
X198170381Y-75182476D02*
X198170381Y-75087237D01*
X198218000Y-74991999D01*
X198265619Y-74944380D01*
X198360857Y-74896761D01*
X198551333Y-74849142D01*
X198789429Y-74849142D01*
X198979905Y-74896761D01*
X199075143Y-74944380D01*
X199122762Y-74991999D01*
X199170381Y-75087237D01*
X199170381Y-75182476D01*
X199122762Y-75277714D01*
X199075143Y-75325333D01*
X198979905Y-75372952D01*
X198789429Y-75420571D01*
X198551333Y-75420571D01*
X198360857Y-75372952D01*
X198265619Y-75325333D01*
X198218000Y-75277714D01*
X198170381Y-75182476D01*
X115024381Y-96819905D02*
X115833905Y-96819905D01*
X115929143Y-96772286D01*
X115976762Y-96724667D01*
X116024381Y-96629429D01*
X116024381Y-96438952D01*
X115976762Y-96343714D01*
X115929143Y-96296095D01*
X115833905Y-96248476D01*
X115024381Y-96248476D01*
X115119619Y-95819905D02*
X115072000Y-95772286D01*
X115024381Y-95677048D01*
X115024381Y-95438952D01*
X115072000Y-95343714D01*
X115119619Y-95296095D01*
X115214857Y-95248476D01*
X115310095Y-95248476D01*
X115452952Y-95296095D01*
X116024381Y-95867524D01*
X116024381Y-95248476D01*
X142389143Y-105622666D02*
X142436762Y-105670285D01*
X142484381Y-105813142D01*
X142484381Y-105908380D01*
X142436762Y-106051238D01*
X142341524Y-106146476D01*
X142246286Y-106194095D01*
X142055810Y-106241714D01*
X141912952Y-106241714D01*
X141722476Y-106194095D01*
X141627238Y-106146476D01*
X141532000Y-106051238D01*
X141484381Y-105908380D01*
X141484381Y-105813142D01*
X141532000Y-105670285D01*
X141579619Y-105622666D01*
X142484381Y-104670285D02*
X142484381Y-105241714D01*
X142484381Y-104956000D02*
X141484381Y-104956000D01*
X141627238Y-105051238D01*
X141722476Y-105146476D01*
X141770095Y-105241714D01*
X153263143Y-106194666D02*
X153310762Y-106242285D01*
X153358381Y-106385142D01*
X153358381Y-106480380D01*
X153310762Y-106623238D01*
X153215524Y-106718476D01*
X153120286Y-106766095D01*
X152929810Y-106813714D01*
X152786952Y-106813714D01*
X152596476Y-106766095D01*
X152501238Y-106718476D01*
X152406000Y-106623238D01*
X152358381Y-106480380D01*
X152358381Y-106385142D01*
X152406000Y-106242285D01*
X152453619Y-106194666D01*
X152453619Y-105813714D02*
X152406000Y-105766095D01*
X152358381Y-105670857D01*
X152358381Y-105432761D01*
X152406000Y-105337523D01*
X152453619Y-105289904D01*
X152548857Y-105242285D01*
X152644095Y-105242285D01*
X152786952Y-105289904D01*
X153358381Y-105861333D01*
X153358381Y-105242285D01*
X113941143Y-116036666D02*
X113988762Y-116084285D01*
X114036381Y-116227142D01*
X114036381Y-116322380D01*
X113988762Y-116465238D01*
X113893524Y-116560476D01*
X113798286Y-116608095D01*
X113607810Y-116655714D01*
X113464952Y-116655714D01*
X113274476Y-116608095D01*
X113179238Y-116560476D01*
X113084000Y-116465238D01*
X113036381Y-116322380D01*
X113036381Y-116227142D01*
X113084000Y-116084285D01*
X113131619Y-116036666D01*
X113036381Y-115703333D02*
X113036381Y-115084285D01*
X113417333Y-115417619D01*
X113417333Y-115274761D01*
X113464952Y-115179523D01*
X113512571Y-115131904D01*
X113607810Y-115084285D01*
X113845905Y-115084285D01*
X113941143Y-115131904D01*
X113988762Y-115179523D01*
X114036381Y-115274761D01*
X114036381Y-115560476D01*
X113988762Y-115655714D01*
X113941143Y-115703333D01*
X133429334Y-121575143D02*
X133381715Y-121622762D01*
X133238858Y-121670381D01*
X133143620Y-121670381D01*
X133000762Y-121622762D01*
X132905524Y-121527524D01*
X132857905Y-121432286D01*
X132810286Y-121241810D01*
X132810286Y-121098952D01*
X132857905Y-120908476D01*
X132905524Y-120813238D01*
X133000762Y-120718000D01*
X133143620Y-120670381D01*
X133238858Y-120670381D01*
X133381715Y-120718000D01*
X133429334Y-120765619D01*
X134286477Y-121003714D02*
X134286477Y-121670381D01*
X134048381Y-120622762D02*
X133810286Y-121337048D01*
X134429334Y-121337048D01*
X134007143Y-103336666D02*
X134054762Y-103384285D01*
X134102381Y-103527142D01*
X134102381Y-103622380D01*
X134054762Y-103765238D01*
X133959524Y-103860476D01*
X133864286Y-103908095D01*
X133673810Y-103955714D01*
X133530952Y-103955714D01*
X133340476Y-103908095D01*
X133245238Y-103860476D01*
X133150000Y-103765238D01*
X133102381Y-103622380D01*
X133102381Y-103527142D01*
X133150000Y-103384285D01*
X133197619Y-103336666D01*
X133102381Y-102431904D02*
X133102381Y-102908095D01*
X133578571Y-102955714D01*
X133530952Y-102908095D01*
X133483333Y-102812857D01*
X133483333Y-102574761D01*
X133530952Y-102479523D01*
X133578571Y-102431904D01*
X133673810Y-102384285D01*
X133911905Y-102384285D01*
X134007143Y-102431904D01*
X134054762Y-102479523D01*
X134102381Y-102574761D01*
X134102381Y-102812857D01*
X134054762Y-102908095D01*
X134007143Y-102955714D01*
X119021143Y-105368666D02*
X119068762Y-105416285D01*
X119116381Y-105559142D01*
X119116381Y-105654380D01*
X119068762Y-105797238D01*
X118973524Y-105892476D01*
X118878286Y-105940095D01*
X118687810Y-105987714D01*
X118544952Y-105987714D01*
X118354476Y-105940095D01*
X118259238Y-105892476D01*
X118164000Y-105797238D01*
X118116381Y-105654380D01*
X118116381Y-105559142D01*
X118164000Y-105416285D01*
X118211619Y-105368666D01*
X118116381Y-104511523D02*
X118116381Y-104702000D01*
X118164000Y-104797238D01*
X118211619Y-104844857D01*
X118354476Y-104940095D01*
X118544952Y-104987714D01*
X118925905Y-104987714D01*
X119021143Y-104940095D01*
X119068762Y-104892476D01*
X119116381Y-104797238D01*
X119116381Y-104606761D01*
X119068762Y-104511523D01*
X119021143Y-104463904D01*
X118925905Y-104416285D01*
X118687810Y-104416285D01*
X118592571Y-104463904D01*
X118544952Y-104511523D01*
X118497333Y-104606761D01*
X118497333Y-104797238D01*
X118544952Y-104892476D01*
X118592571Y-104940095D01*
X118687810Y-104987714D01*
X153128667Y-128530381D02*
X153128667Y-129244667D01*
X153081047Y-129387524D01*
X152985809Y-129482762D01*
X152842952Y-129530381D01*
X152747714Y-129530381D01*
X154128667Y-129530381D02*
X153557238Y-129530381D01*
X153842952Y-129530381D02*
X153842952Y-128530381D01*
X153747714Y-128673238D01*
X153652476Y-128768476D01*
X153557238Y-128816095D01*
X152620667Y-123450381D02*
X152620667Y-124164667D01*
X152573047Y-124307524D01*
X152477809Y-124402762D01*
X152334952Y-124450381D01*
X152239714Y-124450381D01*
X153049238Y-123545619D02*
X153096857Y-123498000D01*
X153192095Y-123450381D01*
X153430191Y-123450381D01*
X153525429Y-123498000D01*
X153573048Y-123545619D01*
X153620667Y-123640857D01*
X153620667Y-123736095D01*
X153573048Y-123878952D01*
X153001619Y-124450381D01*
X153620667Y-124450381D01*
X110512667Y-125900381D02*
X110512667Y-126614667D01*
X110465047Y-126757524D01*
X110369809Y-126852762D01*
X110226952Y-126900381D01*
X110131714Y-126900381D01*
X110893619Y-125900381D02*
X111512667Y-125900381D01*
X111179333Y-126281333D01*
X111322191Y-126281333D01*
X111417429Y-126328952D01*
X111465048Y-126376571D01*
X111512667Y-126471810D01*
X111512667Y-126709905D01*
X111465048Y-126805143D01*
X111417429Y-126852762D01*
X111322191Y-126900381D01*
X111036476Y-126900381D01*
X110941238Y-126852762D01*
X110893619Y-126805143D01*
X121374381Y-141476333D02*
X122088667Y-141476333D01*
X122231524Y-141523953D01*
X122326762Y-141619191D01*
X122374381Y-141762048D01*
X122374381Y-141857286D01*
X121707714Y-140571571D02*
X122374381Y-140571571D01*
X121326762Y-140809667D02*
X122041048Y-141047762D01*
X122041048Y-140428714D01*
X135468381Y-141111333D02*
X136182667Y-141111333D01*
X136325524Y-141158953D01*
X136420762Y-141254191D01*
X136468381Y-141397048D01*
X136468381Y-141492286D01*
X135468381Y-140158952D02*
X135468381Y-140635143D01*
X135944571Y-140682762D01*
X135896952Y-140635143D01*
X135849333Y-140539905D01*
X135849333Y-140301809D01*
X135896952Y-140206571D01*
X135944571Y-140158952D01*
X136039810Y-140111333D01*
X136277905Y-140111333D01*
X136373143Y-140158952D01*
X136420762Y-140206571D01*
X136468381Y-140301809D01*
X136468381Y-140539905D01*
X136420762Y-140635143D01*
X136373143Y-140682762D01*
X155512667Y-95900381D02*
X155512667Y-96614667D01*
X155465047Y-96757524D01*
X155369809Y-96852762D01*
X155226952Y-96900381D01*
X155131714Y-96900381D01*
X156417429Y-95900381D02*
X156226952Y-95900381D01*
X156131714Y-95948000D01*
X156084095Y-95995619D01*
X155988857Y-96138476D01*
X155941238Y-96328952D01*
X155941238Y-96709905D01*
X155988857Y-96805143D01*
X156036476Y-96852762D01*
X156131714Y-96900381D01*
X156322191Y-96900381D01*
X156417429Y-96852762D01*
X156465048Y-96805143D01*
X156512667Y-96709905D01*
X156512667Y-96471810D01*
X156465048Y-96376571D01*
X156417429Y-96328952D01*
X156322191Y-96281333D01*
X156131714Y-96281333D01*
X156036476Y-96328952D01*
X155988857Y-96376571D01*
X155941238Y-96471810D01*
X110512667Y-95900381D02*
X110512667Y-96614667D01*
X110465047Y-96757524D01*
X110369809Y-96852762D01*
X110226952Y-96900381D01*
X110131714Y-96900381D01*
X110893619Y-95900381D02*
X111560286Y-95900381D01*
X111131714Y-96900381D01*
X143259334Y-121920381D02*
X142926000Y-121444190D01*
X142687905Y-121920381D02*
X142687905Y-120920381D01*
X143068858Y-120920381D01*
X143164096Y-120968000D01*
X143211715Y-121015619D01*
X143259334Y-121110857D01*
X143259334Y-121253714D01*
X143211715Y-121348952D01*
X143164096Y-121396571D01*
X143068858Y-121444190D01*
X142687905Y-121444190D01*
X144211715Y-121920381D02*
X143640286Y-121920381D01*
X143926000Y-121920381D02*
X143926000Y-120920381D01*
X143830762Y-121063238D01*
X143735524Y-121158476D01*
X143640286Y-121206095D01*
X120259334Y-121920381D02*
X119926000Y-121444190D01*
X119687905Y-121920381D02*
X119687905Y-120920381D01*
X120068858Y-120920381D01*
X120164096Y-120968000D01*
X120211715Y-121015619D01*
X120259334Y-121110857D01*
X120259334Y-121253714D01*
X120211715Y-121348952D01*
X120164096Y-121396571D01*
X120068858Y-121444190D01*
X119687905Y-121444190D01*
X120640286Y-121015619D02*
X120687905Y-120968000D01*
X120783143Y-120920381D01*
X121021239Y-120920381D01*
X121116477Y-120968000D01*
X121164096Y-121015619D01*
X121211715Y-121110857D01*
X121211715Y-121206095D01*
X121164096Y-121348952D01*
X120592667Y-121920381D01*
X121211715Y-121920381D01*
X115195334Y-84064381D02*
X114862000Y-83588190D01*
X114623905Y-84064381D02*
X114623905Y-83064381D01*
X115004858Y-83064381D01*
X115100096Y-83112000D01*
X115147715Y-83159619D01*
X115195334Y-83254857D01*
X115195334Y-83397714D01*
X115147715Y-83492952D01*
X115100096Y-83540571D01*
X115004858Y-83588190D01*
X114623905Y-83588190D01*
X115528667Y-83064381D02*
X116147715Y-83064381D01*
X115814381Y-83445333D01*
X115957239Y-83445333D01*
X116052477Y-83492952D01*
X116100096Y-83540571D01*
X116147715Y-83635810D01*
X116147715Y-83873905D01*
X116100096Y-83969143D01*
X116052477Y-84016762D01*
X115957239Y-84064381D01*
X115671524Y-84064381D01*
X115576286Y-84016762D01*
X115528667Y-83969143D01*
X120021334Y-130800381D02*
X119688000Y-130324190D01*
X119449905Y-130800381D02*
X119449905Y-129800381D01*
X119830858Y-129800381D01*
X119926096Y-129848000D01*
X119973715Y-129895619D01*
X120021334Y-129990857D01*
X120021334Y-130133714D01*
X119973715Y-130228952D01*
X119926096Y-130276571D01*
X119830858Y-130324190D01*
X119449905Y-130324190D01*
X120878477Y-130133714D02*
X120878477Y-130800381D01*
X120640381Y-129752762D02*
X120402286Y-130467048D01*
X121021334Y-130467048D01*
X114941334Y-89144381D02*
X114608000Y-88668190D01*
X114369905Y-89144381D02*
X114369905Y-88144381D01*
X114750858Y-88144381D01*
X114846096Y-88192000D01*
X114893715Y-88239619D01*
X114941334Y-88334857D01*
X114941334Y-88477714D01*
X114893715Y-88572952D01*
X114846096Y-88620571D01*
X114750858Y-88668190D01*
X114369905Y-88668190D01*
X115846096Y-88144381D02*
X115369905Y-88144381D01*
X115322286Y-88620571D01*
X115369905Y-88572952D01*
X115465143Y-88525333D01*
X115703239Y-88525333D01*
X115798477Y-88572952D01*
X115846096Y-88620571D01*
X115893715Y-88715810D01*
X115893715Y-88953905D01*
X115846096Y-89049143D01*
X115798477Y-89096762D01*
X115703239Y-89144381D01*
X115465143Y-89144381D01*
X115369905Y-89096762D01*
X115322286Y-89049143D01*
X151974381Y-115647905D02*
X152783905Y-115647905D01*
X152879143Y-115600286D01*
X152926762Y-115552667D01*
X152974381Y-115457429D01*
X152974381Y-115266952D01*
X152926762Y-115171714D01*
X152879143Y-115124095D01*
X152783905Y-115076476D01*
X151974381Y-115076476D01*
X152974381Y-114076476D02*
X152974381Y-114647905D01*
X152974381Y-114362191D02*
X151974381Y-114362191D01*
X152117238Y-114457429D01*
X152212476Y-114552667D01*
X152260095Y-114647905D01*
X127468381Y-96729905D02*
X128277905Y-96729905D01*
X128373143Y-96682286D01*
X128420762Y-96634667D01*
X128468381Y-96539429D01*
X128468381Y-96348952D01*
X128420762Y-96253714D01*
X128373143Y-96206095D01*
X128277905Y-96158476D01*
X127468381Y-96158476D01*
X127468381Y-95777524D02*
X127468381Y-95158476D01*
X127849333Y-95491810D01*
X127849333Y-95348952D01*
X127896952Y-95253714D01*
X127944571Y-95206095D01*
X128039810Y-95158476D01*
X128277905Y-95158476D01*
X128373143Y-95206095D01*
X128420762Y-95253714D01*
X128468381Y-95348952D01*
X128468381Y-95634667D01*
X128420762Y-95729905D01*
X128373143Y-95777524D01*
X120784095Y-64156381D02*
X120784095Y-64965905D01*
X120831714Y-65061143D01*
X120879333Y-65108762D01*
X120974571Y-65156381D01*
X121165048Y-65156381D01*
X121260286Y-65108762D01*
X121307905Y-65061143D01*
X121355524Y-64965905D01*
X121355524Y-64156381D01*
X122260286Y-64489714D02*
X122260286Y-65156381D01*
X122022190Y-64108762D02*
X121784095Y-64823048D01*
X122403143Y-64823048D01*
D13*
X128417429Y-71761143D02*
X127274571Y-71761143D01*
X127846000Y-71761143D02*
X127846000Y-68761143D01*
X127655524Y-69189714D01*
X127465048Y-69475429D01*
X127274571Y-69618286D01*
D12*
X144784095Y-64156381D02*
X144784095Y-64965905D01*
X144831714Y-65061143D01*
X144879333Y-65108762D01*
X144974571Y-65156381D01*
X145165048Y-65156381D01*
X145260286Y-65108762D01*
X145307905Y-65061143D01*
X145355524Y-64965905D01*
X145355524Y-64156381D01*
X146307905Y-64156381D02*
X145831714Y-64156381D01*
X145784095Y-64632571D01*
X145831714Y-64584952D01*
X145926952Y-64537333D01*
X146165048Y-64537333D01*
X146260286Y-64584952D01*
X146307905Y-64632571D01*
X146355524Y-64727810D01*
X146355524Y-64965905D01*
X146307905Y-65061143D01*
X146260286Y-65108762D01*
X146165048Y-65156381D01*
X145926952Y-65156381D01*
X145831714Y-65108762D01*
X145784095Y-65061143D01*
D13*
X152417429Y-71761143D02*
X151274571Y-71761143D01*
X151846000Y-71761143D02*
X151846000Y-68761143D01*
X151655524Y-69189714D01*
X151465048Y-69475429D01*
X151274571Y-69618286D01*
D12*
X124283809Y-103146190D02*
X124283809Y-103622381D01*
X123950476Y-102622381D02*
X124283809Y-103146190D01*
X124617143Y-102622381D01*
X125474286Y-103622381D02*
X124902857Y-103622381D01*
X125188571Y-103622381D02*
X125188571Y-102622381D01*
X125093333Y-102765238D01*
X124998095Y-102860476D01*
X124902857Y-102908095D01*
X138004381Y-133761333D02*
X138718667Y-133761333D01*
X138861524Y-133808953D01*
X138956762Y-133904191D01*
X139004381Y-134047048D01*
X139004381Y-134142286D01*
X138432952Y-133142286D02*
X138385333Y-133237524D01*
X138337714Y-133285143D01*
X138242476Y-133332762D01*
X138194857Y-133332762D01*
X138099619Y-133285143D01*
X138052000Y-133237524D01*
X138004381Y-133142286D01*
X138004381Y-132951809D01*
X138052000Y-132856571D01*
X138099619Y-132808952D01*
X138194857Y-132761333D01*
X138242476Y-132761333D01*
X138337714Y-132808952D01*
X138385333Y-132856571D01*
X138432952Y-132951809D01*
X138432952Y-133142286D01*
X138480571Y-133237524D01*
X138528190Y-133285143D01*
X138623429Y-133332762D01*
X138813905Y-133332762D01*
X138909143Y-133285143D01*
X138956762Y-133237524D01*
X139004381Y-133142286D01*
X139004381Y-132951809D01*
X138956762Y-132856571D01*
X138909143Y-132808952D01*
X138813905Y-132761333D01*
X138623429Y-132761333D01*
X138528190Y-132808952D01*
X138480571Y-132856571D01*
X138432952Y-132951809D01*
X116548381Y-82421333D02*
X117262667Y-82421333D01*
X117405524Y-82468953D01*
X117500762Y-82564191D01*
X117548381Y-82707048D01*
X117548381Y-82802286D01*
X117548381Y-81897524D02*
X117548381Y-81707048D01*
X117500762Y-81611809D01*
X117453143Y-81564190D01*
X117310286Y-81468952D01*
X117119810Y-81421333D01*
X116738857Y-81421333D01*
X116643619Y-81468952D01*
X116596000Y-81516571D01*
X116548381Y-81611809D01*
X116548381Y-81802286D01*
X116596000Y-81897524D01*
X116643619Y-81945143D01*
X116738857Y-81992762D01*
X116976952Y-81992762D01*
X117072190Y-81945143D01*
X117119810Y-81897524D01*
X117167429Y-81802286D01*
X117167429Y-81611809D01*
X117119810Y-81516571D01*
X117072190Y-81468952D01*
X116976952Y-81421333D01*
X149148381Y-76801523D02*
X149862667Y-76801523D01*
X150005524Y-76849143D01*
X150100762Y-76944381D01*
X150148381Y-77087238D01*
X150148381Y-77182476D01*
X150148381Y-75801523D02*
X150148381Y-76372952D01*
X150148381Y-76087238D02*
X149148381Y-76087238D01*
X149291238Y-76182476D01*
X149386476Y-76277714D01*
X149434095Y-76372952D01*
X149148381Y-75182476D02*
X149148381Y-75087237D01*
X149196000Y-74991999D01*
X149243619Y-74944380D01*
X149338857Y-74896761D01*
X149529333Y-74849142D01*
X149767429Y-74849142D01*
X149957905Y-74896761D01*
X150053143Y-74944380D01*
X150100762Y-74991999D01*
X150148381Y-75087237D01*
X150148381Y-75182476D01*
X150100762Y-75277714D01*
X150053143Y-75325333D01*
X149957905Y-75372952D01*
X149767429Y-75420571D01*
X149529333Y-75420571D01*
X149338857Y-75372952D01*
X149243619Y-75325333D01*
X149196000Y-75277714D01*
X149148381Y-75182476D01*
M02*
