G04 #@! TF.FileFunction,Profile,NP*
%FSLAX46Y46*%
G04 Gerber Fmt 4.6, Leading zero omitted, Abs format (unit mm)*
G04 Created by KiCad (PCBNEW 4.0.6) date 11/14/17 14:49:57*
%MOMM*%
%LPD*%
G01*
G04 APERTURE LIST*
%ADD10C,0.100000*%
G04 APERTURE END LIST*
D10*
X148644000Y-143327918D02*
G75*
G02X143644000Y-138327918I0J5000000D01*
G01*
X187644000Y-143327918D02*
X148644000Y-143327918D01*
X192644000Y-138327918D02*
G75*
G02X187644000Y-143327918I-5000000J0D01*
G01*
X192644000Y-48827918D02*
X192644000Y-138327918D01*
X187644000Y-43827918D02*
G75*
G02X192644000Y-48827918I0J-5000000D01*
G01*
X148644000Y-43827918D02*
X187644000Y-43827918D01*
X143644000Y-48827918D02*
G75*
G02X148644000Y-43827918I5000000J0D01*
G01*
X188744000Y-139811601D02*
G75*
G03X188744000Y-139811601I-1600000J0D01*
G01*
X150744000Y-139811601D02*
G75*
G03X150744000Y-139811601I-1600000J0D01*
G01*
X148744000Y-89311601D02*
G75*
G03X148744000Y-89311601I-1600000J0D01*
G01*
X190744000Y-89311601D02*
G75*
G03X190744000Y-89311601I-1600000J0D01*
G01*
X190744000Y-73311601D02*
G75*
G03X190744000Y-73311601I-1600000J0D01*
G01*
X148744000Y-73311601D02*
G75*
G03X148744000Y-73311601I-1600000J0D01*
G01*
X189744000Y-48311601D02*
G75*
G03X189744000Y-48311601I-1600000J0D01*
G01*
X149744000Y-48311601D02*
G75*
G03X149744000Y-48311601I-1600000J0D01*
G01*
X94622000Y-138327918D02*
X94622000Y-48827918D01*
X99622000Y-143327918D02*
G75*
G02X94622000Y-138327918I0J5000000D01*
G01*
X138622000Y-143327918D02*
X99622000Y-143327918D01*
X143622000Y-138327918D02*
G75*
G02X138622000Y-143327918I-5000000J0D01*
G01*
X138622000Y-43827918D02*
G75*
G02X143622000Y-48827918I0J-5000000D01*
G01*
X99622000Y-43827918D02*
X138622000Y-43827918D01*
X94622000Y-48827918D02*
G75*
G02X99622000Y-43827918I5000000J0D01*
G01*
X139722000Y-139811601D02*
G75*
G03X139722000Y-139811601I-1600000J0D01*
G01*
X101722000Y-139811601D02*
G75*
G03X101722000Y-139811601I-1600000J0D01*
G01*
X99722000Y-89311601D02*
G75*
G03X99722000Y-89311601I-1600000J0D01*
G01*
X141722000Y-89311601D02*
G75*
G03X141722000Y-89311601I-1600000J0D01*
G01*
X141722000Y-73311601D02*
G75*
G03X141722000Y-73311601I-1600000J0D01*
G01*
X99722000Y-73311601D02*
G75*
G03X99722000Y-73311601I-1600000J0D01*
G01*
X140722000Y-48311601D02*
G75*
G03X140722000Y-48311601I-1600000J0D01*
G01*
X100722000Y-48311601D02*
G75*
G03X100722000Y-48311601I-1600000J0D01*
G01*
M02*
