M48
;DRILL file {KiCad 4.0.6} date 11/14/17 14:50:39
;FORMAT={-:-/ absolute / metric / decimal}
FMAT,2
METRIC,TZ
T1C0.400
T2C0.600
T3C0.800
T4C1.000
T5C1.600
%
G90
G05
M71
T1
X105.71Y-131.618
X105.964Y-71.928
X107.996Y-136.19
X110.79Y-56.434
X112.568Y-101.9
X113.584Y-84.12
X115.362Y-52.116
X117.14Y-83.612
X118.948Y-66.126
X120.95Y-84.374
X121.204Y-86.406
X121.948Y-61.626
X122.22Y-54.148
X123.448Y-70.876
X123.744Y-86.406
X124.506Y-49.068
X124.698Y-67.376
X125.808Y-132.666
X126.57Y-132.158
X127.3Y-131.618
X128.316Y-130.094
X128.824Y-70.404
X129.698Y-55.126
X154.732Y-131.618
X154.986Y-71.928
X157.018Y-136.19
X159.812Y-56.434
X161.59Y-101.9
X162.606Y-84.12
X164.384Y-52.116
X166.162Y-83.612
X167.97Y-66.126
X169.972Y-84.374
X170.226Y-86.406
X170.97Y-61.626
X171.242Y-54.148
X172.47Y-70.876
X172.766Y-86.406
X173.528Y-49.068
X173.72Y-67.376
X174.83Y-132.666
X175.592Y-132.158
X176.322Y-131.618
X177.338Y-130.094
X177.846Y-70.404
X178.72Y-55.126
T2
X100.884Y-133.396
X101.646Y-102.916
X102.408Y-131.618
X104.186Y-131.618
X104.948Y-128.824
X106.726Y-128.824
X110.028Y-132.126
X110.282Y-128.824
X112.06Y-128.824
X116.886Y-136.19
X117.394Y-126.792
X120.188Y-126.792
X120.442Y-137.968
X120.442Y-140.
X120.442Y-142.032
X124.506Y-131.364
X124.506Y-133.142
X127.554Y-103.932
X130.348Y-126.792
X131.618Y-131.11
X132.126Y-96.058
X132.888Y-125.776
X135.936Y-97.582
X136.19Y-103.932
X136.952Y-99.106
X137.46Y-125.776
X138.476Y-93.772
X140.762Y-92.756
X140.762Y-94.534
X149.906Y-133.396
X150.668Y-102.916
X151.43Y-131.618
X153.208Y-131.618
X153.97Y-128.824
X155.748Y-128.824
X159.05Y-132.126
X159.304Y-128.824
X161.082Y-128.824
X165.908Y-136.19
X166.416Y-126.792
X169.21Y-126.792
X169.464Y-137.968
X169.464Y-140.
X169.464Y-142.032
X173.528Y-131.364
X173.528Y-133.142
X176.576Y-103.932
X179.37Y-126.792
X180.64Y-131.11
X181.148Y-96.058
X181.91Y-125.776
X184.958Y-97.582
X185.212Y-103.932
X185.974Y-99.106
X186.482Y-125.776
X187.498Y-93.772
X189.784Y-92.756
X189.784Y-94.534
T3
X101.122Y-122.508
X101.122Y-126.508
X101.392Y-84.628
X102.916Y-87.93
X102.948Y-109.806
X102.948Y-117.426
X103.678Y-90.978
X103.678Y-98.598
X105.488Y-109.806
X105.488Y-117.426
X106.218Y-90.978
X106.218Y-98.598
X106.622Y-101.508
X106.622Y-106.508
X108.028Y-109.806
X108.028Y-117.426
X108.758Y-90.978
X108.758Y-98.598
X110.568Y-109.806
X110.568Y-117.426
X111.282Y-122.508
X111.282Y-126.508
X111.298Y-90.978
X111.298Y-98.598
X111.552Y-84.628
X113.076Y-87.93
X113.108Y-109.806
X113.108Y-117.426
X115.648Y-109.806
X115.648Y-117.426
X116.122Y-90.888
X116.122Y-98.508
X116.886Y-123.744
X118.188Y-109.806
X118.188Y-117.426
X118.662Y-90.888
X118.662Y-98.508
X120.728Y-109.806
X120.728Y-117.426
X121.202Y-90.888
X121.202Y-98.508
X121.458Y-101.392
X121.458Y-106.392
X121.886Y-123.744
X123.268Y-109.806
X123.268Y-117.426
X123.742Y-90.888
X123.742Y-98.508
X124.122Y-122.508
X125.014Y-101.472
X125.014Y-106.472
X125.808Y-109.806
X125.808Y-117.426
X126.282Y-90.888
X126.282Y-98.508
X128.348Y-109.806
X128.348Y-117.426
X128.822Y-90.888
X128.822Y-98.508
X130.888Y-109.806
X130.888Y-117.426
X131.362Y-90.888
X131.362Y-98.508
X132.38Y-101.472
X132.38Y-106.472
X133.428Y-109.806
X133.428Y-117.426
X133.902Y-90.888
X133.902Y-98.508
X134.282Y-122.508
X135.936Y-101.392
X135.936Y-106.392
X135.968Y-109.806
X135.968Y-117.426
X150.144Y-122.508
X150.144Y-126.508
X150.414Y-84.628
X151.938Y-87.93
X151.97Y-109.806
X151.97Y-117.426
X152.7Y-90.978
X152.7Y-98.598
X154.51Y-109.806
X154.51Y-117.426
X155.24Y-90.978
X155.24Y-98.598
X155.644Y-101.508
X155.644Y-106.508
X157.05Y-109.806
X157.05Y-117.426
X157.78Y-90.978
X157.78Y-98.598
X159.59Y-109.806
X159.59Y-117.426
X160.304Y-122.508
X160.304Y-126.508
X160.32Y-90.978
X160.32Y-98.598
X160.574Y-84.628
X162.098Y-87.93
X162.13Y-109.806
X162.13Y-117.426
X164.67Y-109.806
X164.67Y-117.426
X165.144Y-90.888
X165.144Y-98.508
X165.908Y-123.744
X167.21Y-109.806
X167.21Y-117.426
X167.684Y-90.888
X167.684Y-98.508
X169.75Y-109.806
X169.75Y-117.426
X170.224Y-90.888
X170.224Y-98.508
X170.48Y-101.392
X170.48Y-106.392
X170.908Y-123.744
X172.29Y-109.806
X172.29Y-117.426
X172.764Y-90.888
X172.764Y-98.508
X173.144Y-122.508
X174.036Y-101.472
X174.036Y-106.472
X174.83Y-109.806
X174.83Y-117.426
X175.304Y-90.888
X175.304Y-98.508
X177.37Y-109.806
X177.37Y-117.426
X177.844Y-90.888
X177.844Y-98.508
X179.91Y-109.806
X179.91Y-117.426
X180.384Y-90.888
X180.384Y-98.508
X181.402Y-101.472
X181.402Y-106.472
X182.45Y-109.806
X182.45Y-117.426
X182.924Y-90.888
X182.924Y-98.508
X183.304Y-122.508
X184.958Y-101.392
X184.958Y-106.392
X184.99Y-109.806
X184.99Y-117.426
T4
X96.622Y-97.508
X96.622Y-100.048
X96.622Y-102.588
X96.622Y-105.128
X96.622Y-107.668
X96.622Y-127.508
X96.622Y-130.048
X96.622Y-132.588
X96.622Y-135.128
X105.202Y-74.722
X105.202Y-79.802
X107.742Y-74.722
X107.742Y-79.802
X110.028Y-138.603
X110.028Y-141.143
X110.282Y-74.722
X110.282Y-79.802
X111.722Y-104.908
X111.838Y-132.158
X112.568Y-138.603
X112.568Y-141.143
X112.822Y-74.722
X112.822Y-79.802
X114.378Y-132.158
X115.108Y-138.603
X115.108Y-141.143
X115.362Y-74.722
X115.362Y-79.802
X116.522Y-104.908
X116.918Y-132.158
X117.902Y-74.722
X117.902Y-79.802
X119.458Y-132.158
X120.442Y-74.722
X120.442Y-79.802
X121.998Y-132.158
X122.982Y-74.722
X122.982Y-79.802
X124.506Y-138.476
X124.506Y-141.016
X125.522Y-74.722
X125.522Y-79.802
X127.046Y-138.476
X127.046Y-141.016
X128.062Y-74.722
X128.062Y-79.802
X129.586Y-138.476
X129.586Y-141.016
X130.602Y-74.722
X130.602Y-79.802
X132.126Y-138.476
X132.126Y-141.016
X133.142Y-74.722
X133.142Y-79.802
X141.622Y-97.508
X141.622Y-100.048
X141.622Y-102.588
X141.622Y-105.128
X141.622Y-107.668
X141.622Y-112.348
X141.622Y-114.888
X141.622Y-117.428
X141.622Y-119.968
X141.622Y-122.508
X141.622Y-127.508
X141.622Y-130.048
X141.622Y-132.588
X141.622Y-135.128
X145.644Y-97.508
X145.644Y-100.048
X145.644Y-102.588
X145.644Y-105.128
X145.644Y-107.668
X145.644Y-127.508
X145.644Y-130.048
X145.644Y-132.588
X145.644Y-135.128
X154.224Y-74.722
X154.224Y-79.802
X156.764Y-74.722
X156.764Y-79.802
X159.05Y-138.603
X159.05Y-141.143
X159.304Y-74.722
X159.304Y-79.802
X160.744Y-104.908
X160.86Y-132.158
X161.59Y-138.603
X161.59Y-141.143
X161.844Y-74.722
X161.844Y-79.802
X163.4Y-132.158
X164.13Y-138.603
X164.13Y-141.143
X164.384Y-74.722
X164.384Y-79.802
X165.544Y-104.908
X165.94Y-132.158
X166.924Y-74.722
X166.924Y-79.802
X168.48Y-132.158
X169.464Y-74.722
X169.464Y-79.802
X171.02Y-132.158
X172.004Y-74.722
X172.004Y-79.802
X173.528Y-138.476
X173.528Y-141.016
X174.544Y-74.722
X174.544Y-79.802
X176.068Y-138.476
X176.068Y-141.016
X177.084Y-74.722
X177.084Y-79.802
X178.608Y-138.476
X178.608Y-141.016
X179.624Y-74.722
X179.624Y-79.802
X181.148Y-138.476
X181.148Y-141.016
X182.164Y-74.722
X182.164Y-79.802
X190.644Y-97.508
X190.644Y-100.048
X190.644Y-102.588
X190.644Y-105.128
X190.644Y-107.668
X190.644Y-112.348
X190.644Y-114.888
X190.644Y-117.428
X190.644Y-119.968
X190.644Y-122.508
X190.644Y-127.508
X190.644Y-130.048
X190.644Y-132.588
X190.644Y-135.128
T5
X101.372Y-54.134
X101.372Y-58.634
X101.372Y-63.134
X103.122Y-50.634
X103.122Y-66.634
X107.122Y-49.634
X107.122Y-67.634
X111.122Y-50.634
X111.122Y-66.634
X112.872Y-54.134
X112.872Y-58.634
X112.872Y-63.134
X125.372Y-54.134
X125.372Y-58.634
X125.372Y-63.134
X127.122Y-50.634
X127.122Y-66.634
X131.122Y-49.634
X131.122Y-67.634
X135.122Y-50.634
X135.122Y-66.634
X136.872Y-54.134
X136.872Y-58.634
X136.872Y-63.134
X150.394Y-54.134
X150.394Y-58.634
X150.394Y-63.134
X152.144Y-50.634
X152.144Y-66.634
X156.144Y-49.634
X156.144Y-67.634
X160.144Y-50.634
X160.144Y-66.634
X161.894Y-54.134
X161.894Y-58.634
X161.894Y-63.134
X174.394Y-54.134
X174.394Y-58.634
X174.394Y-63.134
X176.144Y-50.634
X176.144Y-66.634
X180.144Y-49.634
X180.144Y-67.634
X184.144Y-50.634
X184.144Y-66.634
X185.894Y-54.134
X185.894Y-58.634
X185.894Y-63.134
T0
M30
