M48
;DRILL file {KiCad 4.0.6} date 11/02/17 15:13:56
;FORMAT={-:-/ absolute / metric / decimal}
FMAT,2
METRIC,TZ
T1C0.400
T2C0.600
T3C0.800
T4C1.000
T5C1.600
%
G90
G05
M71
T1
X103.288Y-124.81
X103.542Y-65.12
X105.574Y-129.382
X108.368Y-49.626
X110.146Y-95.092
X111.162Y-77.312
X112.94Y-45.308
X112.94Y-66.136
X114.718Y-76.804
X116.526Y-59.318
X118.528Y-77.566
X118.782Y-79.598
X119.526Y-54.818
X119.798Y-47.34
X121.026Y-64.068
X121.322Y-79.598
X122.084Y-42.26
X122.276Y-60.568
X123.386Y-125.858
X124.148Y-125.35
X124.878Y-124.81
X125.894Y-123.286
X126.402Y-63.596
X127.276Y-48.318
X152.288Y-124.81
X152.542Y-65.12
X154.574Y-129.382
X157.368Y-49.626
X159.146Y-95.092
X160.162Y-77.312
X161.94Y-45.308
X161.94Y-66.136
X163.718Y-76.804
X165.526Y-59.318
X167.528Y-77.566
X167.782Y-79.598
X168.526Y-54.818
X168.798Y-47.34
X170.026Y-64.068
X170.322Y-79.598
X171.084Y-42.26
X171.276Y-60.568
X172.386Y-125.858
X173.148Y-125.35
X173.878Y-124.81
X174.894Y-123.286
X175.402Y-63.596
X176.276Y-48.318
T2
X98.462Y-126.588
X99.224Y-96.108
X99.986Y-124.81
X101.764Y-124.81
X102.526Y-122.016
X104.304Y-122.016
X107.606Y-125.318
X107.86Y-122.016
X109.638Y-122.016
X114.464Y-129.382
X114.972Y-119.984
X117.766Y-119.984
X118.02Y-131.16
X118.02Y-133.192
X118.02Y-135.224
X122.084Y-124.556
X122.084Y-126.334
X125.132Y-97.124
X127.926Y-119.984
X129.196Y-124.302
X129.704Y-89.25
X130.466Y-118.968
X133.514Y-90.774
X133.768Y-97.124
X134.53Y-92.298
X135.038Y-118.968
X136.054Y-86.964
X138.34Y-85.948
X138.34Y-87.726
X147.462Y-126.588
X148.224Y-96.108
X148.986Y-124.81
X150.764Y-124.81
X151.526Y-122.016
X153.304Y-122.016
X156.606Y-125.318
X156.86Y-122.016
X158.638Y-122.016
X163.464Y-129.382
X163.972Y-119.984
X166.766Y-119.984
X167.02Y-131.16
X167.02Y-133.192
X167.02Y-135.224
X171.084Y-124.556
X171.084Y-126.334
X174.132Y-97.124
X176.926Y-119.984
X178.196Y-124.302
X178.704Y-89.25
X179.466Y-118.968
X182.514Y-90.774
X182.768Y-97.124
X183.53Y-92.298
X184.038Y-118.968
X185.054Y-86.964
X187.34Y-85.948
X187.34Y-87.726
T3
X98.7Y-115.7
X98.7Y-119.7
X98.97Y-77.82
X100.494Y-81.122
X100.526Y-102.998
X100.526Y-110.618
X101.256Y-84.17
X101.256Y-91.79
X103.066Y-102.998
X103.066Y-110.618
X103.796Y-84.17
X103.796Y-91.79
X104.2Y-94.7
X104.2Y-99.7
X105.606Y-102.998
X105.606Y-110.618
X106.336Y-84.17
X106.336Y-91.79
X108.146Y-102.998
X108.146Y-110.618
X108.86Y-115.7
X108.86Y-119.7
X108.876Y-84.17
X108.876Y-91.79
X109.13Y-77.82
X110.654Y-81.122
X110.686Y-102.998
X110.686Y-110.618
X113.226Y-102.998
X113.226Y-110.618
X113.7Y-84.08
X113.7Y-91.7
X114.464Y-116.936
X115.766Y-102.998
X115.766Y-110.618
X116.24Y-84.08
X116.24Y-91.7
X118.306Y-102.998
X118.306Y-110.618
X118.78Y-84.08
X118.78Y-91.7
X119.036Y-94.584
X119.036Y-99.584
X119.464Y-116.936
X120.846Y-102.998
X120.846Y-110.618
X121.32Y-84.08
X121.32Y-91.7
X121.7Y-115.7
X122.592Y-94.664
X122.592Y-99.664
X123.386Y-102.998
X123.386Y-110.618
X123.86Y-84.08
X123.86Y-91.7
X125.926Y-102.998
X125.926Y-110.618
X126.4Y-84.08
X126.4Y-91.7
X128.466Y-102.998
X128.466Y-110.618
X128.94Y-84.08
X128.94Y-91.7
X129.958Y-94.664
X129.958Y-99.664
X131.006Y-102.998
X131.006Y-110.618
X131.48Y-84.08
X131.48Y-91.7
X131.86Y-115.7
X133.514Y-94.584
X133.514Y-99.584
X133.546Y-102.998
X133.546Y-110.618
X147.7Y-115.7
X147.7Y-119.7
X147.97Y-77.82
X149.494Y-81.122
X149.526Y-102.998
X149.526Y-110.618
X150.256Y-84.17
X150.256Y-91.79
X152.066Y-102.998
X152.066Y-110.618
X152.796Y-84.17
X152.796Y-91.79
X153.2Y-94.7
X153.2Y-99.7
X154.606Y-102.998
X154.606Y-110.618
X155.336Y-84.17
X155.336Y-91.79
X157.146Y-102.998
X157.146Y-110.618
X157.86Y-115.7
X157.86Y-119.7
X157.876Y-84.17
X157.876Y-91.79
X158.13Y-77.82
X159.654Y-81.122
X159.686Y-102.998
X159.686Y-110.618
X162.226Y-102.998
X162.226Y-110.618
X162.7Y-84.08
X162.7Y-91.7
X163.464Y-116.936
X164.766Y-102.998
X164.766Y-110.618
X165.24Y-84.08
X165.24Y-91.7
X167.306Y-102.998
X167.306Y-110.618
X167.78Y-84.08
X167.78Y-91.7
X168.036Y-94.584
X168.036Y-99.584
X168.464Y-116.936
X169.846Y-102.998
X169.846Y-110.618
X170.32Y-84.08
X170.32Y-91.7
X170.7Y-115.7
X171.592Y-94.664
X171.592Y-99.664
X172.386Y-102.998
X172.386Y-110.618
X172.86Y-84.08
X172.86Y-91.7
X174.926Y-102.998
X174.926Y-110.618
X175.4Y-84.08
X175.4Y-91.7
X177.466Y-102.998
X177.466Y-110.618
X177.94Y-84.08
X177.94Y-91.7
X178.958Y-94.664
X178.958Y-99.664
X180.006Y-102.998
X180.006Y-110.618
X180.48Y-84.08
X180.48Y-91.7
X180.86Y-115.7
X182.514Y-94.584
X182.514Y-99.584
X182.546Y-102.998
X182.546Y-110.618
T4
X94.2Y-90.7
X94.2Y-93.24
X94.2Y-95.78
X94.2Y-98.32
X94.2Y-100.86
X94.2Y-120.7
X94.2Y-123.24
X94.2Y-125.78
X94.2Y-128.32
X102.78Y-68.93
X102.78Y-72.994
X105.32Y-68.93
X105.32Y-72.994
X107.606Y-131.795
X107.606Y-134.335
X107.86Y-68.93
X107.86Y-72.994
X109.3Y-98.1
X109.416Y-125.35
X110.146Y-131.795
X110.146Y-134.335
X110.4Y-68.93
X110.4Y-72.994
X111.956Y-125.35
X112.686Y-131.795
X112.686Y-134.335
X112.94Y-68.93
X112.94Y-72.994
X114.1Y-98.1
X114.496Y-125.35
X115.48Y-68.93
X115.48Y-72.994
X117.036Y-125.35
X118.02Y-68.93
X118.02Y-72.994
X119.576Y-125.35
X120.56Y-68.93
X120.56Y-72.994
X122.084Y-131.668
X122.084Y-134.208
X123.1Y-68.93
X123.1Y-72.994
X124.624Y-131.668
X124.624Y-134.208
X125.64Y-68.93
X125.64Y-72.994
X127.164Y-131.668
X127.164Y-134.208
X128.18Y-68.93
X128.18Y-72.994
X129.704Y-131.668
X129.704Y-134.208
X130.72Y-68.93
X130.72Y-72.994
X139.2Y-90.7
X139.2Y-93.24
X139.2Y-95.78
X139.2Y-98.32
X139.2Y-100.86
X139.2Y-105.54
X139.2Y-108.08
X139.2Y-110.62
X139.2Y-113.16
X139.2Y-115.7
X139.2Y-120.7
X139.2Y-123.24
X139.2Y-125.78
X139.2Y-128.32
X143.2Y-90.7
X143.2Y-93.24
X143.2Y-95.78
X143.2Y-98.32
X143.2Y-100.86
X143.2Y-120.7
X143.2Y-123.24
X143.2Y-125.78
X143.2Y-128.32
X151.78Y-68.93
X151.78Y-72.994
X154.32Y-68.93
X154.32Y-72.994
X156.606Y-131.795
X156.606Y-134.335
X156.86Y-68.93
X156.86Y-72.994
X158.3Y-98.1
X158.416Y-125.35
X159.146Y-131.795
X159.146Y-134.335
X159.4Y-68.93
X159.4Y-72.994
X160.956Y-125.35
X161.686Y-131.795
X161.686Y-134.335
X161.94Y-68.93
X161.94Y-72.994
X163.1Y-98.1
X163.496Y-125.35
X164.48Y-68.93
X164.48Y-72.994
X166.036Y-125.35
X167.02Y-68.93
X167.02Y-72.994
X168.576Y-125.35
X169.56Y-68.93
X169.56Y-72.994
X171.084Y-131.668
X171.084Y-134.208
X172.1Y-68.93
X172.1Y-72.994
X173.624Y-131.668
X173.624Y-134.208
X174.64Y-68.93
X174.64Y-72.994
X176.164Y-131.668
X176.164Y-134.208
X177.18Y-68.93
X177.18Y-72.994
X178.704Y-131.668
X178.704Y-134.208
X179.72Y-68.93
X179.72Y-72.994
X188.2Y-90.7
X188.2Y-93.24
X188.2Y-95.78
X188.2Y-98.32
X188.2Y-100.86
X188.2Y-105.54
X188.2Y-108.08
X188.2Y-110.62
X188.2Y-113.16
X188.2Y-115.7
X188.2Y-120.7
X188.2Y-123.24
X188.2Y-125.78
X188.2Y-128.32
T5
X98.95Y-47.326
X98.95Y-51.826
X98.95Y-56.326
X100.7Y-43.826
X100.7Y-59.826
X104.7Y-42.826
X104.7Y-60.826
X108.7Y-43.826
X108.7Y-59.826
X110.45Y-47.326
X110.45Y-51.826
X110.45Y-56.326
X122.95Y-47.326
X122.95Y-51.826
X122.95Y-56.326
X124.7Y-43.826
X124.7Y-59.826
X128.7Y-42.826
X128.7Y-60.826
X132.7Y-43.826
X132.7Y-59.826
X134.45Y-47.326
X134.45Y-51.826
X134.45Y-56.326
X147.95Y-47.326
X147.95Y-51.826
X147.95Y-56.326
X149.7Y-43.826
X149.7Y-59.826
X153.7Y-42.826
X153.7Y-60.826
X157.7Y-43.826
X157.7Y-59.826
X159.45Y-47.326
X159.45Y-51.826
X159.45Y-56.326
X171.95Y-47.326
X171.95Y-51.826
X171.95Y-56.326
X173.7Y-43.826
X173.7Y-59.826
X177.7Y-42.826
X177.7Y-60.826
X181.7Y-43.826
X181.7Y-59.826
X183.45Y-47.326
X183.45Y-51.826
X183.45Y-56.326
T0
M30
