G04 #@! TF.FileFunction,Legend,Bot*
%FSLAX46Y46*%
G04 Gerber Fmt 4.6, Leading zero omitted, Abs format (unit mm)*
G04 Created by KiCad (PCBNEW 4.0.6) date 11/02/17 15:14:21*
%MOMM*%
%LPD*%
G01*
G04 APERTURE LIST*
%ADD10C,0.100000*%
%ADD11C,0.300000*%
%ADD12C,0.200000*%
G04 APERTURE END LIST*
D10*
D11*
X142418857Y-167918000D02*
X139418857Y-166918000D01*
X142418857Y-165918000D01*
X140561714Y-164917999D02*
X140561714Y-162632285D01*
X139704571Y-159489428D02*
X139561714Y-159632285D01*
X139418857Y-160060856D01*
X139418857Y-160346570D01*
X139561714Y-160775142D01*
X139847429Y-161060856D01*
X140133143Y-161203713D01*
X140704571Y-161346570D01*
X141133143Y-161346570D01*
X141704571Y-161203713D01*
X141990286Y-161060856D01*
X142276000Y-160775142D01*
X142418857Y-160346570D01*
X142418857Y-160060856D01*
X142276000Y-159632285D01*
X142133143Y-159489428D01*
X142418857Y-158203713D02*
X139990286Y-158203713D01*
X139704571Y-158060856D01*
X139561714Y-157917999D01*
X139418857Y-157632285D01*
X139418857Y-157060856D01*
X139561714Y-156775142D01*
X139704571Y-156632285D01*
X139990286Y-156489428D01*
X142418857Y-156489428D01*
X142418857Y-155489428D02*
X142418857Y-153775142D01*
X139418857Y-154632285D02*
X142418857Y-154632285D01*
X139418857Y-150489428D02*
X142418857Y-150489428D01*
X140990286Y-150489428D02*
X140990286Y-148775143D01*
X139418857Y-148775143D02*
X142418857Y-148775143D01*
X140990286Y-147346571D02*
X140990286Y-146346571D01*
X139418857Y-145918000D02*
X139418857Y-147346571D01*
X142418857Y-147346571D01*
X142418857Y-145918000D01*
X139418857Y-142918000D02*
X140847429Y-143918000D01*
X139418857Y-144632285D02*
X142418857Y-144632285D01*
X142418857Y-143489428D01*
X142276000Y-143203714D01*
X142133143Y-143060857D01*
X141847429Y-142918000D01*
X141418857Y-142918000D01*
X141133143Y-143060857D01*
X140990286Y-143203714D01*
X140847429Y-143489428D01*
X140847429Y-144632285D01*
X140990286Y-141632285D02*
X140990286Y-140632285D01*
X139418857Y-140203714D02*
X139418857Y-141632285D01*
X142418857Y-141632285D01*
X142418857Y-140203714D01*
X87576000Y-69075143D02*
X86576000Y-72075143D01*
X85576000Y-69075143D01*
X84575999Y-70932286D02*
X82290285Y-70932286D01*
X79147428Y-71789429D02*
X79290285Y-71932286D01*
X79718856Y-72075143D01*
X80004570Y-72075143D01*
X80433142Y-71932286D01*
X80718856Y-71646571D01*
X80861713Y-71360857D01*
X81004570Y-70789429D01*
X81004570Y-70360857D01*
X80861713Y-69789429D01*
X80718856Y-69503714D01*
X80433142Y-69218000D01*
X80004570Y-69075143D01*
X79718856Y-69075143D01*
X79290285Y-69218000D01*
X79147428Y-69360857D01*
X77861713Y-69075143D02*
X77861713Y-71503714D01*
X77718856Y-71789429D01*
X77575999Y-71932286D01*
X77290285Y-72075143D01*
X76718856Y-72075143D01*
X76433142Y-71932286D01*
X76290285Y-71789429D01*
X76147428Y-71503714D01*
X76147428Y-69075143D01*
X75147428Y-69075143D02*
X73433142Y-69075143D01*
X74290285Y-72075143D02*
X74290285Y-69075143D01*
X70147428Y-72075143D02*
X70147428Y-69075143D01*
X70147428Y-70503714D02*
X68433143Y-70503714D01*
X68433143Y-72075143D02*
X68433143Y-69075143D01*
X67004571Y-70503714D02*
X66004571Y-70503714D01*
X65576000Y-72075143D02*
X67004571Y-72075143D01*
X67004571Y-69075143D01*
X65576000Y-69075143D01*
X62576000Y-72075143D02*
X63576000Y-70646571D01*
X64290285Y-72075143D02*
X64290285Y-69075143D01*
X63147428Y-69075143D01*
X62861714Y-69218000D01*
X62718857Y-69360857D01*
X62576000Y-69646571D01*
X62576000Y-70075143D01*
X62718857Y-70360857D01*
X62861714Y-70503714D01*
X63147428Y-70646571D01*
X64290285Y-70646571D01*
X61290285Y-70503714D02*
X60290285Y-70503714D01*
X59861714Y-72075143D02*
X61290285Y-72075143D01*
X61290285Y-69075143D01*
X59861714Y-69075143D01*
D12*
X141216000Y-35098000D02*
X141216000Y-139238000D01*
X88544000Y-70918000D02*
X194344000Y-70918000D01*
M02*
